<svg xmlns="http://www.w3.org/2000/svg" width="213.019" height="30.431" viewBox="0 0 213.019 30.431"><defs><style>.a{fill:#fff;}</style></defs><g transform="translate(-90 -90)"><g transform="translate(90 90)"><path class="a" d="M583.263,120.3,577.91,102a.187.187,0,0,0-.356-.006l-4.662,14.242a.186.186,0,0,1-.355,0l-3.375-10.96a.186.186,0,0,0-.178-.131h-2.221a.186.186,0,0,1-.186-.186v-3.138a.186.186,0,0,1,.186-.186h4.815a.187.187,0,0,1,.178.132l.883,2.866a.187.187,0,0,0,.355,0l4.748-14.5a.187.187,0,0,1,.356.006l5.066,17.316a.187.187,0,0,0,.359,0l1.567-5.677a.186.186,0,0,1,.18-.137h6.841a.186.186,0,0,1,.187.186v3.138a.187.187,0,0,1-.187.186h-4.165a.186.186,0,0,0-.18.137l-4.145,15.015A.186.186,0,0,1,583.263,120.3Z" transform="translate(-516.219 -90)"/><path class="a" d="M108.443,120.3,103.091,102a.187.187,0,0,0-.356-.006l-4.662,14.242a.187.187,0,0,1-.355,0l-3.375-10.96a.186.186,0,0,0-.178-.131H90.187a.186.186,0,0,1-.187-.186v-3.138a.186.186,0,0,1,.187-.186h6.572a.186.186,0,0,1,.178.132l.883,2.866a.187.187,0,0,0,.355,0l4.748-14.5a.187.187,0,0,1,.356.006l5.066,17.316a.187.187,0,0,0,.359,0l1.567-5.678a.186.186,0,0,1,.18-.137h5.084a.186.186,0,0,1,.186.186v3.138a.186.186,0,0,1-.186.186h-2.408a.186.186,0,0,0-.18.137L108.8,120.294A.187.187,0,0,1,108.443,120.3Z" transform="translate(-90 -90)"/><path class="a" d="M352.638,130.369a11.5,11.5,0,1,1,11.5-11.5A11.516,11.516,0,0,1,352.638,130.369Zm0-20.362a8.859,8.859,0,1,0,8.859,8.859A8.869,8.869,0,0,0,352.638,110.007Z" transform="translate(-314.599 -105.528)"/><path class="a" d="M410.346,170.151h-3.593a.187.187,0,0,1-.187-.186v-3.593a.186.186,0,0,0-.186-.186h-2.271a.186.186,0,0,0-.186.186v3.593a.187.187,0,0,1-.186.186h-3.593a.187.187,0,0,0-.187.187v2.271a.186.186,0,0,0,.187.186h3.593a.187.187,0,0,1,.186.186v3.593a.186.186,0,0,0,.186.186h2.271a.186.186,0,0,0,.186-.186v-3.593a.187.187,0,0,1,.187-.186h3.593a.186.186,0,0,0,.187-.186v-2.271A.187.187,0,0,0,410.346,170.151Z" transform="translate(-367.206 -158.135)"/></g><g transform="translate(169.882 101.633)"><g transform="translate(0 0.32)"><path class="a" d="M848.194,212.307,846,203.117h1.9l1.385,6.313,1.68-6.313h2.207l1.611,6.419,1.411-6.419h1.868l-2.232,9.19h-1.968l-1.83-6.871-1.824,6.871Z" transform="translate(-846 -203.117)"/><path class="a" d="M960.146,227.623a3.6,3.6,0,0,1,.433-1.7,2.969,2.969,0,0,1,1.225-1.254,3.637,3.637,0,0,1,1.771-.432,3.324,3.324,0,0,1,2.476.981,3.391,3.391,0,0,1,.965,2.479,3.43,3.43,0,0,1-.975,2.5,3.294,3.294,0,0,1-2.454.994,3.868,3.868,0,0,1-1.746-.414,2.838,2.838,0,0,1-1.263-1.213A4.042,4.042,0,0,1,960.146,227.623Zm1.805.094a2.205,2.205,0,0,0,.47,1.517,1.537,1.537,0,0,0,2.316,0,2.237,2.237,0,0,0,.467-1.53,2.2,2.2,0,0,0-.467-1.5,1.537,1.537,0,0,0-2.316,0A2.2,2.2,0,0,0,961.952,227.717Z" transform="translate(-948.085 -222.006)"/><path class="a" d="M1027.363,212.307l-2.194-9.19h1.9l1.385,6.313,1.68-6.313h2.206l1.611,6.419,1.411-6.419h1.868l-2.232,9.19h-1.968l-1.831-6.871-1.824,6.871Z" transform="translate(-1006.237 -203.117)"/></g><g transform="translate(35.329 0.32)"><path class="a" d="M1180.356,212.307v-9.19h1.856v3.617h3.636v-3.617h1.855v9.19h-1.855v-4.018h-3.636v4.018Z" transform="translate(-1180.356 -203.117)"/><path class="a" d="M1265.057,228.927l1.755.295a2.88,2.88,0,0,1-1.069,1.47,3.139,3.139,0,0,1-1.827.5,2.978,2.978,0,0,1-2.57-1.135,3.812,3.812,0,0,1-.658-2.294,3.676,3.676,0,0,1,.865-2.592,2.85,2.85,0,0,1,2.188-.937,2.956,2.956,0,0,1,2.345.981,4.343,4.343,0,0,1,.821,3.006h-4.413a1.782,1.782,0,0,0,.426,1.219,1.333,1.333,0,0,0,1.015.436,1.078,1.078,0,0,0,.7-.226A1.391,1.391,0,0,0,1265.057,228.927Zm.1-1.78a1.7,1.7,0,0,0-.4-1.163,1.212,1.212,0,0,0-.915-.4,1.224,1.224,0,0,0-.953.42,1.626,1.626,0,0,0-.37,1.141Z" transform="translate(-1252.2 -222.006)"/><path class="a" d="M1332.136,226.42l-1.6-.288a2.491,2.491,0,0,1,.928-1.429,3.4,3.4,0,0,1,1.956-.464,4.216,4.216,0,0,1,1.755.279,1.75,1.75,0,0,1,.812.708,3.633,3.633,0,0,1,.235,1.577l-.019,2.056a7.129,7.129,0,0,0,.085,1.294,3.757,3.757,0,0,0,.317.893h-1.743q-.069-.175-.169-.52c-.029-.1-.05-.173-.063-.207a3.175,3.175,0,0,1-.965.658,2.766,2.766,0,0,1-1.1.219,2.267,2.267,0,0,1-1.62-.558,1.855,1.855,0,0,1-.593-1.41,1.893,1.893,0,0,1,.27-1.006,1.76,1.76,0,0,1,.755-.677,5.907,5.907,0,0,1,1.4-.411,9.572,9.572,0,0,0,1.712-.433v-.176a.911.911,0,0,0-.251-.724,1.5,1.5,0,0,0-.947-.216,1.262,1.262,0,0,0-.734.185A1.284,1.284,0,0,0,1332.136,226.42Zm2.357,1.429a10.99,10.99,0,0,1-1.072.27,3.227,3.227,0,0,0-.959.307.734.734,0,0,0-.345.621.864.864,0,0,0,.276.639.963.963,0,0,0,.7.27,1.525,1.525,0,0,0,.909-.313,1.1,1.1,0,0,0,.42-.583,3.468,3.468,0,0,0,.069-.859Z" transform="translate(-1314.506 -222.006)"/><path class="a" d="M1400.305,212.307v-9.19h1.762v9.19Z" transform="translate(-1377.064 -203.117)"/><path class="a" d="M1431.556,205.765v1.4h-1.2v2.683a6.723,6.723,0,0,0,.034.95.388.388,0,0,0,.157.223.5.5,0,0,0,.3.088,2.278,2.278,0,0,0,.708-.169l.15,1.367a3.5,3.5,0,0,1-1.391.263,2.207,2.207,0,0,1-.859-.16,1.253,1.253,0,0,1-.561-.414,1.632,1.632,0,0,1-.247-.686,8.5,8.5,0,0,1-.056-1.241v-2.9h-.809v-1.4h.809v-1.323l1.767-1.028v2.351Z" transform="translate(-1401.632 -203.383)"/><path class="a" d="M1477.476,203.117V206.5a2.64,2.64,0,0,1,3.135-.771,1.794,1.794,0,0,1,.736.577,2.093,2.093,0,0,1,.339.777,7,7,0,0,1,.09,1.323v3.905h-1.761V208.79a5.2,5.2,0,0,0-.1-1.329.872.872,0,0,0-.354-.448,1.142,1.142,0,0,0-.636-.166,1.461,1.461,0,0,0-.784.213,1.23,1.23,0,0,0-.5.643,3.837,3.837,0,0,0-.16,1.269v3.335h-1.762v-9.19Z" transform="translate(-1444.506 -203.117)"/></g><g transform="translate(77.004 0)"><path class="a" d="M1574.762,206.448l1.805-.176a2.2,2.2,0,0,0,.662,1.335,2,2,0,0,0,1.345.426,2.066,2.066,0,0,0,1.351-.379,1.128,1.128,0,0,0,.454-.887.837.837,0,0,0-.191-.555,1.529,1.529,0,0,0-.668-.4q-.326-.113-1.486-.4a5.039,5.039,0,0,1-2.094-.909,2.391,2.391,0,0,1-.846-1.849,2.359,2.359,0,0,1,.4-1.313,2.492,2.492,0,0,1,1.147-.931,4.6,4.6,0,0,1,1.809-.32,3.88,3.88,0,0,1,2.6.759,2.679,2.679,0,0,1,.918,2.025l-1.856.081a1.577,1.577,0,0,0-.511-1.019,1.87,1.87,0,0,0-1.175-.31,2.122,2.122,0,0,0-1.267.332.67.67,0,0,0-.295.571.706.706,0,0,0,.276.558,4.879,4.879,0,0,0,1.705.614,9.005,9.005,0,0,1,2,.661,2.584,2.584,0,0,1,1.016.934,2.891,2.891,0,0,1-.072,2.943,2.628,2.628,0,0,1-1.241,1.025,5.207,5.207,0,0,1-2,.335,3.982,3.982,0,0,1-2.677-.805A3.5,3.5,0,0,1,1574.762,206.448Z" transform="translate(-1574.762 -200.091)"/><path class="a" d="M1656.28,227.623a3.6,3.6,0,0,1,.433-1.7,2.966,2.966,0,0,1,1.225-1.254,3.637,3.637,0,0,1,1.771-.432,3.325,3.325,0,0,1,2.476.981,3.39,3.39,0,0,1,.965,2.479,3.43,3.43,0,0,1-.975,2.5,3.294,3.294,0,0,1-2.454.994,3.867,3.867,0,0,1-1.746-.414,2.837,2.837,0,0,1-1.263-1.213A4.039,4.039,0,0,1,1656.28,227.623Zm1.805.094a2.207,2.207,0,0,0,.47,1.517,1.537,1.537,0,0,0,2.316,0,2.237,2.237,0,0,0,.467-1.53,2.2,2.2,0,0,0-.467-1.5,1.537,1.537,0,0,0-2.316,0A2.207,2.207,0,0,0,1658.085,227.717Z" transform="translate(-1647.667 -221.687)"/><path class="a" d="M1732.1,212.307v-9.19h1.761v9.19Z" transform="translate(-1715.478 -202.797)"/><path class="a" d="M1763.993,232.319v-1a2.563,2.563,0,0,1-.956.84,2.681,2.681,0,0,1-1.25.307,2.445,2.445,0,0,1-1.2-.295,1.737,1.737,0,0,1-.771-.827,3.689,3.689,0,0,1-.239-1.473v-4.213h1.761v3.059a8.49,8.49,0,0,0,.1,1.721.938.938,0,0,0,.355.5,1.086,1.086,0,0,0,.652.185,1.384,1.384,0,0,0,.808-.248,1.262,1.262,0,0,0,.49-.614,7.143,7.143,0,0,0,.131-1.8v-2.808h1.761v6.657Z" transform="translate(-1740.046 -222.96)"/><path class="a" d="M1831.465,205.765v1.4h-1.2v2.683a6.662,6.662,0,0,0,.035.95.385.385,0,0,0,.156.223.5.5,0,0,0,.3.088,2.278,2.278,0,0,0,.708-.169l.151,1.367a3.5,3.5,0,0,1-1.392.263,2.2,2.2,0,0,1-.858-.16,1.255,1.255,0,0,1-.562-.414,1.638,1.638,0,0,1-.247-.686,8.5,8.5,0,0,1-.056-1.241v-2.9h-.809v-1.4h.809v-1.323l1.768-1.028v2.351Z" transform="translate(-1800.96 -203.063)"/><path class="a" d="M1875.624,204.747v-1.63h1.762v1.63Zm0,7.56V205.65h1.762v6.657Z" transform="translate(-1843.833 -202.797)"/><path class="a" d="M1903.095,227.623a3.6,3.6,0,0,1,.432-1.7,2.969,2.969,0,0,1,1.226-1.254,3.637,3.637,0,0,1,1.771-.432,3.323,3.323,0,0,1,2.476.981,3.389,3.389,0,0,1,.966,2.479,3.43,3.43,0,0,1-.975,2.5,3.294,3.294,0,0,1-2.454.994,3.866,3.866,0,0,1-1.746-.414,2.84,2.84,0,0,1-1.264-1.213A4.044,4.044,0,0,1,1903.095,227.623Zm1.806.094a2.2,2.2,0,0,0,.47,1.517,1.537,1.537,0,0,0,2.316,0,2.238,2.238,0,0,0,.467-1.53,2.2,2.2,0,0,0-.467-1.5,1.537,1.537,0,0,0-2.316,0A2.2,2.2,0,0,0,1904.9,227.717Z" transform="translate(-1868.402 -221.687)"/><path class="a" d="M1984.986,232.47h-1.761v-3.4a5.255,5.255,0,0,0-.113-1.395.98.98,0,0,0-.367-.492,1.048,1.048,0,0,0-.611-.175,1.415,1.415,0,0,0-.821.251,1.264,1.264,0,0,0-.5.665,5.744,5.744,0,0,0-.135,1.53v3.015h-1.761v-6.658h1.636v.978a2.728,2.728,0,0,1,3.26-.918,1.788,1.788,0,0,1,.73.536,1.949,1.949,0,0,1,.345.74,5.546,5.546,0,0,1,.1,1.185Z" transform="translate(-1936.213 -222.96)"/><path class="a" d="M2047.147,229.146l1.767-.27a1.3,1.3,0,0,0,.458.78,1.549,1.549,0,0,0,.966.266,1.744,1.744,0,0,0,1.028-.251.56.56,0,0,0,.232-.47.465.465,0,0,0-.125-.332,1.406,1.406,0,0,0-.589-.232,9.491,9.491,0,0,1-2.7-.859,1.715,1.715,0,0,1-.79-1.5,1.846,1.846,0,0,1,.683-1.454,3.19,3.19,0,0,1,2.118-.589,3.7,3.7,0,0,1,2.031.445,2.276,2.276,0,0,1,.916,1.316l-1.661.307a1.028,1.028,0,0,0-.4-.6,1.477,1.477,0,0,0-.849-.207,1.913,1.913,0,0,0-1,.194.418.418,0,0,0-.2.357.39.39,0,0,0,.175.32,6.624,6.624,0,0,0,1.646.5,4.893,4.893,0,0,1,1.965.784,1.628,1.628,0,0,1,.552,1.31,2.01,2.01,0,0,1-.765,1.573,3.387,3.387,0,0,1-2.263.658,3.712,3.712,0,0,1-2.153-.552A2.541,2.541,0,0,1,2047.147,229.146Z" transform="translate(-1997.233 -221.687)"/></g></g></g></svg>