<svg xmlns="http://www.w3.org/2000/svg" width="82" height="82" viewBox="0 0 82 82"><defs><style>.a{fill:#fff;stroke:#524456;}.b{fill:#524456;}.c{stroke:none;}.d{fill:none;}</style></defs><g transform="translate(-726 -378)"><g transform="translate(726 378)"><g class="a" transform="translate(0 0)"><circle class="c" cx="41" cy="41" r="41"/><circle class="d" cx="41" cy="41" r="40.5"/></g></g><g transform="translate(746.12 405.284)"><path class="b" d="M43.575,19.018a2.312,2.312,0,0,1,2.339,2.338v4.85a5.954,5.954,0,0,0,0,11.65v4.849a2.312,2.312,0,0,1-2.339,2.339H9.552a2.312,2.312,0,0,1-2.339-2.339V37.853a5.954,5.954,0,0,0,0-11.65V21.356a2.311,2.311,0,0,1,2.339-2.338ZM9.552,16.989a4.378,4.378,0,0,0-4.367,4.367v5.6a1.013,1.013,0,0,0,.936,1.011,4.069,4.069,0,0,1,0,8.119A1.015,1.015,0,0,0,5.185,37.1v5.606a4.38,4.38,0,0,0,4.367,4.368H43.575a4.383,4.383,0,0,0,4.368-4.368V37.1a1.013,1.013,0,0,0-.937-1.009,4.077,4.077,0,0,1-3.789-4.059v0a4.077,4.077,0,0,1,3.789-4.057,1.013,1.013,0,0,0,.937-1.009V21.356a4.381,4.381,0,0,0-4.368-4.367Z" transform="translate(-5.185 -16.989)"/><path class="b" d="M44.808,33.7a1.023,1.023,0,0,0-.7.306L33.948,44.11a1.015,1.015,0,1,0,1.431,1.439l10.157-10.1A1.014,1.014,0,0,0,44.808,33.7Z" transform="translate(-18.365 -24.738)"/><path class="b" d="M35.816,35.855a1.415,1.415,0,0,1-2.015-.009,1.391,1.391,0,0,1-.006-2,1.416,1.416,0,0,1,2.015,0A1.4,1.4,0,0,1,35.816,35.855ZM32.36,32.419a3.437,3.437,0,0,0,0,4.859,3.482,3.482,0,0,0,4.886.009,3.442,3.442,0,0,0,0-4.864A3.486,3.486,0,0,0,32.36,32.419Z" transform="translate(-17.318 -23.679)"/><path class="b" d="M50.317,50.281a1.418,1.418,0,0,1-2.017-.006,1.4,1.4,0,0,1,0-2,1.411,1.411,0,0,1,2.012.005A1.4,1.4,0,0,1,50.317,50.281ZM46.86,46.842a3.438,3.438,0,0,0,0,4.86,3.485,3.485,0,0,0,4.889.006,3.44,3.44,0,0,0-.008-4.862A3.485,3.485,0,0,0,46.86,46.842Z" transform="translate(-24.039 -30.366)"/></g></g></svg>