<svg xmlns="http://www.w3.org/2000/svg" width="14.033" height="18.419" viewBox="0 0 14.033 18.419"><defs><style>.a{fill:#524456;}</style></defs><path class="a" d="M16.279,7.14H15.4V5.385a4.385,4.385,0,0,0-8.771,0V7.14H5.754A1.759,1.759,0,0,0,4,8.894v8.771a1.759,1.759,0,0,0,1.754,1.754H16.279a1.759,1.759,0,0,0,1.754-1.754V8.894A1.759,1.759,0,0,0,16.279,7.14Zm-5.262,7.894a1.754,1.754,0,1,1,1.754-1.754A1.759,1.759,0,0,1,11.017,15.033ZM13.736,7.14H8.3V5.385a2.719,2.719,0,0,1,5.438,0Z" transform="translate(-4 -1)"/></svg>