<svg xmlns="http://www.w3.org/2000/svg" width="41" height="41" viewBox="0 0 41 41">
  <g id="Group_25461" data-name="Group 25461" transform="translate(-1176 -200)">
    <circle id="Ellipse_635" data-name="Ellipse 635" cx="20.5" cy="20.5" r="20.5" transform="translate(1176 200)" fill="#f6e4f8" opacity="0.45"/>
    <g id="member-card_1_" data-name="member-card (1)" transform="translate(1173.812 184.587)">
      <path id="Path_10876" data-name="Path 10876" d="M34.451,26.708H11.378a3.407,3.407,0,0,0-3.4,3.4v13a3.407,3.407,0,0,0,3.4,3.4H34.451a3.407,3.407,0,0,0,3.4-3.4v-13A3.407,3.407,0,0,0,34.451,26.708Zm2.473,16.406a2.476,2.476,0,0,1-2.473,2.473H11.378A2.476,2.476,0,0,1,8.9,43.114v-13a2.476,2.476,0,0,1,2.473-2.473H34.451a2.476,2.476,0,0,1,2.473,2.473Z" transform="translate(0 0)" fill="#855b8a"/>
      <path id="Path_10877" data-name="Path 10877" d="M27.109,62.529H25.793a4.42,4.42,0,0,0-4.415,4.416v2.168a.465.465,0,0,0,.465.465h9.216a.465.465,0,0,0,.465-.465V66.945A4.421,4.421,0,0,0,27.109,62.529Zm3.486,6.119H22.308v-1.7a3.49,3.49,0,0,1,3.484-3.486h1.316a3.49,3.49,0,0,1,3.486,3.486Z" transform="translate(-9.843 -26.307)" fill="#855b8a"/>
      <path id="Path_10878" data-name="Path 10878" d="M32,43.718A3.067,3.067,0,1,0,28.93,40.65,3.067,3.067,0,0,0,32,43.718Zm0-5.206A2.138,2.138,0,1,1,29.86,40.65,2.138,2.138,0,0,1,32,38.512Z" transform="translate(-15.389 -7.987)" fill="#855b8a"/>
      <path id="Path_10879" data-name="Path 10879" d="M76.029,43.012h5.833a.465.465,0,0,0,0-.93H76.029a.465.465,0,0,0,0,.93Z" transform="translate(-49.638 -11.291)" fill="#855b8a"/>
      <path id="Path_10880" data-name="Path 10880" d="M80.006,56H71.44a.465.465,0,1,0,0,.93h8.567a.465.465,0,0,0,0-.93Z" transform="translate(-46.267 -21.512)" fill="#855b8a"/>
      <path id="Path_10881" data-name="Path 10881" d="M80.006,66.543H71.44a.465.465,0,1,0,0,.93h8.567a.465.465,0,0,0,0-.93Z" transform="translate(-46.267 -29.255)" fill="#855b8a"/>
      <path id="Path_10882" data-name="Path 10882" d="M80.006,77.087H71.44a.465.465,0,1,0,0,.93h8.567a.465.465,0,0,0,0-.93Z" transform="translate(-46.267 -36.999)" fill="#855b8a"/>
    </g>
  </g>
</svg>
