<svg xmlns="http://www.w3.org/2000/svg" width="70" height="70" viewBox="0 0 70 70"><defs><style>.a{fill:#fff;stroke:#524456;}.b{fill:#606060;}.c{stroke:none;}.d{fill:none;}</style></defs><g transform="translate(0 0)"><g class="a" transform="translate(0 0)"><circle class="c" cx="35" cy="35" r="35"/><circle class="d" cx="35" cy="35" r="34.5"/></g><g transform="translate(24.84 23.058)"><g transform="translate(0 0)"><path class="b" d="M19.284,39.029a9.866,9.866,0,0,0-19.2,0,2.609,2.609,0,0,0,.5,2.227A2.7,2.7,0,0,0,2.7,42.278H16.656a2.687,2.687,0,0,0,2.12-1.027A2.6,2.6,0,0,0,19.284,39.029Z" transform="translate(-0.012 -19.068)"/><path class="b" d="M16.506,10.472A5.236,5.236,0,1,0,11.27,5.236h0A5.24,5.24,0,0,0,16.506,10.472Z" transform="translate(-6.841 0)"/></g></g></g></svg>