<svg xmlns="http://www.w3.org/2000/svg" width="82" height="82" viewBox="0 0 82 82"><defs><style>.a{fill:#fff;stroke:#524456;}.b{fill:#675b6a;}.c{stroke:none;}.d{fill:none;}</style></defs><g transform="translate(-289.5 -267)"><g transform="translate(-222.5 46)"><g transform="translate(512 221)"><g class="a"><circle class="c" cx="41" cy="41" r="41"/><circle class="d" cx="41" cy="41" r="40.5"/></g></g></g><g transform="translate(282.637 -154.334)"><rect class="b" width="17.269" height="1.57" transform="translate(32.873 455.681)"/><rect class="b" width="17.269" height="1.57" transform="translate(32.873 464.736)"/><rect class="b" width="17.269" height="1.57" transform="translate(32.873 447.831)"/><path class="b" d="M183.645,51.988l-1.4-1.489-1.9,1.791,3.426,3.641,4.878-5.873-2.01-1.669Z" transform="translate(-128.197 396.355)"/><path class="b" d="M183.645,101.988l-1.4-1.489-1.9,1.791,3.426,3.641,4.878-5.873-2.01-1.669Z" transform="translate(-128.197 354.521)"/><path class="b" d="M183.645,151.988l-1.4-1.489-1.9,1.791,3.426,3.641,4.878-5.873-2.01-1.669Z" transform="translate(-128.197 312.687)"/><rect class="b" width="17.269" height="1.57" transform="translate(32.873 472.949)"/><path class="b" d="M183.645,201.988l-1.4-1.489-1.9,1.791,3.426,3.641,4.878-5.873-2.01-1.669Z" transform="translate(-128.197 270.852)"/><path class="b" d="M71.225,3.756A3.756,3.756,0,0,0,67.469,0H37.256A3.756,3.756,0,0,0,33.5,3.756V44.911a3.756,3.756,0,0,0,3.756,3.756H67.469a3.756,3.756,0,0,0,3.756-3.756ZM68.612,44.911a1.143,1.143,0,0,1-1.143,1.143H37.256a1.143,1.143,0,0,1-1.143-1.143V3.756a1.143,1.143,0,0,1,1.143-1.143H67.469a1.143,1.143,0,0,1,1.143,1.143Z" transform="translate(-5.5 438)"/></g></g></svg>