<svg xmlns="http://www.w3.org/2000/svg" width="82" height="82" viewBox="0 0 82 82"><defs><style>.a{fill:#fff;stroke:#524456;}.b{fill:#524456;}.c{stroke:none;}.d{fill:none;}</style></defs><g transform="translate(-638 -418)"><g class="a" transform="translate(638 418)"><circle class="c" cx="41" cy="41" r="41"/><circle class="d" cx="41" cy="41" r="40.5"/></g><g transform="translate(659.867 442.6)"><g transform="translate(0 0)"><g transform="translate(0)"><path class="b" d="M58.861,71.283H34.282c-3.267,0-6.534.026-9.809,0a.864.864,0,0,1-.938-.895c-.009-.487,0-.982,0-1.468V54.141c0-1.347-.07-2.711,0-4.057.061-1.1,1.46-.851,2.259-.851H58.357a2.45,2.45,0,0,1,.843.061c.573.243.513.817.513,1.338V70.058c-.017.6-.122,1.208-.851,1.225-1.112.035-1.121,1.772,0,1.738a2.637,2.637,0,0,0,2.572-2.763V50.7a3.353,3.353,0,0,0-.478-2.111c-.93-1.286-2.424-1.095-3.8-1.095H34.994c-3.493,0-6.977-.017-10.469,0a2.648,2.648,0,0,0-2.676,2,7.706,7.706,0,0,0-.052,1.486v6.447c0,4.318-.043,8.636,0,12.954a2.618,2.618,0,0,0,2.589,2.641c.278.009.565,0,.843,0H58.861A.869.869,0,0,0,58.861,71.283Z" transform="translate(-21.778 -47.484)"/></g></g><g transform="translate(0.013 13.845)"><g transform="translate(0)"><path class="b" d="M22.766,208.594H56.041c1.538,0,3.084.052,4.613,0h.069a.869.869,0,0,0,0-1.738H27.449c-1.538,0-3.084-.052-4.613,0h-.07a.869.869,0,0,0,0,1.738Z" transform="translate(-21.925 -206.833)"/></g></g><g transform="translate(0.013 18.727)"><g transform="translate(0 0)"><path class="b" d="M22.766,264.794H56.041c1.538,0,3.084.052,4.613,0h.069a.869.869,0,0,0,0-1.738H27.449c-1.538,0-3.084-.052-4.613,0h-.07a.869.869,0,0,0,0,1.738Z" transform="translate(-21.925 -263.033)"/></g></g><g transform="translate(11.47 23.827)"><g transform="translate(0)"><path class="b" d="M153.8,322.566v9.653a.872.872,0,0,0,1.3.747l6.751-4.223c.322-.2.643-.4.964-.608h-.878q3.18,2.111,6.351,4.223c.3.2.608.408.912.608a.872.872,0,0,0,1.3-.747v-9.653a.869.869,0,0,0-1.738,0v9.653c.434-.252.869-.5,1.3-.747q-3.18-2.111-6.351-4.222c-.3-.2-.608-.408-.912-.608a.859.859,0,0,0-.877,0l-6.751,4.222c-.321.2-.643.4-.964.608.434.252.869.5,1.3.747v-9.653a.86.86,0,0,0-1.72,0Z" transform="translate(-153.8 -321.725)"/></g></g></g></g></svg>