<svg xmlns="http://www.w3.org/2000/svg" width="32" height="32" viewBox="0 0 32 32"><defs><style>.a{fill:none;}.b{fill:#a1a1a1;}</style></defs><g transform="translate(-1116 -397)"><rect class="a" width="32" height="32" transform="translate(1116 397)"/><g transform="translate(1118 318.667)"><g transform="translate(0 85.333)"><g transform="translate(0 0)"><path class="b" d="M25.205,85.333H2.931A2.935,2.935,0,0,0,0,88.264v12.9a2.935,2.935,0,0,0,2.931,2.931H25.205a2.935,2.935,0,0,0,2.931-2.931v-12.9A2.935,2.935,0,0,0,25.205,85.333Zm1.758,15.826a1.761,1.761,0,0,1-1.758,1.758H2.931a1.761,1.761,0,0,1-1.758-1.758v-12.9a1.761,1.761,0,0,1,1.758-1.758H25.205a1.761,1.761,0,0,1,1.758,1.758v12.9Z" transform="translate(0 -85.333)"/></g></g><g transform="translate(0 88.85)"><path class="b" d="M27.55,149.333H.586a.586.586,0,0,0-.586.586v3.517a.586.586,0,0,0,.586.586H27.55a.586.586,0,0,0,.586-.586v-3.517A.586.586,0,0,0,27.55,149.333Zm-.586,3.517H1.172v-2.345H26.964v2.345Z" transform="translate(0 -149.333)"/></g><g transform="translate(3.517 97.056)"><path class="b" d="M71.62,298.667H64.586a.586.586,0,1,0,0,1.172H71.62a.586.586,0,1,0,0-1.172Z" transform="translate(-64 -298.667)"/></g><g transform="translate(3.517 99.401)"><path class="b" d="M71.62,341.333H64.586a.586.586,0,0,0,0,1.172H71.62a.586.586,0,0,0,0-1.172Z" transform="translate(-64 -341.333)"/></g><g transform="translate(19.93 95.884)"><path class="b" d="M365.6,277.333h-1.172a1.761,1.761,0,0,0-1.758,1.759v1.172a1.761,1.761,0,0,0,1.758,1.759H365.6a1.761,1.761,0,0,0,1.759-1.759v-1.172A1.761,1.761,0,0,0,365.6,277.333Zm.586,2.931a.586.586,0,0,1-.586.586h-1.172a.586.586,0,0,1-.586-.586v-1.172a.586.586,0,0,1,.586-.586H365.6a.586.586,0,0,1,.586.586Z" transform="translate(-362.667 -277.333)"/></g></g></g></svg>