<svg xmlns="http://www.w3.org/2000/svg" width="32" height="32" viewBox="0 0 32 32"><defs><style>.a{fill:#fff;}.b{fill:#a1a1a1;}</style></defs><g transform="translate(-1117 -445)"><rect class="a" width="32" height="32" transform="translate(1117 445)"/><g transform="translate(1124 452)"><path class="b" d="M18.129,42.718H.863a.863.863,0,1,0,0,1.726H18.128a.863.863,0,1,0,0-1.726Z" transform="translate(0 -25.465)"/><path class="b" d="M3.532,24.438a.863.863,0,1,0,0,1.726H18.639a.863.863,0,1,0,0-1.726h-.215V16.673h.215a.431.431,0,1,0,0-.862H3.532a.431.431,0,1,0,0,.862h.216v7.764H3.532ZM16.7,16.673v7.764h-2.59V16.673Zm-4.317,0v7.764H9.791V16.673Zm-6.906,0h2.59v7.764H5.474Z" transform="translate(-1.59 -9.428)"/><path class="b" d="M.863,5.619H18.137a.863.863,0,0,0,.28-1.679L9.851.087a.866.866,0,0,0-.708,0L.509,3.969A.863.863,0,0,0,.863,5.619Z" transform="translate(0 -0.012)"/></g></g></svg>