<svg xmlns="http://www.w3.org/2000/svg" width="35" height="34.979" viewBox="0 0 35 34.979"><defs><style>.a{fill:#524456;}</style></defs><path class="a" d="M33.395,42.718H1.591a1.59,1.59,0,1,0,0,3.181h31.8a1.59,1.59,0,0,0,0-3.181Z" transform="translate(0 -10.92)"/><path class="a" d="M4.26,31.71a1.591,1.591,0,0,0,0,3.182H32.088a1.591,1.591,0,0,0,0-3.182h-.4V17.4h.4a.794.794,0,1,0,0-1.589H4.26a.794.794,0,1,0,0,1.589h.4V31.71h-.4ZM28.51,17.4V31.71h-4.77V17.4Zm-7.952,0V31.71h-4.77V17.4Zm-12.721,0h4.77V31.71H7.837Z" transform="translate(-0.681 -4.047)"/><path class="a" d="M1.591,10.346H33.409a1.591,1.591,0,0,0,.516-3.1L18.146.151a1.594,1.594,0,0,0-1.3,0L.938,7.306a1.59,1.59,0,0,0,.652,3.04Z" transform="translate(0 -0.012)"/></svg>