<svg xmlns="http://www.w3.org/2000/svg" width="45.999" height="45.999" viewBox="0 0 45.999 45.999"><defs><style>.a{fill:none;}.b{fill:#524456;}</style></defs><path class="a" d="M37.375,46H8.625A8.624,8.624,0,0,1,0,37.375V8.625A8.624,8.624,0,0,1,8.625,0h28.75A8.624,8.624,0,0,1,46,8.625v28.75A8.624,8.624,0,0,1,37.375,46Z"/><g transform="translate(4.911 5.216)"><g transform="translate(0 0)"><path class="b" d="M159.692,149h4.064v-3.25a3.253,3.253,0,0,0-3.25-3.25H158.88V139.25a3.253,3.253,0,0,0-3.25-3.25H132.876a4.87,4.87,0,0,0-4.793,4.061,1.529,1.529,0,0,0-.083.407v24.786a4.881,4.881,0,0,0,4.876,4.876H160.5a3.253,3.253,0,0,0,3.25-3.25v-3.25h-4.061a7.315,7.315,0,0,1,0-14.629Zm-14.627,13.8v1.238a1.219,1.219,0,0,1-2.438,0v-1.219h-.812v1.219a1.219,1.219,0,0,1-2.438,0v-1.219h-.407a1.219,1.219,0,0,1-1.219-1.219V152.66a1.219,1.219,0,0,1,1.219-1.219h.407v-1.219a1.219,1.219,0,0,1,2.438,0v1.219h.812v-1.219a1.219,1.219,0,0,1,2.438,0v1.387A3.415,3.415,0,0,1,147,156.668a3.431,3.431,0,0,1-1.933,6.129Zm-12.189-20.3a1.626,1.626,0,1,1,0-3.252h22.752v3.25H132.876Z" transform="translate(-128 -136)"/><g transform="translate(26.816 15.439)"><path class="b" d="M314.97,237.328h-6.095a4.876,4.876,0,0,0,0,9.751h6.095a1.219,1.219,0,0,0,1.219-1.219v-7.313A1.219,1.219,0,0,0,314.97,237.328Zm-6.095,6.5A1.626,1.626,0,1,1,310.5,242.2,1.627,1.627,0,0,1,308.876,243.83Z" transform="translate(-304 -237.328)"/></g></g><rect class="b" width="21.58" height="19.182" transform="translate(2.718 11.09)"/></g></svg>