<svg xmlns="http://www.w3.org/2000/svg" width="47.03" height="47.03" viewBox="0 0 47.03 47.03"><defs><style>.a{fill:none;}.b,.d{fill:#524456;}.c,.d{stroke:none;}</style></defs><g transform="translate(-1467 -1526)"><g class="a" transform="translate(1467 1526)"><path class="c" d="M23.515,0A23.515,23.515,0,1,1,0,23.515,23.515,23.515,0,0,1,23.515,0Z"/><path class="d" d="M 23.51499938964844 1 C 20.47505950927734 1 17.52656936645508 1.595149993896484 14.75146102905273 2.768928527832031 C 12.07049942016602 3.902877807617188 9.662548065185547 5.52642822265625 7.594490051269531 7.594490051269531 C 5.52642822265625 9.662548065185547 3.902877807617188 12.07049942016602 2.768928527832031 14.75146102905273 C 1.595149993896484 17.52656936645508 1 20.47505950927734 1 23.51499938964844 C 1 26.55493927001953 1.595149993896484 29.5034294128418 2.768928527832031 32.27854156494141 C 3.902877807617188 34.95949935913086 5.52642822265625 37.36745071411133 7.594490051269531 39.43550872802734 C 9.662548065185547 41.50357055664063 12.07049942016602 43.12712097167969 14.75146102905273 44.26107025146484 C 17.52656936645508 45.43484878540039 20.47505950927734 46.02999877929688 23.51499938964844 46.02999877929688 C 26.55493927001953 46.02999877929688 29.5034294128418 45.43484878540039 32.27854156494141 44.26107025146484 C 34.95949935913086 43.12712097167969 37.36745071411133 41.50357055664063 39.43550872802734 39.43550872802734 C 41.50357055664063 37.36745071411133 43.12712097167969 34.95949935913086 44.26107025146484 32.27854156494141 C 45.43484878540039 29.5034294128418 46.02999877929688 26.55493927001953 46.02999877929688 23.51499938964844 C 46.02999877929688 20.47505950927734 45.43484878540039 17.52656936645508 44.26107025146484 14.75146102905273 C 43.12712097167969 12.07049942016602 41.50357055664063 9.662548065185547 39.43550872802734 7.594490051269531 C 37.36745071411133 5.52642822265625 34.95949935913086 3.902877807617188 32.27854156494141 2.768928527832031 C 29.5034294128418 1.595149993896484 26.55493927001953 1 23.51499938964844 1 M 23.51499938964844 0 C 36.50196838378906 0 47.02999877929688 10.52803039550781 47.02999877929688 23.51499938964844 C 47.02999877929688 36.50196838378906 36.50196838378906 47.02999877929688 23.51499938964844 47.02999877929688 C 10.52803039550781 47.02999877929688 0 36.50196838378906 0 23.51499938964844 C 0 10.52803039550781 10.52803039550781 0 23.51499938964844 0 Z"/></g><g transform="translate(1477.828 1538.803)"><g transform="translate(0 0)"><path class="b" d="M14.981,9.789H9.114A.711.711,0,0,1,8.4,9.075V7.014A.711.711,0,0,1,9.114,6.3h5.868a.711.711,0,0,1,.714.714V9.075A.711.711,0,0,1,14.981,9.789Z" transform="translate(-5.466 -6.3)"/><g transform="translate(0 4.282)"><path class="b" d="M14.163,22.571H1c.159-2.5,1.744-4.48,3.766-4.758V17.1h5.551v.714C12.418,18.091,13.964,20.073,14.163,22.571Z" transform="translate(-1 -17.1)"/><path class="b" d="M1,32.9v5.828H14.163V32.9Zm7.85,3.449H7.978V37.5a.4.4,0,0,1-.793,0v-1.15H6.313a.4.4,0,0,1,0-.793h.872v-1.15a.4.4,0,0,1,.793,0v1.15H8.85a.375.375,0,0,1,.4.4A.4.4,0,0,1,8.85,36.349Z" transform="translate(-1 -26.636)"/><path class="b" d="M1,49.6v.595c0,1.863,1.269,3.41,2.815,3.41h7.533a3.148,3.148,0,0,0,2.815-3.41V49.6Z" transform="translate(-1 -36.715)"/></g></g><g transform="translate(14.63 2.379)"><circle class="b" cx="0.515" cy="0.515" r="0.515" transform="translate(2.775 2.379)"/><circle class="b" cx="0.515" cy="0.515" r="0.515" transform="translate(6.978 15.343)"/><circle class="b" cx="0.515" cy="0.515" r="0.515" transform="translate(2.775 5.63)"/><circle class="b" cx="0.515" cy="0.515" r="0.515" transform="translate(2.775 8.881)"/><circle class="b" cx="0.515" cy="0.515" r="0.515" transform="translate(2.775 12.132)"/><circle class="b" cx="0.515" cy="0.515" r="0.515" transform="translate(6.978 12.132)"/><circle class="b" cx="0.515" cy="0.515" r="0.515" transform="translate(2.775 15.343)"/><circle class="b" cx="0.515" cy="0.515" r="0.515" transform="translate(6.978 5.63)"/><path class="b" d="M47.177,12.3H39.407A1.506,1.506,0,0,0,37.9,13.807V29.626a1.506,1.506,0,0,0,1.507,1.507h7.731a1.506,1.506,0,0,0,1.507-1.507V13.767A1.464,1.464,0,0,0,47.177,12.3ZM41.191,29.467A1.308,1.308,0,1,1,42.5,28.159,1.32,1.32,0,0,1,41.191,29.467Zm0-3.251A1.308,1.308,0,1,1,42.5,24.908,1.32,1.32,0,0,1,41.191,26.216Zm0-3.211A1.308,1.308,0,1,1,42.5,21.7,1.32,1.32,0,0,1,41.191,23Zm0-3.251A1.308,1.308,0,1,1,42.5,18.445,1.32,1.32,0,0,1,41.191,19.754Zm0-3.251A1.308,1.308,0,1,1,42.5,15.194,1.32,1.32,0,0,1,41.191,16.5Zm4.2,12.964A1.308,1.308,0,1,1,46.7,28.159,1.32,1.32,0,0,1,45.393,29.467Zm0-3.251A1.308,1.308,0,1,1,46.7,24.908,1.32,1.32,0,0,1,45.393,26.216Zm0-3.211A1.308,1.308,0,1,1,46.7,21.7,1.32,1.32,0,0,1,45.393,23Zm0-3.251A1.308,1.308,0,1,1,46.7,18.445,1.32,1.32,0,0,1,45.393,19.754Zm0-3.251A1.308,1.308,0,1,1,46.7,15.194,1.32,1.32,0,0,1,45.393,16.5Z" transform="translate(-37.9 -12.3)"/><circle class="b" cx="0.515" cy="0.515" r="0.515" transform="translate(6.978 8.881)"/><circle class="b" cx="0.515" cy="0.515" r="0.515" transform="translate(6.978 2.379)"/></g></g></g></svg>