<svg xmlns="http://www.w3.org/2000/svg" width="47.03" height="47.03" viewBox="0 0 47.03 47.03"><defs><style>.a,.d{fill:#524456;}.b{fill:none;}.c,.d{stroke:none;}</style></defs><g transform="translate(-1023 -1519)"><path class="a" d="M27.851,30.729a.548.548,0,0,1-.233.058.447.447,0,0,1-.436-.436,4.253,4.253,0,0,1-.378-.262.469.469,0,0,1,.087.262.436.436,0,1,1-.436-.436c.058,0,.116.029.174.029a4.623,4.623,0,0,1-1.076-1.308H17.006a.436.436,0,0,1,0-.872h8.14a4.562,4.562,0,0,1-.262-1.25H17.006a.436.436,0,0,1,0-.872h7.879a5.6,5.6,0,0,1,.262-1.25h-8.14a.436.436,0,1,1,0-.872h8.547a5.082,5.082,0,0,1,4.39-2.529V12.326A2.333,2.333,0,0,0,27.618,10H14.826A2.333,2.333,0,0,0,12.5,12.326V30.933a2.333,2.333,0,0,0,2.326,2.326H27.618a2.355,2.355,0,0,0,2.326-2.093A5,5,0,0,1,27.851,30.729ZM17.588,16.774H20.2V14.157h2.035v2.617h2.617v2.035H22.239v2.617H20.2V18.809H17.588ZM15.843,30.787a.436.436,0,1,1,.436-.436A.447.447,0,0,1,15.843,30.787Zm0-2.122a.436.436,0,1,1,.436-.436A.447.447,0,0,1,15.843,28.665Zm0-2.151a.436.436,0,1,1,.436-.436A.447.447,0,0,1,15.843,26.514Zm0-2.122a.436.436,0,1,1,.436-.436A.447.447,0,0,1,15.843,24.391Zm6.978,6.4H17.006a.436.436,0,0,1,0-.872h5.815a.436.436,0,1,1,0,.872Zm1.308,0a.436.436,0,1,1,.436-.436A.447.447,0,0,1,24.129,30.787Zm1.163,0a.436.436,0,1,1,.436-.436A.447.447,0,0,1,25.292,30.787Zm4.652-9.071A4.361,4.361,0,1,0,34.3,26.077,4.355,4.355,0,0,0,29.944,21.716Zm0,3.954A1.368,1.368,0,0,1,31.4,26.862a1.259,1.259,0,0,1-1.018,1.163v.116a.407.407,0,0,1-.814,0v-.116a1.259,1.259,0,0,1-1.018-1.163.407.407,0,1,1,.814,0c0,.174.262.378.611.378s.611-.2.611-.378-.262-.378-.611-.378a1.368,1.368,0,0,1-1.454-1.192,1.259,1.259,0,0,1,1.018-1.163v-.116a.407.407,0,0,1,.814,0v.116a1.259,1.259,0,0,1,1.018,1.163.407.407,0,1,1-.814,0c0-.174-.262-.378-.611-.378s-.611.2-.611.378S29.595,25.67,29.944,25.67Z" transform="translate(1023.326 1520.971)"/><g class="b" transform="translate(1023 1519)"><path class="c" d="M23.515,0A23.515,23.515,0,1,1,0,23.515,23.515,23.515,0,0,1,23.515,0Z"/><path class="d" d="M 23.51499938964844 1 C 20.47505950927734 1 17.52656936645508 1.595149993896484 14.75146102905273 2.768928527832031 C 12.07049942016602 3.902877807617188 9.662548065185547 5.52642822265625 7.594490051269531 7.594490051269531 C 5.52642822265625 9.662548065185547 3.902877807617188 12.07049942016602 2.768928527832031 14.75146102905273 C 1.595149993896484 17.52656936645508 1 20.47505950927734 1 23.51499938964844 C 1 26.55493927001953 1.595149993896484 29.5034294128418 2.768928527832031 32.27854156494141 C 3.902877807617188 34.95949935913086 5.52642822265625 37.36745071411133 7.594490051269531 39.43550872802734 C 9.662548065185547 41.50357055664063 12.07049942016602 43.12712097167969 14.75146102905273 44.26107025146484 C 17.52656936645508 45.43484878540039 20.47505950927734 46.02999877929688 23.51499938964844 46.02999877929688 C 26.55493927001953 46.02999877929688 29.5034294128418 45.43484878540039 32.27854156494141 44.26107025146484 C 34.95949935913086 43.12712097167969 37.36745071411133 41.50357055664063 39.43550872802734 39.43550872802734 C 41.50357055664063 37.36745071411133 43.12712097167969 34.95949935913086 44.26107025146484 32.27854156494141 C 45.43484878540039 29.5034294128418 46.02999877929688 26.55493927001953 46.02999877929688 23.51499938964844 C 46.02999877929688 20.47505950927734 45.43484878540039 17.52656936645508 44.26107025146484 14.75146102905273 C 43.12712097167969 12.07049942016602 41.50357055664063 9.662548065185547 39.43550872802734 7.594490051269531 C 37.36745071411133 5.52642822265625 34.95949935913086 3.902877807617188 32.27854156494141 2.768928527832031 C 29.5034294128418 1.595149993896484 26.55493927001953 1 23.51499938964844 1 M 23.51499938964844 0 C 36.50196838378906 0 47.02999877929688 10.52803039550781 47.02999877929688 23.51499938964844 C 47.02999877929688 36.50196838378906 36.50196838378906 47.02999877929688 23.51499938964844 47.02999877929688 C 10.52803039550781 47.02999877929688 0 36.50196838378906 0 23.51499938964844 C 0 10.52803039550781 10.52803039550781 0 23.51499938964844 0 Z"/></g></g></svg>