<svg xmlns="http://www.w3.org/2000/svg" width="11.1" height="13" viewBox="0 0 11.1 13"><defs><style>.a{fill:#606;}.b{fill:#fff;font-size:9px;font-family:OpenSans-SemiBold, Open Sans;font-weight:600;}.c,.d{stroke:none;}.d{fill:#606;}</style></defs><g transform="translate(-2.45 -3)"><g class="a" transform="translate(2.45 4.297)"><path class="c" d="M 5.550048828125 10.60009860992432 C 2.765438795089722 10.60009860992432 0.4999988377094269 8.334658622741699 0.4999988377094269 5.550048828125 C 0.4999988377094269 2.765438795089722 2.765438795089722 0.4999988377094269 5.550048828125 0.4999988377094269 C 8.334658622741699 0.4999988377094269 10.60009860992432 2.765438795089722 10.60009860992432 5.550048828125 C 10.60009860992432 8.334658622741699 8.334658622741699 10.60009860992432 5.550048828125 10.60009860992432 Z"/><path class="d" d="M 5.550048828125 0.9999990463256836 C 3.041138648986816 0.9999990463256836 0.9999990463256836 3.041138648986816 0.9999990463256836 5.550048828125 C 0.9999990463256836 8.058959007263184 3.041138648986816 10.10009860992432 5.550048828125 10.10009860992432 C 8.058959007263184 10.10009860992432 10.10009860992432 8.058959007263184 10.10009860992432 5.550048828125 C 10.10009860992432 3.041138648986816 8.058959007263184 0.9999990463256836 5.550048828125 0.9999990463256836 M 5.550048828125 -9.5367431640625e-07 C 8.615259170532227 -9.5367431640625e-07 11.10009860992432 2.484838485717773 11.10009860992432 5.550048828125 C 11.10009860992432 8.615259170532227 8.615259170532227 11.10009860992432 5.550048828125 11.10009860992432 C 2.484838485717773 11.10009860992432 -9.5367431640625e-07 8.615259170532227 -9.5367431640625e-07 5.550048828125 C -9.5367431640625e-07 2.484838485717773 2.484838485717773 -9.5367431640625e-07 5.550048828125 -9.5367431640625e-07 Z"/></g><text class="b" transform="translate(7 13)"><tspan x="0" y="0">i</tspan></text></g></svg>