<svg xmlns="http://www.w3.org/2000/svg" width="43.543" height="14.065" viewBox="0 0 43.543 14.065"><defs><style>.a{fill:#1a1f71;}</style></defs><path class="a" d="M33.918,23.92H30.682c-.131-.6-.247-1.176-.363-1.771-.044-.2-.116-.261-.319-.261-1.335.015-2.685.015-4.02,0a.294.294,0,0,0-.334.232c-.189.552-.377,1.089-.6,1.64a.281.281,0,0,1-.2.16c-1.147.015-2.293,0-3.44,0-.029,0-.044-.015-.087-.015.218-.508.421-1.016.624-1.524,1.539-3.658,3.063-7.33,4.6-10.987a1.6,1.6,0,0,1,1.611-1.074h2.685c.174,0,.247.029.29.218.9,4.369,1.829,8.738,2.729,13.106A2.361,2.361,0,0,1,33.918,23.92Zm-5.3-9.826h-.044c-.61,1.669-1.2,3.324-1.814,5.007h2.9Q29.143,16.576,28.621,14.094Z" transform="translate(9.624 -10.077)"/><path class="a" d="M9.173,19.566c.131-.334.247-.624.363-.9,1.074-2.7,2.134-5.4,3.208-8.113a.3.3,0,0,1,.334-.232c1.06.015,2.134,0,3.193,0h.261a3.013,3.013,0,0,1-.116.29c-1.829,4.369-3.672,8.752-5.486,13.121a.286.286,0,0,1-.3.2c-1.1-.015-2.192-.015-3.295,0-.174,0-.232-.044-.276-.218Q5.661,18.339,4.282,12.962A1.654,1.654,0,0,0,3.324,11.8,16.171,16.171,0,0,0,.16,10.755.378.378,0,0,1,0,10.712c.029-.116.044-.232.073-.377H5.951A1.628,1.628,0,0,1,7.693,11.8c.464,2.5.943,4.978,1.408,7.475C9.115,19.348,9.144,19.42,9.173,19.566Z" transform="translate(0 -10.077)"/><path class="a" d="M14.52,23.516c.218-1,.421-1.974.639-2.975.131.058.261.1.377.16a6.807,6.807,0,0,0,3.672.653,2.431,2.431,0,0,0,1.176-.406,1.008,1.008,0,0,0,.131-1.669,9.624,9.624,0,0,0-1.2-.8c-.639-.392-1.321-.726-1.916-1.161a3.465,3.465,0,0,1-.61-5.051,5.214,5.214,0,0,1,3.033-1.858,9.094,9.094,0,0,1,5.24.29c.044.015.087.044.16.073-.2.943-.406,1.887-.61,2.859-.087-.029-.174-.058-.247-.087a6.733,6.733,0,0,0-3.063-.523,2.214,2.214,0,0,0-1.234.421.856.856,0,0,0-.029,1.451c.421.319.914.566,1.379.856.61.377,1.248.711,1.829,1.132a3.35,3.35,0,0,1,1.234,3.7,4.358,4.358,0,0,1-2.932,3.121,8.932,8.932,0,0,1-4.049.464,10,10,0,0,1-2.525-.508A3.277,3.277,0,0,1,14.52,23.516Z" transform="translate(6.555 -10.153)"/><path class="a" d="M16.845,10.33c-.131.624-.247,1.2-.377,1.785-.813,3.832-1.64,7.664-2.453,11.5-.058.261-.145.334-.406.319-.958-.015-1.916,0-2.874,0h-.3c.073-.377.145-.74.232-1.1.784-3.672,1.568-7.359,2.366-11.031.087-.435.189-.871.29-1.292.015-.073.1-.174.16-.174Z" transform="translate(4.708 -10.073)"/></svg>