<svg xmlns="http://www.w3.org/2000/svg" width="24.03" height="31" viewBox="0 0 24.03 31"><defs><style>.a{fill:#fff;}</style></defs><g transform="translate(-28 -438)"><rect class="a" width="11" height="1" transform="translate(31.104 449.262)"/><rect class="a" width="11" height="1" transform="translate(31.104 455.031)"/><rect class="a" width="11" height="1" transform="translate(31.104 444.262)"/><path class="a" d="M182.446,50.682l-.893-.949-1.212,1.141,2.182,2.319,3.107-3.741-1.28-1.063Z" transform="translate(-136.962 393.907)"/><path class="a" d="M182.446,100.682l-.893-.949-1.212,1.141,2.182,2.319,3.107-3.741-1.28-1.063Z" transform="translate(-136.962 349.108)"/><path class="a" d="M182.446,150.682l-.893-.949-1.212,1.141,2.182,2.32,3.107-3.741-1.28-1.063Z" transform="translate(-136.962 304.31)"/><rect class="a" width="11" height="1" transform="translate(31.104 460.262)"/><path class="a" d="M182.446,200.682l-.893-.949-1.212,1.141,2.182,2.319,3.107-3.741-1.28-1.063Z" transform="translate(-136.962 259.511)"/><path class="a" d="M57.53,2.393A2.393,2.393,0,0,0,55.138,0H35.893A2.393,2.393,0,0,0,33.5,2.393V28.608A2.393,2.393,0,0,0,35.893,31H55.138a2.393,2.393,0,0,0,2.393-2.393ZM55.866,28.608a.728.728,0,0,1-.728.728H35.893a.728.728,0,0,1-.728-.728V2.393a.728.728,0,0,1,.728-.728H55.138a.728.728,0,0,1,.728.728Z" transform="translate(-5.5 438)"/></g></svg>