<svg xmlns="http://www.w3.org/2000/svg" width="25" height="22.407" viewBox="0 0 25 22.407"><defs><style>.a{fill:#fff;}</style></defs><path class="a" d="M45.37,59.787l-1.715,1.692-.6-.59a.56.56,0,0,0-.758,0,.542.542,0,0,0,0,.748l.957.944a.535.535,0,0,0,.758,0l2.093-2.066a.542.542,0,0,0,0-.748A.556.556,0,0,0,45.37,59.787Z" transform="translate(-34.006 -49.302)"/><ellipse class="a" cx="0.957" cy="0.944" rx="0.957" ry="0.944" transform="translate(18.281 6.492)"/><ellipse class="a" cx="0.957" cy="0.944" rx="0.957" ry="0.944" transform="translate(13.776 6.492)"/><ellipse class="a" cx="0.957" cy="0.944" rx="0.957" ry="0.944" transform="translate(9.25 6.492)"/><ellipse class="a" cx="0.957" cy="0.944" rx="0.957" ry="0.944" transform="translate(4.745 6.492)"/><ellipse class="a" cx="0.957" cy="0.944" rx="0.957" ry="0.944" transform="translate(18.281 10.938)"/><ellipse class="a" cx="0.957" cy="0.944" rx="0.957" ry="0.944" transform="translate(13.776 10.938)"/><ellipse class="a" cx="0.957" cy="0.944" rx="0.957" ry="0.944" transform="translate(4.745 10.938)"/><ellipse class="a" cx="0.957" cy="0.944" rx="0.957" ry="0.944" transform="translate(18.281 15.404)"/><ellipse class="a" cx="0.957" cy="0.944" rx="0.957" ry="0.944" transform="translate(13.776 15.404)"/><ellipse class="a" cx="0.957" cy="0.944" rx="0.957" ry="0.944" transform="translate(9.25 15.404)"/><ellipse class="a" cx="0.957" cy="0.944" rx="0.957" ry="0.944" transform="translate(4.745 15.404)"/><path class="a" d="M23.908,8.516H20.4V8.123a1.037,1.037,0,0,0-2.073,0v.393H14.837V8.123A1.023,1.023,0,0,0,13.8,7.1h0a1.035,1.035,0,0,0-1.037,1.023v.393H9.274V8.123a1.037,1.037,0,0,0-2.073,0v.393H3.692A2.384,2.384,0,0,0,1.3,10.877V27.146a2.384,2.384,0,0,0,2.392,2.361H23.908A2.384,2.384,0,0,0,26.3,27.146V10.877A2.384,2.384,0,0,0,23.908,8.516Zm.3,18.63a.3.3,0,0,1-.3.3H3.692a.3.3,0,0,1-.3-.3V10.877a.3.3,0,0,1,.3-.3H7.181v.393a1.037,1.037,0,0,0,2.073,0v-.393h3.489v.393A1.023,1.023,0,0,0,13.78,12h0a1.035,1.035,0,0,0,1.037-1.023v-.393h3.489v.393a1.037,1.037,0,0,0,2.073,0v-.393h3.489a.3.3,0,0,1,.3.3V27.146Z" transform="translate(-1.3 -7.1)"/></svg>