<svg xmlns="http://www.w3.org/2000/svg" width="35.535" height="25.23" viewBox="0 0 35.535 25.23"><defs><style>.a{fill:#fff;stroke:#fff;stroke-width:0.5px;}</style></defs><g transform="translate(0.25 0.25)"><g transform="translate(10.989 6.594)"><path class="a" d="M38.559,34.381V30.533a4,4,0,0,0-2.1-3.32,5.4,5.4,0,1,0-8.913.033A3.992,3.992,0,0,0,25.5,30.533v3.848h1.1V30.533a2.98,2.98,0,0,1,1.665-2.446,5.381,5.381,0,0,0,2.581,1.386L29.721,34.95,32.031,36.8,34.34,34.95,33.2,29.457a5.383,5.383,0,0,0,2.553-1.4,2.994,2.994,0,0,1,1.713,2.473v3.848h1.1Zm-6.528,1.013-1.1-.88.924-4.5h.338l.938,4.506Zm-.04-6.892A4.337,4.337,0,1,1,36.3,24.165,4.326,4.326,0,0,1,31.991,28.5Z" transform="translate(-25.502 -18.731)"/></g><g transform="translate(21.979)"><path class="a" d="M38.559,34.381V30.533a4,4,0,0,0-2.1-3.32,5.4,5.4,0,1,0-8.913.033A3.992,3.992,0,0,0,25.5,30.533v3.848h1.1V30.533a2.98,2.98,0,0,1,1.665-2.446,5.381,5.381,0,0,0,2.581,1.386L29.721,34.95,32.031,36.8,34.34,34.95,33.2,29.457a5.383,5.383,0,0,0,2.553-1.4,2.994,2.994,0,0,1,1.713,2.473v3.848h1.1Zm-6.528,1.013-1.1-.88.924-4.5h.338l.938,4.506Zm-.04-6.892A4.337,4.337,0,1,1,36.3,24.165,4.326,4.326,0,0,1,31.991,28.5Z" transform="translate(-25.502 -18.731)"/></g><path class="a" d="M38.559,34.381V30.533a4,4,0,0,0-2.1-3.32,5.4,5.4,0,1,0-8.913.033A3.992,3.992,0,0,0,25.5,30.533v3.848h1.1V30.533a2.98,2.98,0,0,1,1.665-2.446,5.381,5.381,0,0,0,2.581,1.386L29.721,34.95,32.031,36.8,34.34,34.95,33.2,29.457a5.383,5.383,0,0,0,2.553-1.4,2.994,2.994,0,0,1,1.713,2.473v3.848h1.1Zm-6.528,1.013-1.1-.88.924-4.5h.338l.938,4.506Zm-.04-6.892A4.337,4.337,0,1,1,36.3,24.165,4.326,4.326,0,0,1,31.991,28.5Z" transform="translate(-25.502 -18.731)"/></g></svg>