<svg xmlns="http://www.w3.org/2000/svg" width="25.965" height="25.138" viewBox="0 0 25.965 25.138"><defs><style>.a{fill:#fff;}</style></defs><g transform="translate(0 0)"><path class="a" d="M25.644,12.061,13.756.33A1.1,1.1,0,0,0,12.964,0h0a1.112,1.112,0,0,0-.779.317L.354,12.017a1.123,1.123,0,0,0-.119,1.5,1.111,1.111,0,0,0,1.549.154,1.065,1.065,0,0,0,.085-.076l1.184-1.169v8.155a4.589,4.589,0,0,0,4.619,4.558H18.283A4.588,4.588,0,0,0,22.9,20.581V12.43L24.086,13.6a1.115,1.115,0,0,0,1.559,0,1.076,1.076,0,0,0,0-1.536ZM15.619,20.572H10.335a.875.875,0,0,1-.881-.869V17.288A3.572,3.572,0,0,1,12.744,13.7a3.506,3.506,0,0,1,3.748,3.238c.006.08.008.159.008.238v2.533A.875.875,0,0,1,15.619,20.572Z" transform="translate(-0.003 0)"/></g></svg>