<svg xmlns="http://www.w3.org/2000/svg" width="21.101" height="24.617" viewBox="0 0 21.101 24.617"><defs><style>.a{fill:#fff;}</style></defs><g transform="translate(-1129 -5567)"><path class="a" d="M22.55,34.617a1.32,1.32,0,0,1-.517-.106C21.625,34.338,12,30.146,12,21.524V14.459a1.318,1.318,0,0,1,.9-1.248l9.231-3.14a1.32,1.32,0,0,1,.848,0l9.232,3.14a1.318,1.318,0,0,1,.9,1.248v7.065c0,8.621-9.625,12.813-10.033,12.989A1.35,1.35,0,0,1,22.55,34.617ZM14.638,15.4v6.119c0,5.861,6.077,9.384,7.913,10.313,1.836-.928,7.913-4.452,7.913-10.313V15.4L22.55,12.711Z" transform="translate(1117 5557)"/><path class="a" d="M19.835,23.671a1.309,1.309,0,0,1-.932-.387l-3.517-3.517A1.319,1.319,0,1,1,17.252,17.9l2.442,2.442,4.361-5.817a1.319,1.319,0,0,1,2.108,1.584l-5.275,7.034a1.317,1.317,0,0,1-.962.524l-.091,0Z" transform="translate(1119.275 5560.033)"/></g></svg>