<svg xmlns="http://www.w3.org/2000/svg" width="53.057" height="21.223" viewBox="0 0 53.057 21.223"><defs><style>.a{fill:#fff;}</style></defs><g transform="translate(-114.242 -269.897)"><g transform="translate(114.242 269.897)"><g transform="translate(0 0)"><path class="a" d="M578.213,111.129,574.48,98.37a.13.13,0,0,0-.248,0l-3.251,9.932a.13.13,0,0,1-.248,0l-2.354-7.643a.13.13,0,0,0-.124-.092h-1.549a.13.13,0,0,1-.13-.13V98.243a.13.13,0,0,1,.13-.13h3.358a.13.13,0,0,1,.124.092l.616,2a.13.13,0,0,0,.248,0l3.312-10.116a.13.13,0,0,1,.248,0l3.533,12.076a.13.13,0,0,0,.25,0l1.093-3.959a.13.13,0,0,1,.125-.1h4.771a.13.13,0,0,1,.13.13v2.188a.13.13,0,0,1-.13.13h-2.9a.13.13,0,0,0-.125.1l-2.89,10.472A.13.13,0,0,1,578.213,111.129Z" transform="translate(-531.457 -90)"/><path class="a" d="M102.863,111.129,99.13,98.37a.13.13,0,0,0-.248,0L95.63,108.3a.13.13,0,0,1-.248,0l-2.354-7.643a.13.13,0,0,0-.124-.092H90.13a.13.13,0,0,1-.13-.13V98.243a.13.13,0,0,1,.13-.13h4.583a.13.13,0,0,1,.124.092l.616,2a.13.13,0,0,0,.248,0L99.012,90.09a.13.13,0,0,1,.248,0l3.533,12.076a.13.13,0,0,0,.25,0l1.093-3.96a.13.13,0,0,1,.125-.1h3.545a.13.13,0,0,1,.13.13v2.188a.13.13,0,0,1-.13.13h-1.68a.13.13,0,0,0-.125.1l-2.89,10.471A.13.13,0,0,1,102.863,111.129Z" transform="translate(-90 -90)"/><path class="a" d="M349.157,123.408a8.022,8.022,0,1,1,8.022-8.022A8.031,8.031,0,0,1,349.157,123.408Zm0-14.2a6.179,6.179,0,1,0,6.179,6.178A6.185,6.185,0,0,0,349.157,109.207Z" transform="translate(-322.629 -106.084)"/></g><path class="a" d="M407.2,168.951H404.7a.13.13,0,0,1-.13-.13v-2.506a.13.13,0,0,0-.13-.13h-1.584a.13.13,0,0,0-.13.13v2.506a.13.13,0,0,1-.13.13h-2.506a.13.13,0,0,0-.13.13v1.584a.13.13,0,0,0,.13.13h2.506a.13.13,0,0,1,.13.13v2.506a.13.13,0,0,0,.13.13h1.584a.13.13,0,0,0,.13-.13v-2.506a.13.13,0,0,1,.13-.13H407.2a.13.13,0,0,0,.13-.13v-1.584A.13.13,0,0,0,407.2,168.951Z" transform="translate(-377.116 -160.571)"/></g></g></svg>