<svg xmlns="http://www.w3.org/2000/svg" width="25" height="21.916" viewBox="0 0 25 21.916"><defs><style>.a{fill:#fff;}</style></defs><g transform="translate(-35 -279)"><g transform="translate(34.1 272)"><path class="a" d="M21.848,10.542H18.28v-.484A3.067,3.067,0,0,0,15.222,7H11.6a3.067,3.067,0,0,0-3.058,3.058v.459H4.977A4.089,4.089,0,0,0,.9,14.594V24.839a4.089,4.089,0,0,0,4.077,4.077H21.822A4.089,4.089,0,0,0,25.9,24.839V14.62A4.035,4.035,0,0,0,21.848,10.542ZM18.79,12.581v14.3H8.035v-14.3Zm-8.206-2.523A1.022,1.022,0,0,1,11.6,9.039h3.619a1.022,1.022,0,0,1,1.019,1.019v.459H10.584ZM2.939,24.839V14.62a2.045,2.045,0,0,1,2.039-2.039H6v14.3H4.977A2.045,2.045,0,0,1,2.939,24.839Zm20.948,0a2.045,2.045,0,0,1-2.039,2.039H20.828v-14.3h1.019a2.045,2.045,0,0,1,2.039,2.039Z" transform="translate(0 0)"/></g><path class="a" d="M31.082,30.285H29.63V28.762a.727.727,0,1,0-1.452,0v1.523H26.726a.762.762,0,0,0,0,1.523h1.452v1.523a.727.727,0,1,0,1.452,0V31.808h1.452a.762.762,0,0,0,0-1.523Z" transform="translate(19 261)"/></g></svg>