<svg xmlns="http://www.w3.org/2000/svg" width="25" height="24.656" viewBox="0 0 25 24.656"><defs><style>.a{fill:#fff;}</style></defs><path class="a" d="M29.316,43.491,27.8,39.8a.4.4,0,0,0-.451-.239L25.136,40a10.61,10.61,0,0,0-1.741-1.754l.48-2.176a.4.4,0,0,0-.238-.453L19.92,34.057a.406.406,0,0,0-.5.147l-1.253,1.853a10.438,10.438,0,0,0-2.491-.02l-1.209-1.877a.406.406,0,0,0-.492-.155l-3.732,1.487a.4.4,0,0,0-.242.449l.439,2.187a10.318,10.318,0,0,0-1.777,1.718l-2.217-.473A.4.4,0,0,0,6,39.609L4.419,43.269a.4.4,0,0,0,.149.485l1.878,1.241a10,10,0,0,0-.024,2.454l-1.9,1.193a.4.4,0,0,0-.153.481l1.507,3.691a.4.4,0,0,0,.451.239l2.221-.434a10.315,10.315,0,0,0,1.741,1.77l-.48,2.176a.4.4,0,0,0,.238.453l3.708,1.555a.406.406,0,0,0,.492-.147l1.241-1.853a10.4,10.4,0,0,0,2.487,0l1.209,1.877a.412.412,0,0,0,.492.155l3.736-1.487a.4.4,0,0,0,.246-.449l-.439-2.187a10.293,10.293,0,0,0,1.773-1.718l2.209.473A.4.4,0,0,0,27.655,53l1.576-3.659a.4.4,0,0,0-.145-.485l-1.878-1.241a10.2,10.2,0,0,0,.02-2.454l1.9-1.193A.4.4,0,0,0,29.316,43.491Zm-6.485,5.17a6.521,6.521,0,0,1-8.5,3.41l-.031-.013a6.388,6.388,0,0,1-3.441-8.419,6.538,6.538,0,0,1,8.532-3.4A6.388,6.388,0,0,1,22.83,48.662Z" transform="translate(-4.338 -33.976)"/></svg>