<svg xmlns="http://www.w3.org/2000/svg" width="25.585" height="28.008" viewBox="0 0 25.585 28.008"><defs><style>.a{fill:#fff;}</style></defs><path class="a" d="M24.394,22.128a5.2,5.2,0,1,0-5.2,5.128A5.169,5.169,0,0,0,24.394,22.128Zm-8.795,0a3.6,3.6,0,1,1,3.6,3.55A3.579,3.579,0,0,1,15.6,22.128Z" transform="translate(-14 -13.45)"/><path class="a" d="M38.2,26.307a5.169,5.169,0,0,0,5.2-5.128,5.076,5.076,0,0,0-1.466-3.569l.618-1.684a.777.777,0,0,0,.048-.269c0-1.77-1.932-3.156-4.4-3.156s-4.4,1.386-4.4,3.156a.792.792,0,0,0,.048.269l.619,1.683A5.077,5.077,0,0,0,33,21.178,5.169,5.169,0,0,0,38.2,26.307Zm-2.046-8.745-.744-2.021c.11-.714,1.224-1.463,2.79-1.463s2.68.75,2.79,1.463l-.742,2.021a.783.783,0,0,0,.242.877,3.525,3.525,0,0,1,1.308,2.738,3.6,3.6,0,0,1-7.2,0,3.522,3.522,0,0,1,1.31-2.739A.783.783,0,0,0,36.151,17.562Z" transform="translate(-17.809 -12.5)"/><path class="a" d="M37.9,17.972h.8v.789a.4.4,0,0,0,.8,0v-.789h.8a.395.395,0,1,0,0-.789h-.8v-.789a.4.4,0,0,0-.8,0v.789h-.8a.395.395,0,1,0,0,.789Z" transform="translate(-18.711 -13.239)"/><g transform="translate(0 16.962)"><path class="a" d="M43.394,38.734A4.771,4.771,0,0,0,38.6,34h-.8A4.771,4.771,0,0,0,33,38.734v3.945H43.394Z" transform="translate(-17.809 -34)"/><path class="a" d="M43.241,47.578c.05-.043.1-.081.153-.125V46H33v1.578Z" transform="translate(-17.809 -36.533)"/><path class="a" d="M19.905,37.156c1.231,0,2.237-1.385,2.371-3.156H17.534C17.668,35.77,18.674,37.156,19.905,37.156Z" transform="translate(-14.709 -34)"/><path class="a" d="M24.394,45.056V36.377a2.374,2.374,0,0,0-2.015-2.328c-.148,2.01-1.311,3.618-2.782,3.868v.9a1.2,1.2,0,1,1-.8,0v-.9c-1.471-.25-2.634-1.858-2.782-3.868A2.374,2.374,0,0,0,14,36.377v8.575c.041.036.085.068.126.1Z" transform="translate(-14 -34.01)"/><ellipse class="a" cx="0.4" cy="0.394" rx="0.4" ry="0.394" transform="translate(4.797 5.523)"/></g></svg>