<svg xmlns="http://www.w3.org/2000/svg" xmlns:xlink="http://www.w3.org/1999/xlink" width="24" height="24" viewBox="0 0 24 24"><defs><style>.a{fill:#fefefe;}.b{fill:url(#a);}</style><radialGradient id="a" cx="0.206" cy="0.187" r="1.05" gradientTransform="translate(0.003) scale(0.994 1)" gradientUnits="objectBoundingBox"><stop offset="0" stop-color="#9bd4f5"/><stop offset="0.183" stop-color="#7abee8"/><stop offset="0.424" stop-color="#55a5d9"/><stop offset="0.648" stop-color="#3a93ce"/><stop offset="0.847" stop-color="#2a88c7"/><stop offset="1" stop-color="#2484c5"/></radialGradient></defs><path class="a" d="M117,24.01H105.056c-.048,0-.056-.008-.056-.056V.066c0-.048.008-.056.056-.056h23.888c.048,0,.056.008.056.056V23.954c0,.048-.008.056-.056.056Z" transform="translate(-105 -0.01)"/><path class="a" d="M105.777,13.612c-.016-.016-.008-.04-.008-.056V12.268a.222.222,0,0,1,.008-.072.09.09,0,0,1,.008-.064c.088-.2.176-.4.256-.6.088-.184.16-.368.24-.552.064-.136.12-.28.184-.416.064-.152.032-.136.2-.136h1.448a.118.118,0,0,1,.12.064c.056.1.1.216.152.312v-.288c0-.072.024-.088.1-.088h1.777a.272.272,0,0,1,.08.008c.04.024.048.064.064.1l.072.168c.1.224.2.448.3.664.04-.1.088-.2.128-.3.072-.184.16-.36.232-.544.032-.088.04-.1.136-.1h5.97c.08-.008.16.016.248.016a.609.609,0,0,1,.168.024.9.9,0,0,1,.248.08.7.7,0,0,0,.08.048c.016.008.032.032.048.024s.008-.032.016-.056v-.024c0-.1.008-.1.1-.1h1.536c.064,0,.08.016.088.08v.008c0,.112,0,.1.1.064a1.6,1.6,0,0,1,.464-.128,6.049,6.049,0,0,1,.76-.04h1.416c.232,0,.456-.008.688,0a.057.057,0,0,1,.048.024,2.9,2.9,0,0,1,.2.384c0,.008,0,.008-.008.008h.008v-.3c0-.088.016-.1.1-.1h1.633a.134.134,0,0,1,.136.08c.056.1.112.2.168.3v-.3c0-.04.008-.072.048-.088.136-.008.264,0,.4-.008H127.2c.072,0,.08.016.088.088v3.577c0,.064-.016.08-.08.08h-1.657a.1.1,0,0,1-.1-.056c-.1-.16-.192-.312-.28-.472,0-.008-.008,0-.008,0h.008a.1.1,0,0,1,.008.048v.392c0,.064-.016.08-.08.08h-2.081a.114.114,0,0,1-.12-.08c-.032-.088-.072-.176-.1-.264-.024-.056-.048-.12-.072-.176s-.04-.064-.1-.064h-.392a.079.079,0,0,0-.088.064c-.064.144-.128.288-.184.44a.134.134,0,0,1-.144.1c-.16-.008-.312,0-.472,0a5.351,5.351,0,0,1-1.072-.048c-.016,0-.032-.008-.056-.008a1.793,1.793,0,0,1-.4-.128c-.056-.024-.056-.024-.056.032,0,.152,0,.152-.16.152h-2.521c-.1,0-.1-.016-.1-.1v-.792a.086.086,0,0,0-.136-.064.061.061,0,0,0-.016.072v.8a.221.221,0,0,1-.008.072l-.016.016a1.639,1.639,0,0,1-.28.008h-4.89c-.032-.008-.064.008-.1-.008a.057.057,0,0,1-.024-.048V13.78c-.032.072-.064.144-.1.224-.016.032-.024.064-.04.1a.1.1,0,0,1-.12.072h-.944a.132.132,0,0,1-.144-.1c-.032-.088-.072-.168-.1-.256-.008-.024-.024-.048-.016-.072.008.1.008.208.008.312s-.008.1-.1.1H107.97a.1.1,0,0,1-.1-.072l-.072-.168c-.032-.1-.08-.192-.12-.3a.077.077,0,0,0-.072-.048h-.424a.077.077,0,0,0-.072.048c-.008.024-.024.04-.032.064-.032.072-.064.136-.088.208a1.132,1.132,0,0,1-.064.144c-.024.032-.016.08-.064.088h-1.016c-.048,0-.072-.008-.072-.064.008-.128,0-.248,0-.376,0-.048.016-.064.064-.064h.568c.024,0,.048.008.064-.008-.008-.048.032-.088.04-.136.056-.128.1-.256.16-.384a.116.116,0,0,1,.128-.088h1.176a.09.09,0,0,1,.1.072.428.428,0,0,0,.04.088c.048.12.1.24.144.368a.088.088,0,0,0,.1.064h1.112c.072,0,.072-.008.072-.08v-1.9c0-.024-.008-.048.024-.056s.032.024.04.04c.024.056.048.1.072.16.08.184.16.36.24.544.048.112.1.216.144.328.032.088.08.176.112.264.064.152.136.3.2.456a2.173,2.173,0,0,1,.088.2.077.077,0,0,0,.08.056h.424a.077.077,0,0,0,.08-.056c.056-.12.1-.248.16-.36.072-.144.136-.3.2-.448a.161.161,0,0,1,.032-.064c.056-.12.1-.248.152-.368.008-.024.024-.048.032-.072.072-.152.144-.312.208-.472.032-.064.056-.128.088-.184.008-.008.008-.024.024-.024s.016.016.024.032c.008.04,0,.072.008.112v1.8c0,.032-.008.064.016.088s.04.008.064.008h.456c.072,0,.072-.008.08-.08V11.083a.177.177,0,0,0-.008-.064c-.016-.024-.04-.016-.056-.016h-.888a.088.088,0,0,0-.1.064c-.056.144-.12.28-.176.416-.08.176-.152.352-.224.52-.064.136-.12.28-.176.424-.048.1-.088.208-.128.312-.008.016-.016.04-.04.04s-.032-.024-.04-.04a1.412,1.412,0,0,1-.072-.16c-.04-.1-.088-.2-.136-.3-.088-.192-.176-.384-.264-.568-.1-.216-.2-.424-.3-.64a.081.081,0,0,0-.088-.056h-.88c-.056,0-.064.008-.072.08v2.289a.138.138,0,0,1-.016.1c-.032.016-.032-.016-.04-.032-.016-.032-.032-.064-.048-.1-.024-.064-.056-.128-.08-.2-.056-.128-.112-.264-.168-.392-.056-.144-.12-.28-.184-.424s-.12-.28-.184-.424c-.12-.272-.24-.544-.352-.816a.1.1,0,0,0-.112-.072h-.752a.106.106,0,0,0-.12.08c-.024.072-.056.136-.088.208-.056.12-.1.248-.16.368-.048.1-.088.2-.128.3l-.072.168a1.234,1.234,0,0,0-.064.152c-.048.1-.088.2-.128.3s-.08.184-.12.28c-.056.12-.1.248-.16.368s-.1.232-.152.352C105.809,13.58,105.8,13.6,105.777,13.612Z" transform="translate(-105.153 -2.088)"/><path class="a" d="M116.42,16.158h1.8a1.936,1.936,0,0,1,.48.072.815.815,0,0,1,.272.144v-.208h2.009a1.963,1.963,0,0,1,.608.088,1.449,1.449,0,0,1,.28.128v-.216h3.049c.04,0,.056.008.048.048v.168a1.044,1.044,0,0,1,.384-.176,5.363,5.363,0,0,1,.88-.04h1.1c.128,0,.128,0,.128.128v.08a.3.3,0,0,1,.08-.048,1.351,1.351,0,0,1,.608-.16c.424-.008.848,0,1.272,0v.456c0,.048-.016.064-.064.064H128.16c-.024,0-.056-.008-.072.008-.04.032-.088.024-.128.032a.835.835,0,0,0-.464.216.653.653,0,0,0-.208.432,1.021,1.021,0,0,0,.04.44.537.537,0,0,0,.216.28,1.2,1.2,0,0,0,.552.168c.168.016.336.008.5.04a.389.389,0,0,1,.1.008.23.23,0,0,1,.008.456c-.016,0-.024.008-.04.008h-.024c-.384,0-.768.024-1.152.016h-.048c-.048,0-.064.016-.064.064v.408c0,.04.016.064.056.064.408,0,.824.024,1.232.016a.029.029,0,0,0,.024-.008.934.934,0,0,0,.728-.3c.016.008.016.024.016.04v.576a.059.059,0,0,1-.016.048,1.872,1.872,0,0,1-.808.16c-.456.008-.9,0-1.36,0h-.336c-.032,0-.048-.008-.048-.048v-.184a1.239,1.239,0,0,1-.408.184,2.9,2.9,0,0,1-.368.048h-5.178c-.056,0-.08-.008-.08-.072.008-.256,0-.512,0-.768V18.95a.055.055,0,0,0-.056-.056c-.136-.016-.136-.016-.136.12v.776c0,.048-.016.064-.064.064H118.94c-.016-.016-.008-.04-.008-.064v-.936a1.512,1.512,0,0,1-.416.1,5.086,5.086,0,0,1-.608.024c-.056,0-.064.016-.064.064v.688c0,.112,0,.112-.112.112h-1.961c-.048-.056-.1-.112-.152-.168a2.02,2.02,0,0,0-.168-.2c-.048-.056-.1-.1-.144-.16-.024-.032-.048-.04-.08,0-.152.168-.312.336-.464.5a.093.093,0,0,1-.08.032h-3.305a.176.176,0,0,1-.008-.064V16.222c0-.08-.008-.072.072-.072h3.289c.024,0,.048-.008.064.008.08.1.168.192.248.288.072.08.136.16.208.248.024.024.032.016.056,0,.152-.168.3-.328.456-.5a.115.115,0,0,1,.088-.04Z" transform="translate(-106.272 -3.233)"/><path class="b" d="M128.309,15.915a.964.964,0,0,0,0-.984V.83c0-.08,0-.08-.08-.08H105.822c-.024,0-.056-.008-.072.016V1.894h0v8.331a.048.048,0,0,0,.008.032c.1-.216.184-.44.28-.656q.132-.276.24-.552c.064-.136.128-.272.176-.408a.43.43,0,0,0,.04-.088c.008-.04.032-.048.072-.048h1.456c.176,0,.128-.032.208.136.048.088.088.184.136.28a1.663,1.663,0,0,0,.008-.344c0-.048.016-.072.064-.072h1.809c.024,0,.048-.008.072.008.04.08.072.176.12.256.1.232.2.456.3.7.072-.16.136-.312.2-.456s.12-.264.168-.408c.016-.08.064-.1.144-.1.1.008.216,0,.32,0h5.594c.08,0,.168.008.248.008l.168.024a1.409,1.409,0,0,1,.24.08c.04.024.08.056.12.08.024.016.032.016.032-.016v-.1c-.008-.056.008-.088.072-.08h1.168a.771.771,0,0,0,.192,0,1.667,1.667,0,0,0,.2,0c.04,0,.056.016.056.056v.16a1.729,1.729,0,0,1,.576-.184c.12-.008.24-.024.36-.024.136,0,.272-.008.408-.008q.372.012.744,0c.224.008.456.008.68,0q.348.012.7,0c.032,0,.04.024.048.048.064.128.128.248.192.376a2.5,2.5,0,0,0,.008-.344c0-.064.016-.072.072-.072h.392q.372.012.744,0c.152,0,.312.008.464,0a.176.176,0,0,1,.2.12c.048.1.112.2.168.3a2.655,2.655,0,0,0,.016-.352c0-.024-.008-.048.024-.064q.348.012.7,0,.384.012.768,0a1.946,1.946,0,0,0,.216,0c.048,0,.064.016.064.064v3.577c0,.048-.008.056-.056.056h-1.5a1.069,1.069,0,0,0-.16,0,.086.086,0,0,1-.088-.048c-.072-.128-.152-.256-.224-.384-.024-.04-.048-.08-.072-.112-.008.168-.008.328-.008.488,0,.04-.008.056-.056.056h-2.1c-.048,0-.064-.008-.08-.056-.032-.1-.08-.184-.12-.28-.024-.072-.056-.144-.08-.208a.061.061,0,0,0-.064-.048h-.448a.07.07,0,0,0-.072.048c-.064.168-.136.328-.2.488a.062.062,0,0,1-.072.048h-.8a4.16,4.16,0,0,1-.832-.056,2.632,2.632,0,0,1-.48-.168v.064c0,.048.024.112-.008.144s-.1.008-.152.008h-2.545c-.04,0-.048-.008-.048-.048v-.84c0-.056-.032-.072-.08-.08h-.056c-.048-.008-.056.016-.056.056v.7a1.068,1.068,0,0,1-.008.224h-5.282v-.432h-.016c-.04.1-.072.184-.112.28a.335.335,0,0,0-.032.08c-.016.072-.064.08-.128.072-.112-.008-.224,0-.336,0h-.616a.077.077,0,0,1-.08-.056c-.048-.128-.1-.256-.16-.376-.008.12-.008.24-.008.352,0,.088.008.072-.08.072h-2a.062.062,0,0,1-.072-.048c-.024-.064-.056-.128-.08-.192-.04-.1-.088-.208-.128-.312a.044.044,0,0,0-.048-.032h-.48a.044.044,0,0,0-.048.032c-.016.032-.024.072-.04.1a2.173,2.173,0,0,0-.088.2,1.066,1.066,0,0,0-.056.144c-.024.032-.024.072-.048.1l-.016.016h-1c-.056-.008-.072.016-.064.072a2.251,2.251,0,0,1,0,.232v10.78c0,.064.016.072.072.072h22.456c.024-.024.016-.056.016-.08C128.309,20.844,128.309,18.38,128.309,15.915Zm-.576-1.264a.008.008,0,0,0-.008.008.272.272,0,0,0-.08-.008l-.592-.024c-.176-.008-.248-.088-.256-.264a.26.26,0,0,1,.08-.144.354.354,0,0,1,.2-.048h1.2v.656a.115.115,0,0,0,.016.056A.761.761,0,0,0,127.733,14.65Zm-9.315-12.9c0-.008-.008-.008-.008-.016S118.418,1.742,118.418,1.75Zm-4.305.968a.805.805,0,0,0,.056.12A.807.807,0,0,1,114.112,2.718Zm-.488.384c0,.008.008.016.008.024-.008-.024-.016-.04-.024-.064C113.608,3.078,113.616,3.086,113.624,3.1Zm.584,2.4a.048.048,0,0,1-.008.032v.008A.06.06,0,0,1,114.208,5.5Zm-.176.664c.008-.024.016-.04.024-.064A.554.554,0,0,0,114.032,6.167Zm1-1.609c0-.048-.008-.1-.008-.152,0,.024.008.048.008.072A.268.268,0,0,1,115.033,4.559Zm.824-1.3c.008.024.008.048.016.064C115.865,3.311,115.865,3.287,115.857,3.263Zm.744-.608c-.04-.12-.072-.248-.12-.368C116.529,2.406,116.561,2.534,116.6,2.654Zm-1.256-1.16ZM106.526,2.63a.441.441,0,0,1,.048-.064A.441.441,0,0,0,106.526,2.63Zm7.146,4.53-.024.048-.072.1Zm2.353-1.609a.221.221,0,0,1-.008.072c0,.016-.008.032-.008.048C116.017,5.631,116.017,5.591,116.025,5.551Zm2,1.072c-.016.08-.032.152-.056.232C117.994,6.776,118.01,6.7,118.026,6.624ZM107.534,7.832a1.147,1.147,0,0,0-.12-.088A1.145,1.145,0,0,0,107.534,7.832Zm4.586.352c-.08.056-.16.1-.24.152C111.96,8.28,112.04,8.232,112.12,8.184Zm3.633-1.128c-.024.056-.04.112-.064.168a.028.028,0,0,1-.008.016C115.7,7.184,115.729,7.12,115.753,7.056Zm1.528.36-.024.072c-.008.024-.024.04-.032.064A.692.692,0,0,0,117.281,7.416Zm.56-.92c0,.016-.008.032-.008.048s-.008.024-.008.04A.339.339,0,0,1,117.842,6.5Zm.752,1.032v.008c0,.008-.008.016-.008.024A.048.048,0,0,1,118.594,7.528Zm.768.376v.008c0,.008,0,.008-.008.016A.029.029,0,0,1,119.362,7.9Zm.448-.512-.024.072ZM111.255.766a.008.008,0,0,1-.008-.008c0,.008,0,.008.008.008Zm-3.313,0Zm-1.064,0c-.008,0-.008,0-.016.008a.008.008,0,0,0,.008-.008Zm8.307,7.426a.008.008,0,0,1-.008.008c0,.008-.008.008-.008.016C115.177,8.208,115.177,8.2,115.185,8.192Zm12.084,3.049h0c-.008,0-.008-.008-.008-.016C127.269,11.233,127.261,11.241,127.269,11.241Zm-6.506,1.825Zm-10.531,2.057h0a.333.333,0,0,0,0-.248h0Zm0-1.368Zm-.008.408Zm0-.168Zm.008-.368Zm2.1-1.056c.1-.032.192-.064.288-.1-.04.016-.088.04-.128.056S112.392,12.554,112.336,12.57Zm-4.065-.1a1.243,1.243,0,0,1-.168-.032A1.242,1.242,0,0,0,108.27,12.466ZM108.1,14.21a.468.468,0,0,0-.1-.016A.405.405,0,0,1,108.1,14.21ZM123.019,16.8Zm-10.764,0h0c0-.008.008-.008,0,0C112.264,16.8,112.264,16.787,112.256,16.8Zm-2.025-.808Zm-.008-1.368Zm-.008-1.16h0Zm1.721-.392Zm15.477,3.7h-1.256a.39.39,0,0,0-.1.008c-.016.008-.008.016-.008.016h-.008c-.016-.024-.04-.016-.064-.024H125.8c-.04,0-.056-.016-.056-.056v-.08c0-.024.008-.064-.024-.08s-.048.008-.072.024a1.209,1.209,0,0,1-.144.072,1.258,1.258,0,0,0-.184.072c-.008,0-.008.008-.016.016a.136.136,0,0,0-.056-.008,1.878,1.878,0,0,1-.3.04h-.032a.222.222,0,0,0-.072-.008h-1.785a.3.3,0,0,0-.088.008v.008H122.6a.391.391,0,0,1-.136-.008c-.184-.008-.36,0-.544,0a.06.06,0,0,0-.056.024h0c0-.008,0-.008-.016-.016a.907.907,0,0,0-.208-.008c-.232,0-.456-.008-.688,0-.016.008-.024,0-.04.008a.2.2,0,0,0-.064-.008h-1.016c-.128,0-.12.008-.12-.12v-.712c0-.1-.04-.128-.144-.128-.08,0-.1.016-.1.12v.752c0,.08-.008.08-.088.08h-1.472a.456.456,0,0,0-.1.008c-.008.008,0,.008,0,.016H117.8a1.457,1.457,0,0,0,.008-.264.593.593,0,0,0-.008-.168c-.008-.008-.008,0-.016,0a.008.008,0,0,0,.008-.008.086.086,0,0,0,.016-.064v-.424c0-.072-.016-.08-.088-.056a1.885,1.885,0,0,1-.368.08,4.25,4.25,0,0,1-.552.024c-.1,0-.112.008-.112.112v.68c0,.064-.008.072-.072.072h-1.873a.23.23,0,0,0-.1.008c-.008.008,0,.008,0,.008h0a.405.405,0,0,0-.16-.168h.008c.016-.024,0-.04-.016-.056-.1-.1-.184-.208-.28-.312-.04-.048-.064-.048-.112,0-.064.056-.12.128-.184.192-.088.088-.168.176-.248.264a.159.159,0,0,1-.136.064h-3.161a.222.222,0,0,0-.072.008h-.008l-.016-.016a.223.223,0,0,1-.008-.072v-.608c0-.016-.008-.032-.008-.048v-.08a.028.028,0,0,1,.008-.016v-.752a.072.072,0,0,0-.008-.04v-.3a.646.646,0,0,0,.008-.128.176.176,0,0,0-.008-.064v-.336a.3.3,0,0,0,0-.12v-.568a.263.263,0,0,0,0-.112v-.344h0c.024-.056.064-.064.128-.064.1,0,.2.008.3,0h.048c.008,0,.024.008.032.008h1.112c.008,0,.016-.008.032-.008h.056c.32.008.648.008.968,0h.064c.008,0,.016.008.024.008h.56c.008,0,.016-.008.024-.008h.048v.008c.064.1.152.176.224.264a.029.029,0,0,0,.04.016h0v.024a1.875,1.875,0,0,0,.2.24c.024.024.048.016.072-.008.144-.16.3-.32.44-.48a.129.129,0,0,1,.1-.048h.48a.272.272,0,0,0,.08-.008V13.1h.008a.066.066,0,0,0,.064.024h.368a.066.066,0,0,0,.064-.024h0c.008.008.008.016.024.024h1.216c.008,0,.024-.008.032-.008h.04a1.194,1.194,0,0,1,.168.016,1.26,1.26,0,0,1,.472.128.324.324,0,0,0,.072.04c.024.008.04.008.048-.016a.326.326,0,0,0-.008-.176c.008.008.016.008.024.016a2.586,2.586,0,0,0,.352,0c.216,0,.424.008.64,0,.016-.008.032,0,.048-.008a.2.2,0,0,0,.064.008h.992a.456.456,0,0,1,.1.008,1.554,1.554,0,0,1,.624.176c.048.024.064.008.072-.04v-.152a.2.2,0,0,0,.1.016h2.465a.39.39,0,0,0,.1-.008c.016-.008.016-.008.016-.016h0c.016.032.048.024.072.024h.216c.1,0,.1,0,.1.088v.04c.008.064.024.072.072.04a.99.99,0,0,1,.264-.12c.024-.008.048-.008.056-.032a.008.008,0,0,1,.008-.008c0,.008,0,.016.016.024a4.071,4.071,0,0,1,.448-.032h.48c.032,0,.064.008.08-.024h0c0,.008,0,.016.016.024a.328.328,0,0,0,.088.008h.816c.128,0,.128,0,.136.128,0,.024,0,.056.032.064s.056-.016.056-.048c0-.008.008-.008.008-.016,0,.008,0,.016.008.016.024,0,.04-.016.064-.024a1.377,1.377,0,0,1,.592-.12h1.112a.144.144,0,0,0,.08-.016v.4c0,.088,0,.088-.088.088h-1.176a.044.044,0,0,0-.04.024h0a.855.855,0,0,0-.2.024.735.735,0,0,0-.608.56.9.9,0,0,0,.032.544.536.536,0,0,0,.216.28.844.844,0,0,0,.24.12,3.049,3.049,0,0,0,.808.08.061.061,0,0,0,.024.016.722.722,0,0,1,.128.024.2.2,0,0,1,.152.2.209.209,0,0,1-.144.208l-.088.024a1.284,1.284,0,0,1-.248,0c-.024,0-.048.008-.072.008h-.928c-.04,0-.048.008-.048.048v.464c0,.048.016.056.056.056h.528c.008,0,.008.008.016.008h.72a.8.8,0,0,0,.3-.04.723.723,0,0,0,.432-.264c0,.016-.008.032-.008.048v.56a.1.1,0,0,0,.008.048.066.066,0,0,0-.056.008A3.223,3.223,0,0,1,127.413,16.763Zm.88-.12c0,.008.008.016.008.024C128.3,16.659,128.293,16.651,128.293,16.643Zm-7.715-7.01a.717.717,0,0,1,.184-.016h.6c.032,0,.056,0,.056-.048v-.48c0-.032-.008-.048-.04-.048a8.232,8.232,0,0,0-.888.024,1.016,1.016,0,0,0-.912.744,2.14,2.14,0,0,0-.056.928,1.153,1.153,0,0,0,.2.528.833.833,0,0,0,.272.256,1.4,1.4,0,0,0,.648.168c.28.008.552,0,.832.008.032,0,.04-.024.056-.048.064-.16.136-.328.192-.488.016-.04.032-.064.088-.056a1.668,1.668,0,0,0,.2,0h1.016c.032-.008.04.024.048.048.072.168.136.336.208.5.008.024.016.048.048.048h1.192c.048,0,.064-.016.064-.064V9.721c.128.2.24.392.36.584.144.256.3.5.456.76.1.176.216.344.312.528a.185.185,0,0,0,.232.112h.68c.048,0,.064-.008.064-.064V9.1c0-.04-.008-.056-.056-.056h-.52c-.056,0-.08.008-.08.072v1.753h-.008c-.112-.184-.224-.368-.336-.544-.152-.264-.3-.512-.464-.768a.061.061,0,0,0-.016-.04c-.088-.144-.176-.28-.256-.424a.08.08,0,0,0-.08-.048h-.84c-.056,0-.072.016-.072.072v2.409h-.008c-.04-.088-.08-.168-.112-.256-.048-.12-.1-.232-.144-.352-.1-.232-.2-.456-.3-.688v-.016l-.48-1.128a.07.07,0,0,0-.072-.04H122c-.016,0-.04-.008-.048.008s-.016.032-.024.048l-.528,1.224-.336.792a3.337,3.337,0,0,1-.4,0,.462.462,0,0,1-.472-.408.75.75,0,0,0-.032-.128c0-.056-.008-.12-.008-.176a1.413,1.413,0,0,1,.064-.448A.462.462,0,0,1,120.578,9.633Zm2.177.9h-.416c-.024,0-.056-.008-.08.016h0v-.008a.607.607,0,0,0-.208-.008c-.064,0-.064,0-.04-.064.12-.3.248-.592.368-.888.008-.008.008-.032.024-.032.04.08.064.16.1.24a.082.082,0,0,0,.04.048h0c-.016.04.008.072.024.1.072.176.144.36.224.536C122.811,10.537,122.811,10.537,122.755,10.537Zm-4.217,1.112c0,.04.016.04.048.04h.344a1.307,1.307,0,0,0,.248-.008c.016-.016.008-.04.008-.064V9.1c0-.024.008-.04-.008-.064-.008,0-.008-.008-.016-.008h-.592c-.024,0-.032.016-.032.04v1.144C118.546,10.7,118.546,11.177,118.538,11.649Zm.64-2.521Zm-10.339,2.249a1.941,1.941,0,0,0-.08-.192c-.048-.136-.112-.264-.168-.392a3.858,3.858,0,0,0-.184-.416c-.056-.144-.112-.28-.184-.424V9.937c-.12-.288-.248-.568-.368-.856-.016-.032-.032-.04-.056-.04h-.848a.06.06,0,0,0-.064.04c-.032.088-.072.176-.1.256-.048.12-.1.24-.152.36-.04.1-.088.2-.128.3l-.072.168a.867.867,0,0,0-.064.152c-.048.1-.088.2-.128.3a2.942,2.942,0,0,0-.12.28c-.056.12-.112.248-.16.368-.064.136-.12.272-.184.408.008.024.032.016.048.016h.64c.016-.04.032-.088.048-.128a3.079,3.079,0,0,0,.152-.376c.016-.08.072-.088.144-.088.128.008.256,0,.384,0,.232,0,.456.008.688,0,.112-.008.176.016.2.136,0,.008.008.008.008.016.056.136.112.28.168.416a.05.05,0,0,0,.048.032h1.208c.032,0,.048-.008.048-.048V9.649h.008c.032.064.064.136.1.2.072.184.152.36.24.536a2.923,2.923,0,0,0,.144.328h0a1.862,1.862,0,0,0,.112.264c.064.152.136.3.2.448.032.08.064.16.1.232a.06.06,0,0,0,.064.04h.44a.088.088,0,0,0,.1-.064c.048-.128.1-.248.16-.368.08-.168.16-.344.232-.52.072-.136.12-.288.192-.432s.144-.3.208-.464c.032-.072.064-.136.1-.208h.008v2c0,.016-.008.032.008.04h.6c.032,0,.04-.008.04-.04V9.056c-.008,0-.008-.008-.016-.008h-1.008a.037.037,0,0,0-.04.024c-.064.16-.128.32-.2.472-.08.168-.152.344-.216.512-.064.136-.12.28-.176.424-.008.008-.008.016-.016.024-.04.1-.08.192-.128.288-.008.008-.008.032-.024.032s-.016-.024-.024-.032c-.024-.056-.056-.112-.08-.168a.116.116,0,0,0-.016-.056,2.33,2.33,0,0,1-.112-.248c-.08-.184-.168-.368-.256-.552h0V9.753c-.1-.224-.208-.456-.312-.68-.016-.032-.04-.032-.072-.032H109c-.08,0-.08,0-.08.08v2.329c0,.024.016.056-.016.072C108.879,11.473,108.863,11.425,108.839,11.377Zm-1.408-1.7c-.016.024,0,.048.008.072.056.128.1.256.16.384.008.016.016.04.04.048-.016.024,0,.048.008.064a2.014,2.014,0,0,0,.1.232c.016.032,0,.048-.016.064a.008.008,0,0,1-.008-.008.328.328,0,0,0-.088-.008h-.608c-.064,0-.064,0-.056-.064,0-.008-.008-.008-.008-.016a.142.142,0,0,0,.056-.144h.008a.017.017,0,0,0,.016-.016c.04-.088.08-.176.112-.264a.051.051,0,0,0,0-.048h0a.008.008,0,0,1,.008.008c.008-.008.016-.008.024-.024.04-.1.08-.192.12-.3a.051.051,0,0,0,0-.048h0c.048-.016.032-.072.064-.088C107.382,9.585,107.382,9.649,107.43,9.681Zm4.529.808c.008,0,.008,0,.016-.008-.008.008-.016.008-.016.016Zm0,.48c.008,0,.008,0,.016-.008-.008.008-.016.008-.016.016Zm0,.512h0c.008.008,0,.008,0,.008Zm6.186-1.5a.861.861,0,0,0-.008-.472.555.555,0,0,0-.216-.288.443.443,0,0,0-.208-.112.565.565,0,0,0-.224-.048,1.194,1.194,0,0,0-.168-.016.176.176,0,0,0-.064-.008H115.7c-.032,0-.064-.008-.064.04v2.489c0,.128,0,.128.136.12.16,0,.328.008.488,0,.016-.016.008-.04.008-.064v-.84c0-.048.008-.064.056-.064h.664a1.322,1.322,0,0,1,.3.04.33.33,0,0,1,.192.208,1.751,1.751,0,0,1,.024.288v.36c0,.024-.008.04.008.064.2.016.4,0,.608.008.032,0,.032-.024.032-.048v-.552a.7.7,0,0,0-.056-.312.484.484,0,0,0-.24-.248c-.032-.032-.08-.04-.112-.064A.726.726,0,0,0,118.146,9.977Zm-1.408.224Zm-.472-.008Zm.36-1.136Zm.184,1.657a.008.008,0,0,0,.008.008h-.008C116.8,10.713,116.809,10.713,116.809,10.713Zm.432-.56c-.016.008-.032.008-.048.024a.008.008,0,0,1-.008.008h-.024a.138.138,0,0,0-.1-.016h-.7c-.04,0-.08,0-.08-.064V9.617c0-.008.008-.016.008-.024h.424a.008.008,0,0,1,.008-.008c0,.008.008.016.016.024a2.585,2.585,0,0,0,.352,0c.008,0,.008-.008.016-.008h0a.061.061,0,0,0,.032.016.222.222,0,0,1,.072.008c.056.008.112.048.168.056,0,.016,0,.024.016.032a.238.238,0,0,1,.064.144c0,.016.008.024.016.04a.008.008,0,0,1-.008.008c-.008.016-.008.032-.016.048A.238.238,0,0,1,117.241,10.153Zm-4.169,1.336v.168c0,.032.008.04.04.04h2.033c.04,0,.04-.016.04-.048v-.416c0-.08,0-.08-.08-.08H113.72c-.016-.168,0-.336-.008-.5,0-.032.024-.032.048-.032h1.352c.032,0,.04-.008.04-.04v-.488c-.016-.024-.04-.008-.064-.008H113.76c-.016,0-.04,0-.048-.008a.008.008,0,0,0-.008-.008c-.008-.008-.008-.032-.008-.056A3.474,3.474,0,0,1,113.7,9.6h1.432c.032,0,.048-.008.048-.04v-.5c-.016-.024-.048-.008-.064-.008h-1.993c-.04,0-.048.008-.048.048v2.009C113.072,11.233,113.072,11.361,113.072,11.489Zm.624-1.769h0Zm0,.232v.016a.008.008,0,0,0-.008-.008A.008.008,0,0,1,113.7,9.953Zm1.392.128h0c-.008.008-.008,0-.016,0Zm-.536.008a.008.008,0,0,0-.008-.008c.008,0,.008,0,.008.008Zm-.5-.008Zm1.064-1.024a.008.008,0,0,1-.008-.008c0,.008,0,.008.008.008Zm-.48,0Zm-.48,0c-.008,0-.008.008-.016.008a.008.008,0,0,1,.008-.008Zm3.417,4.65a2.818,2.818,0,0,0-1.032-.1h-1.561c-.032,0-.048.016-.072.04-.248.264-.5.528-.736.8-.024.032-.04.032-.064,0l-.24-.264c-.088-.1-.176-.208-.272-.3-.016-.016-.024-.032-.04-.048-.056-.064-.12-.128-.176-.192-.008-.024-.032-.024-.048-.024h-2.465c-.056,0-.048.024-.048.064v2.529c0,.048.016.064.064.064h2.393c.024,0,.048.008.064-.008s.032-.024.04-.04c.24-.264.488-.52.728-.784.032-.032.048-.032.072,0,.08.1.16.184.248.28.16.176.32.36.472.536a.081.081,0,0,0,.072.024H116.1c.048,0,.056-.008.056-.056v-.776c0-.048.016-.064.064-.064h.7a1.978,1.978,0,0,0,.528-.056.737.737,0,0,0,.576-.568,1.165,1.165,0,0,0,.016-.44A.739.739,0,0,0,117.569,13.706Zm-6.746,2.169h0C110.815,15.883,110.823,15.883,110.823,15.875Zm2.489-.536c-.088.1-.184.192-.264.288a.164.164,0,0,1-.144.064h-.976a.39.39,0,0,0-.1.008.029.029,0,0,1-.024.008c-.1,0-.208-.008-.312,0-.048,0-.064-.016-.064-.064v-.312c0-.048-.024-.112.008-.144s.1-.008.144-.008h1.176c.032,0,.056.008.056-.04v-.464c0-.024-.008-.04-.04-.04h-1.24c-.1,0-.1,0-.112-.1v-.3h.008a.078.078,0,0,1,.088-.056,1.457,1.457,0,0,0,.264-.008c.008,0,.008,0,.016-.008a.158.158,0,0,0,.088.016h.824a1.02,1.02,0,0,0,.152-.008c.008,0,.016-.008.024-.008s.016.008.032.008a.149.149,0,0,1,.128.056c.056.056.1.12.152.168.016.016.024.032.048.032a.081.081,0,0,0,.032.056c.12.136.248.272.368.408.024.032.024.056-.008.08-.072.072-.136.152-.216.224a.168.168,0,0,0-.056.088h-.016A.082.082,0,0,1,113.312,15.339Zm2.177.544a.172.172,0,0,1,0,.064c-.016,0-.024-.016-.04-.032-.1-.1-.184-.208-.28-.3a.96.96,0,0,0-.176-.184h-.016c0-.032-.024-.048-.04-.072-.112-.12-.224-.248-.328-.376-.048-.056-.04-.056,0-.1.016-.016.04-.032.032-.056h0c.032-.008.048-.032.072-.056a.91.91,0,0,1,.12-.128c.056-.064.12-.12.176-.176.152-.152.3-.312.44-.472a.183.183,0,0,0,.056-.08.328.328,0,0,0-.008.088C115.489,14.626,115.489,15.259,115.489,15.883ZM117.1,14.8a.887.887,0,0,1-.152.016h-.72a.124.124,0,0,1-.088-.024h0c.024-.024.016-.048.016-.08V14.25c0-.08,0-.08.088-.08h.656c.032,0,.064.008.088-.016h.008c0,.008-.008.008,0,.016a.119.119,0,0,0,.072.016.31.31,0,0,1,.24.144A.324.324,0,0,1,117.1,14.8Zm8.451-.072a.872.872,0,0,0-.248-.064,5.426,5.426,0,0,0-.624-.024.426.426,0,0,1-.3-.088.228.228,0,0,1,.176-.376.072.072,0,0,0,.04-.008H125.8c.032,0,.04-.008.04-.04v-.488c0-.024-.008-.04-.04-.04h-.84a3.152,3.152,0,0,0-.672.024.733.733,0,0,0-.6.52.971.971,0,0,0,.016.584.563.563,0,0,0,.312.336.52.52,0,0,0,.184.072,3.643,3.643,0,0,0,.776.072.46.46,0,0,1,.208.04.235.235,0,0,1,.1.184c.008.136-.064.208-.224.248H123.78c-.048,0-.056.016-.056.064v.448c0,.048.016.064.064.064h1.16a.437.437,0,0,0,.144-.008,1.036,1.036,0,0,0,.464-.1.656.656,0,0,0,.368-.44,1.083,1.083,0,0,0,0-.576A.531.531,0,0,0,125.548,14.73Zm-.856,1.5c.008,0,.008.008,0,0,.008.008,0,.008,0,0Zm-3.809-2c-.016-.024,0-.056-.008-.08a.6.6,0,0,0-.392-.456,1.27,1.27,0,0,0-.544-.08h-1.561c-.048,0-.04.024-.04.056v2.561c0,.04.024.04.048.04h.536c.04,0,.056-.008.056-.056v-.776c0-.136,0-.136.136-.136h.7c.016,0,.032.008.048.008a.344.344,0,0,1,.352.32c.016.112.008.216.016.328v.272c0,.04.016.04.048.04h.536c.04,0,.048-.008.048-.048v-.512a.839.839,0,0,0-.04-.312.594.594,0,0,0-.36-.36A.8.8,0,0,0,120.883,14.234Zm-1.08.5h-.728c-.032,0-.064-.008-.088.008v.008h0A.068.068,0,0,0,119,14.69v-.448c0-.008-.008-.016-.008-.024a.072.072,0,0,1,.008-.04c.024-.024.048-.016.08-.016h.312a.144.144,0,0,0,.08-.016l.008-.008c0,.008,0,.016.008.016.144.008.28.008.424.016a.271.271,0,0,1,.048.536A.409.409,0,0,1,119.8,14.73Zm3.553,1.016v.472c0,.048-.024.04-.056.04h-1.993a.1.1,0,0,1-.048-.008h0a.008.008,0,0,1-.008-.008V13.65c0-.024-.008-.056.04-.056h2.041c.024,0,.04.008.04.04v.472c0,.048-.032.04-.056.04h-1.392c-.032,0-.032.024-.032.048v.3c.008.128.008.128.144.128h1.248c.048,0,.064.008.064.064v.416c0,.048-.008.064-.064.064h-1.32c-.056,0-.072.016-.072.072a3.079,3.079,0,0,1,0,.384c0,.064.024.072.08.072h1.376A.174.174,0,0,1,123.355,15.747Z" transform="translate(-105.141 -0.157)"/><path class="a" d="M133.552,17.514v.736a.789.789,0,0,0-.56-.248c-.184.008-.36-.016-.544-.008a.994.994,0,0,1-.216-.024.226.226,0,0,1-.192-.256.27.27,0,0,1,.1-.176.258.258,0,0,1,.168-.048h1.168C133.5,17.5,133.536,17.5,133.552,17.514Z" transform="translate(-110.401 -3.501)"/><path class="a" d="M126.6,12.032c.1.232.192.464.288.7h-.88c.144-.352.288-.7.44-1.056C126.506,11.808,126.554,11.92,126.6,12.032Z" transform="translate(-109.196 -2.341)"/><path class="a" d="M107.262,12.644a.536.536,0,0,0,.056-.144,2.668,2.668,0,0,0,.128-.32,2.817,2.817,0,0,0,.144-.36c.032-.032.032-.088.064-.12.024.056.056.112.08.168.04.136.1.256.152.384.016.04.032.08.048.112.04.1.08.208.12.3.016.048.024.072-.04.064H107.3C107.214,12.74,107.214,12.74,107.262,12.644Z" transform="translate(-105.445 -2.345)"/><path class="a" d="M120.008,11.866a.266.266,0,0,1,.1.224.3.3,0,0,1-.28.288.036.036,0,0,1-.04,0h-.84c-.048,0-.064-.016-.064-.064V11.85c0-.024-.008-.048.016-.064a.086.086,0,0,1,.064-.016h.32a.086.086,0,0,1,.064.016h.416c.024.008.048,0,.072.008A.73.73,0,0,1,120.008,11.866Z" transform="translate(-107.772 -2.359)"/><path class="a" d="M116.847,18.11c.288-.3.576-.616.864-.92v2.1c-.024.008-.032-.016-.04-.024-.152-.168-.3-.336-.448-.5-.016-.016-.024-.032-.04-.04-.136-.152-.264-.3-.4-.448-.032-.032-.04-.056,0-.088C116.807,18.158,116.831,18.134,116.847,18.11Z" transform="translate(-107.348 -3.441)"/><path class="a" d="M118.75,18.15v-.584c0-.048.016-.056.064-.056h.792c.032.008.064.008.1.016a.291.291,0,0,1,.264.336.315.315,0,0,1-.288.32.87.87,0,0,1-.144.008h-.728C118.774,18.182,118.742,18.19,118.75,18.15Z" transform="translate(-107.746 -3.505)"/><path class="a" d="M114.328,17.5a.228.228,0,0,1,.224.112c.048.056.1.112.144.16.136.152.272.312.408.456.032.04.032.056-.008.088-.1.1-.2.2-.288.312l-.36.384a.115.115,0,0,1-.088.04h-1.1a.682.682,0,0,1-.256.016c-.16,0-.16,0-.16-.16v-.272c0-.136,0-.136.144-.136h1.16c.08,0,.088-.008.088-.088v-.336c0-.072-.008-.08-.08-.08h-.208c-.32.008-.632,0-.952,0h-.064c-.064,0-.08-.016-.08-.08v-.288a.086.086,0,0,1,.016-.064c-.008-.056.024-.072.072-.072h.3C113.6,17.5,113.968,17.5,114.328,17.5Z" transform="translate(-106.566 -3.501)"/><path class="a" d="M122.29,18.1v-.56c0-.04.024-.032.048-.032h.448c.144,0,.288,0,.44.008a.28.28,0,0,1,.232.448.306.306,0,0,1-.3.136Z" transform="translate(-108.453 -3.505)"/></svg>