<svg xmlns="http://www.w3.org/2000/svg" xmlns:xlink="http://www.w3.org/1999/xlink" width="24" height="15.349" viewBox="0 0 24 15.349"><defs><style>.a{fill:#001722;}.b{fill:#fff;}.c{fill:#f58220;}.d{fill:#231f20;}.e{fill:url(#a);}</style><radialGradient id="a" cx="0.502" cy="0.5" r="0.505" gradientTransform="translate(0.008) scale(0.978 1)" gradientUnits="objectBoundingBox"><stop offset="0" stop-color="#feedda"/><stop offset="0.108" stop-color="#fee7d0"/><stop offset="0.292" stop-color="#fcd8b5"/><stop offset="0.529" stop-color="#fabf8a"/><stop offset="0.806" stop-color="#f79c4e"/><stop offset="1" stop-color="#f58220"/></radialGradient></defs><path class="a" d="M152,20.759H140.1c-.088,0-.1-.016-.1-.1V5.514c0-.088.016-.1.1-.1H163.9c.088,0,.1.016.1.1V20.655c0,.088-.016.1-.1.1Z" transform="translate(-140 -5.41)"/><path class="b" d="M140.268,20.632c-.032,0-.048-.024-.048-.056V5.779c0-.168-.024-.152.152-.152h23.344c.056,0,.128-.048.16.048v8.179a.294.294,0,0,1-.136.264c-.624.408-1.272.784-1.929,1.136-.472.256-.944.5-1.424.736-1.256.608-2.545,1.16-3.849,1.665-.928.36-1.873.68-2.817.992-1.513.488-3.041.9-4.586,1.272-1.072.256-2.161.48-3.249.672a2.432,2.432,0,0,1-.48.04Q142.849,20.62,140.268,20.632Z" transform="translate(-140.044 -5.451)"/><path class="c" d="M140.28,20.649c.04,0,.08-.008.112-.008h4.9a5.455,5.455,0,0,0,1.024-.152,60.155,60.155,0,0,0,6.274-1.513,51.828,51.828,0,0,0,7.611-2.921,32.218,32.218,0,0,0,3.561-1.977.223.223,0,0,0,.112-.216V5.788a.3.3,0,0,1,.008-.088c0,.04.008.08.008.12v8.051c0,2.217,0,4.441.008,6.658,0,.112-.032.144-.144.144h-23.4A.088.088,0,0,0,140.28,20.649Z" transform="translate(-140.056 -5.468)"/><g transform="translate(7.354 8.115)"><path class="d" d="M154.268,16.846c-.152-.424-.3-.824-.448-1.216.12-.032.176,0,.208.12.064.216.144.432.232.68.128-.3.24-.584.36-.88.12.3.24.584.36.88.088-.256.176-.488.256-.728.016-.032.016-.072.072-.08.112-.008.12,0,.088.1-.128.344-.248.688-.376,1.032-.008.024-.024.048-.04.088-.12-.3-.232-.576-.36-.888C154.508,16.254,154.4,16.534,154.268,16.846Z" transform="translate(-150.115 -15.55)"/><path class="d" d="M149.2,15.55c.3.312.568.6.864.9v-.736c0-.048-.016-.112.072-.112s.072.056.072.112V16.83c-.3-.3-.568-.592-.864-.9v.768c0,.064-.024.072-.08.072s-.072-.008-.072-.072C149.2,16.326,149.2,15.95,149.2,15.55Z" transform="translate(-149.19 -15.55)"/><path class="d" d="M160.754,16.775a.3.3,0,0,1-.32-.112,4.835,4.835,0,0,0-.352-.392v.416c0,.048.016.1-.072.1s-.08-.056-.08-.112v-.928c0-.056-.016-.112.08-.112s.072.064.072.12v.336a4.444,4.444,0,0,0,.336-.344.262.262,0,0,1,.3-.1c-.016.056-.072.088-.12.136-.112.112-.224.224-.344.336-.048.048-.048.072,0,.12C160.426,16.407,160.578,16.583,160.754,16.775Z" transform="translate(-151.335 -15.566)"/><path class="d" d="M151.18,16.206v-.48c0-.08.024-.1.1-.1a3.891,3.891,0,0,0,.432,0c.064,0,.08.024.08.08s-.024.072-.08.072c-.1,0-.192.008-.3,0-.072-.008-.088.024-.088.1,0,.208,0,.208.208.208h.152c.056,0,.088.008.088.072s-.032.08-.088.072h-.3c-.048,0-.072.016-.064.064V16.3c0,.1-.032.24.016.3s.2.016.3.024h.072c.064-.008.072.024.072.08s-.008.072-.064.072h-.48c-.064,0-.064-.032-.064-.08C151.18,16.534,151.18,16.374,151.18,16.206Z" transform="translate(-149.587 -15.566)"/><path class="d" d="M152.773,16.278c0-.136-.008-.272,0-.408,0-.072-.016-.1-.088-.088a.6.6,0,0,1-.12,0c-.056.008-.064-.032-.056-.072s0-.08.056-.08h.576c.064,0,.056.032.056.072s0,.072-.056.072-.152-.032-.192.016-.016.152-.016.224v.664c0,.056-.008.088-.08.088s-.08-.032-.08-.088Z" transform="translate(-149.852 -15.566)"/><path class="d" d="M156.948,15.61a.6.6,0,0,0-.608.568.6.6,0,0,0,.584.608.588.588,0,1,0,.024-1.176Zm0,1.04a.451.451,0,0,1-.44-.448.439.439,0,0,1,.44-.44.434.434,0,0,1,.44.44A.462.462,0,0,1,156.948,16.65Z" transform="translate(-150.618 -15.562)"/><path class="d" d="M158.806,16.288c.016-.008.024-.016.032-.016a.31.31,0,0,0,.224-.352.281.281,0,0,0-.28-.264c-.08-.008-.152-.008-.232-.016-.056-.008-.08.008-.08.072V16.72c0,.064.032.064.08.064s.08-.008.072-.072c-.008-.136,0-.264,0-.432.1.152.192.264.264.392a.2.2,0,0,0,.256.1C159.03,16.6,158.918,16.448,158.806,16.288Zm-.184-.216a.453.453,0,0,0,0-.1v-.024c.024-.048-.048-.128.04-.152a.2.2,0,0,1,.232.112.18.18,0,0,1-.088.232.4.4,0,0,1-.1.024C158.654,16.16,158.606,16.152,158.622,16.072Z" transform="translate(-151.043 -15.568)"/></g><g transform="translate(22.191 4.001)"><path class="a" d="M167.994,10.41a.26.26,0,0,0-.264.256.272.272,0,0,0,.264.264.26.26,0,1,0,0-.52Zm0,.464a.2.2,0,1,1,.2-.208A.21.21,0,0,1,167.994,10.874Z" transform="translate(-167.73 -10.41)"/><g transform="translate(0.16 0.152)"><path class="a" d="M167.93,10.824V10.6h.1a.118.118,0,0,1,.056.008c.008.008.016.008.024.024a.06.06,0,0,1,.008.04.061.061,0,0,1-.016.04.13.13,0,0,1-.048.024c.008.008.016.016.024.016a.086.086,0,0,1,.024.04l.024.048h-.056l-.032-.048c-.008-.016-.016-.032-.024-.032s-.008-.008-.016-.008h-.032v.1h-.032Zm.048-.136h.072c.008,0,.008-.008.016-.008s.008-.008.008-.016,0-.016-.008-.016-.008-.008-.016-.008h-.072Z" transform="translate(-167.93 -10.6)"/></g></g><g transform="translate(1.559 3.881)"><path class="a" d="M162.11,12.014V10.454c0-.088.024-.112.112-.1.544.008,1.088,0,1.625,0,.088,0,.12.016.112.1a2.946,2.946,0,0,0,0,.376c.008.072-.024.088-.1.088h-1.008c-.072,0-.1.016-.088.088.008.184.008.376,0,.56,0,.072.024.08.088.08h.96c.08,0,.1.024.1.1a2.706,2.706,0,0,0,0,.36c.008.088-.016.112-.112.112-.312-.008-.624,0-.936,0-.072,0-.1.016-.1.1.008.232.008.472,0,.7,0,.08.032.1.1.1h.968c.088,0,.128.016.12.112-.008.128,0,.248,0,.376,0,.056-.008.088-.072.088h-1.7c-.08,0-.072-.048-.072-.1C162.11,13.063,162.11,12.534,162.11,12.014Z" transform="translate(-145.975 -10.278)"/><path class="a" d="M147.967,13.745a1.258,1.258,0,0,1-1.064-.568c-.04-.048-.04-.08.008-.128.1-.1.208-.192.3-.288.056-.064.072-.04.112.016a.739.739,0,0,0,.752.36.451.451,0,0,0,.4-.384.4.4,0,0,0-.272-.456c-.16-.072-.328-.128-.488-.192a.885.885,0,0,1-.128-.056.814.814,0,0,1-.56-.9.942.942,0,0,1,.744-.832A1.414,1.414,0,0,1,149,10.6c.048.04.048.064.016.112-.08.1-.16.2-.232.3-.048.064-.072.08-.136.016a.6.6,0,0,0-.64-.176.459.459,0,0,0-.152.08.3.3,0,0,0,.008.512,1.282,1.282,0,0,0,.352.16,4.433,4.433,0,0,1,.448.192.863.863,0,0,1,.5,1.032A1.1,1.1,0,0,1,147.967,13.745Z" transform="translate(-142.932 -10.264)"/><path class="a" d="M157.76,10.35h.648c.072,0,.08.04.1.088.264.672.528,1.336.8,2.009.016.032.016.08.056.1.152-.384.3-.76.456-1.136.136-.328.264-.656.392-.984a.108.108,0,0,1,.12-.08c.2.008.408,0,.624,0-.1.248-.208.488-.3.728-.36.856-.728,1.713-1.08,2.577-.04.088-.08.12-.168.112-.232-.008-.232,0-.32-.216-.432-1.04-.864-2.089-1.3-3.129A.151.151,0,0,1,157.76,10.35Z" transform="translate(-145.106 -10.278)"/><path class="a" d="M152.549,11.236a1.075,1.075,0,0,0-.936-.368,1.036,1.036,0,0,0-.7.384,1.222,1.222,0,0,0,.048,1.569,1.085,1.085,0,0,0,1.585-.048v.736c0,.04-.032.048-.056.064a1.746,1.746,0,1,1-.752-3.313,1.681,1.681,0,0,1,.736.168.1.1,0,0,1,.072.1Z" transform="translate(-143.553 -10.26)"/><path class="a" d="M145.74,12V10.444c0-.08.024-.1.1-.1a4.644,4.644,0,0,0,.472,0c.064,0,.088.024.088.088v3.161c0,.072-.024.088-.088.08-.16,0-.32-.008-.48,0-.08,0-.088-.024-.088-.1C145.748,13.061,145.74,12.533,145.74,12Z" transform="translate(-142.706 -10.276)"/><path class="a" d="M143.262,10.382c-.4-.056-.8-.016-1.208-.032-.088,0-.112.024-.1.112.008.512,0,1.032,0,1.545v1.569c0,.08.024.1.1.1.224-.008.456,0,.68,0a3.285,3.285,0,0,0,.688-.056,1.663,1.663,0,0,0,1.264-1.761A1.619,1.619,0,0,0,143.262,10.382Zm.68,2.033a1.008,1.008,0,0,1-.9.68c-.12.008-.232.008-.352.016-.072.008-.1-.016-.1-.1.008-.336,0-.672,0-1.008v-.992c0-.072.008-.1.088-.1a2.423,2.423,0,0,1,.48.032A1.081,1.081,0,0,1,143.942,12.415Z" transform="translate(-141.948 -10.278)"/><path class="a" d="M166.342,12.289c.032-.008.048-.024.072-.024a.979.979,0,0,0,.44-1.585,1.062,1.062,0,0,0-.784-.312c-.336-.016-.68,0-1.016-.008-.1,0-.1.032-.1.112v3.105c0,.1.024.12.12.112s.184,0,.28,0c.256,0,.256,0,.256-.264v-.992c0-.024-.016-.064.032-.08s.056.016.072.04.016.024.024.04l.792,1.176c.024.04.04.08.1.08h.76C167.031,13.209,166.687,12.745,166.342,12.289Zm-.7-.408c-.056,0-.048-.04-.048-.072v-.856c0-.04-.008-.08.056-.08a1.321,1.321,0,0,1,.464.056.423.423,0,0,1,.3.408.465.465,0,0,1-.264.48A1.186,1.186,0,0,1,165.646,11.881Z" transform="translate(-146.542 -10.28)"/><path class="e" d="M156.186,10.526a1.8,1.8,0,0,0-2.017.112.168.168,0,0,0-.048.032,1.733,1.733,0,0,0-.288,2.385,1.543,1.543,0,0,0,.736.552,1.8,1.8,0,0,0,1.44-.024,1.928,1.928,0,0,0,.632-.472A1.72,1.72,0,0,0,156.186,10.526Zm.1.144Zm-.1,2.745Z" transform="translate(-144.252 -10.262)"/></g></svg>