<svg xmlns="http://www.w3.org/2000/svg" xmlns:xlink="http://www.w3.org/1999/xlink" width="24" height="18.552" viewBox="0 0 24 18.552"><defs><style>.a{fill:#fefefe;}.b{fill:url(#a);}.c{fill:url(#b);}.d{fill:url(#c);}</style><linearGradient id="a" x1="-0.001" y1="0.501" x2="1" y2="0.501" gradientUnits="objectBoundingBox"><stop offset="0" stop-color="#1e2a70"/><stop offset="1" stop-color="#006eba"/></linearGradient><linearGradient id="b" y1="0.5" x2="0.998" y2="0.5" gradientUnits="objectBoundingBox"><stop offset="0" stop-color="#6f2c2f"/><stop offset="1" stop-color="#e60039"/></linearGradient><linearGradient id="c" x1="0.003" y1="0.501" x2="1.002" y2="0.501" gradientUnits="objectBoundingBox"><stop offset="0" stop-color="#007b40"/><stop offset="1" stop-color="#5bb531"/></linearGradient></defs><path class="a" d="M82,21.954H70.1c-.088,0-.1-.024-.1-.1V7.4A3.988,3.988,0,0,1,73.992,3.41H93.9c.088,0,.1.024.1.1V17.97a3.988,3.988,0,0,1-3.992,3.992C87.336,21.954,84.672,21.954,82,21.954Z" transform="translate(-70 -3.41)"/><path class="b" d="M78.3,5.122c.008-.048-.016-.072-.064-.072-.1.008-.192,0-.288.008H74.634a1.865,1.865,0,0,0-.424.016h0a.447.447,0,0,0-.176.024.557.557,0,0,0-.2.04.574.574,0,0,0-.2.056.635.635,0,0,0-.216.08.658.658,0,0,0-.2.1,1.108,1.108,0,0,0-.264.16.873.873,0,0,0-.232.184,1.294,1.294,0,0,0-.256.256,1.245,1.245,0,0,0-.216.28,1.741,1.741,0,0,0-.192.336c-.04.024-.056.04-.064.064a2.86,2.86,0,0,0-.216,1.128V14c0,.256,0,.256.248.336a.537.537,0,0,0,.184.08.617.617,0,0,0,.2.08,1.3,1.3,0,0,0,.3.1,1.108,1.108,0,0,0,.264.08.843.843,0,0,0,.192.048h0a.593.593,0,0,0,.2.04,1.006,1.006,0,0,0,.264.04.61.61,0,0,0,.24.016.261.261,0,0,0,.136,0,.988.988,0,0,0,.344-.016.682.682,0,0,0,.28-.064.645.645,0,0,0,.24-.1.723.723,0,0,0,.216-.16.813.813,0,0,0,.24-.328.992.992,0,0,0,.136-.52c.008-.384.008-.768.008-1.16V10.458h0a.236.236,0,0,1,.1-.016h2.064c.088,0,.1.024.1.1V13.41a2.679,2.679,0,0,1-.128.872,2.016,2.016,0,0,1-.272.48c-.088.088-.176.176-.264.256l-.24.168c-.08.04-.16.088-.24.128l-.24.1c-.112.032-.224.072-.344.1a.628.628,0,0,0-.176.04c-.08.016-.16.032-.24.04s-.16.016-.24.032a.817.817,0,0,0-.24.024,2.251,2.251,0,0,0-.328.016h-.632a1.419,1.419,0,0,0-.256-.016l-.3-.024a1.96,1.96,0,0,0-.216-.016l-.2-.024c-.1-.016-.216-.024-.32-.04-.088-.016-.176-.024-.256-.04s-.144-.024-.216-.04l-.24-.048c-.08-.016-.16-.04-.24-.056-.144-.048-.144-.048-.144.1v5.272c0,.16,0,.16.168.152h3.808a1.381,1.381,0,0,0,.36-.04.915.915,0,0,0,.256-.056.848.848,0,0,0,.24-.08.829.829,0,0,0,.256-.12,1.08,1.08,0,0,0,.264-.152,1.05,1.05,0,0,0,.256-.2,1.775,1.775,0,0,0,.3-.3,1.807,1.807,0,0,0,.28-.416c.016-.016.024-.04.04-.056a2.735,2.735,0,0,0,.3-1.28V5.162A.06.06,0,0,0,78.3,5.122Z" transform="translate(-70.354 -3.738)"/><path class="c" d="M87.441,5.071c-.072-.064-.216-.024-.32-.016h-3.44a1.243,1.243,0,0,0-.344.016.354.354,0,0,0-.16.016.682.682,0,0,0-.28.064h0a.5.5,0,0,0-.192.064.992.992,0,0,0-.3.112,1.075,1.075,0,0,0-.248.136.626.626,0,0,0-.176.12.8.8,0,0,0-.16.128,1.105,1.105,0,0,0-.216.216,1.275,1.275,0,0,0-.224.28,2.119,2.119,0,0,0-.24.44,2.3,2.3,0,0,0-.216.952c-.008,1.168,0,2.328,0,3.5,0,.016-.008.032.016.048.08-.056.16-.12.24-.184.08-.048.16-.1.24-.136.064-.032.136-.064.2-.1l.24-.1c.048-.016.1-.032.136-.048.064-.016.136-.04.2-.056.08-.016.16-.04.24-.056a1.859,1.859,0,0,1,.224-.04c.08-.016.16-.024.24-.04.1-.016.184-.024.28-.04a7.288,7.288,0,0,1,.48-.04c.088,0,.176,0,.256-.008h.456c.112.008.224.008.336.016a.868.868,0,0,1,.144.008c.112.008.224.024.336.032l.184.024c.088.016.176.024.256.04s.16.024.24.04.144.024.224.04c.1.024.2.04.3.064s.176.04.256.056c.064.008.056.056.056.1v1.016c-.1,0-.168-.08-.256-.1a.5.5,0,0,0-.176-.08c-.08-.056-.176-.056-.256-.1a.454.454,0,0,0-.176-.056,1.228,1.228,0,0,0-.28-.08.87.87,0,0,0-.24-.056.837.837,0,0,0-.24-.04.529.529,0,0,0-.192-.024h0a.707.707,0,0,0-.224-.016c-.008-.008-.008-.008-.016,0a1.257,1.257,0,0,0-.424,0,.817.817,0,0,0-.24.024,1.406,1.406,0,0,0-.264.056.5.5,0,0,0-.192.064.614.614,0,0,0-.224.1.758.758,0,0,0-.216.136.892.892,0,0,0-.24.216,1.032,1.032,0,0,0-.2.288c-.008.016-.016.024-.024.04a2.092,2.092,0,0,0-.184,1.12,1.706,1.706,0,0,0,.208.712,1.032,1.032,0,0,0,.2.288.919.919,0,0,0,.24.224.758.758,0,0,0,.216.136.561.561,0,0,0,.224.1.585.585,0,0,0,.2.064.557.557,0,0,0,.2.04.775.775,0,0,0,.3.032.8.8,0,0,0,.24,0,1.5,1.5,0,0,0,.328-.016.221.221,0,0,0,.072-.008.88.88,0,0,0,.248-.032h0a.686.686,0,0,0,.216-.04,1.059,1.059,0,0,0,.264-.064.739.739,0,0,0,.216-.064,1.047,1.047,0,0,0,.224-.072,1.019,1.019,0,0,0,.216-.088,1.349,1.349,0,0,0,.224-.1,2.441,2.441,0,0,1,.256-.1v1.024c0,.048,0,.088-.056.1-.1.024-.184.04-.28.064-.072.008-.144.024-.224.04s-.144.024-.216.04-.144.024-.216.04c-.1.016-.184.024-.28.04s-.184.024-.28.04l-.256.024c-.08,0-.16.008-.24.016a3.9,3.9,0,0,0-.432.016c-.144,0-.3-.008-.44-.008h-.144c-.1-.008-.2-.016-.3-.016a1.684,1.684,0,0,0-.2-.016l-.24-.024c-.1-.016-.2-.032-.3-.056-.064-.016-.136-.024-.2-.04-.088-.024-.176-.04-.256-.064a1.407,1.407,0,0,0-.24-.08l-.24-.1c-.072-.032-.144-.072-.216-.1-.08-.048-.16-.088-.24-.136-.088-.064-.176-.128-.28-.208v6.008c0,.032-.008.064.008.088h0c.024.016.048.008.072.008h3.128c.032,0,.056-.008.088-.008a3.892,3.892,0,0,0,.432,0,.684.684,0,0,0,.256-.008.615.615,0,0,0,.24-.024.974.974,0,0,0,.3-.056.953.953,0,0,0,.256-.08.91.91,0,0,0,.24-.1.713.713,0,0,0,.216-.12.788.788,0,0,0,.24-.16,1.249,1.249,0,0,0,.288-.256,1.145,1.145,0,0,0,.224-.256,1.724,1.724,0,0,0,.232-.36c.016-.032.032-.056.048-.088a2.677,2.677,0,0,0,.256-1.2V5.375C87.457,5.271,87.505,5.127,87.441,5.071Zm-6.28,15.848h0Z" transform="translate(-72.185 -3.735)"/><path class="d" d="M96.51,5.049h-3.6a1.865,1.865,0,0,0-.424.016.156.156,0,0,0-.056.008,1.075,1.075,0,0,0-.32.056.726.726,0,0,0-.264.08.617.617,0,0,0-.2.08,1.376,1.376,0,0,0-.3.16,1.621,1.621,0,0,0-.352.264,1.376,1.376,0,0,0-.344.336,1.652,1.652,0,0,0-.264.4c-.008.016-.016.024-.024.04a2.7,2.7,0,0,0-.3,1.248v2.648c0,.04.016.056.056.056.1,0,.2,0,.3-.008h3.5a1.221,1.221,0,0,0,.24.024c.088.016.176.024.256.04s.16.04.24.064c.064.024.12.048.184.072.088.056.176.1.256.16a1.421,1.421,0,0,1,.256.28,1.482,1.482,0,0,1,.1.232,1.221,1.221,0,0,1-.064.92,1.548,1.548,0,0,1-.224.288,2.876,2.876,0,0,1-.32.224,3.2,3.2,0,0,1-.536.168,4.319,4.319,0,0,1,.576.128c.088.04.176.072.264.112.08.056.16.1.24.16a1.88,1.88,0,0,1,.24.264,1.174,1.174,0,0,1,0,1.3,1.922,1.922,0,0,1-.3.32c-.088.056-.184.112-.272.16-.064.024-.136.056-.2.08-.1.024-.208.048-.3.08a.789.789,0,0,0-.192.024H90.1c-.024,0-.048-.008-.064.016h0c0,.032-.008.064-.008.1V20.8c0,.032.008.064.008.1h0c.024.032.064.016.088.016H93.87a.658.658,0,0,0,.216-.016,1.325,1.325,0,0,0,.256-.024.915.915,0,0,0,.256-.056.848.848,0,0,0,.24-.08,1.092,1.092,0,0,0,.264-.112.834.834,0,0,0,.256-.152,1.628,1.628,0,0,0,.32-.248,1.249,1.249,0,0,0,.264-.28,1.475,1.475,0,0,0,.24-.344,1.9,1.9,0,0,0,.24-.536,2.487,2.487,0,0,0,.136-.872V5.121C96.59,5.073,96.566,5.041,96.51,5.049Zm-6.1,15.856h0Zm3.7-5.344v-.008a.606.606,0,0,0-.24,0h.272C94.134,15.561,94.126,15.561,94.11,15.561Zm-.952-4.2a.628.628,0,0,1,0,1.032.577.577,0,0,1-.28.112.4.4,0,0,1-.168.016H91.454c-.072,0-.1-.008-.1-.088.008-.368,0-.736,0-1.1,0-.024-.016-.064.016-.08a3.608,3.608,0,0,1,.416,0,1.637,1.637,0,0,1,.28,0,1.368,1.368,0,0,1,.256,0,1.637,1.637,0,0,1,.28,0,.71.71,0,0,1,.224.008A.45.45,0,0,1,93.158,11.361Zm-1.784,3.328h1.512a.628.628,0,0,0,.36-.08.655.655,0,0,0,.36-.608.64.64,0,0,0-.352-.608.454.454,0,0,0-.264-.088h-.712c-.272,0-.552,0-.824-.008-.072,0-.1.016-.1.1v1.224C91.358,14.641,91.342,14.673,91.374,14.689Zm1.24-1.368a1.668,1.668,0,0,0-.2,0h.2Zm-.48,0h0a.688.688,0,0,0-.256,0h.256Z" transform="translate(-74.006 -3.737)"/></svg>