<svg xmlns="http://www.w3.org/2000/svg" width="24" height="18.651" viewBox="0 0 24 18.651"><defs><style>.a{fill:#eb001b;}.b{fill:#f79e1b;}.c{fill:#ff5f00;}.d{fill:#231f20;}</style></defs><path class="a" d="M47,16.57c-.008-.024-.032-.04-.048-.056A7.337,7.337,0,0,1,45.036,14.2a7.505,7.505,0,0,1-.52-1.264,7.339,7.339,0,0,1-.32-1.855,8.142,8.142,0,0,1,.04-1.168,7.344,7.344,0,0,1,.328-1.5,7.486,7.486,0,0,1,.592-1.32,7.793,7.793,0,0,1,1.016-1.384,7.658,7.658,0,0,1,.744-.7c.032-.024.064-.04.072-.08V4.918a1.013,1.013,0,0,0-.2-.168,7.235,7.235,0,0,0-1.384-.8,7.368,7.368,0,0,0-1.7-.52,3.961,3.961,0,0,0-.528-.064c-.1-.008-.184,0-.28-.016h-.96v.008a4.2,4.2,0,0,0-.632.048,7.4,7.4,0,0,0-2.487.848,7.233,7.233,0,0,0-1.48,1.08,7.571,7.571,0,0,0-.92,1.04,7.324,7.324,0,0,0-.984,1.847A7.066,7.066,0,0,0,35,10.412a8.7,8.7,0,0,0,.032,1.208,7.962,7.962,0,0,0,.336,1.512,6.6,6.6,0,0,0,.528,1.192,7.429,7.429,0,0,0,1.776,2.151,7.542,7.542,0,0,0,2.1,1.224,7.465,7.465,0,0,0,2.647.488c.168,0,.336-.008.512-.024a6.685,6.685,0,0,0,.792-.1,7.316,7.316,0,0,0,3.231-1.424A.111.111,0,0,0,47,16.578Z" transform="translate(-34.992 -3.342)"/><path class="b" d="M61.957,9.8a7.37,7.37,0,0,0-1.288-3.327,9.02,9.02,0,0,0-.7-.856,7.828,7.828,0,0,0-1.064-.928,7.386,7.386,0,0,0-1.216-.7,6.989,6.989,0,0,0-1.56-.512,5.151,5.151,0,0,0-1.056-.128V3.34h-.984v.008c-.168.008-.336.008-.5.032a7.38,7.38,0,0,0-1.368.32,7.036,7.036,0,0,0-1.232.544,7.416,7.416,0,0,0-.928.608c-.032.016-.056.032-.064.064v.008a.111.111,0,0,0,.056.064,6.9,6.9,0,0,1,.92.888,7.283,7.283,0,0,1,1.712,3.543A6.459,6.459,0,0,1,52.8,10.45a8.073,8.073,0,0,1-.016.88,6.952,6.952,0,0,1-.184,1.144,7.607,7.607,0,0,1-.7,1.832,7.585,7.585,0,0,1-1.84,2.2.111.111,0,0,0-.056.064v.008c.008.04.04.056.064.072a7.454,7.454,0,0,0,4.463,1.528c.24,0,.48-.008.72-.032a6.664,6.664,0,0,0,.88-.128,7.481,7.481,0,0,0,4.447-2.871,7.373,7.373,0,0,0,1.216-2.583A6.1,6.1,0,0,0,62,11.042,10.644,10.644,0,0,0,61.957,9.8Z" transform="translate(-37.997 -3.34)"/><path class="c" d="M49.292,5.32a4.225,4.225,0,0,1,.352.288,5.2,5.2,0,0,1,.424.416,8,8,0,0,1,.7.856A7.008,7.008,0,0,1,51.4,7.967a7.466,7.466,0,0,1,.544,1.608,6.726,6.726,0,0,1,.136.9,6.849,6.849,0,0,1,.024.992,7.38,7.38,0,0,1-.248,1.624,7.664,7.664,0,0,1-.4,1.112,7.529,7.529,0,0,1-.64,1.136c-.16.24-.344.464-.528.688a6.962,6.962,0,0,1-.536.552,4.458,4.458,0,0,1-.472.4,7.359,7.359,0,0,1-1.128-1.1,7.675,7.675,0,0,1-1.016-1.608,6.993,6.993,0,0,1-.544-1.7,7.216,7.216,0,0,1-.12-1.008c-.016-.248-.016-.488-.008-.736a7.414,7.414,0,0,1,.368-2.007,7.538,7.538,0,0,1,1.152-2.167,7.639,7.639,0,0,1,.84-.92A5.464,5.464,0,0,1,49.292,5.32Z" transform="translate(-37.289 -3.736)"/><g transform="translate(23.136 11.707)"><path class="b" d="M64.568,18.083c-.016.04-.04.088-.056.128-.008.016-.016.032-.04.032s-.032-.008-.04-.032c-.016-.04-.04-.08-.064-.128v.144c0,.016,0,.04-.024.04s-.024-.024-.024-.04v-.2c0-.016-.008-.04.024-.048s.048-.008.064.024c.024.048.048.1.072.16a1.208,1.208,0,0,0,.072-.144c.016-.032.032-.048.064-.04s.024.04.024.064v.176c0,.016.016.048-.024.048s-.024-.032-.024-.056v-.128Z" transform="translate(-64 -17.977)"/><path class="b" d="M64.048,17.98h.088c.016,0,.032,0,.032.024s-.016.032-.032.024c-.064-.008-.064.024-.064.072v.128c0,.024-.008.032-.032.032s-.024-.016-.024-.032v-.152c0-.032-.008-.048-.048-.048-.016,0-.048.008-.048-.024s.032-.024.048-.024Z" transform="translate(-63.92 -17.978)"/></g><g transform="translate(1.23 15.78)"><path class="d" d="M36.97,24.288a.753.753,0,0,1,1.224.056c.016-.008.024-.024.04-.04a.785.785,0,0,1,.752-.3.7.7,0,0,1,.672.744c.008.408,0,.816,0,1.224,0,.032-.008.04-.04.04h-.344c-.04,0-.056-.016-.048-.056V24.944a.894.894,0,0,0-.04-.288.36.36,0,0,0-.344-.256.451.451,0,0,0-.528.472c-.008.36-.008.712,0,1.072,0,.048-.008.072-.064.064-.1-.008-.208,0-.32,0-.04,0-.056-.008-.056-.056V24.936a.9.9,0,0,0-.04-.288.36.36,0,0,0-.344-.256.451.451,0,0,0-.528.472c-.008.36-.008.712,0,1.072,0,.048-.008.064-.064.064H36.57c-.032,0-.04-.008-.04-.048V24.072c0-.04.016-.048.048-.048h.328c.032,0,.048.008.048.048C36.962,24.16,36.97,24.216,36.97,24.288Z" transform="translate(-36.53 -23.256)"/><path class="d" d="M44.831,26.063a1.485,1.485,0,0,1-.8-.216c-.04-.024-.048-.048-.016-.088.048-.08.1-.152.144-.232.024-.04.032-.04.072-.016a1.078,1.078,0,0,0,.856.144.277.277,0,0,0,.128-.064.161.161,0,0,0-.032-.288,1.073,1.073,0,0,0-.352-.08,1.555,1.555,0,0,1-.392-.088.523.523,0,0,1-.376-.5.57.57,0,0,1,.36-.552A1.221,1.221,0,0,1,44.959,24a1.485,1.485,0,0,1,.664.168c.048.024.056.048.032.1-.048.08-.088.16-.128.24-.016.04-.032.048-.072.024a1.2,1.2,0,0,0-.7-.136.344.344,0,0,0-.176.072.165.165,0,0,0,.048.288,1.37,1.37,0,0,0,.36.072,1.651,1.651,0,0,1,.392.1.535.535,0,0,1,.352.424.559.559,0,0,1-.248.56.953.953,0,0,1-.528.16A.6.6,0,0,1,44.831,26.063Z" transform="translate(-38.025 -23.256)"/><path class="d" d="M46.93,24.83v-.48c0-.04-.008-.048-.048-.048h-.3c-.032,0-.048-.008-.048-.048v-.3c0-.04.016-.04.048-.04h.3c.04,0,.048-.008.048-.048v-.5c0-.04.016-.056.056-.056h.32c.04,0,.056.008.056.056v.5c0,.04.008.048.048.048H48c.056,0,.064.016.064.064v.28c0,.04-.008.048-.048.048h-.6c-.04,0-.048.008-.048.048v.864a.406.406,0,0,0,.024.136.221.221,0,0,0,.208.168.675.675,0,0,0,.392-.088c.032-.016.04-.016.056.024.032.1.056.184.1.28a.056.056,0,0,1-.032.08,1.02,1.02,0,0,1-.632.112.571.571,0,0,1-.536-.632,4.571,4.571,0,0,1-.016-.464Z" transform="translate(-38.532 -23.118)"/><path class="d" d="M54.6,26.073a.994.994,0,0,1-.928-.5,1.074,1.074,0,0,1,.264-1.36,1.171,1.171,0,0,1,.792-.2,1,1,0,0,1,.536.2c.032.024.032.032.016.064-.056.088-.1.176-.152.264-.016.04-.032.04-.072.016a.881.881,0,0,0-.44-.152.588.588,0,0,0-.624.568.6.6,0,0,0,.3.616.7.7,0,0,0,.632,0,.834.834,0,0,0,.144-.08c.024-.016.032-.016.048.008l.168.288c.024.032,0,.04-.016.056A.991.991,0,0,1,54.6,26.073Z" transform="translate(-39.936 -23.257)"/><path class="d" d="M59.7,24.289a.6.6,0,0,1,.352-.264.908.908,0,0,1,.44.016c.032.008.032.024.024.048-.04.112-.072.216-.1.328-.008.032-.024.032-.048.024a1.008,1.008,0,0,0-.224-.04.387.387,0,0,0-.416.36,1.24,1.24,0,0,0-.008.176v1.016c0,.04-.008.056-.056.056-.112-.008-.216,0-.328,0-.032,0-.048-.008-.048-.048V24.081c0-.04.008-.048.048-.048h.336c.032,0,.048.008.048.04A.982.982,0,0,0,59.7,24.289Z" transform="translate(-41.085 -23.257)"/><path class="d" d="M52.252,24.274h.016a.653.653,0,0,1,.76-.232c.04.008.048.024.032.064-.04.1-.072.208-.1.32-.008.032-.016.04-.048.024a.743.743,0,0,0-.232-.04.382.382,0,0,0-.408.344,1.426,1.426,0,0,0-.016.184v1.016c0,.048-.016.056-.056.056h-.32c-.048,0-.056-.016-.056-.056V24.1c0-.04.008-.056.048-.056H52.2c.04,0,.048.008.048.048A1.479,1.479,0,0,1,52.252,24.274Z" transform="translate(-39.591 -23.258)"/><path class="d" d="M63.021,24.6V23.126c0-.04-.008-.056-.056-.056h-.32c-.048,0-.048.016-.048.056v.912a.074.074,0,0,1-.008.056.737.737,0,0,0-.36-.24.919.919,0,0,0-.888.192,1.043,1.043,0,0,0-.312,1.1.956.956,0,0,0,1.176.7A.782.782,0,0,0,62.6,25.6v.2c0,.032.008.04.04.04h.328c.048,0,.064-.008.064-.056C63.021,25.381,63.021,24.989,63.021,24.6Zm-.712.816a.627.627,0,1,1-.432-1.176.638.638,0,0,1,.432,1.176Z" transform="translate(-41.427 -23.07)"/><path class="d" d="M42.949,24.114c0-.048-.016-.064-.056-.056-.1,0-.208.008-.312,0-.048,0-.064.016-.064.064a1.286,1.286,0,0,1,0,.176.775.775,0,0,0-.272-.216.956.956,0,0,0-1.024.192,1.065,1.065,0,0,0-.28,1.048.963.963,0,0,0,1.136.736.73.73,0,0,0,.432-.264v.184c0,.04.008.048.048.048h.336c.04,0,.048-.008.048-.048v-.3C42.949,25.153,42.949,24.634,42.949,24.114Zm-.888,1.544a.633.633,0,0,1-.392-1.176.592.592,0,0,1,.872.568A.58.58,0,0,1,42.061,25.657Z" transform="translate(-37.406 -23.258)"/><path class="d" d="M58.011,24.046h-.344c-.032,0-.04.008-.04.04v.184a1.227,1.227,0,0,1-.1-.1.842.842,0,0,0-.84-.128,1.06,1.06,0,0,0-.184,1.871.875.875,0,0,0,1.112-.128h.016v.176c0,.032.008.04.04.04h.344c.032,0,.04-.016.04-.048V24.078C58.051,24.062,58.051,24.046,58.011,24.046Zm-.952,1.616a.6.6,0,0,1-.6-.632.6.6,0,1,1,.6.632Z" transform="translate(-40.432 -23.254)"/><path class="d" d="M50.784,24.824a.911.911,0,0,0-.808-.816.939.939,0,0,0-.872.344,1.083,1.083,0,0,0-.216.792.972.972,0,0,0,.352.7,1.213,1.213,0,0,0,1.44-.04c.024-.024.016-.032,0-.056-.056-.08-.112-.168-.168-.248-.016-.032-.032-.032-.056-.008a.912.912,0,0,1-.448.176.561.561,0,0,1-.68-.472h1.408c.048,0,.056-.008.056-.056A1.427,1.427,0,0,0,50.784,24.824Zm-.472.04h-.928c-.04,0-.048-.008-.04-.048a.523.523,0,0,1,.7-.408.537.537,0,0,1,.32.416C50.352,24.872,50.328,24.864,50.312,24.864Z" transform="translate(-39.003 -23.257)"/></g><g transform="translate(23.336 18.259)"><path class="d" d="M64.37,26.17a.2.2,0,0,0-.2.192.209.209,0,0,0,.2.2.2.2,0,1,0,0-.392Zm.008.344a.147.147,0,0,1-.152-.152.152.152,0,0,1,.3,0A.157.157,0,0,1,64.378,26.514Z" transform="translate(-64.17 -26.17)"/><g transform="translate(0.128 0.112)"><path class="d" d="M64.33,26.478V26.31H64.4a.06.06,0,0,1,.04.008c.008,0,.016.008.024.016a.029.029,0,0,1,.008.024c0,.016,0,.024-.008.032a.042.042,0,0,1-.032.016c.008.008.016.008.016.016s.008.016.016.032l.024.032h-.04l-.024-.04a.1.1,0,0,0-.016-.024l-.008-.008h-.024v.072H64.33Zm.032-.1h.056a.008.008,0,0,0,.008-.008v-.016c0-.008,0-.008-.008-.016a.028.028,0,0,0-.016-.008h-.048v.048Z" transform="translate(-64.33 -26.31)"/></g></g></svg>