<svg xmlns="http://www.w3.org/2000/svg" width="24" height="7.752" viewBox="0 0 24 7.752"><defs><style>.a{fill:#1a1f71;}</style></defs><path class="a" d="M28.264,17.816H26.48c-.072-.328-.136-.648-.2-.976-.024-.112-.064-.144-.176-.144-.736.008-1.48.008-2.216,0a.162.162,0,0,0-.184.128c-.1.3-.208.6-.328.9a.155.155,0,0,1-.112.088c-.632.008-1.264,0-1.9,0-.016,0-.024-.008-.048-.008.12-.28.232-.56.344-.84.848-2.016,1.688-4.04,2.536-6.056a.882.882,0,0,1,.888-.592h1.48c.1,0,.136.016.16.12.5,2.408,1.008,4.816,1.5,7.224A1.3,1.3,0,0,1,28.264,17.816ZM25.344,12.4H25.32c-.336.92-.664,1.832-1,2.76h1.6Q25.632,13.768,25.344,12.4Z" transform="translate(-4.264 -10.186)"/><path class="a" d="M5.056,15.416c.072-.184.136-.344.2-.5.592-1.488,1.176-2.976,1.768-4.472a.167.167,0,0,1,.184-.128c.584.008,1.176,0,1.76,0h.144a1.661,1.661,0,0,1-.064.16C8.04,12.888,7.024,15.3,6.024,17.712a.157.157,0,0,1-.168.112c-.608-.008-1.208-.008-1.816,0-.1,0-.128-.024-.152-.12Q3.12,14.74,2.36,11.776a.912.912,0,0,0-.528-.64A8.913,8.913,0,0,0,.088,10.56.209.209,0,0,1,0,10.536c.016-.064.024-.128.04-.208H3.28a.9.9,0,0,1,.96.808c.256,1.376.52,2.744.776,4.12C5.024,15.3,5.04,15.336,5.056,15.416Z" transform="translate(0 -10.186)"/><path class="a" d="M14.52,17.519c.12-.552.232-1.088.352-1.64.072.032.144.056.208.088a3.752,3.752,0,0,0,2.024.36,1.34,1.34,0,0,0,.648-.224.555.555,0,0,0,.072-.92,5.3,5.3,0,0,0-.664-.44c-.352-.216-.728-.4-1.056-.64a1.91,1.91,0,0,1-.336-2.784,2.874,2.874,0,0,1,1.672-1.024,5.012,5.012,0,0,1,2.888.16c.024.008.048.024.088.04-.112.52-.224,1.04-.336,1.576-.048-.016-.1-.032-.136-.048a3.711,3.711,0,0,0-1.688-.288,1.22,1.22,0,0,0-.68.232.472.472,0,0,0-.016.8c.232.176.5.312.76.472.336.208.688.392,1.008.624a1.846,1.846,0,0,1,.68,2.04,2.4,2.4,0,0,1-1.616,1.72,4.923,4.923,0,0,1-2.232.256,5.514,5.514,0,0,1-1.392-.28A1.806,1.806,0,0,1,14.52,17.519Z" transform="translate(-2.904 -10.153)"/><path class="a" d="M13.966,10.33c-.072.344-.136.664-.208.984-.448,2.112-.9,4.224-1.352,6.336-.032.144-.08.184-.224.176-.528-.008-1.056,0-1.584,0H10.43c.04-.208.08-.408.128-.608.432-2.024.864-4.056,1.3-6.08.048-.24.1-.48.16-.712.008-.04.056-.1.088-.1Z" transform="translate(-2.086 -10.188)"/></svg>