<svg xmlns="http://www.w3.org/2000/svg" width="25.799" height="22.705" viewBox="0 0 25.799 22.705"><defs><style>.a{fill:#fff;stroke:#fff;stroke-width:0.8px;}</style></defs><g transform="translate(0.399 0.398)"><g transform="translate(0 0)"><g transform="translate(0 0)"><path class="a" d="M45.156,62.29h-15.5c-2.059,0-4.119.016-6.184,0a.542.542,0,0,1-.592-.557c-.005-.3,0-.611,0-.913V51.626c0-.838-.044-1.686,0-2.524.038-.686.92-.53,1.424-.53H44.839a1.564,1.564,0,0,1,.531.038c.362.151.323.508.323.832V61.527c-.011.373-.077.751-.537.762a.541.541,0,0,0,0,1.081,1.65,1.65,0,0,0,1.621-1.719V49.485a2.063,2.063,0,0,0-.3-1.313c-.586-.8-1.528-.681-2.394-.681H30.11c-2.2,0-4.4-.011-6.6,0a1.666,1.666,0,0,0-1.687,1.243,4.731,4.731,0,0,0-.033.924v4.011c0,2.686-.027,5.373,0,8.059a1.639,1.639,0,0,0,1.632,1.643c.175.005.356,0,.531,0h21.2A.541.541,0,0,0,45.156,62.29Z" transform="translate(-21.778 -47.484)"/></g></g><g transform="translate(0.008 8.613)"><g transform="translate(0)"><path class="a" d="M22.455,207.929H43.433c.969,0,1.944.032,2.908,0h.044a.541.541,0,0,0,0-1.081H25.407c-.969,0-1.944-.032-2.908,0h-.044a.541.541,0,0,0,0,1.081Z" transform="translate(-21.925 -206.833)"/></g></g><g transform="translate(0.008 11.65)"><g transform="translate(0 0)"><path class="a" d="M22.455,264.129H43.433c.969,0,1.944.032,2.908,0h.044a.541.541,0,0,0,0-1.081H25.407c-.969,0-1.944-.032-2.908,0h-.044a.541.541,0,0,0,0,1.081Z" transform="translate(-21.925 -263.033)"/></g></g><g transform="translate(7.231 14.823)"><g transform="translate(0)"><path class="a" d="M153.8,322.248v6a.55.55,0,0,0,.822.465l4.256-2.627c.2-.124.405-.249.608-.378h-.553q2,1.313,4,2.627c.192.124.383.254.575.378a.55.55,0,0,0,.822-.465v-6a.548.548,0,0,0-1.1,0v6c.274-.157.548-.313.822-.465q-2-1.313-4-2.627c-.192-.124-.383-.254-.575-.378a.548.548,0,0,0-.553,0l-4.256,2.627c-.2.124-.405.249-.608.378.274.157.548.314.822.465v-6a.543.543,0,0,0-1.085,0Z" transform="translate(-153.8 -321.725)"/></g></g></g></svg>