<svg xmlns="http://www.w3.org/2000/svg" width="18.322" height="25.23" viewBox="0 0 18.322 25.23"><defs><style>.a{fill:#fff;stroke:#fff;stroke-width:0.5px;}</style></defs><g transform="translate(0.25 0.25)"><path class="a" d="M43.324,40.092V34.84a5.465,5.465,0,0,0-2.864-4.532,7.374,7.374,0,1,0-12.166.045A5.449,5.449,0,0,0,25.5,34.84v5.253H27V34.84A4.067,4.067,0,0,1,29.271,31.5a7.345,7.345,0,0,0,3.523,1.892l-1.533,7.477,3.152,2.522,3.152-2.522-1.56-7.5a7.348,7.348,0,0,0,3.484-1.906,4.087,4.087,0,0,1,2.338,3.375v5.253h1.5Zm-8.91,1.383-1.5-1.2,1.261-6.149h.462l1.28,6.15Zm-.054-9.407a5.92,5.92,0,1,1,5.878-5.92A5.9,5.9,0,0,1,34.359,32.068Z" transform="translate(-25.502 -18.731)"/></g></svg>