<svg xmlns="http://www.w3.org/2000/svg" width="23.364" height="25.06" viewBox="0 0 23.364 25.06"><defs><style>.a{fill:#fff;stroke:#fff;stroke-width:0.4px;}</style></defs><g transform="translate(0.2 0.2)"><path class="a" d="M68.254,27.063a3.771,3.771,0,0,1-.424-.368l-.018-.016c-.028-.026-.053-.053-.078-.081l-.171-.172a1.857,1.857,0,0,1-.143-.141c-.026-.029-.05-.06-.073-.091V26.2l-1.62-2.231v-2.1a1.361,1.361,0,0,0-1.36-1.36H49.229a1.361,1.361,0,0,0-1.36,1.36v2.1l-1.584,2.182a3.276,3.276,0,0,1-.2.3c-.014.029-.028.059-.043.088a2.2,2.2,0,0,1-.722.782v2.363a.955.955,0,0,1,.064.094l.011.019,0,0c.033.029.064.06.1.088.078.066.161.125.239.19s.177.161.264.244l.045.041.079.051.013.01a1.115,1.115,0,0,1,.214.164,2.655,2.655,0,0,0,1.524.563V43.81a1.361,1.361,0,0,0,1.36,1.36H64.367a1.361,1.361,0,0,0,1.36-1.36V40.547a.467.467,0,1,0-.934,0V43.81a.426.426,0,0,1-.426.426H49.229a.426.426,0,0,1-.426-.426V31.023a2.682,2.682,0,0,0,1.385-1.035,2.667,2.667,0,0,0,4.406,0,2.667,2.667,0,0,0,4.406,0,2.667,2.667,0,0,0,4.406,0,2.681,2.681,0,0,0,1.385,1.035V38.37a.467.467,0,0,0,.934,0V31.148a2.653,2.653,0,0,0,1.445-.5,3.6,3.6,0,0,1,.783-.612,2.618,2.618,0,0,1,.325-.2V27.082ZM49.722,28.481a1.736,1.736,0,1,1-3.472,0v-.376h3.472Zm.161-1.31H46.7l1.876-2.584h2.434Zm4.245,1.31a1.736,1.736,0,1,1-3.472,0v-.376h3.472Zm.063-1.31H50.9l1.125-2.584h2.539Zm4.343,1.31a1.736,1.736,0,1,1-3.472,0v-.376h3.472Zm-3.4-1.31.375-2.584h2.576l.375,2.584ZM48.8,23.654V21.87a.426.426,0,0,1,.426-.426H64.367a.426.426,0,0,1,.426.426v1.784Zm10.227.934h2.539l1.125,2.584H59.405Zm3.91,3.893a1.736,1.736,0,1,1-3.472,0v-.376H62.94Zm.773-1.31-1.125-2.584h2.434L66.9,27.172Zm3.633,1.31h0a1.736,1.736,0,1,1-3.472,0v-.376h3.472Z" transform="translate(-45.316 -20.51)"/><path class="a" d="M185.506,306.494a.467.467,0,1,0,.922-.15l-.261-1.61a.467.467,0,1,0-.922.15Z" transform="translate(-176.526 -286.669)"/><path class="a" d="M255.384,306.881a.48.48,0,0,0,.075.006.467.467,0,0,0,.46-.392l.261-1.61a.467.467,0,1,0-.922-.15l-.261,1.61A.467.467,0,0,0,255.384,306.881Z" transform="translate(-241.936 -286.669)"/><path class="a" d="M222.68,306.885a.467.467,0,0,0,.467-.467v-1.61a.467.467,0,0,0-.934,0v1.61A.467.467,0,0,0,222.68,306.885Z" transform="translate(-211.198 -286.667)"/><path class="a" d="M144.636,217.612h-1.364l-1.837-1.965a.467.467,0,1,0-.682.638l1.24,1.327h-3.975l1.24-1.327a.467.467,0,1,0-.682-.638l-1.837,1.965h-1.364a1.326,1.326,0,0,0-.438,2.578l.745,4.077a1.385,1.385,0,0,0,1.363,1.137h5.921a1.385,1.385,0,0,0,1.363-1.137l.745-4.077a1.326,1.326,0,0,0-.438-2.578Zm-1.225,6.487a.452.452,0,0,1-.444.371h-5.921a.452.452,0,0,1-.444-.371l-.7-3.833h8.21Zm1.257-4.769-.034,0h-9.258l-.033,0a.393.393,0,0,1,.032-.784h9.26a.393.393,0,0,1,.032.784Z" transform="translate(-128.524 -203.358)"/></g></svg>