<svg xmlns="http://www.w3.org/2000/svg" xmlns:xlink="http://www.w3.org/1999/xlink" width="43.543" height="43.543" viewBox="0 0 43.543 43.543"><defs><style>.a{fill:#fefefe;}.b{fill:url(#a);}</style><radialGradient id="a" cx="0.206" cy="0.187" r="1.05" gradientTransform="translate(0.003) scale(0.994 1)" gradientUnits="objectBoundingBox"><stop offset="0" stop-color="#9bd4f5"/><stop offset="0.183" stop-color="#7abee8"/><stop offset="0.424" stop-color="#55a5d9"/><stop offset="0.648" stop-color="#3a93ce"/><stop offset="0.847" stop-color="#2a88c7"/><stop offset="1" stop-color="#2484c5"/></radialGradient></defs><path class="a" d="M126.779,43.553H105.1c-.087,0-.1-.015-.1-.1V.112c0-.087.015-.1.1-.1h43.34c.087,0,.1.015.1.1v43.34c0,.087-.014.1-.1.1Z" transform="translate(-105 -0.01)"/><path class="a" d="M105.786,16.215c-.029-.029-.015-.073-.015-.1V13.776a.4.4,0,0,1,.015-.131.164.164,0,0,1,.015-.116c.16-.363.319-.726.465-1.089.16-.334.29-.668.436-1,.116-.247.218-.508.334-.755.116-.276.058-.247.363-.247h2.628a.214.214,0,0,1,.218.116c.1.189.174.392.276.566V10.6c0-.131.044-.16.174-.16h3.223a.494.494,0,0,1,.145.015c.073.044.087.116.116.189l.131.3c.174.407.363.813.537,1.205.073-.189.16-.363.232-.552.131-.334.29-.653.421-.987.058-.16.073-.174.247-.174h10.831c.145-.015.29.029.45.029a1.105,1.105,0,0,1,.3.044,1.633,1.633,0,0,1,.45.145,1.277,1.277,0,0,0,.145.087c.029.015.058.058.087.044s.015-.058.029-.1V10.64c0-.174.015-.174.174-.189h2.788c.116,0,.145.029.16.145v.015c0,.2,0,.189.189.116a2.912,2.912,0,0,1,.842-.232,10.975,10.975,0,0,1,1.379-.073h2.57c.421,0,.828-.015,1.249,0a.1.1,0,0,1,.087.044,5.259,5.259,0,0,1,.363.7c0,.015,0,.015-.015.015h.015v-.552c0-.16.029-.189.189-.189h2.962a.243.243,0,0,1,.247.145c.1.174.2.363.3.552V10.6c0-.073.014-.131.087-.16.247-.015.479,0,.726-.015h2.294c.131,0,.145.029.16.16v6.49c0,.116-.029.145-.145.145h-3.005a.176.176,0,0,1-.174-.1c-.174-.29-.349-.566-.508-.857,0-.015-.015,0-.015,0h.015a.184.184,0,0,1,.015.087v.711c0,.116-.029.145-.145.145h-3.775a.206.206,0,0,1-.218-.145c-.058-.16-.131-.319-.189-.479-.044-.1-.087-.218-.131-.319s-.073-.116-.174-.116h-.711a.144.144,0,0,0-.16.116c-.116.261-.232.523-.334.8a.243.243,0,0,1-.261.174c-.29-.015-.566,0-.857,0a9.709,9.709,0,0,1-1.946-.087c-.029,0-.058-.015-.1-.015a3.253,3.253,0,0,1-.726-.232c-.1-.044-.1-.044-.1.058,0,.276,0,.276-.29.276H126.3c-.174,0-.189-.029-.189-.189V15.605a.156.156,0,0,0-.247-.116.111.111,0,0,0-.029.131v1.452a.4.4,0,0,1-.015.131l-.029.029a2.973,2.973,0,0,1-.508.015h-8.871c-.058-.015-.116.015-.174-.015a.1.1,0,0,1-.044-.087V16.52c-.058.131-.116.261-.174.407-.029.058-.044.116-.073.189a.183.183,0,0,1-.218.131h-1.713a.239.239,0,0,1-.261-.174c-.058-.16-.131-.3-.189-.465-.015-.044-.044-.087-.029-.131.014.174.014.377.014.566s-.014.189-.189.189h-3.6a.177.177,0,0,1-.189-.131l-.131-.3c-.058-.174-.145-.348-.218-.537a.14.14,0,0,0-.131-.087h-.77a.139.139,0,0,0-.131.087c-.015.044-.044.073-.058.116-.058.131-.116.247-.16.378a2.054,2.054,0,0,1-.116.261c-.044.058-.029.145-.116.16H105.9c-.087,0-.131-.015-.131-.116.015-.232,0-.45,0-.682,0-.087.029-.116.116-.116h1.031c.044,0,.087.015.116-.015-.015-.087.058-.16.073-.247.1-.232.189-.465.29-.7a.21.21,0,0,1,.232-.16h2.134a.164.164,0,0,1,.189.131.776.776,0,0,0,.073.16c.087.218.189.436.261.668a.159.159,0,0,0,.174.116h2.018c.131,0,.131-.015.131-.145V12.614c0-.044-.015-.087.044-.1s.058.044.073.073c.044.1.087.189.131.29.145.334.29.653.436.987.087.2.174.392.261.6.058.16.145.319.2.479.116.276.247.552.363.828a3.944,3.944,0,0,1,.16.363.14.14,0,0,0,.145.1h.77a.14.14,0,0,0,.145-.1c.1-.218.174-.45.29-.653.131-.261.247-.552.363-.813a.292.292,0,0,1,.058-.116c.1-.218.174-.45.276-.668.015-.044.044-.087.058-.131.131-.276.261-.566.377-.857.058-.116.1-.232.16-.334.014-.015.014-.044.044-.044s.029.029.044.058c.015.073,0,.131.015.2v3.267c0,.058-.015.116.029.16s.073.015.116.015H118c.131,0,.131-.015.145-.145V11.627a.32.32,0,0,0-.014-.116c-.029-.044-.073-.029-.1-.029h-1.612a.159.159,0,0,0-.174.116c-.1.261-.218.508-.319.755-.145.319-.276.639-.406.944-.116.247-.218.508-.319.77-.087.189-.16.377-.232.566-.015.029-.029.073-.073.073s-.058-.044-.073-.073a2.561,2.561,0,0,1-.131-.29c-.073-.189-.16-.363-.247-.537-.16-.348-.319-.7-.479-1.031-.189-.392-.363-.77-.537-1.162a.146.146,0,0,0-.16-.1h-1.6c-.1,0-.116.015-.131.145v4.152a.25.25,0,0,1-.029.174c-.058.029-.058-.029-.073-.058-.029-.058-.058-.116-.087-.189-.044-.116-.1-.232-.145-.363-.1-.232-.2-.479-.3-.711-.1-.261-.218-.508-.334-.77s-.218-.508-.334-.77c-.218-.494-.436-.987-.639-1.481a.188.188,0,0,0-.2-.131h-1.365a.192.192,0,0,0-.218.145c-.044.131-.1.247-.16.377-.1.218-.189.45-.29.668-.087.174-.16.363-.232.552l-.131.3a2.24,2.24,0,0,0-.116.276c-.087.174-.16.363-.232.552s-.145.334-.218.508c-.1.218-.189.45-.29.668s-.174.421-.276.639C105.844,16.157,105.829,16.2,105.786,16.215Z" transform="translate(-104.653 4.692)"/><path class="a" d="M120.532,16.166H123.8a3.512,3.512,0,0,1,.871.131,1.478,1.478,0,0,1,.494.261V16.18h3.644a3.562,3.562,0,0,1,1.1.16,2.63,2.63,0,0,1,.508.232V16.18h5.532c.073,0,.1.015.087.087v.3a1.894,1.894,0,0,1,.7-.319,9.73,9.73,0,0,1,1.6-.073h1.989c.232,0,.232,0,.232.232v.145a.544.544,0,0,1,.145-.087,2.45,2.45,0,0,1,1.1-.29c.77-.015,1.539,0,2.309,0v.828c0,.087-.029.116-.116.116h-2.163c-.044,0-.1-.015-.131.015-.073.058-.16.044-.232.058a1.514,1.514,0,0,0-.842.392,1.184,1.184,0,0,0-.377.784,1.853,1.853,0,0,0,.073.8.974.974,0,0,0,.392.508,2.186,2.186,0,0,0,1,.3c.3.029.61.015.915.073a.706.706,0,0,1,.174.015.416.416,0,0,1,.015.828c-.029,0-.044.015-.073.015H142.7c-.7,0-1.394.044-2.091.029h-.087c-.087,0-.116.029-.116.116v.74c0,.073.029.116.1.116.74,0,1.5.044,2.236.029a.053.053,0,0,0,.044-.015,1.694,1.694,0,0,0,1.321-.552c.029.015.029.044.029.073V22.5a.107.107,0,0,1-.029.087,3.4,3.4,0,0,1-1.466.29c-.828.015-1.641,0-2.468,0h-.61c-.058,0-.087-.015-.087-.087v-.334a2.247,2.247,0,0,1-.74.334,5.256,5.256,0,0,1-.668.087h-9.394c-.1,0-.145-.015-.145-.131.015-.465,0-.929,0-1.394v-.116a.1.1,0,0,0-.1-.1c-.247-.029-.247-.029-.247.218v1.408c0,.087-.029.116-.116.116h-2.962c-.029-.029-.015-.073-.015-.116v-1.7a2.744,2.744,0,0,1-.755.189,9.227,9.227,0,0,1-1.1.044c-.1,0-.116.029-.116.116v1.249c0,.2,0,.2-.2.2h-3.557c-.087-.1-.189-.2-.276-.3a3.667,3.667,0,0,0-.3-.363c-.087-.1-.174-.189-.261-.29-.044-.058-.087-.073-.145,0-.276.3-.566.61-.842.9a.168.168,0,0,1-.145.058h-6a.32.32,0,0,1-.014-.116V16.282c0-.145-.015-.131.131-.131h5.967c.044,0,.087-.015.116.015.145.174.3.348.45.523.131.145.247.29.378.45.044.044.058.029.1,0,.276-.3.552-.6.828-.9a.208.208,0,0,1,.16-.073Z" transform="translate(-102.121 7.283)"/><path class="b" d="M146.713,28.264a1.75,1.75,0,0,0,0-1.786V.9c0-.145,0-.145-.145-.145H105.914c-.044,0-.1-.015-.131.029V2.827h0V17.941A.087.087,0,0,0,105.8,18c.174-.392.334-.8.508-1.191q.24-.5.436-1c.116-.247.232-.494.319-.74a.781.781,0,0,0,.073-.16c.014-.073.058-.087.131-.087h2.642c.319,0,.232-.058.378.247.087.16.16.334.247.508a3.017,3.017,0,0,0,.015-.624c0-.087.029-.131.116-.131h3.281c.044,0,.087-.015.131.015.073.145.131.319.218.465.174.421.363.828.552,1.263.131-.29.247-.566.363-.828s.218-.479.3-.74c.029-.145.116-.189.261-.174.189.015.392,0,.581,0H126.5c.145,0,.3.015.45.015l.3.044a2.556,2.556,0,0,1,.436.145c.073.044.145.1.218.145.044.029.058.029.058-.029v-.174c-.015-.1.015-.16.131-.145h2.12a1.4,1.4,0,0,0,.348,0,3.024,3.024,0,0,0,.363,0c.073,0,.1.029.1.1v.29a3.138,3.138,0,0,1,1.045-.334c.218-.015.436-.044.653-.044.247,0,.494-.015.741-.015q.675.022,1.35,0c.407.015.828.015,1.234,0q.632.022,1.263,0c.058,0,.073.044.087.087.116.232.232.45.348.682a4.537,4.537,0,0,0,.015-.624c0-.116.029-.131.131-.131h.711q.675.022,1.35,0c.276,0,.566.015.842,0a.319.319,0,0,1,.363.218c.087.189.2.363.3.537a4.82,4.82,0,0,0,.029-.639c0-.044-.014-.087.044-.116q.632.022,1.263,0,.7.022,1.394,0a3.531,3.531,0,0,0,.392,0c.087,0,.116.029.116.116v6.49c0,.087-.015.1-.1.1h-2.73a1.939,1.939,0,0,0-.29,0,.157.157,0,0,1-.16-.087c-.131-.232-.276-.465-.407-.7-.044-.073-.087-.145-.131-.2-.015.3-.015.6-.015.886,0,.073-.014.1-.1.1h-3.819c-.087,0-.116-.015-.145-.1-.058-.174-.145-.334-.218-.508-.044-.131-.1-.261-.145-.377a.11.11,0,0,0-.116-.087h-.813a.127.127,0,0,0-.131.087c-.116.3-.247.6-.363.886a.113.113,0,0,1-.131.087h-1.452a7.547,7.547,0,0,1-1.51-.1,4.774,4.774,0,0,1-.871-.3v.116c0,.087.044.2-.015.261s-.174.015-.276.015h-4.617c-.073,0-.087-.015-.087-.087V19.9c0-.1-.058-.131-.145-.145h-.1c-.087-.015-.1.029-.1.1v1.263a1.937,1.937,0,0,1-.015.407h-9.583v-.784h-.029c-.073.174-.131.334-.2.508a.607.607,0,0,0-.058.145c-.029.131-.116.145-.232.131-.2-.015-.407,0-.61,0h-1.118a.14.14,0,0,1-.145-.1c-.087-.232-.189-.465-.29-.682-.015.218-.015.436-.015.639,0,.16.015.131-.145.131h-3.63a.113.113,0,0,1-.131-.087c-.044-.116-.1-.232-.145-.348-.073-.189-.16-.377-.232-.566a.08.08,0,0,0-.087-.058h-.871a.08.08,0,0,0-.087.058c-.029.058-.044.131-.073.189a3.94,3.94,0,0,0-.16.363,1.934,1.934,0,0,0-.1.261c-.044.058-.044.131-.087.174l-.029.029h-1.815c-.1-.015-.131.029-.116.131a4.084,4.084,0,0,1,0,.421V41.637c0,.116.029.131.131.131h40.741c.043-.044.029-.1.029-.145C146.713,37.208,146.713,32.736,146.713,28.264Zm-1.045-2.294a.014.014,0,0,0-.014.015.493.493,0,0,0-.145-.015l-1.074-.044c-.319-.015-.45-.16-.465-.479a.472.472,0,0,1,.145-.261.642.642,0,0,1,.363-.087h2.178V26.29a.209.209,0,0,0,.029.1A1.381,1.381,0,0,0,145.668,25.97Zm-16.9-23.4c0-.015-.015-.015-.015-.029S128.767,2.551,128.767,2.566Zm-7.811,1.757a1.461,1.461,0,0,0,.1.218A1.464,1.464,0,0,1,120.956,4.322Zm-.886.7c0,.015.014.029.014.044-.014-.044-.029-.073-.044-.116C120.041,4.976,120.056,4.99,120.07,5.019Zm1.06,4.356a.087.087,0,0,1-.015.058v.015A.109.109,0,0,1,121.13,9.375Zm-.319,1.205c.015-.044.029-.073.044-.116A1,1,0,0,0,120.811,10.58Zm1.815-2.918c0-.087-.015-.189-.015-.276,0,.044.015.087.015.131A.487.487,0,0,1,122.626,7.662Zm1.5-2.352c.015.044.015.087.029.116C124.136,5.4,124.136,5.353,124.121,5.31Zm1.35-1.1c-.073-.218-.131-.45-.218-.668C125.341,3.756,125.4,3.988,125.472,4.206ZM123.192,2.1Zm-16,2.062a.8.8,0,0,1,.087-.116A.8.8,0,0,0,107.192,4.163Zm12.965,8.218-.044.087-.131.174Zm4.269-2.918a.4.4,0,0,1-.015.131c0,.029-.015.058-.015.087C124.412,9.607,124.412,9.535,124.426,9.462Zm3.63,1.946c-.029.145-.058.276-.1.421C128,11.684,128.027,11.553,128.056,11.408ZM109.021,13.6a2.081,2.081,0,0,0-.218-.16A2.078,2.078,0,0,0,109.021,13.6Zm8.319.639c-.145.1-.29.189-.436.276C117.05,14.413,117.2,14.326,117.341,14.239Zm6.592-2.047c-.044.1-.073.2-.116.3a.051.051,0,0,1-.015.029C123.845,12.424,123.889,12.308,123.933,12.192Zm2.773.653-.044.131c-.015.044-.044.073-.058.116A1.256,1.256,0,0,0,126.706,12.845Zm1.016-1.67c0,.029-.015.058-.015.087s-.015.044-.015.073A.616.616,0,0,1,127.722,11.175Zm1.365,1.873v.015c0,.015-.015.029-.015.044A.087.087,0,0,1,129.087,13.048Zm1.394.682v.015c0,.015,0,.015-.015.029A.053.053,0,0,1,130.481,13.731Zm.813-.929-.044.131ZM115.773.78a.014.014,0,0,1-.014-.015c0,.015,0,.015.014.015Zm-6.011,0Zm-1.931,0c-.015,0-.015,0-.029.015a.014.014,0,0,0,.015-.015ZM122.9,14.253a.014.014,0,0,1-.015.015c0,.015-.015.015-.015.029C122.887,14.283,122.887,14.268,122.9,14.253Zm21.924,5.532h0c-.014,0-.014-.015-.014-.029C144.826,19.771,144.811,19.785,144.826,19.785Zm-11.8,3.31Zm-19.107,3.731h0a.6.6,0,0,0,0-.45h0Zm0-2.483Zm-.015.74Zm0-.3Zm.015-.668Zm3.819-1.917c.174-.058.348-.116.523-.189-.073.029-.16.073-.232.1S117.834,22.166,117.733,22.2Zm-7.376-.189a2.255,2.255,0,0,1-.3-.058A2.254,2.254,0,0,0,110.357,22.007Zm-.3,3.165a.849.849,0,0,0-.189-.029A.735.735,0,0,1,110.052,25.172Zm27.064,4.69Zm-19.528,0h0c0-.015.015-.015,0,0C117.6,29.862,117.6,29.847,117.588,29.862ZM113.914,28.4Zm-.015-2.483Zm-.014-2.105h0Zm3.122-.711Zm28.08,6.708h-2.28a.707.707,0,0,0-.174.015c-.029.015-.015.029-.015.029H142.6c-.029-.044-.073-.029-.116-.044h-.319c-.073,0-.1-.029-.1-.1v-.145c0-.044.014-.116-.044-.145s-.087.015-.131.044a2.193,2.193,0,0,1-.261.131,2.281,2.281,0,0,0-.334.131c-.014,0-.014.015-.029.029a.247.247,0,0,0-.1-.015,3.407,3.407,0,0,1-.537.073h-.058a.4.4,0,0,0-.131-.015H137.2a.544.544,0,0,0-.16.015v.015h-.682a.708.708,0,0,1-.247-.015c-.334-.015-.653,0-.987,0a.108.108,0,0,0-.1.044h0c0-.015,0-.015-.029-.029a1.645,1.645,0,0,0-.378-.015c-.421,0-.828-.015-1.249,0-.029.015-.044,0-.073.015a.361.361,0,0,0-.116-.015h-1.844c-.232,0-.218.015-.218-.218V28.293c0-.174-.073-.232-.261-.232-.145,0-.174.029-.174.218v1.365c0,.145-.015.145-.16.145h-2.672a.828.828,0,0,0-.189.015c-.015.015,0,.015,0,.029h-.015a2.643,2.643,0,0,0,.015-.479,1.075,1.075,0,0,0-.015-.3c-.014-.015-.014,0-.029,0a.014.014,0,0,0,.015-.015.156.156,0,0,0,.029-.116v-.77c0-.131-.029-.145-.16-.1a3.42,3.42,0,0,1-.668.145,7.711,7.711,0,0,1-1,.044c-.189,0-.2.015-.2.2v1.234c0,.116-.015.131-.131.131h-3.4a.418.418,0,0,0-.189.015c-.015.015,0,.015,0,.015h0a.735.735,0,0,0-.29-.3h.014c.029-.044,0-.073-.029-.1-.174-.189-.334-.377-.508-.566-.073-.087-.116-.087-.2,0-.116.1-.218.232-.334.348-.16.16-.3.319-.45.479a.289.289,0,0,1-.247.116h-5.735a.4.4,0,0,0-.131.015h-.015l-.029-.029a.4.4,0,0,1-.014-.131v-1.1c0-.029-.015-.058-.015-.087v-.145a.051.051,0,0,1,.015-.029V26.929a.131.131,0,0,0-.015-.073V26.3a1.173,1.173,0,0,0,.015-.232.32.32,0,0,0-.015-.116v-.61a.55.55,0,0,0,0-.218V24.1a.478.478,0,0,0,0-.2V23.27h0c.044-.1.116-.116.232-.116.174,0,.363.015.537,0h.087c.014,0,.044.015.058.015h2.018c.014,0,.029-.015.058-.015h.1c.581.015,1.176.015,1.757,0h.116c.014,0,.029.015.044.015h1.016c.014,0,.029-.015.044-.015h.087v.015c.116.174.276.319.407.479a.053.053,0,0,0,.073.029h0v.044a3.4,3.4,0,0,0,.363.436c.044.044.087.029.131-.015.261-.29.537-.581.8-.871a.234.234,0,0,1,.189-.087h.871a.494.494,0,0,0,.145-.015v-.015h.014a.12.12,0,0,0,.116.044h.668a.12.12,0,0,0,.116-.044h0c.015.015.015.029.044.044h2.207c.015,0,.044-.015.058-.015h.073a2.166,2.166,0,0,1,.3.029,2.287,2.287,0,0,1,.857.232.588.588,0,0,0,.131.073c.044.015.073.015.087-.029a.592.592,0,0,0-.015-.319c.015.015.029.015.044.029a4.692,4.692,0,0,0,.639,0c.392,0,.77.015,1.162,0,.029-.015.058,0,.087-.015a.361.361,0,0,0,.116.015h1.8a.828.828,0,0,1,.189.015,2.82,2.82,0,0,1,1.133.319c.087.044.116.015.131-.073v-.276a.369.369,0,0,0,.174.029h4.472a.708.708,0,0,0,.174-.015c.029-.015.029-.015.029-.029h0c.029.058.087.044.131.044h.392c.174,0,.174,0,.174.16v.073c.014.116.044.131.131.073a1.8,1.8,0,0,1,.479-.218c.044-.015.087-.015.1-.058a.014.014,0,0,1,.015-.015c0,.015,0,.029.029.044a7.386,7.386,0,0,1,.813-.058h.871c.058,0,.116.015.145-.044h0c0,.015,0,.029.029.044a.6.6,0,0,0,.16.015h1.481c.232,0,.232,0,.247.232,0,.044,0,.1.058.116s.1-.029.1-.087c0-.015.015-.015.015-.029,0,.015,0,.029.014.029.043,0,.073-.029.116-.044a2.5,2.5,0,0,1,1.074-.218h2.018a.262.262,0,0,0,.145-.029v.726c0,.16,0,.16-.16.16h-2.134a.08.08,0,0,0-.073.044h0a1.551,1.551,0,0,0-.363.044,1.333,1.333,0,0,0-1.1,1.016,1.638,1.638,0,0,0,.058.987.973.973,0,0,0,.392.508,1.531,1.531,0,0,0,.436.218,5.531,5.531,0,0,0,1.466.145.11.11,0,0,0,.044.029,1.311,1.311,0,0,1,.232.044.359.359,0,0,1,.276.363.38.38,0,0,1-.261.377c-.058.015-.1.029-.16.044a2.33,2.33,0,0,1-.45,0c-.044,0-.087.015-.131.015H143c-.073,0-.087.015-.087.087v.842c0,.087.029.1.1.1h.958c.015,0,.015.015.029.015H145.3a1.447,1.447,0,0,0,.552-.073,1.312,1.312,0,0,0,.784-.479c0,.029-.014.058-.014.087v1.016a.185.185,0,0,0,.014.087.119.119,0,0,0-.1.015A5.847,5.847,0,0,1,145.087,29.8Zm1.6-.218c0,.015.014.029.014.044C146.7,29.615,146.684,29.6,146.684,29.586Zm-14-12.719a1.3,1.3,0,0,1,.334-.029h1.089c.058,0,.1,0,.1-.087V15.88c0-.058-.014-.087-.073-.087a14.934,14.934,0,0,0-1.612.044,1.843,1.843,0,0,0-1.655,1.35,3.883,3.883,0,0,0-.1,1.684,2.092,2.092,0,0,0,.363.958,1.512,1.512,0,0,0,.494.465,2.531,2.531,0,0,0,1.176.3c.508.015,1,0,1.51.015.058,0,.073-.044.1-.087.116-.29.247-.6.348-.886.029-.073.058-.116.16-.1a3.027,3.027,0,0,0,.363,0h1.844c.058-.015.073.044.087.087.131.3.247.61.377.915.015.044.029.087.087.087h2.163c.087,0,.116-.029.116-.116V17.027c.232.363.436.711.653,1.06.261.465.552.915.828,1.379.189.319.392.624.566.958a.335.335,0,0,0,.421.2h1.234c.087,0,.116-.015.116-.116V15.894c0-.073-.015-.1-.1-.1h-.944c-.1,0-.145.015-.145.131V19.1h-.015c-.2-.334-.406-.668-.61-.987-.276-.479-.552-.929-.842-1.394a.111.111,0,0,0-.029-.073c-.16-.261-.319-.508-.465-.77a.146.146,0,0,0-.145-.087H138.96c-.1,0-.131.029-.131.131v4.37h-.014c-.073-.16-.145-.3-.2-.465-.087-.218-.174-.421-.261-.639-.174-.421-.363-.828-.537-1.249v-.029l-.871-2.047a.127.127,0,0,0-.131-.073h-1.539c-.029,0-.073-.015-.087.015s-.029.058-.044.087l-.958,2.221-.61,1.437a6.054,6.054,0,0,1-.726,0,.838.838,0,0,1-.857-.74,1.362,1.362,0,0,0-.058-.232c0-.1-.015-.218-.015-.319a2.563,2.563,0,0,1,.116-.813A.838.838,0,0,1,132.688,16.867Zm3.949,1.641h-.755c-.044,0-.1-.015-.145.029h0v-.015a1.1,1.1,0,0,0-.377-.015c-.116,0-.116,0-.073-.116.218-.537.45-1.074.668-1.612.014-.015.014-.058.044-.058.073.145.116.29.189.436a.149.149,0,0,0,.073.087h0c-.029.073.015.131.044.189.131.319.261.653.407.973C136.738,18.508,136.738,18.508,136.637,18.508Zm-7.652,2.018c0,.073.029.073.087.073h.624a2.37,2.37,0,0,0,.45-.015c.029-.029.014-.073.014-.116V15.909c0-.044.015-.073-.014-.116-.015,0-.015-.015-.029-.015h-1.074c-.044,0-.058.029-.058.073v2.076C129,18.812,129,19.669,128.985,20.526Zm1.162-4.574Zm-18.759,4.08a3.522,3.522,0,0,0-.145-.348c-.087-.247-.2-.479-.3-.711a7,7,0,0,0-.334-.755c-.1-.261-.2-.508-.334-.77v-.029c-.218-.523-.45-1.031-.668-1.554-.029-.058-.058-.073-.1-.073h-1.539a.109.109,0,0,0-.116.073c-.058.16-.131.319-.189.465-.087.218-.189.436-.276.653-.073.189-.16.363-.232.552l-.131.3a1.572,1.572,0,0,0-.116.276c-.087.174-.16.363-.232.552a5.338,5.338,0,0,0-.218.508c-.1.218-.2.45-.29.668-.116.247-.218.494-.334.74.015.044.058.029.087.029h1.162c.029-.073.058-.16.087-.232a5.586,5.586,0,0,0,.276-.682c.029-.145.131-.16.261-.16.232.015.465,0,.7,0,.421,0,.828.015,1.249,0,.2-.015.319.029.363.247,0,.015.015.015.015.029.1.247.2.508.3.755a.09.09,0,0,0,.087.058h2.192c.058,0,.087-.015.087-.087V16.9h.015c.058.116.116.247.174.363.131.334.276.653.436.973a5.3,5.3,0,0,0,.261.6h0a3.378,3.378,0,0,0,.2.479c.116.276.247.537.363.813.058.145.116.29.174.421a.109.109,0,0,0,.116.073h.8a.159.159,0,0,0,.174-.116c.087-.232.189-.45.29-.668.145-.3.29-.624.421-.944.131-.247.218-.523.348-.784s.261-.552.378-.842c.058-.131.116-.247.174-.377h.014v3.63c0,.029-.014.058.015.073h1.089c.058,0,.073-.015.073-.073v-4.69c-.015,0-.015-.015-.029-.015h-1.829a.067.067,0,0,0-.073.044c-.116.29-.232.581-.363.857-.145.3-.276.624-.392.929-.116.247-.218.508-.319.77-.015.015-.015.029-.029.044-.073.174-.145.348-.232.523-.015.015-.015.058-.044.058s-.029-.044-.044-.058c-.044-.1-.1-.2-.145-.3a.21.21,0,0,0-.029-.1,4.225,4.225,0,0,1-.2-.45c-.145-.334-.3-.668-.465-1h0v-.029c-.189-.407-.377-.828-.566-1.234-.029-.058-.073-.058-.131-.058h-1.641c-.145,0-.145,0-.145.145v4.225c0,.044.029.1-.029.131C111.461,20.206,111.432,20.119,111.388,20.032Zm-2.555-3.078c-.029.044,0,.087.015.131.1.232.189.465.29.7.015.029.029.073.073.087-.029.044,0,.087.014.116a3.654,3.654,0,0,0,.174.421c.029.058,0,.087-.029.116a.014.014,0,0,1-.014-.015.6.6,0,0,0-.16-.015h-1.1c-.116,0-.116,0-.1-.116,0-.015-.014-.015-.014-.029a.258.258,0,0,0,.1-.261h.014a.031.031,0,0,0,.029-.029c.073-.16.145-.319.2-.479a.093.093,0,0,0,0-.087h0a.014.014,0,0,1,.014.015c.015-.015.029-.015.044-.044.073-.174.145-.348.218-.537a.092.092,0,0,0,0-.087h0c.087-.029.058-.131.116-.16C108.746,16.78,108.746,16.9,108.833,16.954Zm8.218,1.466c.015,0,.015,0,.029-.015-.015.015-.029.015-.029.029Zm0,.871c.015,0,.015,0,.029-.015-.015.015-.029.015-.029.029Zm0,.929h0c.015.015,0,.015,0,.015Zm11.223-2.73a1.562,1.562,0,0,0-.015-.857,1.007,1.007,0,0,0-.392-.523.8.8,0,0,0-.377-.2,1.025,1.025,0,0,0-.407-.087,2.167,2.167,0,0,0-.3-.029.32.32,0,0,0-.116-.015h-2.831c-.058,0-.116-.015-.116.073v4.515c0,.232,0,.232.247.218.29,0,.6.015.886,0,.029-.029.015-.073.015-.116V18.943c0-.087.015-.116.1-.116h1.205a2.4,2.4,0,0,1,.552.073.6.6,0,0,1,.348.377,3.176,3.176,0,0,1,.044.523v.653c0,.044-.015.073.015.116.363.029.726,0,1.1.015.058,0,.058-.044.058-.087v-1a1.266,1.266,0,0,0-.1-.566.879.879,0,0,0-.436-.45c-.058-.058-.145-.073-.2-.116A1.317,1.317,0,0,0,128.274,17.491Zm-2.555.407Zm-.857-.015Zm.653-2.062Zm.334,3.005a.014.014,0,0,0,.015.015h-.015C125.835,18.827,125.849,18.827,125.849,18.827Zm.784-1.016c-.029.015-.058.015-.087.044a.014.014,0,0,1-.015.015h-.044a.25.25,0,0,0-.174-.029h-1.278c-.073,0-.145,0-.145-.116v-.886c0-.015.015-.029.015-.044h.769a.014.014,0,0,1,.015-.015c0,.015.015.029.029.044a4.69,4.69,0,0,0,.639,0c.015,0,.015-.015.029-.015h0a.11.11,0,0,0,.058.029.4.4,0,0,1,.131.015c.1.015.2.087.3.1,0,.029,0,.044.029.058a.433.433,0,0,1,.116.261c0,.029.015.044.029.073a.014.014,0,0,1-.014.015c-.015.029-.015.058-.029.087A.432.432,0,0,1,126.633,17.811Zm-7.564,2.425v.3c0,.058.015.073.073.073h3.688c.073,0,.073-.029.073-.087v-.755c0-.145,0-.145-.145-.145h-2.512c-.029-.3,0-.61-.015-.915,0-.058.044-.058.087-.058h2.454c.058,0,.073-.015.073-.073v-.886c-.029-.044-.073-.015-.116-.015h-2.41c-.029,0-.073,0-.087-.015a.014.014,0,0,0-.015-.015c-.015-.015-.015-.058-.015-.1a6.3,6.3,0,0,1,.015-.74h2.6c.058,0,.087-.015.087-.073v-.915c-.029-.044-.087-.015-.116-.015H119.17c-.073,0-.087.015-.087.087v3.644C119.069,19.771,119.069,20,119.069,20.235Zm1.132-3.209h0Zm0,.421v.029a.014.014,0,0,0-.015-.015A.014.014,0,0,1,120.2,17.448Zm2.526.232h0c-.015.015-.015,0-.029,0Zm-.973.015a.014.014,0,0,0-.015-.015c.015,0,.015,0,.015.015Zm-.915-.015Zm1.931-1.858a.014.014,0,0,1-.015-.015c0,.015,0,.015.015.015Zm-.871,0Zm-.871,0c-.015,0-.015.015-.029.015a.014.014,0,0,1,.015-.015Zm6.2,8.436a5.113,5.113,0,0,0-1.873-.174h-2.831c-.058,0-.087.029-.131.073-.45.479-.9.958-1.336,1.452-.044.058-.073.058-.116,0l-.436-.479c-.16-.189-.319-.377-.494-.552-.029-.029-.044-.058-.073-.087-.1-.116-.218-.232-.319-.348-.014-.044-.058-.044-.087-.044h-4.472c-.1,0-.087.044-.087.116V28.8c0,.087.029.116.116.116h4.341c.044,0,.087.015.116-.015s.058-.044.073-.073c.436-.479.886-.944,1.321-1.423.058-.058.087-.058.131,0,.145.174.29.334.45.508.29.319.581.653.857.973a.146.146,0,0,0,.131.044h2.047c.087,0,.1-.015.1-.1V27.422c0-.087.029-.116.116-.116h1.263a3.589,3.589,0,0,0,.958-.1,1.337,1.337,0,0,0,1.045-1.031,2.114,2.114,0,0,0,.029-.8A1.341,1.341,0,0,0,127.228,24.257Zm-12.24,3.935h0C114.974,28.206,114.989,28.206,114.989,28.192Zm4.515-.973c-.16.174-.334.348-.479.523a.3.3,0,0,1-.261.116h-1.771a.707.707,0,0,0-.174.015.053.053,0,0,1-.044.015c-.189,0-.378-.015-.566,0-.087,0-.116-.029-.116-.116V27.2c0-.087-.044-.2.015-.261s.174-.015.261-.015H118.5c.058,0,.1.015.1-.073v-.842c0-.044-.014-.073-.073-.073h-2.25c-.189,0-.189,0-.2-.189V25.2h.015a.141.141,0,0,1,.16-.1,2.644,2.644,0,0,0,.479-.015c.015,0,.015,0,.029-.015a.287.287,0,0,0,.16.029h1.5a1.851,1.851,0,0,0,.276-.015c.014,0,.029-.015.044-.015s.029.015.058.015a.271.271,0,0,1,.232.1c.1.1.189.218.276.3.029.029.044.058.087.058a.147.147,0,0,0,.058.1c.218.247.45.494.668.74.044.058.044.1-.015.145-.131.131-.247.276-.392.407a.3.3,0,0,0-.1.16h-.029A.148.148,0,0,1,119.5,27.219Zm3.949.987a.312.312,0,0,1,0,.116c-.029,0-.044-.029-.073-.058-.174-.189-.334-.378-.508-.552a1.742,1.742,0,0,0-.319-.334h-.029c0-.058-.044-.087-.073-.131-.2-.218-.407-.45-.6-.682-.087-.1-.073-.1,0-.189.029-.029.073-.058.058-.1h0c.058-.015.087-.058.131-.1a1.651,1.651,0,0,1,.218-.232c.1-.116.218-.218.319-.319.276-.276.537-.566.8-.857a.332.332,0,0,0,.1-.145.6.6,0,0,0-.015.16C123.453,25.927,123.453,27.074,123.453,28.206Zm2.918-1.96a1.609,1.609,0,0,1-.276.029h-1.307a.225.225,0,0,1-.16-.044h0c.044-.044.029-.087.029-.145v-.842c0-.145,0-.145.16-.145h1.191c.058,0,.116.015.16-.029h.015c0,.015-.015.015,0,.029a.216.216,0,0,0,.131.029.562.562,0,0,1,.436.261A.589.589,0,0,1,126.372,26.246Zm15.332-.131a1.581,1.581,0,0,0-.45-.116,9.844,9.844,0,0,0-1.133-.044.773.773,0,0,1-.552-.16.413.413,0,0,1,.319-.682.131.131,0,0,0,.073-.015h2.192c.058,0,.073-.015.073-.073v-.886c0-.044-.014-.073-.073-.073h-1.525a5.718,5.718,0,0,0-1.22.044,1.33,1.33,0,0,0-1.089.944,1.762,1.762,0,0,0,.029,1.06,1.021,1.021,0,0,0,.566.61.943.943,0,0,0,.334.131,6.609,6.609,0,0,0,1.408.131.835.835,0,0,1,.377.073.426.426,0,0,1,.174.334c.015.247-.116.378-.407.45H138.5c-.087,0-.1.029-.1.116v.813c0,.087.029.116.116.116h2.105a.793.793,0,0,0,.261-.015,1.879,1.879,0,0,0,.842-.189,1.19,1.19,0,0,0,.668-.8,1.965,1.965,0,0,0,0-1.045A.963.963,0,0,0,141.7,26.116Zm-1.554,2.73c.015,0,.015.015,0,0,.015.015,0,.015,0,0Zm-6.911-3.63c-.029-.044,0-.1-.015-.145a1.086,1.086,0,0,0-.711-.828,2.3,2.3,0,0,0-.987-.145h-2.831c-.087,0-.073.044-.073.1v4.646c0,.073.044.073.087.073h.973c.073,0,.1-.015.1-.1V27.408c0-.247,0-.247.247-.247h1.278c.029,0,.058.015.087.015a.624.624,0,0,1,.639.581c.029.2.014.392.029.6v.494c0,.073.029.073.087.073h.973c.073,0,.087-.015.087-.087V27.9a1.523,1.523,0,0,0-.073-.566,1.079,1.079,0,0,0-.653-.653A1.446,1.446,0,0,0,133.239,25.215Zm-1.96.9h-1.321c-.058,0-.116-.015-.16.015v.015h0a.123.123,0,0,0,.029-.1V25.23c0-.015-.015-.029-.015-.044a.131.131,0,0,1,.015-.073c.044-.044.087-.029.145-.029h.566a.262.262,0,0,0,.145-.029l.014-.015c0,.015,0,.029.015.029.261.015.508.015.769.029a.491.491,0,0,1,.087.973A.743.743,0,0,1,131.279,26.116Zm6.447,1.844v.857c0,.087-.044.073-.1.073h-3.615a.184.184,0,0,1-.087-.015h0a.014.014,0,0,1-.015-.015v-4.7c0-.044-.015-.1.073-.1h3.7c.044,0,.073.015.073.073v.857c0,.087-.058.073-.1.073h-2.526c-.058,0-.058.044-.058.087v.552c.015.232.015.232.261.232H137.6c.087,0,.116.015.116.116V26.8c0,.087-.015.116-.116.116h-2.4c-.1,0-.131.029-.131.131a5.578,5.578,0,0,1,0,.7c0,.116.044.131.145.131h2.5A.317.317,0,0,1,137.726,27.96Z" transform="translate(-104.68 0.324)"/><path class="a" d="M134.784,17.534v1.336a1.432,1.432,0,0,0-1.016-.45c-.334.015-.653-.029-.987-.015a1.8,1.8,0,0,1-.392-.044.409.409,0,0,1-.348-.465.49.49,0,0,1,.189-.319.468.468,0,0,1,.3-.087h2.12C134.7,17.5,134.755,17.5,134.784,17.534Z" transform="translate(-92.781 7.889)"/><path class="a" d="M127.084,12.319c.174.421.348.842.523,1.278h-1.6c.261-.639.523-1.263.8-1.917C126.91,11.912,127,12.116,127.084,12.319Z" transform="translate(-95.505 5.264)"/><path class="a" d="M107.288,13.413a.972.972,0,0,0,.1-.261,4.842,4.842,0,0,0,.232-.581,5.11,5.11,0,0,0,.261-.653c.058-.058.058-.16.116-.218.044.1.1.2.145.3.073.247.189.465.276.7.029.073.058.145.087.2.073.189.145.377.218.552.029.087.044.131-.073.116h-1.292C107.2,13.587,107.2,13.587,107.288,13.413Z" transform="translate(-103.992 5.273)"/><path class="a" d="M120.928,11.944a.483.483,0,0,1,.174.407.548.548,0,0,1-.508.523.065.065,0,0,1-.073,0H119c-.087,0-.116-.029-.116-.116v-.842c0-.044-.015-.087.029-.116a.156.156,0,0,1,.116-.029h.581a.156.156,0,0,1,.116.029h.755c.044.015.087,0,.131.015A1.324,1.324,0,0,1,120.928,11.944Z" transform="translate(-98.728 5.304)"/><path class="a" d="M116.921,18.86c.523-.552,1.045-1.118,1.568-1.67v3.8c-.044.015-.058-.029-.073-.044-.276-.3-.537-.61-.813-.9-.029-.029-.044-.058-.073-.073-.247-.276-.479-.552-.726-.813-.058-.058-.073-.1,0-.16C116.849,18.947,116.892,18.9,116.921,18.86Z" transform="translate(-99.687 7.754)"/><path class="a" d="M118.751,18.672v-1.06c0-.087.029-.1.116-.1H120.3c.058.015.116.015.189.029a.527.527,0,0,1,.479.61.572.572,0,0,1-.523.581,1.578,1.578,0,0,1-.261.015h-1.321C118.794,18.73,118.736,18.744,118.751,18.672Z" transform="translate(-98.787 7.898)"/><path class="a" d="M115.541,17.5a.413.413,0,0,1,.407.2c.087.1.174.2.261.29.247.276.494.566.74.828.058.073.058.1-.015.16-.174.189-.363.363-.523.566l-.653.7a.208.208,0,0,1-.16.073h-2a1.238,1.238,0,0,1-.465.029c-.29,0-.29,0-.29-.29v-.494c0-.247,0-.247.261-.247h2.105c.145,0,.16-.015.16-.16v-.61c0-.131-.015-.145-.145-.145h-.378c-.581.015-1.147,0-1.728,0H113c-.116,0-.145-.029-.145-.145v-.523a.157.157,0,0,1,.029-.116c-.014-.1.044-.131.131-.131h.537C114.219,17.5,114.887,17.5,115.541,17.5Z" transform="translate(-101.457 7.889)"/><path class="a" d="M122.29,18.585V17.568c0-.073.044-.058.087-.058h.813c.261,0,.523,0,.8.015a.508.508,0,0,1,.421.813.556.556,0,0,1-.537.247Z" transform="translate(-97.186 7.898)"/></svg>