<svg xmlns="http://www.w3.org/2000/svg" xmlns:xlink="http://www.w3.org/1999/xlink" width="186" height="20" viewBox="0 0 186 20"><defs><style>.a{fill:none;stroke:#707070;}.b{clip-path:url(#a);}.c{fill:#001722;}.d{fill:#fff;}.e{fill:#f58220;}.f{fill:#231f20;}.g{fill:url(#b);}.h{fill:#fefefe;}.i{fill:url(#c);}.j{fill:url(#d);}.k{fill:url(#e);}.l{fill:url(#f);}.m{fill:#eb001b;}.n{fill:#f79e1b;}.o{fill:#ff5f00;}.p{fill:#1a1f71;}.q{fill:#2656a0;}</style><clipPath id="a"><rect class="a" width="186" height="20" transform="translate(548.67 359.936)"/></clipPath><radialGradient id="b" cx="0.502" cy="0.5" r="0.505" gradientTransform="translate(0.008) scale(0.978 1)" gradientUnits="objectBoundingBox"><stop offset="0" stop-color="#feedda"/><stop offset="0.108" stop-color="#fee7d0"/><stop offset="0.292" stop-color="#fcd8b5"/><stop offset="0.529" stop-color="#fabf8a"/><stop offset="0.806" stop-color="#f79c4e"/><stop offset="1" stop-color="#f58220"/></radialGradient><radialGradient id="c" cx="0.206" cy="0.187" r="1.05" gradientTransform="translate(0.003) scale(0.994 1)" gradientUnits="objectBoundingBox"><stop offset="0" stop-color="#9bd4f5"/><stop offset="0.183" stop-color="#7abee8"/><stop offset="0.424" stop-color="#55a5d9"/><stop offset="0.648" stop-color="#3a93ce"/><stop offset="0.847" stop-color="#2a88c7"/><stop offset="1" stop-color="#2484c5"/></radialGradient><linearGradient id="d" x1="-0.001" y1="0.501" x2="1" y2="0.501" gradientUnits="objectBoundingBox"><stop offset="0" stop-color="#1e2a70"/><stop offset="1" stop-color="#006eba"/></linearGradient><linearGradient id="e" y1="0.5" x2="0.998" y2="0.5" gradientUnits="objectBoundingBox"><stop offset="0" stop-color="#6f2c2f"/><stop offset="1" stop-color="#e60039"/></linearGradient><linearGradient id="f" x1="0.003" y1="0.501" x2="1.002" y2="0.501" gradientUnits="objectBoundingBox"><stop offset="0" stop-color="#007b40"/><stop offset="1" stop-color="#5bb531"/></linearGradient></defs><g class="b" transform="translate(-548.67 -359.936)"><g transform="translate(678.191 363.381)"><path class="c" d="M150.2,18.449H140.088c-.075,0-.088-.014-.088-.088V5.5c0-.075.014-.088.088-.088H160.3c.075,0,.088.014.088.088V18.36c0,.075-.014.088-.088.088Z" transform="translate(-140 -5.41)"/><path class="d" d="M140.26,18.372c-.027,0-.041-.02-.041-.048V5.754c0-.143-.02-.129.129-.129h19.83c.048,0,.109-.041.136.041v6.948a.25.25,0,0,1-.116.224c-.53.347-1.081.666-1.638.965-.4.218-.8.428-1.21.625-1.067.517-2.162.986-3.27,1.414-.789.306-1.591.578-2.393.843-1.285.415-2.583.768-3.9,1.081-.911.218-1.835.408-2.76.571a2.065,2.065,0,0,1-.408.034Q142.453,18.361,140.26,18.372Z" transform="translate(-140.07 -5.476)"/><path class="e" d="M140.28,18.4c.034,0,.068-.007.1-.007h4.16a4.634,4.634,0,0,0,.87-.129,51.1,51.1,0,0,0,5.33-1.285A44.028,44.028,0,0,0,157.2,14.5a27.365,27.365,0,0,0,3.025-1.679.189.189,0,0,0,.1-.184V5.775a.255.255,0,0,1,.007-.075c0,.034.007.068.007.1v6.839c0,1.883,0,3.773.007,5.656,0,.1-.027.122-.122.122H140.341A.075.075,0,0,0,140.28,18.4Z" transform="translate(-140.09 -5.503)"/><g transform="translate(6.247 6.893)"><path class="f" d="M154.2,16.651c-.129-.36-.252-.7-.381-1.033.1-.027.15,0,.177.1.054.184.122.367.2.578.109-.258.2-.5.306-.748.1.258.2.5.306.748.075-.218.15-.415.218-.619.014-.027.014-.061.061-.068.1-.007.1,0,.075.088-.109.292-.211.585-.32.877-.007.02-.02.041-.034.075-.1-.252-.2-.489-.306-.755C154.4,16.148,154.309,16.386,154.2,16.651Z" transform="translate(-150.672 -15.55)"/><path class="f" d="M149.2,15.55c.252.265.483.51.734.768v-.625c0-.041-.014-.1.061-.1s.061.048.061.1v.945c-.252-.258-.483-.5-.734-.768v.653c0,.054-.02.061-.068.061s-.061-.007-.061-.061C149.2,16.209,149.2,15.89,149.2,15.55Z" transform="translate(-149.19 -15.55)"/><path class="f" d="M160.63,16.6a.252.252,0,0,1-.272-.1,4.105,4.105,0,0,0-.3-.333v.353c0,.041.014.088-.061.088s-.068-.048-.068-.1v-.789c0-.048-.014-.1.068-.1s.061.054.061.1v.286a3.776,3.776,0,0,0,.286-.292.223.223,0,0,1,.258-.088c-.014.048-.061.075-.1.116-.1.1-.19.19-.292.286-.041.041-.041.061,0,.1C160.351,16.29,160.48,16.44,160.63,16.6Z" transform="translate(-152.628 -15.576)"/><path class="f" d="M151.18,16.119v-.408c0-.068.02-.082.088-.082a3.3,3.3,0,0,0,.367,0c.054,0,.068.02.068.068s-.02.061-.068.061c-.082,0-.163.007-.252,0-.061-.007-.075.02-.075.082,0,.177,0,.177.177.177h.129c.048,0,.075.007.075.061s-.027.068-.075.061h-.252c-.041,0-.061.014-.054.054V16.2c0,.088-.027.2.014.258s.17.014.258.02h.061c.054-.007.061.02.061.068s-.007.061-.054.061h-.408c-.054,0-.054-.027-.054-.068C151.18,16.4,151.18,16.262,151.18,16.119Z" transform="translate(-149.827 -15.576)"/><path class="f" d="M152.733,16.181c0-.116-.007-.231,0-.347,0-.061-.014-.082-.075-.075a.511.511,0,0,1-.1,0c-.048.007-.054-.027-.048-.061s0-.068.048-.068h.489c.054,0,.048.027.048.061s0,.061-.048.061-.129-.027-.163.014-.014.129-.014.19v.564c0,.048-.007.075-.068.075s-.068-.027-.068-.075Z" transform="translate(-150.252 -15.576)"/><path class="f" d="M156.857,15.61a.505.505,0,0,0-.517.483.512.512,0,0,0,.5.517.5.5,0,1,0,.02-1Zm0,.884a.383.383,0,0,1-.374-.381.373.373,0,0,1,.374-.374.369.369,0,0,1,.374.374A.393.393,0,0,1,156.857,16.494Z" transform="translate(-151.479 -15.569)"/><path class="f" d="M158.756,16.19c.014-.007.02-.014.027-.014a.263.263,0,0,0,.19-.3.239.239,0,0,0-.238-.224c-.068-.007-.129-.007-.2-.014-.048-.007-.068.007-.068.061v.857c0,.054.027.054.068.054s.068-.007.061-.061c-.007-.116,0-.224,0-.367.088.129.163.224.224.333a.17.17,0,0,0,.218.082C158.946,16.455,158.851,16.326,158.756,16.19Zm-.156-.184a.384.384,0,0,0,0-.088V15.9c.02-.041-.041-.109.034-.129a.166.166,0,0,1,.2.1.153.153,0,0,1-.075.2.337.337,0,0,1-.088.02C158.626,16.081,158.586,16.074,158.6,16.006Z" transform="translate(-152.161 -15.578)"/></g><g transform="translate(18.851 3.399)"><path class="c" d="M167.954,10.41a.221.221,0,0,0-.224.218.231.231,0,0,0,.224.224.221.221,0,1,0,0-.442Zm0,.394a.173.173,0,1,1,.17-.177A.179.179,0,0,1,167.954,10.8Z" transform="translate(-167.73 -10.41)"/><g transform="translate(0.136 0.129)"><path class="c" d="M167.93,10.79V10.6h.082a.1.1,0,0,1,.048.007c.007.007.014.007.02.02a.051.051,0,0,1,.007.034.052.052,0,0,1-.014.034.11.11,0,0,1-.041.02c.007.007.014.014.02.014a.072.072,0,0,1,.02.034l.02.041h-.048l-.027-.041c-.007-.014-.014-.027-.02-.027s-.007-.007-.014-.007h-.027v.082h-.027Zm.041-.116h.061c.007,0,.007-.007.014-.007s.007-.007.007-.014,0-.014-.007-.014-.007-.007-.014-.007h-.061Z" transform="translate(-167.93 -10.6)"/></g></g><g transform="translate(1.324 3.297)"><path class="c" d="M162.11,11.763V10.438c0-.075.02-.1.1-.088.462.007.925,0,1.38,0,.075,0,.1.014.1.088a2.508,2.508,0,0,0,0,.32c.007.061-.02.075-.082.075h-.857c-.061,0-.082.014-.075.075.007.156.007.32,0,.476,0,.061.02.068.075.068h.816c.068,0,.088.02.082.082a2.3,2.3,0,0,0,0,.306c.007.075-.014.1-.1.1-.265-.007-.53,0-.8,0-.061,0-.088.014-.082.082.007.2.007.4,0,.6,0,.068.027.082.088.082h.823c.075,0,.109.014.1.1-.007.109,0,.211,0,.32,0,.048-.007.075-.061.075h-1.441c-.068,0-.061-.041-.061-.082C162.11,12.654,162.11,12.205,162.11,11.763Z" transform="translate(-148.404 -10.288)"/><path class="c" d="M147.8,13.224a1.069,1.069,0,0,1-.9-.483c-.034-.041-.034-.068.007-.109.088-.082.177-.163.258-.245.048-.054.061-.034.1.014a.628.628,0,0,0,.639.306.383.383,0,0,0,.34-.326.342.342,0,0,0-.231-.387c-.136-.061-.279-.109-.415-.163a.753.753,0,0,1-.109-.048.691.691,0,0,1-.476-.761.8.8,0,0,1,.632-.707,1.2,1.2,0,0,1,1.04.238c.041.034.041.054.014.1-.068.082-.136.17-.2.258-.041.054-.061.068-.116.014a.512.512,0,0,0-.544-.15.39.39,0,0,0-.129.068.257.257,0,0,0,.007.435,1.089,1.089,0,0,0,.3.136,3.766,3.766,0,0,1,.381.163.733.733,0,0,1,.422.877A.931.931,0,0,1,147.8,13.224Z" transform="translate(-143.525 -10.267)"/><path class="c" d="M157.76,10.35h.551c.061,0,.068.034.088.075.224.571.449,1.135.68,1.706.014.027.014.068.048.088.129-.326.258-.646.388-.965.116-.279.224-.557.333-.836a.092.092,0,0,1,.1-.068c.17.007.347,0,.53,0-.088.211-.177.415-.258.619-.306.727-.619,1.455-.918,2.189-.034.075-.068.1-.143.1-.2-.007-.2,0-.272-.184-.367-.884-.734-1.774-1.1-2.658A.128.128,0,0,1,157.76,10.35Z" transform="translate(-147.011 -10.289)"/><path class="c" d="M152.163,11.089a.913.913,0,0,0-.8-.313.88.88,0,0,0-.591.326,1.038,1.038,0,0,0,.041,1.332.922.922,0,0,0,1.346-.041v.625c0,.034-.027.041-.048.054a1.483,1.483,0,1,1-.639-2.814,1.428,1.428,0,0,1,.625.143.088.088,0,0,1,.061.088Z" transform="translate(-144.52 -10.26)"/><path class="c" d="M145.74,11.754V10.428c0-.068.02-.088.088-.088a3.945,3.945,0,0,0,.4,0c.054,0,.075.02.075.075V13.1c0,.061-.02.075-.075.068-.136,0-.272-.007-.408,0-.068,0-.075-.02-.075-.082C145.747,12.651,145.74,12.2,145.74,11.754Z" transform="translate(-143.162 -10.286)"/><path class="c" d="M143.064,10.377c-.34-.048-.68-.014-1.026-.027-.075,0-.1.02-.088.1.007.435,0,.877,0,1.312V13.09c0,.068.02.088.088.088.19-.007.387,0,.578,0a2.791,2.791,0,0,0,.585-.048,1.413,1.413,0,0,0,1.074-1.5A1.376,1.376,0,0,0,143.064,10.377Zm.578,1.727a.856.856,0,0,1-.761.578c-.1.007-.2.007-.3.014-.061.007-.082-.014-.082-.082.007-.286,0-.571,0-.857v-.843c0-.061.007-.082.075-.082a2.058,2.058,0,0,1,.408.027A.918.918,0,0,1,143.642,12.1Z" transform="translate(-141.948 -10.289)"/><path class="c" d="M166.133,12c.027-.007.041-.02.061-.02a.832.832,0,0,0,.374-1.346.9.9,0,0,0-.666-.265c-.285-.014-.578,0-.863-.007-.082,0-.088.027-.088.1v2.638c0,.082.02.1.1.1s.156,0,.238,0c.218,0,.218,0,.218-.224v-.843c0-.02-.014-.054.027-.068s.048.014.061.034.014.02.02.034l.673,1c.02.034.034.068.088.068h.646C166.718,12.78,166.425,12.386,166.133,12Zm-.591-.347c-.048,0-.041-.034-.041-.061v-.727c0-.034-.007-.068.048-.068a1.122,1.122,0,0,1,.394.048.359.359,0,0,1,.251.347.4.4,0,0,1-.224.408A1.007,1.007,0,0,1,165.541,11.652Z" transform="translate(-149.313 -10.292)"/><path class="g" d="M155.779,10.487a1.533,1.533,0,0,0-1.713.1.143.143,0,0,0-.041.027,1.472,1.472,0,0,0-.245,2.026,1.311,1.311,0,0,0,.625.469,1.533,1.533,0,0,0,1.224-.02,1.637,1.637,0,0,0,.537-.4A1.461,1.461,0,0,0,155.779,10.487Zm.088.122Zm-.082,2.332Z" transform="translate(-145.642 -10.263)"/></g></g><g transform="translate(645.884 359.742)"><path class="h" d="M115.2,20.4h-10.15c-.041,0-.048-.007-.048-.048V.058c0-.041.007-.048.048-.048H125.34c.041,0,.048.007.048.048V20.35c0,.041-.007.048-.048.048Z" transform="translate(-105 -0.01)"/><path class="h" d="M105.776,13.131c-.014-.014-.007-.034-.007-.048V11.989a.188.188,0,0,1,.007-.061.077.077,0,0,1,.007-.054c.075-.17.15-.34.218-.51s.136-.313.2-.469c.054-.116.1-.238.156-.354s.027-.116.17-.116h1.23a.1.1,0,0,1,.1.054c.048.088.082.184.129.265V10.5c0-.061.02-.075.082-.075h1.509a.231.231,0,0,1,.068.007c.034.02.041.054.054.088l.061.143c.082.19.17.381.252.564.034-.088.075-.17.109-.258.061-.156.136-.306.2-.462.027-.075.034-.082.116-.082h5.071c.068-.007.136.014.211.014a.518.518,0,0,1,.143.02.765.765,0,0,1,.211.068.6.6,0,0,0,.068.041c.014.007.027.027.041.02s.007-.027.014-.048v-.02c0-.082.007-.082.082-.088h1.305c.054,0,.068.014.075.068v.007c0,.1,0,.088.088.054a1.363,1.363,0,0,1,.394-.109,5.138,5.138,0,0,1,.646-.034h1.2c.2,0,.387-.007.585,0a.048.048,0,0,1,.041.02,2.461,2.461,0,0,1,.17.326c0,.007,0,.007-.007.007h.007v-.258c0-.075.014-.088.088-.088h1.387a.114.114,0,0,1,.116.068c.048.082.1.17.143.258V10.5c0-.034.007-.061.041-.075.116-.007.224,0,.34-.007h1.074c.061,0,.068.014.075.075v3.039c0,.054-.014.068-.068.068h-1.407a.082.082,0,0,1-.082-.048c-.082-.136-.163-.265-.238-.4,0-.007-.007,0-.007,0h.007a.086.086,0,0,1,.007.041v.333c0,.054-.014.068-.068.068h-1.768a.1.1,0,0,1-.1-.068c-.027-.075-.061-.15-.088-.224-.02-.048-.041-.1-.061-.15s-.034-.054-.082-.054h-.333a.067.067,0,0,0-.075.054c-.054.122-.109.245-.156.374a.114.114,0,0,1-.122.082c-.136-.007-.265,0-.4,0a4.546,4.546,0,0,1-.911-.041c-.014,0-.027-.007-.048-.007a1.523,1.523,0,0,1-.34-.109c-.048-.02-.048-.02-.048.027,0,.129,0,.129-.136.129h-2.141c-.082,0-.088-.014-.088-.088v-.673a.073.073,0,0,0-.116-.054.052.052,0,0,0-.014.061v.68a.188.188,0,0,1-.007.061l-.014.014a1.392,1.392,0,0,1-.238.007h-4.154c-.027-.007-.054.007-.082-.007a.048.048,0,0,1-.02-.041v-.292c-.027.061-.054.122-.082.19-.014.027-.02.054-.034.088a.086.086,0,0,1-.1.061h-.8a.112.112,0,0,1-.122-.082c-.027-.075-.061-.143-.088-.218-.007-.02-.02-.041-.014-.061.007.082.007.177.007.265s-.007.088-.088.088h-1.686a.083.083,0,0,1-.088-.061l-.061-.143c-.027-.082-.068-.163-.1-.252a.065.065,0,0,0-.061-.041h-.36a.065.065,0,0,0-.061.041c-.007.02-.02.034-.027.054-.027.061-.054.116-.075.177a.961.961,0,0,1-.054.122c-.02.027-.014.068-.054.075h-.863c-.041,0-.061-.007-.061-.054.007-.109,0-.211,0-.32,0-.041.014-.054.054-.054h.483c.02,0,.041.007.054-.007-.007-.041.027-.075.034-.116.048-.109.088-.218.136-.326a.1.1,0,0,1,.109-.075h1a.077.077,0,0,1,.088.061.362.362,0,0,0,.034.075c.041.1.088.2.122.313a.075.075,0,0,0,.082.054h.945c.061,0,.061-.007.061-.068V11.445c0-.02-.007-.041.02-.048s.027.02.034.034c.02.048.041.088.061.136.068.156.136.306.2.462.041.1.082.184.122.279.027.075.068.15.1.224.054.129.116.258.17.387a1.85,1.85,0,0,1,.075.17.065.065,0,0,0,.068.048h.36a.065.065,0,0,0,.068-.048c.048-.1.082-.211.136-.306.061-.122.116-.258.17-.381a.137.137,0,0,1,.027-.054c.048-.1.082-.211.129-.313.007-.02.02-.041.027-.061.061-.129.122-.265.177-.4.027-.054.048-.109.075-.156.007-.007.007-.02.02-.02s.014.014.02.027c.007.034,0,.061.007.1v1.53c0,.027-.007.054.014.075s.034.007.054.007h.387c.061,0,.061-.007.068-.068v-2.08a.15.15,0,0,0-.007-.054c-.014-.02-.034-.014-.048-.014h-.755a.075.075,0,0,0-.082.054c-.048.122-.1.238-.15.354-.068.15-.129.3-.19.442-.054.116-.1.238-.15.36-.041.088-.075.177-.109.265-.007.014-.014.034-.034.034s-.027-.02-.034-.034a1.2,1.2,0,0,1-.061-.136c-.034-.088-.075-.17-.116-.252-.075-.163-.15-.326-.224-.483-.088-.184-.17-.36-.252-.544a.069.069,0,0,0-.075-.048h-.748c-.048,0-.054.007-.061.068v1.944a.117.117,0,0,1-.014.082c-.027.014-.027-.014-.034-.027s-.027-.054-.041-.088c-.02-.054-.048-.109-.068-.17-.048-.109-.1-.224-.143-.333s-.1-.238-.156-.36-.1-.238-.156-.36c-.1-.231-.2-.462-.3-.693a.088.088,0,0,0-.1-.061h-.639a.09.09,0,0,0-.1.068c-.02.061-.048.116-.075.177-.048.1-.088.211-.136.313-.041.082-.075.17-.109.258l-.061.143a1.049,1.049,0,0,0-.054.129c-.041.082-.075.17-.109.258s-.068.156-.1.238c-.048.1-.088.211-.136.313s-.082.2-.129.3C105.8,13.1,105.8,13.124,105.776,13.131Z" transform="translate(-105.246 -3.342)"/><path class="h" d="M115.66,16.156h1.53a1.645,1.645,0,0,1,.408.061.692.692,0,0,1,.231.122v-.177h1.706a1.668,1.668,0,0,1,.517.075,1.232,1.232,0,0,1,.238.109v-.184h2.59c.034,0,.048.007.041.041v.143a.887.887,0,0,1,.326-.15,4.556,4.556,0,0,1,.748-.034h.931c.109,0,.109,0,.109.109v.068a.254.254,0,0,1,.068-.041,1.147,1.147,0,0,1,.517-.136c.36-.007.721,0,1.081,0v.387c0,.041-.014.054-.054.054h-1.013c-.02,0-.048-.007-.061.007-.034.027-.075.02-.109.027a.709.709,0,0,0-.394.184.554.554,0,0,0-.177.367.868.868,0,0,0,.034.374.456.456,0,0,0,.184.238,1.024,1.024,0,0,0,.469.143c.143.014.286.007.428.034a.331.331,0,0,1,.082.007.195.195,0,0,1,.007.387c-.014,0-.02.007-.034.007h-.02c-.326,0-.653.02-.979.014h-.041c-.041,0-.054.014-.054.054v.347c0,.034.014.054.048.054.347,0,.7.02,1.047.014a.025.025,0,0,0,.02-.007.793.793,0,0,0,.619-.258c.014.007.014.02.014.034v.489a.05.05,0,0,1-.014.041,1.59,1.59,0,0,1-.687.136c-.388.007-.768,0-1.156,0h-.286c-.027,0-.041-.007-.041-.041V19.1a1.052,1.052,0,0,1-.347.156,2.46,2.46,0,0,1-.313.041h-4.4c-.048,0-.068-.007-.068-.061.007-.218,0-.435,0-.653v-.054a.046.046,0,0,0-.048-.048c-.116-.014-.116-.014-.116.1v.659c0,.041-.014.054-.054.054H117.8c-.014-.014-.007-.034-.007-.054v-.8a1.285,1.285,0,0,1-.353.088,4.32,4.32,0,0,1-.517.02c-.048,0-.054.014-.054.054v.585c0,.1,0,.1-.1.1h-1.666c-.041-.048-.088-.1-.129-.143a1.714,1.714,0,0,0-.143-.17c-.041-.048-.082-.088-.122-.136-.02-.027-.041-.034-.068,0-.129.143-.265.286-.394.421a.079.079,0,0,1-.068.027h-2.808a.15.15,0,0,1-.007-.054V16.21c0-.068-.007-.061.061-.061h2.794c.02,0,.041-.007.054.007.068.082.143.163.211.245s.116.136.177.211c.02.02.027.014.048,0,.129-.143.258-.279.388-.421a.1.1,0,0,1,.075-.034Z" transform="translate(-107.039 -5.177)"/><path class="i" d="M124.907,13.632a.819.819,0,0,0,0-.836V.817c0-.068,0-.068-.068-.068H105.8c-.02,0-.048-.007-.061.014v.959h0V8.8a.041.041,0,0,0,.007.027c.082-.184.156-.374.238-.557q.112-.235.2-.469c.054-.116.109-.231.15-.347a.366.366,0,0,0,.034-.075c.007-.034.027-.041.061-.041h1.237c.15,0,.109-.027.177.116.041.075.075.156.116.238a1.412,1.412,0,0,0,.007-.292c0-.041.014-.061.054-.061h1.536c.02,0,.041-.007.061.007.034.068.061.15.1.218.082.2.17.387.258.591.061-.136.116-.265.17-.387s.1-.224.143-.347c.014-.068.054-.088.122-.082.088.007.184,0,.272,0h4.752c.068,0,.143.007.211.007l.143.02a1.2,1.2,0,0,1,.2.068c.034.02.068.048.1.068s.027.014.027-.014V7.4c-.007-.048.007-.075.061-.068h.993a.655.655,0,0,0,.163,0,1.416,1.416,0,0,0,.17,0c.034,0,.048.014.048.048V7.52a1.469,1.469,0,0,1,.489-.156c.1-.007.2-.02.306-.02s.231-.007.347-.007q.316.01.632,0c.19.007.387.007.578,0s.394.007.591,0c.027,0,.034.02.041.041.054.109.109.211.163.32a2.126,2.126,0,0,0,.007-.292c0-.054.014-.061.061-.061h.333q.316.01.632,0c.129,0,.265.007.394,0a.149.149,0,0,1,.17.1c.041.088.1.17.143.252a2.256,2.256,0,0,0,.014-.3c0-.02-.007-.041.02-.054q.3.01.591,0,.326.01.653,0a1.653,1.653,0,0,0,.184,0c.041,0,.054.014.054.054v3.039c0,.041-.007.048-.048.048h-1.278a.908.908,0,0,0-.136,0,.073.073,0,0,1-.075-.041c-.061-.109-.129-.218-.19-.326-.02-.034-.041-.068-.061-.1-.007.143-.007.279-.007.415,0,.034-.007.048-.048.048h-1.788c-.041,0-.054-.007-.068-.048-.027-.082-.068-.156-.1-.238-.02-.061-.048-.122-.068-.177a.052.052,0,0,0-.054-.041h-.381a.059.059,0,0,0-.061.041c-.054.143-.116.279-.17.415a.053.053,0,0,1-.061.041h-.68a3.534,3.534,0,0,1-.707-.048,2.236,2.236,0,0,1-.408-.143v.054c0,.041.02.1-.007.122s-.082.007-.129.007h-2.162c-.034,0-.041-.007-.041-.041V9.716c0-.048-.027-.061-.068-.068h-.048c-.041-.007-.048.014-.048.048v.591a.908.908,0,0,1-.007.19h-4.487v-.367h-.014c-.034.082-.061.156-.1.238a.283.283,0,0,0-.027.068c-.014.061-.054.068-.109.061-.1-.007-.19,0-.286,0h-.523a.065.065,0,0,1-.068-.048c-.041-.109-.088-.218-.136-.32-.007.1-.007.2-.007.3,0,.075.007.061-.068.061h-1.7a.053.053,0,0,1-.061-.041c-.02-.054-.048-.109-.068-.163-.034-.088-.075-.177-.109-.265a.037.037,0,0,0-.041-.027h-.408a.037.037,0,0,0-.041.027c-.014.027-.02.061-.034.088a1.845,1.845,0,0,0-.075.17.9.9,0,0,0-.048.122c-.02.027-.02.061-.041.082l-.014.014h-.85c-.048-.007-.061.014-.054.061a1.911,1.911,0,0,1,0,.2v9.157c0,.054.014.061.061.061h19.076c.02-.02.014-.048.014-.068C124.907,17.82,124.907,15.726,124.907,13.632Zm-.489-1.074a.007.007,0,0,0-.007.007.231.231,0,0,0-.068-.007l-.5-.02c-.15-.007-.211-.075-.218-.224a.221.221,0,0,1,.068-.122.3.3,0,0,1,.17-.041h1.02v.557a.1.1,0,0,0,.014.048A.646.646,0,0,0,124.418,12.558ZM116.5,1.6c0-.007-.007-.007-.007-.014S116.5,1.592,116.5,1.6Zm-3.657.823a.683.683,0,0,0,.048.1A.684.684,0,0,1,112.847,2.422Zm-.415.326c0,.007.007.014.007.02-.007-.02-.014-.034-.02-.054C112.419,2.728,112.426,2.735,112.433,2.748Zm.5,2.039a.041.041,0,0,1-.007.027v.007A.051.051,0,0,1,112.929,4.788Zm-.15.564c.007-.02.014-.034.02-.054A.468.468,0,0,0,112.779,5.352Zm.85-1.366c0-.041-.007-.088-.007-.129,0,.02.007.041.007.061A.228.228,0,0,1,113.629,3.985Zm.7-1.1c.007.02.007.041.014.054C114.336,2.925,114.336,2.9,114.329,2.884Zm.632-.517c-.034-.1-.061-.211-.1-.313C114.9,2.157,114.927,2.265,114.961,2.367Zm-1.067-.986Zm-7.492.965a.374.374,0,0,1,.041-.054A.374.374,0,0,0,106.4,2.347Zm6.071,3.848-.02.041-.061.082Zm2-1.366a.188.188,0,0,1-.007.061c0,.014-.007.027-.007.041C114.465,4.9,114.465,4.862,114.472,4.828Zm1.7.911c-.014.068-.027.129-.048.2C116.144,5.868,116.158,5.807,116.172,5.739Zm-8.912,1.027a.975.975,0,0,0-.1-.075A.973.973,0,0,0,107.259,6.766Zm3.9.3c-.068.048-.136.088-.2.129C111.019,7.147,111.087,7.106,111.154,7.065Zm3.086-.959c-.02.048-.034.1-.054.143a.024.024,0,0,1-.007.014C114.2,6.215,114.22,6.161,114.241,6.106Zm1.3.306-.02.061c-.007.02-.02.034-.027.054A.588.588,0,0,0,115.539,6.412Zm.476-.782c0,.014-.007.027-.007.041s-.007.02-.007.034A.289.289,0,0,1,116.015,5.631Zm.639.877v.007c0,.007-.007.014-.007.02A.041.041,0,0,1,116.654,6.508Zm.653.32v.007c0,.007,0,.007-.007.014A.025.025,0,0,1,117.307,6.827Zm.381-.435-.02.061ZM110.42.763a.007.007,0,0,1-.007-.007c0,.007,0,.007.007.007Zm-2.814,0Zm-.9,0c-.007,0-.007,0-.014.007a.007.007,0,0,0,.007-.007Zm7.056,6.309a.007.007,0,0,1-.007.007c0,.007-.007.007-.007.014S113.751,7.079,113.758,7.072Zm10.265,2.59h0c-.007,0-.007-.007-.007-.014S124.017,9.662,124.023,9.662Zm-5.527,1.55Zm-8.946,1.747h0a.282.282,0,0,0,0-.211h0Zm0-1.162Zm-.007.347Zm0-.143Zm.007-.313Zm1.788-.9c.082-.027.163-.054.245-.088-.034.014-.075.034-.109.048S111.386,10.777,111.338,10.79Zm-3.453-.088a1.056,1.056,0,0,1-.143-.027A1.055,1.055,0,0,0,107.885,10.7Zm-.143,1.482a.4.4,0,0,0-.088-.014A.344.344,0,0,1,107.742,12.184Zm12.672,2.2Zm-9.143,0h0c0-.007.007-.007,0,0S111.277,14.373,111.27,14.38Zm-1.72-.687Zm-.007-1.162Zm-.007-.986h0ZM111,11.212Zm13.148,3.141h-1.067a.331.331,0,0,0-.082.007c-.014.007-.007.014-.007.014h-.007c-.014-.02-.034-.014-.054-.02h-.15c-.034,0-.048-.014-.048-.048v-.068c0-.02.007-.054-.02-.068s-.041.007-.061.02a1.027,1.027,0,0,1-.122.061,1.069,1.069,0,0,0-.156.061c-.007,0-.007.007-.014.014a.116.116,0,0,0-.048-.007,1.6,1.6,0,0,1-.252.034h-.027a.188.188,0,0,0-.061-.007h-1.516a.255.255,0,0,0-.075.007v.007h-.32a.332.332,0,0,1-.116-.007c-.156-.007-.306,0-.462,0a.051.051,0,0,0-.048.02h0c0-.007,0-.007-.014-.014a.77.77,0,0,0-.177-.007c-.2,0-.387-.007-.585,0-.014.007-.02,0-.034.007a.169.169,0,0,0-.054-.007h-.863c-.109,0-.1.007-.1-.1v-.605c0-.082-.034-.109-.122-.109-.068,0-.082.014-.082.1v.639c0,.068-.007.068-.075.068h-1.251a.388.388,0,0,0-.088.007c-.007.007,0,.007,0,.014h-.007a1.235,1.235,0,0,0,.007-.224.5.5,0,0,0-.007-.143c-.007-.007-.007,0-.014,0a.007.007,0,0,0,.007-.007.073.073,0,0,0,.014-.054v-.36c0-.061-.014-.068-.075-.048a1.6,1.6,0,0,1-.313.068,3.611,3.611,0,0,1-.469.02c-.088,0-.1.007-.1.1v.578c0,.054-.007.061-.061.061h-1.591a.2.2,0,0,0-.088.007c-.007.007,0,.007,0,.007h0a.344.344,0,0,0-.136-.143h.007c.014-.02,0-.034-.014-.048-.082-.088-.156-.177-.238-.265-.034-.041-.054-.041-.1,0s-.1.109-.156.163c-.075.075-.143.15-.211.224a.135.135,0,0,1-.116.054h-2.685a.188.188,0,0,0-.061.007h-.007l-.014-.014a.189.189,0,0,1-.007-.061v-.517c0-.014-.007-.027-.007-.041v-.068a.024.024,0,0,1,.007-.014v-.639a.061.061,0,0,0-.007-.034v-.258a.548.548,0,0,0,.007-.109.149.149,0,0,0-.007-.054v-.286a.257.257,0,0,0,0-.1v-.483a.224.224,0,0,0,0-.1v-.292h0c.02-.048.054-.054.109-.054.082,0,.17.007.252,0h.041c.007,0,.02.007.027.007h.945c.007,0,.014-.007.027-.007H111c.272.007.551.007.823,0h.054c.007,0,.014.007.02.007h.476c.007,0,.014-.007.02-.007h.041v.007c.054.082.129.15.19.224a.025.025,0,0,0,.034.014h0v.02a1.591,1.591,0,0,0,.17.2c.02.02.041.014.061-.007.122-.136.252-.272.374-.408a.11.11,0,0,1,.088-.041h.408a.231.231,0,0,0,.068-.007v-.007h.007a.056.056,0,0,0,.054.02h.313a.056.056,0,0,0,.054-.02h0c.007.007.007.014.02.02h1.033c.007,0,.02-.007.027-.007h.034a1.015,1.015,0,0,1,.143.014,1.071,1.071,0,0,1,.4.109.275.275,0,0,0,.061.034c.02.007.034.007.041-.014a.277.277,0,0,0-.007-.15c.007.007.014.007.02.014a2.2,2.2,0,0,0,.3,0c.184,0,.36.007.544,0,.014-.007.027,0,.041-.007a.169.169,0,0,0,.054.007h.843a.388.388,0,0,1,.088.007,1.32,1.32,0,0,1,.53.15c.041.02.054.007.061-.034v-.129a.173.173,0,0,0,.082.014h2.094a.331.331,0,0,0,.082-.007c.014-.007.014-.007.014-.014h0c.014.027.041.02.061.02h.184c.082,0,.082,0,.082.075v.034c.007.054.02.061.061.034a.841.841,0,0,1,.224-.1c.02-.007.041-.007.048-.027a.007.007,0,0,1,.007-.007c0,.007,0,.014.014.02a3.458,3.458,0,0,1,.381-.027h.408c.027,0,.054.007.068-.02h0c0,.007,0,.014.014.02a.279.279,0,0,0,.075.007h.693c.109,0,.109,0,.116.109,0,.02,0,.048.027.054s.048-.014.048-.041c0-.007.007-.007.007-.014s0,.014.007.014.034-.014.054-.02a1.17,1.17,0,0,1,.5-.1h.945a.123.123,0,0,0,.068-.014v.34c0,.075,0,.075-.075.075h-1a.037.037,0,0,0-.034.02h0a.726.726,0,0,0-.17.02.624.624,0,0,0-.517.476.767.767,0,0,0,.027.462.456.456,0,0,0,.184.238.717.717,0,0,0,.2.1,2.59,2.59,0,0,0,.687.068.052.052,0,0,0,.02.014.614.614,0,0,1,.109.02.168.168,0,0,1,.129.17.178.178,0,0,1-.122.177l-.075.02a1.09,1.09,0,0,1-.211,0c-.02,0-.041.007-.061.007h-.789c-.034,0-.041.007-.041.041V13.9c0,.041.014.048.048.048h.449c.007,0,.007.007.014.007h.612a.678.678,0,0,0,.258-.034.614.614,0,0,0,.367-.224c0,.014-.007.027-.007.041v.476a.086.086,0,0,0,.007.041.056.056,0,0,0-.048.007A2.738,2.738,0,0,1,124.146,14.353Zm.748-.1c0,.007.007.014.007.02S124.894,14.257,124.894,14.251ZM118.34,8.3a.609.609,0,0,1,.156-.014h.51c.027,0,.048,0,.048-.041V7.833c0-.027-.007-.041-.034-.041a6.992,6.992,0,0,0-.755.02.863.863,0,0,0-.775.632,1.818,1.818,0,0,0-.048.789.98.98,0,0,0,.17.449.708.708,0,0,0,.231.218,1.185,1.185,0,0,0,.551.143c.238.007.469,0,.707.007.027,0,.034-.02.048-.041.054-.136.116-.279.163-.415.014-.034.027-.054.075-.048a1.417,1.417,0,0,0,.17,0h.863c.027-.007.034.02.041.041.061.143.116.286.177.428.007.02.014.041.041.041h1.013c.041,0,.054-.014.054-.054V8.37c.109.17.2.333.306.5.122.218.258.428.388.646.088.15.184.292.265.449a.157.157,0,0,0,.2.1h.578c.041,0,.054-.007.054-.054V7.84c0-.034-.007-.048-.048-.048h-.442c-.048,0-.068.007-.068.061V9.342h-.007c-.1-.156-.19-.313-.285-.462-.129-.224-.258-.435-.394-.653a.052.052,0,0,0-.014-.034c-.075-.122-.15-.238-.218-.36a.068.068,0,0,0-.068-.041h-.714c-.048,0-.061.014-.061.061V9.9h-.007c-.034-.075-.068-.143-.1-.218-.041-.1-.082-.2-.122-.3-.082-.2-.17-.387-.252-.585V8.785l-.408-.959a.059.059,0,0,0-.061-.034h-.721c-.014,0-.034-.007-.041.007s-.014.027-.02.041l-.449,1.04-.285.673a2.835,2.835,0,0,1-.34,0,.392.392,0,0,1-.4-.347.639.639,0,0,0-.027-.109c0-.048-.007-.1-.007-.15a1.2,1.2,0,0,1,.054-.381A.392.392,0,0,1,118.34,8.3Zm1.849.768h-.354c-.02,0-.048-.007-.068.014h0V9.07a.516.516,0,0,0-.177-.007c-.054,0-.054,0-.034-.054.1-.252.211-.5.313-.755.007-.007.007-.027.02-.027.034.068.054.136.088.2a.07.07,0,0,0,.034.041h0c-.014.034.007.061.02.088.061.15.122.306.19.455C120.237,9.064,120.237,9.064,120.189,9.064Zm-3.583.945c0,.034.014.034.041.034h.292a1.11,1.11,0,0,0,.211-.007c.014-.014.007-.034.007-.054V7.847c0-.02.007-.034-.007-.054-.007,0-.007-.007-.014-.007h-.5c-.02,0-.027.014-.027.034v.972C116.613,9.206,116.613,9.607,116.607,10.009Zm.544-2.141Zm-8.783,1.91a1.647,1.647,0,0,0-.068-.163c-.041-.116-.1-.224-.143-.333A3.275,3.275,0,0,0,108,8.928c-.048-.122-.1-.238-.156-.36V8.554c-.1-.245-.211-.483-.313-.727-.014-.027-.027-.034-.048-.034h-.721a.051.051,0,0,0-.054.034c-.027.075-.061.15-.088.218-.041.1-.088.2-.129.306s-.075.17-.109.258l-.061.143a.736.736,0,0,0-.054.129c-.041.082-.075.17-.109.258a2.5,2.5,0,0,0-.1.238c-.048.1-.1.211-.136.313s-.1.231-.156.347c.007.02.027.014.041.014h.544c.014-.034.027-.075.041-.109a2.617,2.617,0,0,0,.129-.32c.014-.068.061-.075.122-.075.109.007.218,0,.326,0,.2,0,.387.007.585,0,.1-.007.15.014.17.116,0,.007.007.007.007.014.048.116.1.238.143.354a.042.042,0,0,0,.041.027h1.027c.027,0,.041-.007.041-.041V8.309h.007c.027.054.054.116.082.17.061.156.129.306.2.455a2.48,2.48,0,0,0,.122.279h0a1.582,1.582,0,0,0,.1.224c.054.129.116.252.17.381.027.068.054.136.082.2a.051.051,0,0,0,.054.034h.374a.075.075,0,0,0,.082-.054c.041-.109.088-.211.136-.313.068-.143.136-.292.2-.442.061-.116.1-.245.163-.367s.122-.258.177-.394c.027-.061.054-.116.082-.177h.007V10c0,.014-.007.027.007.034h.51c.027,0,.034-.007.034-.034v-2.2c-.007,0-.007-.007-.014-.007h-.857a.031.031,0,0,0-.034.02c-.054.136-.109.272-.17.4s-.129.292-.184.435c-.054.116-.1.238-.15.36-.007.007-.007.014-.014.02-.034.082-.068.163-.109.245-.007.007-.007.027-.02.027s-.014-.02-.02-.027c-.02-.048-.048-.1-.068-.143a.1.1,0,0,0-.014-.048,1.977,1.977,0,0,1-.1-.211c-.068-.156-.143-.313-.218-.469h0V8.4c-.088-.19-.177-.387-.265-.578-.014-.027-.034-.027-.061-.027H108.5c-.068,0-.068,0-.068.068V9.839c0,.02.014.048-.014.061C108.4,9.859,108.388,9.818,108.367,9.777Zm-1.2-1.441c-.014.02,0,.041.007.061.048.109.088.218.136.326.007.014.014.034.034.041-.014.02,0,.041.007.054a1.714,1.714,0,0,0,.082.2c.014.027,0,.041-.014.054a.007.007,0,0,1-.007-.007.279.279,0,0,0-.075-.007h-.517c-.054,0-.054,0-.048-.054,0-.007-.007-.007-.007-.014a.121.121,0,0,0,.048-.122h.007a.015.015,0,0,0,.014-.014c.034-.075.068-.15.1-.224a.043.043,0,0,0,0-.041h0a.007.007,0,0,1,.007.007c.007-.007.014-.007.02-.02.034-.082.068-.163.1-.252a.043.043,0,0,0,0-.041h0c.041-.014.027-.061.054-.075C107.13,8.255,107.13,8.309,107.171,8.336Zm3.848.687c.007,0,.007,0,.014-.007s-.014.007-.014.014Zm0,.408c.007,0,.007,0,.014-.007s-.014.007-.014.014Zm0,.435h0c.007.007,0,.007,0,.007Zm5.255-1.278a.731.731,0,0,0-.007-.4.471.471,0,0,0-.184-.245.376.376,0,0,0-.177-.1.48.48,0,0,0-.19-.041,1.014,1.014,0,0,0-.143-.014.15.15,0,0,0-.054-.007h-1.326c-.027,0-.054-.007-.054.034V9.934c0,.109,0,.109.116.1.136,0,.279.007.415,0,.014-.014.007-.034.007-.054V9.268c0-.041.007-.054.048-.054h.564a1.123,1.123,0,0,1,.258.034.28.28,0,0,1,.163.177,1.486,1.486,0,0,1,.02.245v.306c0,.02-.007.034.007.054.17.014.34,0,.517.007.027,0,.027-.02.027-.041V9.526a.593.593,0,0,0-.048-.265.411.411,0,0,0-.2-.211c-.027-.027-.068-.034-.1-.054A.617.617,0,0,0,116.273,8.588Zm-1.2.19Zm-.4-.007Zm.306-.965Zm.156,1.407a.007.007,0,0,0,.007.007h-.007C115.131,9.213,115.138,9.213,115.138,9.213Zm.367-.476c-.014.007-.027.007-.041.02a.007.007,0,0,1-.007.007h-.02a.117.117,0,0,0-.082-.014h-.6c-.034,0-.068,0-.068-.054V8.282c0-.007.007-.014.007-.02h.36a.007.007,0,0,1,.007-.007c0,.007.007.014.014.02a2.2,2.2,0,0,0,.3,0c.007,0,.007-.007.014-.007h0a.052.052,0,0,0,.027.014.188.188,0,0,1,.061.007c.048.007.1.041.143.048,0,.014,0,.02.014.027a.2.2,0,0,1,.054.122c0,.014.007.02.014.034a.007.007,0,0,1-.007.007c-.007.014-.007.027-.014.041A.2.2,0,0,1,115.505,8.737Zm-3.542,1.135v.143c0,.027.007.034.034.034h1.727c.034,0,.034-.014.034-.041V9.655c0-.068,0-.068-.068-.068h-1.176c-.014-.143,0-.286-.007-.428,0-.027.02-.027.041-.027H113.7c.027,0,.034-.007.034-.034V8.683c-.014-.02-.034-.007-.054-.007h-1.129c-.014,0-.034,0-.041-.007a.007.007,0,0,0-.007-.007c-.007-.007-.007-.027-.007-.048a2.95,2.95,0,0,1,.007-.347h1.217c.027,0,.041-.007.041-.034V7.806c-.014-.02-.041-.007-.054-.007h-1.693c-.034,0-.041.007-.041.041V9.546C111.963,9.655,111.963,9.764,111.963,9.873Zm.53-1.5h0Zm0,.2v.014a.007.007,0,0,0-.007-.007A.007.007,0,0,1,112.494,8.567Zm1.183.109h0c-.007.007-.007,0-.014,0Zm-.455.007a.007.007,0,0,0-.007-.007c.007,0,.007,0,.007.007Zm-.428-.007Zm.9-.87a.007.007,0,0,1-.007-.007c0,.007,0,.007.007.007Zm-.408,0Zm-.408,0c-.007,0-.007.007-.014.007a.007.007,0,0,1,.007-.007Zm2.9,3.95a2.394,2.394,0,0,0-.877-.082h-1.326c-.027,0-.041.014-.061.034-.211.224-.422.449-.625.68-.02.027-.034.027-.054,0l-.2-.224c-.075-.088-.15-.177-.231-.258-.014-.014-.02-.027-.034-.041-.048-.054-.1-.109-.15-.163-.007-.02-.027-.02-.041-.02h-2.094c-.048,0-.041.02-.041.054v2.148c0,.041.014.054.054.054h2.033c.02,0,.041.007.054-.007s.027-.02.034-.034c.2-.224.415-.442.619-.666.027-.027.041-.027.061,0,.068.082.136.156.211.238.136.15.272.306.4.455a.069.069,0,0,0,.061.02h.959c.041,0,.048-.007.048-.048v-.659c0-.041.014-.054.054-.054h.591a1.68,1.68,0,0,0,.449-.048.626.626,0,0,0,.489-.483.99.99,0,0,0,.014-.374A.628.628,0,0,0,115.784,11.756ZM110.053,13.6h0C110.046,13.6,110.053,13.6,110.053,13.6Zm2.114-.455c-.075.082-.156.163-.224.245a.14.14,0,0,1-.122.054h-.829a.331.331,0,0,0-.082.007.025.025,0,0,1-.02.007c-.088,0-.177-.007-.265,0-.041,0-.054-.014-.054-.054v-.265c0-.041-.02-.1.007-.122s.082-.007.122-.007h1c.027,0,.048.007.048-.034v-.394c0-.02-.007-.034-.034-.034h-1.054c-.088,0-.088,0-.1-.088V12.2h.007a.066.066,0,0,1,.075-.048,1.238,1.238,0,0,0,.224-.007c.007,0,.007,0,.014-.007a.134.134,0,0,0,.075.014h.7a.867.867,0,0,0,.129-.007c.007,0,.014-.007.02-.007s.014.007.027.007a.127.127,0,0,1,.109.048c.048.048.088.1.129.143.014.014.02.027.041.027a.069.069,0,0,0,.027.048c.1.116.211.231.313.347.02.027.02.048-.007.068-.061.061-.116.129-.184.19a.143.143,0,0,0-.048.075H112.2A.069.069,0,0,1,112.167,13.142Zm1.849.462a.146.146,0,0,1,0,.054c-.014,0-.02-.014-.034-.027-.082-.088-.156-.177-.238-.258a.816.816,0,0,0-.15-.156h-.014c0-.027-.02-.041-.034-.061-.1-.1-.19-.211-.279-.32-.041-.048-.034-.048,0-.088.014-.014.034-.027.027-.048h0c.027-.007.041-.027.061-.048a.772.772,0,0,1,.1-.109c.048-.054.1-.1.15-.15.129-.129.252-.265.374-.4a.156.156,0,0,0,.048-.068.278.278,0,0,0-.007.075C114.017,12.537,114.017,13.074,114.017,13.6Zm1.366-.918a.754.754,0,0,1-.129.014h-.612a.105.105,0,0,1-.075-.02h0c.02-.02.014-.041.014-.068v-.394c0-.068,0-.068.075-.068h.557c.027,0,.054.007.075-.014h.007c0,.007-.007.007,0,.014a.1.1,0,0,0,.061.014.263.263,0,0,1,.2.122A.276.276,0,0,1,115.383,12.687Zm7.179-.061a.74.74,0,0,0-.211-.054,4.61,4.61,0,0,0-.53-.02.362.362,0,0,1-.258-.075.193.193,0,0,1,.15-.32.061.061,0,0,0,.034-.007h1.027c.027,0,.034-.007.034-.034V11.7c0-.02-.007-.034-.034-.034h-.714a2.677,2.677,0,0,0-.571.02.623.623,0,0,0-.51.442.825.825,0,0,0,.014.5.478.478,0,0,0,.265.286.442.442,0,0,0,.156.061,3.094,3.094,0,0,0,.659.061.391.391,0,0,1,.177.034.2.2,0,0,1,.082.156c.007.116-.054.177-.19.211h-1.081c-.041,0-.048.014-.048.054v.381c0,.041.014.054.054.054h.986a.372.372,0,0,0,.122-.007.88.88,0,0,0,.394-.088.557.557,0,0,0,.313-.374.92.92,0,0,0,0-.489A.451.451,0,0,0,122.562,12.626Zm-.727,1.278c.007,0,.007.007,0,0s0,.007,0,0ZM118.6,12.2c-.014-.02,0-.048-.007-.068a.508.508,0,0,0-.333-.387,1.079,1.079,0,0,0-.462-.068h-1.326c-.041,0-.034.02-.034.048V13.9c0,.034.02.034.041.034h.455c.034,0,.048-.007.048-.048v-.659c0-.116,0-.116.116-.116h.6c.014,0,.027.007.041.007a.292.292,0,0,1,.3.272c.014.1.007.184.014.279V13.9c0,.034.014.034.041.034h.455c.034,0,.041-.007.041-.041v-.435a.713.713,0,0,0-.034-.265.505.505,0,0,0-.306-.306A.677.677,0,0,0,118.6,12.2Zm-.918.421h-.619c-.027,0-.054-.007-.075.007v.007h0a.057.057,0,0,0,.014-.048v-.381c0-.007-.007-.014-.007-.02a.061.061,0,0,1,.007-.034c.02-.02.041-.014.068-.014h.265a.123.123,0,0,0,.068-.014l.007-.007c0,.007,0,.014.007.014.122.007.238.007.36.014a.23.23,0,0,1,.041.455A.348.348,0,0,1,117.681,12.626Zm3.018.863v.4c0,.041-.02.034-.048.034h-1.693a.086.086,0,0,1-.041-.007h0a.007.007,0,0,1-.007-.007v-2.2c0-.02-.007-.048.034-.048h1.734c.02,0,.034.007.034.034v.4c0,.041-.027.034-.048.034h-1.183c-.027,0-.027.02-.027.041v.258c.007.109.007.109.122.109h1.061c.041,0,.054.007.054.054v.354c0,.041-.007.054-.054.054h-1.122c-.048,0-.061.014-.061.061a2.616,2.616,0,0,1,0,.326c0,.054.02.061.068.061h1.169A.148.148,0,0,1,120.7,13.489Z" transform="translate(-105.227 -0.246)"/><path class="h" d="M133.325,17.51v.625a.671.671,0,0,0-.476-.211c-.156.007-.306-.014-.462-.007a.844.844,0,0,1-.184-.02.192.192,0,0,1-.163-.218.23.23,0,0,1,.088-.15.219.219,0,0,1,.143-.041h.992C133.284,17.5,133.311,17.5,133.325,17.51Z" transform="translate(-113.658 -5.607)"/><path class="h" d="M126.513,11.979c.082.2.163.394.245.6h-.748c.122-.3.245-.591.374-.9C126.431,11.789,126.472,11.884,126.513,11.979Z" transform="translate(-111.727 -3.747)"/><path class="h" d="M107.257,12.5a.456.456,0,0,0,.048-.122,2.266,2.266,0,0,0,.109-.272,2.392,2.392,0,0,0,.122-.306c.027-.027.027-.075.054-.1.02.048.048.1.068.143.034.116.088.218.129.326.014.034.027.068.041.1.034.088.068.177.1.258.014.041.02.061-.034.054h-.605C107.216,12.584,107.216,12.584,107.257,12.5Z" transform="translate(-105.714 -3.753)"/><path class="h" d="M119.838,11.852a.226.226,0,0,1,.082.19.257.257,0,0,1-.238.245.03.03,0,0,1-.034,0h-.714c-.041,0-.054-.014-.054-.054v-.394c0-.02-.007-.041.014-.054a.073.073,0,0,1,.054-.014h.272a.073.073,0,0,1,.054.014h.353c.02.007.041,0,.061.007A.62.62,0,0,1,119.838,11.852Z" transform="translate(-109.444 -3.775)"/><path class="h" d="M116.834,17.972c.245-.258.489-.523.734-.782v1.781c-.02.007-.027-.014-.034-.02-.129-.143-.252-.286-.381-.421-.014-.014-.02-.027-.034-.034-.116-.129-.224-.258-.34-.381-.027-.027-.034-.048,0-.075S116.82,17.992,116.834,17.972Z" transform="translate(-108.764 -5.511)"/><path class="h" d="M118.749,18.054v-.5c0-.041.014-.048.054-.048h.673c.027.007.054.007.088.014a.247.247,0,0,1,.224.286.268.268,0,0,1-.245.272.739.739,0,0,1-.122.007H118.8C118.77,18.081,118.743,18.088,118.749,18.054Z" transform="translate(-109.402 -5.613)"/><path class="h" d="M114.1,17.5a.193.193,0,0,1,.19.1c.041.048.082.1.122.136.116.129.231.265.347.387.027.034.027.048-.007.075-.082.088-.17.17-.245.265l-.306.326a.1.1,0,0,1-.075.034h-.938a.58.58,0,0,1-.218.014c-.136,0-.136,0-.136-.136v-.231c0-.116,0-.116.122-.116h.986c.068,0,.075-.007.075-.075v-.286c0-.061-.007-.068-.068-.068h-.177c-.272.007-.537,0-.809,0h-.054c-.054,0-.068-.014-.068-.068v-.245a.073.073,0,0,1,.014-.054c-.007-.048.02-.061.061-.061h.252C113.486,17.5,113.8,17.5,114.1,17.5Z" transform="translate(-107.51 -5.607)"/><path class="h" d="M122.29,18.013v-.476c0-.034.02-.027.041-.027h.381c.122,0,.245,0,.374.007a.238.238,0,0,1,.2.381.26.26,0,0,1-.252.116Z" transform="translate(-110.536 -5.613)"/></g><g transform="translate(613.577 362.035)"><path class="h" d="M80.194,19.163H70.082c-.075,0-.082-.02-.082-.082V6.8A3.388,3.388,0,0,1,73.391,3.41H90.306c.075,0,.082.02.082.088v12.28A3.388,3.388,0,0,1,87,19.17C84.727,19.163,82.464,19.163,80.194,19.163Z" transform="translate(-70 -3.41)"/><path class="j" d="M77.315,5.111c.007-.041-.014-.061-.054-.061-.082.007-.163,0-.245.007H74.2a1.584,1.584,0,0,0-.36.014h0a.379.379,0,0,0-.15.02.473.473,0,0,0-.17.034.487.487,0,0,0-.17.048.54.54,0,0,0-.183.068.559.559,0,0,0-.17.082.941.941,0,0,0-.224.136.741.741,0,0,0-.2.156,1.1,1.1,0,0,0-.217.217,1.058,1.058,0,0,0-.183.238,1.479,1.479,0,0,0-.163.285c-.034.02-.048.034-.054.054a2.43,2.43,0,0,0-.183.958v5.287c0,.217,0,.217.211.285a.456.456,0,0,0,.156.068.524.524,0,0,0,.17.068,1.107,1.107,0,0,0,.251.088.942.942,0,0,0,.224.068.716.716,0,0,0,.163.041h0a.5.5,0,0,0,.17.034.855.855,0,0,0,.224.034.518.518,0,0,0,.2.014.222.222,0,0,0,.116,0,.839.839,0,0,0,.292-.014.579.579,0,0,0,.238-.054.548.548,0,0,0,.2-.088.615.615,0,0,0,.183-.136.691.691,0,0,0,.2-.279.843.843,0,0,0,.116-.442c.007-.326.007-.652.007-.985V9.644h0A.2.2,0,0,1,75,9.63h1.753c.075,0,.088.02.088.088v2.433a2.275,2.275,0,0,1-.109.741,1.713,1.713,0,0,1-.231.408c-.075.075-.149.15-.224.217l-.2.143c-.068.034-.136.075-.2.109l-.2.082c-.1.027-.19.061-.292.088a.534.534,0,0,0-.15.034c-.068.014-.136.027-.2.034s-.136.014-.2.027a.694.694,0,0,0-.2.02,1.912,1.912,0,0,0-.279.014H73.8a1.206,1.206,0,0,0-.217-.014l-.251-.02a1.666,1.666,0,0,0-.183-.014l-.17-.02c-.088-.014-.183-.02-.272-.034s-.15-.02-.217-.034-.122-.02-.183-.034l-.2-.041c-.068-.014-.136-.034-.2-.048-.122-.041-.122-.041-.122.088v4.478c0,.136,0,.136.143.129h3.235a1.173,1.173,0,0,0,.306-.034.777.777,0,0,0,.217-.048.72.72,0,0,0,.2-.068.7.7,0,0,0,.217-.1.917.917,0,0,0,.224-.129.893.893,0,0,0,.217-.17,1.509,1.509,0,0,0,.251-.258,1.536,1.536,0,0,0,.238-.353c.014-.014.02-.034.034-.048a2.324,2.324,0,0,0,.251-1.087V5.145A.051.051,0,0,0,77.315,5.111Z" transform="translate(-70.567 -3.935)"/><path class="k" d="M86.46,5.066c-.061-.054-.183-.02-.272-.014H83.266a1.056,1.056,0,0,0-.292.014.3.3,0,0,0-.136.014.579.579,0,0,0-.238.054h0a.421.421,0,0,0-.163.054.843.843,0,0,0-.251.1.913.913,0,0,0-.211.116.532.532,0,0,0-.15.1.682.682,0,0,0-.136.109.939.939,0,0,0-.183.183,1.083,1.083,0,0,0-.19.238,1.8,1.8,0,0,0-.2.374,1.953,1.953,0,0,0-.184.809c-.007.992,0,1.978,0,2.97,0,.014-.007.027.014.041.068-.048.136-.1.2-.156s.136-.082.2-.116.116-.054.17-.082l.2-.082c.041-.014.082-.027.116-.041.054-.014.116-.034.17-.048s.136-.034.2-.048a1.578,1.578,0,0,1,.19-.034c.068-.014.136-.02.2-.034s.156-.02.238-.034a6.187,6.187,0,0,1,.408-.034c.075,0,.15,0,.217-.007h.387c.1.007.19.007.285.014a.738.738,0,0,1,.122.007c.1.007.19.02.285.027l.156.02c.075.014.149.02.217.034s.136.02.2.034.122.02.19.034.17.034.251.054.149.034.217.048.048.048.048.088v.863c-.082,0-.143-.068-.217-.082a.425.425,0,0,0-.15-.068c-.068-.048-.15-.048-.217-.088a.386.386,0,0,0-.15-.048,1.043,1.043,0,0,0-.238-.068.739.739,0,0,0-.2-.048.711.711,0,0,0-.2-.034.449.449,0,0,0-.163-.02h0a.6.6,0,0,0-.19-.014c-.007-.007-.007-.007-.014,0a1.068,1.068,0,0,0-.36,0,.694.694,0,0,0-.2.02,1.194,1.194,0,0,0-.224.048.421.421,0,0,0-.163.054.522.522,0,0,0-.19.082.644.644,0,0,0-.183.116.758.758,0,0,0-.2.183.877.877,0,0,0-.17.245c-.007.014-.014.02-.02.034a1.777,1.777,0,0,0-.156.951,1.449,1.449,0,0,0,.177.6.877.877,0,0,0,.17.245.781.781,0,0,0,.2.19.644.644,0,0,0,.183.116.477.477,0,0,0,.19.082.5.5,0,0,0,.17.054.473.473,0,0,0,.17.034.658.658,0,0,0,.258.027.683.683,0,0,0,.2,0,1.278,1.278,0,0,0,.279-.014.188.188,0,0,0,.061-.007.748.748,0,0,0,.211-.027h0a.583.583,0,0,0,.183-.034.9.9,0,0,0,.224-.054.627.627,0,0,0,.183-.054.889.889,0,0,0,.19-.061.866.866,0,0,0,.183-.075,1.146,1.146,0,0,0,.19-.082,2.073,2.073,0,0,1,.217-.088v.87c0,.041,0,.075-.048.088-.082.02-.156.034-.238.054-.061.007-.122.02-.19.034s-.122.02-.183.034-.122.02-.183.034c-.082.014-.156.02-.238.034s-.156.02-.238.034l-.217.02c-.068,0-.136.007-.2.014a3.311,3.311,0,0,0-.367.014c-.122,0-.251-.007-.374-.007H83.26c-.082-.007-.17-.014-.251-.014a1.431,1.431,0,0,0-.17-.014l-.2-.02c-.088-.014-.17-.027-.258-.048-.054-.014-.115-.02-.17-.034-.075-.02-.15-.034-.217-.054a1.2,1.2,0,0,0-.2-.068l-.2-.082c-.061-.027-.122-.061-.183-.088s-.136-.075-.2-.116-.149-.109-.238-.177v5.1c0,.027-.007.054.007.075h0c.02.014.041.007.061.007h2.657c.027,0,.048-.007.075-.007a3.3,3.3,0,0,0,.367,0,.581.581,0,0,0,.217-.007.522.522,0,0,0,.2-.02.827.827,0,0,0,.258-.048.81.81,0,0,0,.217-.068.773.773,0,0,0,.2-.088.606.606,0,0,0,.183-.1.669.669,0,0,0,.2-.136,1.061,1.061,0,0,0,.245-.217.972.972,0,0,0,.19-.217,1.465,1.465,0,0,0,.2-.306c.014-.027.027-.048.041-.075a2.274,2.274,0,0,0,.217-1.019V5.324C86.474,5.236,86.515,5.113,86.46,5.066ZM81.126,18.528h0Z" transform="translate(-73.501 -3.931)"/><path class="l" d="M95.535,5.048H92.476a1.584,1.584,0,0,0-.36.014.133.133,0,0,0-.048.007.914.914,0,0,0-.272.048.617.617,0,0,0-.224.068.524.524,0,0,0-.17.068,1.169,1.169,0,0,0-.258.136,1.377,1.377,0,0,0-.3.224,1.169,1.169,0,0,0-.292.285,1.4,1.4,0,0,0-.224.34c-.007.014-.014.02-.02.034a2.3,2.3,0,0,0-.251,1.06V9.581c0,.034.014.048.048.048.082,0,.17,0,.251-.007h2.977a1.037,1.037,0,0,0,.2.02c.075.014.15.02.217.034s.136.034.2.054l.156.061c.075.048.15.088.217.136a1.207,1.207,0,0,1,.217.238,1.259,1.259,0,0,1,.088.2,1.037,1.037,0,0,1-.054.782,1.315,1.315,0,0,1-.19.245,2.443,2.443,0,0,1-.272.19,2.719,2.719,0,0,1-.455.143,3.669,3.669,0,0,1,.489.109c.075.034.15.061.224.1s.136.088.2.136a1.6,1.6,0,0,1,.2.224,1,1,0,0,1,0,1.1,1.632,1.632,0,0,1-.258.272c-.075.048-.156.1-.231.136-.054.02-.116.048-.17.068-.088.02-.177.041-.258.068a.671.671,0,0,0-.163.02H90.091c-.02,0-.041-.007-.054.014h0c0,.027-.007.054-.007.082v4.383c0,.027.007.054.007.082h0c.02.027.054.014.075.014h3.18a.559.559,0,0,0,.183-.014,1.126,1.126,0,0,0,.217-.02.777.777,0,0,0,.217-.048.72.72,0,0,0,.2-.068.927.927,0,0,0,.224-.1.709.709,0,0,0,.217-.129,1.382,1.382,0,0,0,.272-.211,1.061,1.061,0,0,0,.224-.238,1.253,1.253,0,0,0,.2-.292,1.613,1.613,0,0,0,.2-.455,2.113,2.113,0,0,0,.116-.741V5.11C95.6,5.069,95.582,5.042,95.535,5.048ZM90.349,18.518h0Zm3.146-4.54v-.007a.515.515,0,0,0-.2,0h.231C93.516,13.978,93.509,13.978,93.5,13.978Zm-.809-3.568a.533.533,0,0,1,0,.877.49.49,0,0,1-.238.1.341.341,0,0,1-.143.014H91.24c-.061,0-.082-.007-.082-.075.007-.313,0-.625,0-.938,0-.02-.014-.054.014-.068a3.065,3.065,0,0,1,.353,0,1.39,1.39,0,0,1,.238,0,1.162,1.162,0,0,1,.217,0,1.39,1.39,0,0,1,.238,0,.6.6,0,0,1,.19.007A.382.382,0,0,1,92.687,10.41Zm-1.515,2.827h1.284a.534.534,0,0,0,.306-.068.556.556,0,0,0,.306-.516.544.544,0,0,0-.3-.516.386.386,0,0,0-.224-.075h-.6c-.231,0-.469,0-.7-.007-.061,0-.082.014-.082.082v1.04C91.158,13.2,91.145,13.224,91.172,13.237Zm1.053-1.162a1.417,1.417,0,0,0-.17,0h.17Zm-.408,0h0a.584.584,0,0,0-.217,0h.217Z" transform="translate(-76.418 -3.934)"/></g><g transform="translate(581.27 361.866)"><path class="m" d="M45.2,14.58c-.007-.02-.027-.034-.041-.048a6.232,6.232,0,0,1-1.631-1.97,6.376,6.376,0,0,1-.442-1.073,6.234,6.234,0,0,1-.272-1.576,6.917,6.917,0,0,1,.034-.992,6.239,6.239,0,0,1,.279-1.27,6.359,6.359,0,0,1,.5-1.121,6.62,6.62,0,0,1,.863-1.175,6.506,6.506,0,0,1,.632-.591c.027-.02.054-.034.061-.068V4.682a.861.861,0,0,0-.17-.143,6.146,6.146,0,0,0-1.175-.679,6.258,6.258,0,0,0-1.447-.442,3.365,3.365,0,0,0-.448-.054c-.082-.007-.156,0-.238-.014h-.815v.007a3.569,3.569,0,0,0-.537.041,6.284,6.284,0,0,0-2.113.72,6.145,6.145,0,0,0-1.257.917,6.431,6.431,0,0,0-.781.883,6.222,6.222,0,0,0-.836,1.569A6,6,0,0,0,35,9.349a7.4,7.4,0,0,0,.027,1.026,6.764,6.764,0,0,0,.285,1.284,5.6,5.6,0,0,0,.448,1.012A6.311,6.311,0,0,0,37.267,14.5a6.407,6.407,0,0,0,1.78,1.039,6.342,6.342,0,0,0,2.249.414c.143,0,.285-.007.435-.02a5.679,5.679,0,0,0,.673-.082,6.214,6.214,0,0,0,2.745-1.209.094.094,0,0,0,.048-.054Z" transform="translate(-34.992 -3.343)"/><path class="n" d="M60.157,8.83A6.26,6.26,0,0,0,59.063,6a7.664,7.664,0,0,0-.591-.727,6.65,6.65,0,0,0-.9-.788,6.274,6.274,0,0,0-1.033-.6,5.937,5.937,0,0,0-1.325-.435,4.375,4.375,0,0,0-.9-.109V3.34h-.836v.007c-.143.007-.285.007-.428.027a6.269,6.269,0,0,0-1.162.272,5.977,5.977,0,0,0-1.046.462,6.3,6.3,0,0,0-.788.516c-.027.014-.048.027-.054.054v.007a.094.094,0,0,0,.048.054,5.857,5.857,0,0,1,.781.754A6.187,6.187,0,0,1,52.283,8.5a5.486,5.486,0,0,1,.1.876,6.857,6.857,0,0,1-.014.747,5.907,5.907,0,0,1-.156.972,6.463,6.463,0,0,1-.6,1.556,6.443,6.443,0,0,1-1.563,1.868.094.094,0,0,0-.048.054v.007c.007.034.034.048.054.061a6.332,6.332,0,0,0,3.791,1.3c.2,0,.408-.007.611-.027a5.661,5.661,0,0,0,.747-.109,6.355,6.355,0,0,0,3.777-2.439,6.263,6.263,0,0,0,1.033-2.194,5.186,5.186,0,0,0,.177-1.291A9.041,9.041,0,0,0,60.157,8.83Z" transform="translate(-39.804 -3.34)"/><path class="o" d="M48.866,5.32a3.588,3.588,0,0,1,.3.245,4.419,4.419,0,0,1,.36.353,6.8,6.8,0,0,1,.6.727,5.953,5.953,0,0,1,.537.924,6.342,6.342,0,0,1,.462,1.366,5.712,5.712,0,0,1,.116.761,5.817,5.817,0,0,1,.02.842,6.269,6.269,0,0,1-.211,1.379,6.511,6.511,0,0,1-.34.944,6.4,6.4,0,0,1-.544.965c-.136.2-.292.394-.448.584a5.915,5.915,0,0,1-.455.469,3.787,3.787,0,0,1-.4.34,6.251,6.251,0,0,1-.958-.938,6.52,6.52,0,0,1-.863-1.366,5.941,5.941,0,0,1-.462-1.44,6.129,6.129,0,0,1-.1-.856c-.014-.211-.014-.414-.007-.625a6.3,6.3,0,0,1,.313-1.705,6.4,6.4,0,0,1,.978-1.841,6.49,6.49,0,0,1,.713-.781A4.643,4.643,0,0,1,48.866,5.32Z" transform="translate(-38.67 -3.975)"/><g transform="translate(19.653 9.945)"><path class="n" d="M64.53,18.068c-.014.034-.034.075-.048.109-.007.014-.014.027-.034.027s-.027-.007-.034-.027-.034-.068-.054-.109v.122c0,.014,0,.034-.02.034s-.02-.02-.02-.034v-.17c0-.014-.007-.034.02-.041s.041-.007.054.02.041.088.061.136a1.027,1.027,0,0,0,.061-.122c.014-.027.027-.041.054-.034s.02.034.02.054v.149c0,.014.014.041-.02.041s-.02-.027-.02-.048v-.109Z" transform="translate(-64.048 -17.977)"/><path class="n" d="M64.029,17.98H64.1c.014,0,.027,0,.027.02s-.014.027-.027.02c-.054-.007-.054.02-.054.061v.109c0,.02-.007.027-.027.027S64,18.2,64,18.19v-.129c0-.027-.007-.041-.041-.041-.014,0-.041.007-.041-.02s.027-.02.041-.02Z" transform="translate(-63.92 -17.978)"/></g><g transform="translate(1.045 13.405)"><path class="f" d="M36.9,24.245a.64.64,0,0,1,1.039.048c.014-.007.02-.02.034-.034a.667.667,0,0,1,.639-.251.6.6,0,0,1,.571.632c.007.346,0,.693,0,1.039,0,.027-.007.034-.034.034H38.86c-.034,0-.048-.014-.041-.048V24.8a.76.76,0,0,0-.034-.245.306.306,0,0,0-.292-.217.383.383,0,0,0-.448.4c-.007.306-.007.6,0,.91,0,.041-.007.061-.054.054-.088-.007-.177,0-.272,0-.034,0-.048-.007-.048-.048v-.863a.76.76,0,0,0-.034-.245.306.306,0,0,0-.292-.217.383.383,0,0,0-.448.4c-.007.306-.007.6,0,.91,0,.041-.007.054-.054.054h-.279c-.027,0-.034-.007-.034-.041v-1.6c0-.034.014-.041.041-.041h.279c.027,0,.041.007.041.041C36.9,24.136,36.9,24.183,36.9,24.245Z" transform="translate(-36.53 -23.368)"/><path class="f" d="M44.705,25.752a1.262,1.262,0,0,1-.679-.183c-.034-.02-.041-.041-.014-.075.041-.068.082-.129.122-.2.02-.034.027-.034.061-.014a.915.915,0,0,0,.727.122.235.235,0,0,0,.109-.054A.137.137,0,0,0,45,25.107a.911.911,0,0,0-.3-.068,1.321,1.321,0,0,1-.333-.075.444.444,0,0,1-.319-.421.484.484,0,0,1,.306-.469A1.037,1.037,0,0,1,44.814,24a1.261,1.261,0,0,1,.564.143c.041.02.048.041.027.082-.041.068-.075.136-.109.2-.014.034-.027.041-.061.02a1.021,1.021,0,0,0-.6-.115.293.293,0,0,0-.149.061.14.14,0,0,0,.041.245,1.163,1.163,0,0,0,.306.061,1.4,1.4,0,0,1,.333.082.454.454,0,0,1,.3.36.475.475,0,0,1-.211.476.809.809,0,0,1-.448.136A.511.511,0,0,1,44.705,25.752Z" transform="translate(-38.923 -23.368)"/><path class="f" d="M46.87,24.6v-.408c0-.034-.007-.041-.041-.041h-.258c-.027,0-.041-.007-.041-.041v-.258c0-.034.014-.034.041-.034h.258c.034,0,.041-.007.041-.041v-.421c0-.034.014-.048.048-.048h.272c.034,0,.048.007.048.048v.421c0,.034.007.041.041.041h.5c.048,0,.054.014.054.054v.238c0,.034-.007.041-.041.041h-.51c-.034,0-.041.007-.041.041v.734a.345.345,0,0,0,.02.116.188.188,0,0,0,.177.143.573.573,0,0,0,.333-.075c.027-.014.034-.014.048.02.027.082.048.156.082.238a.048.048,0,0,1-.027.068.866.866,0,0,1-.537.1.485.485,0,0,1-.455-.537,3.883,3.883,0,0,1-.014-.394Z" transform="translate(-39.736 -23.147)"/><path class="f" d="M54.444,25.762a.844.844,0,0,1-.788-.428.913.913,0,0,1,.224-1.155,1,1,0,0,1,.673-.17.849.849,0,0,1,.455.17c.027.02.027.027.014.054-.048.075-.088.149-.129.224-.014.034-.027.034-.061.014a.748.748,0,0,0-.374-.129.5.5,0,0,0-.53.482.513.513,0,0,0,.251.523.6.6,0,0,0,.537,0,.708.708,0,0,0,.122-.068c.02-.014.027-.014.041.007l.143.245c.02.027,0,.034-.014.048A.841.841,0,0,1,54.444,25.762Z" transform="translate(-41.984 -23.37)"/><path class="f" d="M59.633,24.246a.514.514,0,0,1,.3-.224.771.771,0,0,1,.374.014c.027.007.027.02.02.041-.034.1-.061.183-.088.279-.007.027-.02.027-.041.02a.857.857,0,0,0-.19-.034.328.328,0,0,0-.353.306,1.055,1.055,0,0,0-.007.149v.863c0,.034-.007.048-.048.048-.1-.007-.183,0-.279,0-.027,0-.041-.007-.041-.041v-1.6c0-.034.007-.041.041-.041h.285c.027,0,.041.007.041.034A.834.834,0,0,0,59.633,24.246Z" transform="translate(-43.824 -23.369)"/><path class="f" d="M52.187,24.234H52.2a.555.555,0,0,1,.645-.2c.034.007.041.02.027.054-.034.088-.061.177-.088.272-.007.027-.014.034-.041.02a.631.631,0,0,0-.2-.034.324.324,0,0,0-.346.292,1.211,1.211,0,0,0-.014.156v.863c0,.041-.014.048-.048.048h-.272c-.041,0-.048-.014-.048-.048V24.084c0-.034.007-.048.041-.048h.279c.034,0,.041.007.041.041A1.257,1.257,0,0,1,52.187,24.234Z" transform="translate(-41.432 -23.371)"/><path class="f" d="M62.715,24.368v-1.25c0-.034-.007-.048-.048-.048H62.4c-.041,0-.041.014-.041.048v.775a.063.063,0,0,1-.007.048.626.626,0,0,0-.306-.2.781.781,0,0,0-.754.163.886.886,0,0,0-.265.938.812.812,0,0,0,1,.6.664.664,0,0,0,.333-.217v.17c0,.027.007.034.034.034h.279c.041,0,.054-.007.054-.048C62.715,25.033,62.715,24.7,62.715,24.368Zm-.6.693a.533.533,0,1,1-.367-1,.542.542,0,0,1,.367,1Z" transform="translate(-44.371 -23.07)"/><path class="f" d="M42.641,24.1c0-.041-.014-.054-.048-.048-.088,0-.177.007-.265,0-.041,0-.054.014-.054.054a1.092,1.092,0,0,1,0,.149.658.658,0,0,0-.231-.183.812.812,0,0,0-.87.163.9.9,0,0,0-.238.89.818.818,0,0,0,.965.625.621.621,0,0,0,.367-.224v.156c0,.034.007.041.041.041h.285c.034,0,.041-.007.041-.041v-.258C42.641,24.981,42.641,24.54,42.641,24.1Zm-.754,1.311a.538.538,0,0,1-.333-1,.5.5,0,0,1,.741.482A.493.493,0,0,1,41.887,25.409Z" transform="translate(-37.933 -23.371)"/><path class="f" d="M57.712,24.037h-.292c-.027,0-.034.007-.034.034v.156a1.044,1.044,0,0,1-.088-.082.715.715,0,0,0-.713-.109.9.9,0,0,0-.156,1.59.743.743,0,0,0,.944-.109h.014v.149c0,.027.007.034.034.034h.292c.027,0,.034-.014.034-.041v-1.6C57.746,24.051,57.746,24.037,57.712,24.037ZM56.9,25.41a.511.511,0,0,1-.51-.537.507.507,0,1,1,.51.537Z" transform="translate(-42.778 -23.365)"/><path class="f" d="M50.5,24.7a.774.774,0,0,0-.686-.693.8.8,0,0,0-.741.292.92.92,0,0,0-.183.673.826.826,0,0,0,.3.6,1.03,1.03,0,0,0,1.223-.034c.02-.02.014-.027,0-.048-.048-.068-.1-.143-.143-.211-.014-.027-.027-.027-.048-.007a.775.775,0,0,1-.38.149.477.477,0,0,1-.577-.4h1.2c.041,0,.048-.007.048-.048A1.212,1.212,0,0,0,50.5,24.7Zm-.4.034h-.788c-.034,0-.041-.007-.034-.041a.445.445,0,0,1,.591-.346.457.457,0,0,1,.272.353C50.131,24.741,50.111,24.735,50.1,24.735Z" transform="translate(-40.49 -23.369)"/></g><g transform="translate(19.823 15.511)"><path class="f" d="M64.34,26.17a.167.167,0,0,0-.17.163.177.177,0,0,0,.17.17.166.166,0,1,0,0-.333Zm.007.292a.125.125,0,0,1-.129-.129.129.129,0,0,1,.258,0A.134.134,0,0,1,64.347,26.462Z" transform="translate(-64.17 -26.17)"/><g transform="translate(0.109 0.095)"><path class="f" d="M64.33,26.453V26.31h.061a.051.051,0,0,1,.034.007c.007,0,.014.007.02.014a.025.025,0,0,1,.007.02c0,.014,0,.02-.007.027a.035.035,0,0,1-.027.014c.007.007.014.007.014.014s.007.014.014.027l.02.027h-.034l-.02-.034a.083.083,0,0,0-.014-.02l-.007-.007h-.02v.061H64.33Zm.027-.082H64.4a.007.007,0,0,0,.007-.007v-.014c0-.007,0-.007-.007-.014a.024.024,0,0,0-.014-.007H64.35v.041Z" transform="translate(-64.33 -26.31)"/></g></g></g><g transform="translate(548.963 366.623)"><path class="p" d="M27.219,16.688H25.7c-.061-.279-.116-.55-.17-.829-.02-.1-.054-.122-.15-.122-.625.007-1.257.007-1.882,0a.138.138,0,0,0-.156.109c-.088.258-.177.51-.279.768a.131.131,0,0,1-.1.075c-.537.007-1.074,0-1.611,0-.014,0-.02-.007-.041-.007.1-.238.2-.476.292-.714.72-1.713,1.434-3.432,2.154-5.144a.749.749,0,0,1,.754-.5h1.257c.082,0,.116.014.136.1.421,2.046.856,4.091,1.278,6.137A1.1,1.1,0,0,1,27.219,16.688Zm-2.48-4.6h-.02c-.285.782-.564,1.556-.849,2.345h1.359Q24.983,13.249,24.738,12.087Z" transform="translate(-6.831 -10.206)"/><path class="p" d="M4.295,14.649c.061-.156.116-.292.17-.421.5-1.264,1-2.528,1.5-3.8a.142.142,0,0,1,.156-.109c.5.007,1,0,1.5,0H7.74a1.41,1.41,0,0,1-.054.136C6.83,12.5,5.967,14.554,5.117,16.6a.134.134,0,0,1-.143.1c-.516-.007-1.026-.007-1.543,0-.082,0-.109-.02-.129-.1Q2.65,14.075,2,11.557a.774.774,0,0,0-.449-.544,7.571,7.571,0,0,0-1.481-.489A.177.177,0,0,1,0,10.5c.014-.054.02-.109.034-.177H2.786a.762.762,0,0,1,.816.686c.217,1.169.442,2.331.659,3.5C4.268,14.547,4.281,14.581,4.295,14.649Z" transform="translate(0 -10.206)"/><path class="p" d="M14.52,16.41c.1-.469.2-.924.3-1.393.061.027.122.048.177.075a3.187,3.187,0,0,0,1.719.306,1.138,1.138,0,0,0,.55-.19.472.472,0,0,0,.061-.782,4.506,4.506,0,0,0-.564-.374c-.3-.183-.618-.34-.9-.544a1.623,1.623,0,0,1-.285-2.365,2.441,2.441,0,0,1,1.42-.87,4.258,4.258,0,0,1,2.453.136c.02.007.041.02.075.034-.1.442-.19.883-.285,1.339-.041-.014-.082-.027-.116-.041a3.153,3.153,0,0,0-1.434-.245,1.037,1.037,0,0,0-.578.2.4.4,0,0,0-.014.68c.2.15.428.265.646.4.285.177.584.333.856.53a1.569,1.569,0,0,1,.578,1.733A2.041,2.041,0,0,1,17.809,16.5a4.182,4.182,0,0,1-1.9.217,4.685,4.685,0,0,1-1.182-.238A1.535,1.535,0,0,1,14.52,16.41Z" transform="translate(-4.652 -10.153)"/><path class="p" d="M13.434,10.33c-.061.292-.116.564-.177.836-.381,1.794-.768,3.588-1.149,5.382-.027.122-.068.156-.19.15-.449-.007-.9,0-1.346,0H10.43c.034-.177.068-.347.109-.516.367-1.719.734-3.446,1.108-5.165.041-.2.088-.408.136-.6.007-.034.048-.082.075-.082Z" transform="translate(-3.342 -10.21)"/></g><g transform="translate(710.516 360.571)"><path d="M427.116,676.32h1.12a1.135,1.135,0,0,1,1.266,1.153c0,.875-.6,1.592-1.87,1.592h-1.1V679c.212-.039.277-.052.351-.321l.516-1.831a1.253,1.253,0,0,0,.048-.269c0-.147-.113-.169-.334-.186Z" transform="translate(-425.655 -665.133)"/><path d="M501.135,697.61c-.169.256-.36.494-.6.494-.2,0-.2-.191-.2-.269,0-.2.342-1.279.342-1.4,0-.091-.035-.113-.273-.113v-.069c.165-.009.524-.078.693-.108l.013.009-.381,1.4a1.95,1.95,0,0,0-.069.286.071.071,0,0,0,.069.065c.052,0,.178-.087.355-.338Z" transform="translate(-496.344 -684.124)"/><path d="M512.69,674.663a.205.205,0,0,1-.208-.225.212.212,0,0,1,.2-.234.235.235,0,0,1,.217.238A.221.221,0,0,1,512.69,674.663Z" transform="translate(-507.986 -663.106)"/><path d="M522.506,697.605c-.217.29-.368.49-.6.49-.2,0-.208-.13-.208-.256,0-.1.321-1.161.321-1.335,0-.078-.026-.139-.108-.139-.208,0-.481.373-.637.615a3.405,3.405,0,0,0-.433,1.075h-.325c.134-.49.425-1.5.425-1.595,0-.065-.043-.113-.277-.113v-.069c.234-.043.468-.087.7-.134l.013.009-.277.906.009.009c.2-.321.6-.923.962-.923a.262.262,0,0,1,.3.286c0,.186-.347,1.257-.347,1.387a.072.072,0,0,0,.069.074c.087,0,.2-.139.355-.343Z" transform="translate(-515.678 -684.124)"/><path d="M570.807,697.636a1.328,1.328,0,0,1-.875.468.562.562,0,0,1-.594-.611,1.5,1.5,0,0,1,1.3-1.348c.221,0,.355.1.355.295,0,.342-.407.693-1.109.793l-.121.017a1.166,1.166,0,0,0-.043.264.378.378,0,0,0,.407.395,1.042,1.042,0,0,0,.633-.325Z" transform="translate(-562.449 -684.124)"/><path d="M607.645,698.056l.351-1.266a2.089,2.089,0,0,0,.069-.347c0-.061-.022-.13-.156-.13a.819.819,0,0,0-.143.022v-.074c.221-.03.477-.087.672-.117l.013.009-.212.862.009.009.035-.087c.143-.286.472-.793.745-.793a.2.2,0,0,1,.208.212c0,.225-.156.225-.2.225-.186,0-.121-.156-.225-.156-.134,0-.394.481-.429.546a5.429,5.429,0,0,0-.4,1.083Z" transform="translate(-599.144 -684.124)"/><path d="M637.228,697.325c.03.191.1.589.451.589a.317.317,0,0,0,.312-.351c0-.286-.516-.7-.516-1.036a.466.466,0,0,1,.52-.481c.2,0,.282.074.412.074a.13.13,0,0,0,.121-.078h.061l-.087.6h-.069c-.022-.247-.126-.5-.407-.5a.219.219,0,0,0-.234.251c0,.273.529.659.529,1.027a.581.581,0,0,1-.646.581c-.13,0-.3-.082-.429-.082-.061,0-.078.043-.1.091h-.069l.087-.689Z" transform="translate(-627.333 -684.025)"/><path d="M698.021,673.827a.665.665,0,0,0-.667-.7c-.867,0-1.309,1.049-1.309,1.686,0,.568.238.927.754.927a1.405,1.405,0,0,0,1-.511l.074.061a1.557,1.557,0,0,1-1.179.646,1.09,1.09,0,0,1-1.136-1.17,1.868,1.868,0,0,1,1.76-1.794,4.582,4.582,0,0,1,.676.1c.126,0,.152-.052.173-.1h.091l-.16.862Z" transform="translate(-683.359 -661.923)"/><path d="M757.723,673.683c-.221.334-.39.542-.659.542-.191,0-.208-.147-.208-.269,0-.091.629-2.353.629-2.444,0-.113-.182-.113-.295-.108v-.069a6.172,6.172,0,0,0,.676-.117l.022.022-.654,2.509a1.422,1.422,0,0,0-.043.2c0,.026,0,.087.065.087.108,0,.2-.121.412-.395Z" transform="translate(-742.077 -660.245)"/><path d="M781.419,697.588c-.273.394-.386.507-.6.507a.194.194,0,0,1-.2-.225,6.141,6.141,0,0,1,.186-.8h-.013c-.295.49-.615,1.032-1.005,1.032-.156,0-.238-.065-.238-.256s.329-1.283.329-1.4-.082-.126-.26-.126v-.061a5.676,5.676,0,0,0,.65-.117l.013.009-.394,1.573c-.013.056,0,.147.091.147.186,0,.46-.407.607-.633a4.552,4.552,0,0,0,.477-1.057h.321l-.342,1.3a2.047,2.047,0,0,0-.082.342c0,.022,0,.07.052.07.082,0,.2-.152.355-.343Z" transform="translate(-763.809 -684.124)"/><path d="M825.036,671.317c.217-.026.438-.056.663-.1l.022.022c-.1.355-.227.84-.374,1.33l.009,0a.854.854,0,0,1,.755-.442c.3,0,.5.344.5.66a1.571,1.571,0,0,1-1.387,1.435c-.23,0-.563-.134-.563-.23v-.017l.589-2.171a1.876,1.876,0,0,0,.069-.29c0-.1-.03-.121-.282-.126Z" transform="translate(-807.028 -660.245)"/><path d="M405.613,758.644c.212-.039.277-.052.351-.321l.516-1.814a1.033,1.033,0,0,0,.048-.269c0-.152-.117-.165-.3-.186v-.069H407.3v.069c-.212.039-.282.048-.355.321l-.516,1.818a.926.926,0,0,0-.048.277c0,.139.108.152.295.173v.069h-1.058Z" transform="translate(-405.613 -741.446)"/><path d="M439.32,776.869c-.217.29-.368.49-.6.49-.2,0-.208-.13-.208-.256,0-.1.321-1.162.321-1.335,0-.078-.026-.139-.108-.139-.208,0-.481.373-.637.615a3.408,3.408,0,0,0-.433,1.075h-.325c.134-.49.425-1.5.425-1.595,0-.065-.043-.113-.277-.113v-.069c.234-.043.468-.087.7-.134l.013.009-.277.906.009.009c.2-.321.6-.923.962-.923a.262.262,0,0,1,.3.286c0,.186-.347,1.257-.347,1.387a.072.072,0,0,0,.069.074c.087,0,.2-.139.355-.342Z" transform="translate(-435.992 -760.052)"/><path d="M487.066,765.214H486.7l-.381,1.443a.1.1,0,0,0,0,.035.067.067,0,0,0,.069.074c.087,0,.238-.2.347-.342l.056.03c-.221.334-.39.524-.615.524a.186.186,0,0,1-.208-.173,3.591,3.591,0,0,1,.1-.4l.312-1.192h-.321a.1.1,0,0,1,.009-.069c.026-.039.147-.07.221-.108a1.845,1.845,0,0,0,.472-.42c.017-.022.035-.061.074-.052.03-.009.039.03.03.065l-.121.446h.347Z" transform="translate(-482.584 -749.663)"/><path d="M510.605,776.9a1.329,1.329,0,0,1-.875.468.562.562,0,0,1-.594-.611,1.5,1.5,0,0,1,1.3-1.348c.221,0,.355.1.355.295,0,.342-.407.693-1.11.793l-.121.017a1.162,1.162,0,0,0-.043.264.378.378,0,0,0,.407.394,1.043,1.043,0,0,0,.633-.325Z" transform="translate(-504.78 -760.052)"/><path d="M547.846,777.319l.351-1.265a2.071,2.071,0,0,0,.069-.347c0-.061-.022-.13-.156-.13a.819.819,0,0,0-.143.022v-.074c.221-.03.477-.087.672-.117l.013.009-.213.862.009.009.035-.087c.143-.286.472-.793.745-.793a.2.2,0,0,1,.208.212c0,.225-.156.225-.2.225-.186,0-.121-.156-.225-.156-.134,0-.394.481-.429.546a5.439,5.439,0,0,0-.4,1.083Z" transform="translate(-541.862 -760.052)"/><path d="M585.1,776.869c-.217.29-.368.49-.6.49-.2,0-.208-.13-.208-.256,0-.1.321-1.162.321-1.335,0-.078-.026-.139-.108-.139-.208,0-.481.373-.637.615a3.4,3.4,0,0,0-.433,1.075H583.1c.134-.49.425-1.5.425-1.595,0-.065-.043-.113-.277-.113v-.069c.234-.043.468-.087.7-.134l.013.009-.277.906.009.009c.2-.321.6-.923.962-.923a.262.262,0,0,1,.3.286c0,.186-.347,1.257-.347,1.387a.072.072,0,0,0,.069.074c.087,0,.2-.139.355-.342Z" transform="translate(-575.634 -760.052)"/><path d="M632.475,776.886c-.26.321-.407.477-.594.477s-.182-.113-.182-.187a1.877,1.877,0,0,1,.091-.459l-.009-.009c-.36.529-.589.659-.849.659a.441.441,0,0,1-.446-.512,1.578,1.578,0,0,1,1.239-1.447.323.323,0,0,1,.342.234h.009l.043-.191.013-.013.264-.03.03.013c-.013.052-.412,1.53-.412,1.664a.058.058,0,0,0,.061.056c.065,0,.152-.108.347-.3Z" transform="translate(-621.024 -760.052)"/><path d="M678.71,765.214h-.364l-.381,1.443a.094.094,0,0,0,0,.035.067.067,0,0,0,.069.074c.087,0,.238-.2.347-.342l.056.03c-.221.334-.39.524-.615.524a.186.186,0,0,1-.208-.173,3.577,3.577,0,0,1,.1-.4l.312-1.192H677.7a.1.1,0,0,1,.009-.069c.026-.039.147-.07.221-.108a1.845,1.845,0,0,0,.472-.42c.017-.022.035-.061.074-.052.03-.009.039.03.03.065l-.121.446h.347Z" transform="translate(-666.165 -749.663)"/><path d="M707.061,776.873c-.169.256-.36.494-.6.494-.2,0-.2-.191-.2-.269,0-.2.342-1.279.342-1.4,0-.091-.035-.113-.273-.113v-.069c.165-.009.524-.078.693-.108l.013.009-.381,1.4a1.955,1.955,0,0,0-.069.286.071.071,0,0,0,.069.065c.052,0,.178-.087.355-.338Z" transform="translate(-693.605 -760.052)"/><path d="M718.618,753.926a.2.2,0,0,1-.208-.225.212.212,0,0,1,.2-.234.235.235,0,0,1,.217.238A.221.221,0,0,1,718.618,753.926Z" transform="translate(-705.249 -739.034)"/><path d="M728.885,776.049a1.462,1.462,0,0,1-1.257,1.318.579.579,0,0,1-.654-.624,1.433,1.433,0,0,1,1.274-1.335A.588.588,0,0,1,728.885,776.049Z" transform="translate(-713.453 -760.052)"/><path d="M771.485,776.869c-.217.29-.368.49-.6.49-.2,0-.208-.13-.208-.256,0-.1.321-1.162.321-1.335,0-.078-.026-.139-.108-.139-.208,0-.481.373-.637.615a3.4,3.4,0,0,0-.433,1.075h-.325c.134-.49.425-1.5.425-1.595,0-.065-.043-.113-.277-.113v-.069c.234-.043.468-.087.7-.134l.013.009-.277.906.009.009c.2-.321.6-.923.962-.923a.262.262,0,0,1,.3.286c0,.186-.347,1.257-.347,1.387a.072.072,0,0,0,.069.074c.087,0,.2-.139.355-.342Z" transform="translate(-754.181 -760.052)"/><path d="M819.266,776.886c-.26.321-.407.477-.594.477s-.182-.113-.182-.187a1.877,1.877,0,0,1,.091-.459l-.009-.009c-.36.529-.59.659-.85.659a.441.441,0,0,1-.446-.512,1.578,1.578,0,0,1,1.24-1.447.323.323,0,0,1,.342.234h.009l.043-.191.013-.013.264-.03.03.013c-.013.052-.412,1.53-.412,1.664a.058.058,0,0,0,.06.056c.065,0,.152-.108.347-.3Z" transform="translate(-799.956 -760.052)"/><path d="M866.4,753.065c-.221.334-.305.423-.574.423-.191,0-.208-.147-.208-.269,0-.091.629-2.353.629-2.444,0-.113-.182-.113-.295-.108V750.6a6.155,6.155,0,0,0,.676-.117l.022.022-.654,2.509a1.388,1.388,0,0,0-.043.2c0,.026,0,.087.065.087.108,0,.115,0,.327-.276Z" transform="translate(-846.262 -736.173)"/><path class="q" d="M486.895,457.978a4.285,4.285,0,0,0,0-8.571h-5.417a4.285,4.285,0,1,0,0,8.571Z" transform="translate(-474.18 -447.767)"/><g transform="translate(1.372 0)"><circle class="d" cx="4.19" cy="4.19" r="4.19" transform="translate(0 5.925) rotate(-45)"/></g><path class="q" d="M519.877,493.772a2.563,2.563,0,0,0,.005,4.839Z" transform="translate(-513.426 -490.266)"/><path class="q" d="M600.741,496.191a2.563,2.563,0,0,1-1.721,2.421l.005-4.839a2.563,2.563,0,0,1,1.716,2.419" transform="translate(-590.882 -490.266)"/><path class="d" d="M444.965,681.322a2.673,2.673,0,0,0-.1.4c0,.143.1.169.308.169a1.37,1.37,0,0,0,1.407-1.515c0-.438-.063-.971-.83-.971-.247,0-.264.065-.282.126Z" transform="translate(-443.218 -668.092)"/><path class="d" d="M580.051,699.424c.893-.182.914-.7.914-.737,0-.091-.043-.173-.152-.173-.234,0-.529.334-.689.719Z" transform="translate(-572.711 -686.393)"/><path class="d" d="M834.419,698.376c-.477,0-.85.853-.91,1.622,0,.03,0,.143.2.143.594,0,1.005-.914,1.005-1.278C834.719,698.728,834.692,698.376,834.419,698.376Z" transform="translate(-815.505 -686.261)"/><path class="d" d="M519.849,778.686c.893-.182.914-.7.914-.737,0-.091-.043-.173-.152-.173-.234,0-.529.334-.689.72Z" transform="translate(-515.043 -762.32)"/><path class="d" d="M639.4,779.325c.459,0,.884-.936.884-1.361,0-.208-.121-.29-.247-.29-.507,0-.9.954-.9,1.344C639.139,779.247,639.282,779.325,639.4,779.325Z" transform="translate(-629.313 -762.222)"/><path class="d" d="M735.626,778.945c0,.247.13.4.347.4.494,0,.837-.9.837-1.361,0-.225-.1-.416-.3-.416C736.021,777.571,735.626,778.433,735.626,778.945Z" transform="translate(-721.741 -762.124)"/><path class="d" d="M826.189,779.325c.46,0,.884-.936.884-1.361,0-.208-.121-.29-.247-.29-.507,0-.9.954-.9,1.344C825.929,779.247,826.072,779.325,826.189,779.325Z" transform="translate(-808.244 -762.222)"/></g></g></svg>