<svg xmlns="http://www.w3.org/2000/svg" xmlns:xlink="http://www.w3.org/1999/xlink" width="396" height="44" viewBox="0 0 396 44"><defs><style>.a{fill:none;stroke:#707070;}.b{clip-path:url(#a);}.c{fill:#001722;}.d{fill:#fff;}.e{fill:#f58220;}.f{fill:#231f20;}.g{fill:url(#b);}.h{fill:#fefefe;}.i{fill:url(#c);}.j{fill:url(#d);}.k{fill:url(#e);}.l{fill:url(#f);}.m{fill:#eb001b;}.n{fill:#f79e1b;}.o{fill:#ff5f00;}.p{fill:#1a1f71;}.q{fill:#2656a0;}</style><clipPath id="a"><rect class="a" width="396" height="44" transform="translate(549 359.771)"/></clipPath><radialGradient id="b" cx="0.502" cy="0.5" r="0.505" gradientTransform="translate(0.008) scale(0.978 1)" gradientUnits="objectBoundingBox"><stop offset="0" stop-color="#feedda"/><stop offset="0.108" stop-color="#fee7d0"/><stop offset="0.292" stop-color="#fcd8b5"/><stop offset="0.529" stop-color="#fabf8a"/><stop offset="0.806" stop-color="#f79c4e"/><stop offset="1" stop-color="#f58220"/></radialGradient><radialGradient id="c" cx="0.206" cy="0.187" r="1.05" gradientTransform="translate(0.003) scale(0.994 1)" gradientUnits="objectBoundingBox"><stop offset="0" stop-color="#9bd4f5"/><stop offset="0.183" stop-color="#7abee8"/><stop offset="0.424" stop-color="#55a5d9"/><stop offset="0.648" stop-color="#3a93ce"/><stop offset="0.847" stop-color="#2a88c7"/><stop offset="1" stop-color="#2484c5"/></radialGradient><linearGradient id="d" x1="-0.001" y1="0.501" x2="1" y2="0.501" gradientUnits="objectBoundingBox"><stop offset="0" stop-color="#1e2a70"/><stop offset="1" stop-color="#006eba"/></linearGradient><linearGradient id="e" y1="0.5" x2="0.998" y2="0.5" gradientUnits="objectBoundingBox"><stop offset="0" stop-color="#6f2c2f"/><stop offset="1" stop-color="#e60039"/></linearGradient><linearGradient id="f" x1="0.003" y1="0.501" x2="1.002" y2="0.501" gradientUnits="objectBoundingBox"><stop offset="0" stop-color="#007b40"/><stop offset="1" stop-color="#5bb531"/></linearGradient></defs><g class="b" transform="translate(-549 -359.771)"><g transform="translate(825 367.771)"><path class="c" d="M161.779,33.258h-21.59c-.16,0-.189-.029-.189-.189V5.6c0-.16.029-.189.189-.189h43.165c.16,0,.189.029.189.189v27.47c0,.16-.029.189-.189.189Z" transform="translate(-140 -5.41)"/><path class="d" d="M140.308,32.86c-.058,0-.087-.044-.087-.1V5.913c0-.3-.044-.276.276-.276h42.352c.1,0,.232-.087.29.087V20.562a.534.534,0,0,1-.247.479c-1.133.74-2.309,1.423-3.5,2.062-.857.465-1.713.915-2.584,1.336-2.28,1.1-4.617,2.105-6.984,3.02-1.684.653-3.4,1.234-5.111,1.8-2.744.886-5.517,1.641-8.32,2.309-1.945.465-3.92.871-5.895,1.22a4.411,4.411,0,0,1-.871.073Q144.99,32.838,140.308,32.86Z" transform="translate(-139.901 -5.317)"/><path class="e" d="M140.28,32.822c.073,0,.145-.015.2-.015h8.886a9.9,9.9,0,0,0,1.858-.276,109.137,109.137,0,0,0,11.383-2.744,94.03,94.03,0,0,0,13.808-5.3,58.456,58.456,0,0,0,6.461-3.586.4.4,0,0,0,.2-.392V5.86a.545.545,0,0,1,.014-.16c0,.073.014.145.014.218V20.524c0,4.022,0,8.058.014,12.08,0,.2-.058.261-.261.261H140.411A.16.16,0,0,0,140.28,32.822Z" transform="translate(-139.873 -5.279)"/><g transform="translate(13.343 14.722)"><path class="f" d="M154.633,17.9c-.276-.77-.537-1.5-.813-2.207.218-.058.319,0,.378.218.116.392.261.784.421,1.234.232-.552.436-1.06.653-1.6.218.552.436,1.06.653,1.6.16-.465.319-.886.465-1.321.029-.058.029-.131.131-.145.2-.015.218,0,.16.189-.232.624-.45,1.249-.682,1.873-.014.044-.043.087-.073.16-.218-.537-.421-1.045-.653-1.612C155.069,16.828,154.865,17.336,154.633,17.9Z" transform="translate(-147.098 -15.55)"/><path class="f" d="M149.2,15.55c.537.566,1.031,1.089,1.568,1.641V15.855c0-.087-.029-.2.131-.2s.131.1.131.2v2.018c-.537-.552-1.031-1.074-1.568-1.641v1.394c0,.116-.044.131-.145.131s-.131-.015-.131-.131C149.2,16.958,149.2,16.276,149.2,15.55Z" transform="translate(-149.19 -15.55)"/><path class="f" d="M161.426,17.705a.537.537,0,0,1-.581-.2,8.774,8.774,0,0,0-.639-.711v.755c0,.087.029.189-.131.189s-.145-.1-.145-.2V15.847c0-.1-.029-.2.145-.2s.131.116.131.218v.61a8.064,8.064,0,0,0,.61-.624.475.475,0,0,1,.552-.189c-.029.1-.131.16-.218.247-.2.2-.407.407-.624.61-.087.087-.087.131,0,.218C160.831,17.037,161.107,17.357,161.426,17.705Z" transform="translate(-144.337 -15.513)"/><path class="f" d="M151.18,16.675V15.8c0-.145.044-.174.189-.174a7.059,7.059,0,0,0,.784,0c.116,0,.145.044.145.145s-.044.131-.145.131c-.174,0-.349.015-.537,0-.131-.015-.16.044-.16.174,0,.377,0,.377.378.377h.276c.1,0,.16.015.16.131s-.058.145-.16.131h-.537c-.087,0-.131.029-.116.116v.015c0,.189-.058.436.029.552s.363.029.552.044h.131c.116-.015.131.044.131.145s-.014.131-.116.131h-.871c-.116,0-.116-.058-.116-.145C151.18,17.271,151.18,16.98,151.18,16.675Z" transform="translate(-148.291 -15.514)"/><path class="f" d="M152.991,16.806c0-.247-.014-.494,0-.74,0-.131-.029-.174-.16-.16a1.092,1.092,0,0,1-.218,0c-.1.015-.116-.058-.1-.131s0-.145.1-.145h1.045c.116,0,.1.058.1.131s0,.131-.1.131-.276-.058-.348.029-.029.276-.029.407v1.205c0,.1-.014.16-.145.16s-.145-.058-.145-.16Z" transform="translate(-147.691 -15.514)"/><path class="f" d="M157.443,15.61a1.079,1.079,0,0,0-1.1,1.031,1.094,1.094,0,0,0,1.06,1.1,1.067,1.067,0,1,0,.044-2.134Zm0,1.887a.818.818,0,0,1-.8-.813.8.8,0,0,1,.8-.8.787.787,0,0,1,.8.8A.839.839,0,0,1,157.443,17.5Z" transform="translate(-145.959 -15.523)"/><path class="f" d="M159.08,16.817c.029-.015.043-.029.058-.029a.562.562,0,0,0,.407-.639.51.51,0,0,0-.508-.479c-.145-.015-.276-.015-.421-.029-.1-.015-.145.015-.145.131V17.6c0,.116.058.116.145.116s.145-.015.131-.131c-.015-.247,0-.479,0-.784.189.276.348.479.479.711a.363.363,0,0,0,.465.174C159.486,17.383,159.283,17.107,159.08,16.817Zm-.334-.392a.822.822,0,0,0,0-.189v-.044c.044-.087-.087-.232.073-.276a.355.355,0,0,1,.421.2.327.327,0,0,1-.16.421.72.72,0,0,1-.189.044C158.8,16.585,158.717,16.57,158.746,16.425Z" transform="translate(-144.996 -15.51)"/></g><g transform="translate(40.262 7.26)"><path class="c" d="M168.209,10.41a.471.471,0,0,0-.479.465.493.493,0,0,0,.479.479.472.472,0,1,0,0-.944Zm0,.842a.37.37,0,1,1,.363-.377A.382.382,0,0,1,168.209,11.252Z" transform="translate(-167.73 -10.41)"/><g transform="translate(0.29 0.276)"><path class="c" d="M167.93,11.007V10.6h.174a.215.215,0,0,1,.1.015c.015.015.029.015.044.044a.109.109,0,0,1,.014.073.111.111,0,0,1-.029.073.236.236,0,0,1-.087.044c.014.015.029.029.044.029a.156.156,0,0,1,.044.073l.044.087h-.1l-.058-.087c-.015-.029-.029-.058-.044-.058s-.015-.015-.029-.015h-.058v.174h-.058Zm.087-.247h.131c.014,0,.014-.015.029-.015s.014-.015.014-.029,0-.029-.014-.029-.015-.015-.029-.015h-.131Z" transform="translate(-167.93 -10.6)"/></g></g><g transform="translate(2.829 7.042)"><path class="c" d="M162.11,13.371V10.54c0-.16.043-.2.2-.189.987.015,1.975,0,2.947,0,.16,0,.218.029.2.189a5.348,5.348,0,0,0,0,.682c.014.131-.044.16-.174.16H163.46c-.131,0-.174.029-.16.16.014.334.014.682,0,1.016,0,.131.044.145.16.145H165.2c.145,0,.189.044.174.174a4.9,4.9,0,0,0,0,.653c.014.16-.029.2-.2.2-.566-.015-1.133,0-1.7,0-.131,0-.189.029-.174.174.014.421.014.857,0,1.278,0,.145.058.174.189.174h1.757c.16,0,.232.029.218.2-.015.232,0,.45,0,.682,0,.1-.015.16-.131.16h-3.078c-.145,0-.131-.087-.131-.174C162.11,15.273,162.11,14.315,162.11,13.371Z" transform="translate(-132.837 -10.22)"/><path class="c" d="M148.857,16.566a2.283,2.283,0,0,1-1.931-1.031c-.073-.087-.073-.145.015-.232.189-.174.377-.348.552-.523.1-.116.131-.073.2.029a1.341,1.341,0,0,0,1.365.653.818.818,0,0,0,.726-.7.73.73,0,0,0-.494-.828c-.29-.131-.6-.232-.886-.348a1.607,1.607,0,0,1-.232-.1,1.476,1.476,0,0,1-1.016-1.626,1.71,1.71,0,0,1,1.35-1.51,2.566,2.566,0,0,1,2.221.508c.087.073.087.116.029.2-.145.174-.29.363-.421.552-.087.116-.131.145-.247.029a1.093,1.093,0,0,0-1.162-.319.833.833,0,0,0-.276.145.55.55,0,0,0,.015.929,2.326,2.326,0,0,0,.639.29,8.046,8.046,0,0,1,.813.348,1.566,1.566,0,0,1,.9,1.873A1.988,1.988,0,0,1,148.857,16.566Z" transform="translate(-139.722 -10.251)"/><path class="c" d="M157.76,10.35h1.176c.131,0,.145.073.189.16.479,1.22.958,2.425,1.452,3.644.029.058.029.145.1.189.276-.7.552-1.379.828-2.062.247-.6.479-1.191.711-1.786a.2.2,0,0,1,.218-.145c.363.015.741,0,1.133,0-.189.45-.377.886-.552,1.321-.653,1.554-1.321,3.107-1.96,4.675-.073.16-.145.218-.3.2-.421-.015-.421,0-.581-.392-.784-1.887-1.568-3.789-2.352-5.677A.273.273,0,0,1,157.76,10.35Z" transform="translate(-134.803 -10.219)"/><path class="c" d="M154.64,12.031a1.951,1.951,0,0,0-1.7-.668,1.88,1.88,0,0,0-1.263.7,2.216,2.216,0,0,0,.087,2.846,1.969,1.969,0,0,0,2.875-.087v1.336c0,.073-.058.087-.1.116a3.167,3.167,0,1,1-1.365-6.011,3.049,3.049,0,0,1,1.336.3.187.187,0,0,1,.131.189Z" transform="translate(-138.318 -10.26)"/><path class="c" d="M145.74,13.36V10.529c0-.145.044-.189.189-.189a8.427,8.427,0,0,0,.857,0c.116,0,.16.044.16.16v5.735c0,.131-.044.16-.16.145-.29,0-.581-.015-.871,0-.145,0-.16-.044-.16-.174C145.755,15.276,145.74,14.318,145.74,13.36Z" transform="translate(-140.235 -10.224)"/><path class="c" d="M144.332,10.408c-.726-.1-1.452-.029-2.192-.058-.16,0-.2.044-.189.2.014.929,0,1.873,0,2.8V16.2c0,.145.044.189.189.189.407-.015.828,0,1.234,0a5.961,5.961,0,0,0,1.249-.1,3.018,3.018,0,0,0,2.294-3.194A2.938,2.938,0,0,0,144.332,10.408Zm1.234,3.688a1.829,1.829,0,0,1-1.626,1.234c-.218.015-.421.015-.639.029-.131.015-.174-.029-.174-.174.014-.61,0-1.22,0-1.829v-1.8c0-.131.014-.174.16-.174a4.4,4.4,0,0,1,.871.058A1.961,1.961,0,0,1,145.566,14.1Z" transform="translate(-141.948 -10.219)"/><path class="c" d="M167.476,13.859c.058-.015.087-.044.131-.044a1.776,1.776,0,0,0,.8-2.875,1.926,1.926,0,0,0-1.423-.566c-.61-.029-1.234,0-1.844-.015-.174,0-.189.058-.189.2V16.2c0,.174.043.218.218.2s.334,0,.508,0c.465,0,.465,0,.465-.479v-1.8c0-.044-.029-.116.058-.145s.1.029.131.073.029.044.044.073l1.437,2.134c.044.073.073.145.189.145h1.379C168.725,15.529,168.1,14.687,167.476,13.859Zm-1.263-.74c-.1,0-.087-.073-.087-.131V11.434c0-.073-.015-.145.1-.145a2.4,2.4,0,0,1,.842.1.767.767,0,0,1,.537.74.843.843,0,0,1-.479.871A2.151,2.151,0,0,1,166.213,13.119Z" transform="translate(-131.553 -10.215)"/><path class="g" d="M158.385,10.735a3.274,3.274,0,0,0-3.659.2.305.305,0,0,0-.087.058,3.143,3.143,0,0,0-.523,4.327,2.8,2.8,0,0,0,1.336,1,3.274,3.274,0,0,0,2.613-.044,3.5,3.5,0,0,0,1.147-.857A3.12,3.12,0,0,0,158.385,10.735Zm.189.261Zm-.174,4.98Z" transform="translate(-136.735 -10.256)"/></g></g><g transform="translate(756 360)"><path class="h" d="M126.779,43.553H105.1c-.087,0-.1-.015-.1-.1V.112c0-.087.015-.1.1-.1h43.34c.087,0,.1.015.1.1v43.34c0,.087-.014.1-.1.1Z" transform="translate(-105 -0.01)"/><path class="h" d="M105.786,16.215c-.029-.029-.015-.073-.015-.1V13.776a.4.4,0,0,1,.015-.131.164.164,0,0,1,.015-.116c.16-.363.319-.726.465-1.089.16-.334.29-.668.436-1,.116-.247.218-.508.334-.755.116-.276.058-.247.363-.247h2.628a.214.214,0,0,1,.218.116c.1.189.174.392.276.566V10.6c0-.131.044-.16.174-.16h3.223a.494.494,0,0,1,.145.015c.073.044.087.116.116.189l.131.3c.174.407.363.813.537,1.205.073-.189.16-.363.232-.552.131-.334.29-.653.421-.987.058-.16.073-.174.247-.174h10.831c.145-.015.29.029.45.029a1.105,1.105,0,0,1,.3.044,1.633,1.633,0,0,1,.45.145,1.277,1.277,0,0,0,.145.087c.029.015.058.058.087.044s.015-.058.029-.1V10.64c0-.174.015-.174.174-.189h2.788c.116,0,.145.029.16.145v.015c0,.2,0,.189.189.116a2.912,2.912,0,0,1,.842-.232,10.975,10.975,0,0,1,1.379-.073h2.57c.421,0,.828-.015,1.249,0a.1.1,0,0,1,.087.044,5.259,5.259,0,0,1,.363.7c0,.015,0,.015-.015.015h.015v-.552c0-.16.029-.189.189-.189h2.962a.243.243,0,0,1,.247.145c.1.174.2.363.3.552V10.6c0-.073.014-.131.087-.16.247-.015.479,0,.726-.015h2.294c.131,0,.145.029.16.16v6.49c0,.116-.029.145-.145.145h-3.005a.176.176,0,0,1-.174-.1c-.174-.29-.349-.566-.508-.857,0-.015-.015,0-.015,0h.015a.184.184,0,0,1,.015.087v.711c0,.116-.029.145-.145.145h-3.775a.206.206,0,0,1-.218-.145c-.058-.16-.131-.319-.189-.479-.044-.1-.087-.218-.131-.319s-.073-.116-.174-.116h-.711a.144.144,0,0,0-.16.116c-.116.261-.232.523-.334.8a.243.243,0,0,1-.261.174c-.29-.015-.566,0-.857,0a9.709,9.709,0,0,1-1.946-.087c-.029,0-.058-.015-.1-.015a3.253,3.253,0,0,1-.726-.232c-.1-.044-.1-.044-.1.058,0,.276,0,.276-.29.276H126.3c-.174,0-.189-.029-.189-.189V15.605a.156.156,0,0,0-.247-.116.111.111,0,0,0-.029.131v1.452a.4.4,0,0,1-.015.131l-.029.029a2.973,2.973,0,0,1-.508.015h-8.871c-.058-.015-.116.015-.174-.015a.1.1,0,0,1-.044-.087V16.52c-.058.131-.116.261-.174.407-.029.058-.044.116-.073.189a.183.183,0,0,1-.218.131h-1.713a.239.239,0,0,1-.261-.174c-.058-.16-.131-.3-.189-.465-.015-.044-.044-.087-.029-.131.014.174.014.377.014.566s-.014.189-.189.189h-3.6a.177.177,0,0,1-.189-.131l-.131-.3c-.058-.174-.145-.348-.218-.537a.14.14,0,0,0-.131-.087h-.77a.139.139,0,0,0-.131.087c-.015.044-.044.073-.058.116-.058.131-.116.247-.16.378a2.054,2.054,0,0,1-.116.261c-.044.058-.029.145-.116.16H105.9c-.087,0-.131-.015-.131-.116.015-.232,0-.45,0-.682,0-.087.029-.116.116-.116h1.031c.044,0,.087.015.116-.015-.015-.087.058-.16.073-.247.1-.232.189-.465.29-.7a.21.21,0,0,1,.232-.16h2.134a.164.164,0,0,1,.189.131.776.776,0,0,0,.073.16c.087.218.189.436.261.668a.159.159,0,0,0,.174.116h2.018c.131,0,.131-.015.131-.145V12.614c0-.044-.015-.087.044-.1s.058.044.073.073c.044.1.087.189.131.29.145.334.29.653.436.987.087.2.174.392.261.6.058.16.145.319.2.479.116.276.247.552.363.828a3.944,3.944,0,0,1,.16.363.14.14,0,0,0,.145.1h.77a.14.14,0,0,0,.145-.1c.1-.218.174-.45.29-.653.131-.261.247-.552.363-.813a.292.292,0,0,1,.058-.116c.1-.218.174-.45.276-.668.015-.044.044-.087.058-.131.131-.276.261-.566.377-.857.058-.116.1-.232.16-.334.014-.015.014-.044.044-.044s.029.029.044.058c.015.073,0,.131.015.2v3.267c0,.058-.015.116.029.16s.073.015.116.015H118c.131,0,.131-.015.145-.145V11.627a.32.32,0,0,0-.014-.116c-.029-.044-.073-.029-.1-.029h-1.612a.159.159,0,0,0-.174.116c-.1.261-.218.508-.319.755-.145.319-.276.639-.406.944-.116.247-.218.508-.319.77-.087.189-.16.377-.232.566-.015.029-.029.073-.073.073s-.058-.044-.073-.073a2.561,2.561,0,0,1-.131-.29c-.073-.189-.16-.363-.247-.537-.16-.348-.319-.7-.479-1.031-.189-.392-.363-.77-.537-1.162a.146.146,0,0,0-.16-.1h-1.6c-.1,0-.116.015-.131.145v4.152a.25.25,0,0,1-.029.174c-.058.029-.058-.029-.073-.058-.029-.058-.058-.116-.087-.189-.044-.116-.1-.232-.145-.363-.1-.232-.2-.479-.3-.711-.1-.261-.218-.508-.334-.77s-.218-.508-.334-.77c-.218-.494-.436-.987-.639-1.481a.188.188,0,0,0-.2-.131h-1.365a.192.192,0,0,0-.218.145c-.044.131-.1.247-.16.377-.1.218-.189.45-.29.668-.087.174-.16.363-.232.552l-.131.3a2.24,2.24,0,0,0-.116.276c-.087.174-.16.363-.232.552s-.145.334-.218.508c-.1.218-.189.45-.29.668s-.174.421-.276.639C105.844,16.157,105.829,16.2,105.786,16.215Z" transform="translate(-104.653 4.692)"/><path class="h" d="M120.532,16.166H123.8a3.512,3.512,0,0,1,.871.131,1.478,1.478,0,0,1,.494.261V16.18h3.644a3.562,3.562,0,0,1,1.1.16,2.63,2.63,0,0,1,.508.232V16.18h5.532c.073,0,.1.015.087.087v.3a1.894,1.894,0,0,1,.7-.319,9.73,9.73,0,0,1,1.6-.073h1.989c.232,0,.232,0,.232.232v.145a.544.544,0,0,1,.145-.087,2.45,2.45,0,0,1,1.1-.29c.77-.015,1.539,0,2.309,0v.828c0,.087-.029.116-.116.116h-2.163c-.044,0-.1-.015-.131.015-.073.058-.16.044-.232.058a1.514,1.514,0,0,0-.842.392,1.184,1.184,0,0,0-.377.784,1.853,1.853,0,0,0,.073.8.974.974,0,0,0,.392.508,2.186,2.186,0,0,0,1,.3c.3.029.61.015.915.073a.706.706,0,0,1,.174.015.416.416,0,0,1,.015.828c-.029,0-.044.015-.073.015H142.7c-.7,0-1.394.044-2.091.029h-.087c-.087,0-.116.029-.116.116v.74c0,.073.029.116.1.116.74,0,1.5.044,2.236.029a.053.053,0,0,0,.044-.015,1.694,1.694,0,0,0,1.321-.552c.029.015.029.044.029.073V22.5a.107.107,0,0,1-.029.087,3.4,3.4,0,0,1-1.466.29c-.828.015-1.641,0-2.468,0h-.61c-.058,0-.087-.015-.087-.087v-.334a2.247,2.247,0,0,1-.74.334,5.256,5.256,0,0,1-.668.087h-9.394c-.1,0-.145-.015-.145-.131.015-.465,0-.929,0-1.394v-.116a.1.1,0,0,0-.1-.1c-.247-.029-.247-.029-.247.218v1.408c0,.087-.029.116-.116.116h-2.962c-.029-.029-.015-.073-.015-.116v-1.7a2.744,2.744,0,0,1-.755.189,9.227,9.227,0,0,1-1.1.044c-.1,0-.116.029-.116.116v1.249c0,.2,0,.2-.2.2h-3.557c-.087-.1-.189-.2-.276-.3a3.667,3.667,0,0,0-.3-.363c-.087-.1-.174-.189-.261-.29-.044-.058-.087-.073-.145,0-.276.3-.566.61-.842.9a.168.168,0,0,1-.145.058h-6a.32.32,0,0,1-.014-.116V16.282c0-.145-.015-.131.131-.131h5.967c.044,0,.087-.015.116.015.145.174.3.348.45.523.131.145.247.29.378.45.044.044.058.029.1,0,.276-.3.552-.6.828-.9a.208.208,0,0,1,.16-.073Z" transform="translate(-102.121 7.283)"/><path class="i" d="M146.713,28.264a1.75,1.75,0,0,0,0-1.786V.9c0-.145,0-.145-.145-.145H105.914c-.044,0-.1-.015-.131.029V2.827h0V17.941A.087.087,0,0,0,105.8,18c.174-.392.334-.8.508-1.191q.24-.5.436-1c.116-.247.232-.494.319-.74a.781.781,0,0,0,.073-.16c.014-.073.058-.087.131-.087h2.642c.319,0,.232-.058.378.247.087.16.16.334.247.508a3.017,3.017,0,0,0,.015-.624c0-.087.029-.131.116-.131h3.281c.044,0,.087-.015.131.015.073.145.131.319.218.465.174.421.363.828.552,1.263.131-.29.247-.566.363-.828s.218-.479.3-.74c.029-.145.116-.189.261-.174.189.015.392,0,.581,0H126.5c.145,0,.3.015.45.015l.3.044a2.556,2.556,0,0,1,.436.145c.073.044.145.1.218.145.044.029.058.029.058-.029v-.174c-.015-.1.015-.16.131-.145h2.12a1.4,1.4,0,0,0,.348,0,3.024,3.024,0,0,0,.363,0c.073,0,.1.029.1.1v.29a3.138,3.138,0,0,1,1.045-.334c.218-.015.436-.044.653-.044.247,0,.494-.015.741-.015q.675.022,1.35,0c.407.015.828.015,1.234,0q.632.022,1.263,0c.058,0,.073.044.087.087.116.232.232.45.348.682a4.537,4.537,0,0,0,.015-.624c0-.116.029-.131.131-.131h.711q.675.022,1.35,0c.276,0,.566.015.842,0a.319.319,0,0,1,.363.218c.087.189.2.363.3.537a4.82,4.82,0,0,0,.029-.639c0-.044-.014-.087.044-.116q.632.022,1.263,0,.7.022,1.394,0a3.531,3.531,0,0,0,.392,0c.087,0,.116.029.116.116v6.49c0,.087-.015.1-.1.1h-2.73a1.939,1.939,0,0,0-.29,0,.157.157,0,0,1-.16-.087c-.131-.232-.276-.465-.407-.7-.044-.073-.087-.145-.131-.2-.015.3-.015.6-.015.886,0,.073-.014.1-.1.1h-3.819c-.087,0-.116-.015-.145-.1-.058-.174-.145-.334-.218-.508-.044-.131-.1-.261-.145-.377a.11.11,0,0,0-.116-.087h-.813a.127.127,0,0,0-.131.087c-.116.3-.247.6-.363.886a.113.113,0,0,1-.131.087h-1.452a7.547,7.547,0,0,1-1.51-.1,4.774,4.774,0,0,1-.871-.3v.116c0,.087.044.2-.015.261s-.174.015-.276.015h-4.617c-.073,0-.087-.015-.087-.087V19.9c0-.1-.058-.131-.145-.145h-.1c-.087-.015-.1.029-.1.1v1.263a1.937,1.937,0,0,1-.015.407h-9.583v-.784h-.029c-.073.174-.131.334-.2.508a.607.607,0,0,0-.058.145c-.029.131-.116.145-.232.131-.2-.015-.407,0-.61,0h-1.118a.14.14,0,0,1-.145-.1c-.087-.232-.189-.465-.29-.682-.015.218-.015.436-.015.639,0,.16.015.131-.145.131h-3.63a.113.113,0,0,1-.131-.087c-.044-.116-.1-.232-.145-.348-.073-.189-.16-.377-.232-.566a.08.08,0,0,0-.087-.058h-.871a.08.08,0,0,0-.087.058c-.029.058-.044.131-.073.189a3.94,3.94,0,0,0-.16.363,1.934,1.934,0,0,0-.1.261c-.044.058-.044.131-.087.174l-.029.029h-1.815c-.1-.015-.131.029-.116.131a4.084,4.084,0,0,1,0,.421V41.637c0,.116.029.131.131.131h40.741c.043-.044.029-.1.029-.145C146.713,37.208,146.713,32.736,146.713,28.264Zm-1.045-2.294a.014.014,0,0,0-.014.015.493.493,0,0,0-.145-.015l-1.074-.044c-.319-.015-.45-.16-.465-.479a.472.472,0,0,1,.145-.261.642.642,0,0,1,.363-.087h2.178V26.29a.209.209,0,0,0,.029.1A1.381,1.381,0,0,0,145.668,25.97Zm-16.9-23.4c0-.015-.015-.015-.015-.029S128.767,2.551,128.767,2.566Zm-7.811,1.757a1.461,1.461,0,0,0,.1.218A1.464,1.464,0,0,1,120.956,4.322Zm-.886.7c0,.015.014.029.014.044-.014-.044-.029-.073-.044-.116C120.041,4.976,120.056,4.99,120.07,5.019Zm1.06,4.356a.087.087,0,0,1-.015.058v.015A.109.109,0,0,1,121.13,9.375Zm-.319,1.205c.015-.044.029-.073.044-.116A1,1,0,0,0,120.811,10.58Zm1.815-2.918c0-.087-.015-.189-.015-.276,0,.044.015.087.015.131A.487.487,0,0,1,122.626,7.662Zm1.5-2.352c.015.044.015.087.029.116C124.136,5.4,124.136,5.353,124.121,5.31Zm1.35-1.1c-.073-.218-.131-.45-.218-.668C125.341,3.756,125.4,3.988,125.472,4.206ZM123.192,2.1Zm-16,2.062a.8.8,0,0,1,.087-.116A.8.8,0,0,0,107.192,4.163Zm12.965,8.218-.044.087-.131.174Zm4.269-2.918a.4.4,0,0,1-.015.131c0,.029-.015.058-.015.087C124.412,9.607,124.412,9.535,124.426,9.462Zm3.63,1.946c-.029.145-.058.276-.1.421C128,11.684,128.027,11.553,128.056,11.408ZM109.021,13.6a2.081,2.081,0,0,0-.218-.16A2.078,2.078,0,0,0,109.021,13.6Zm8.319.639c-.145.1-.29.189-.436.276C117.05,14.413,117.2,14.326,117.341,14.239Zm6.592-2.047c-.044.1-.073.2-.116.3a.051.051,0,0,1-.015.029C123.845,12.424,123.889,12.308,123.933,12.192Zm2.773.653-.044.131c-.015.044-.044.073-.058.116A1.256,1.256,0,0,0,126.706,12.845Zm1.016-1.67c0,.029-.015.058-.015.087s-.015.044-.015.073A.616.616,0,0,1,127.722,11.175Zm1.365,1.873v.015c0,.015-.015.029-.015.044A.087.087,0,0,1,129.087,13.048Zm1.394.682v.015c0,.015,0,.015-.015.029A.053.053,0,0,1,130.481,13.731Zm.813-.929-.044.131ZM115.773.78a.014.014,0,0,1-.014-.015c0,.015,0,.015.014.015Zm-6.011,0Zm-1.931,0c-.015,0-.015,0-.029.015a.014.014,0,0,0,.015-.015ZM122.9,14.253a.014.014,0,0,1-.015.015c0,.015-.015.015-.015.029C122.887,14.283,122.887,14.268,122.9,14.253Zm21.924,5.532h0c-.014,0-.014-.015-.014-.029C144.826,19.771,144.811,19.785,144.826,19.785Zm-11.8,3.31Zm-19.107,3.731h0a.6.6,0,0,0,0-.45h0Zm0-2.483Zm-.015.74Zm0-.3Zm.015-.668Zm3.819-1.917c.174-.058.348-.116.523-.189-.073.029-.16.073-.232.1S117.834,22.166,117.733,22.2Zm-7.376-.189a2.255,2.255,0,0,1-.3-.058A2.254,2.254,0,0,0,110.357,22.007Zm-.3,3.165a.849.849,0,0,0-.189-.029A.735.735,0,0,1,110.052,25.172Zm27.064,4.69Zm-19.528,0h0c0-.015.015-.015,0,0C117.6,29.862,117.6,29.847,117.588,29.862ZM113.914,28.4Zm-.015-2.483Zm-.014-2.105h0Zm3.122-.711Zm28.08,6.708h-2.28a.707.707,0,0,0-.174.015c-.029.015-.015.029-.015.029H142.6c-.029-.044-.073-.029-.116-.044h-.319c-.073,0-.1-.029-.1-.1v-.145c0-.044.014-.116-.044-.145s-.087.015-.131.044a2.193,2.193,0,0,1-.261.131,2.281,2.281,0,0,0-.334.131c-.014,0-.014.015-.029.029a.247.247,0,0,0-.1-.015,3.407,3.407,0,0,1-.537.073h-.058a.4.4,0,0,0-.131-.015H137.2a.544.544,0,0,0-.16.015v.015h-.682a.708.708,0,0,1-.247-.015c-.334-.015-.653,0-.987,0a.108.108,0,0,0-.1.044h0c0-.015,0-.015-.029-.029a1.645,1.645,0,0,0-.378-.015c-.421,0-.828-.015-1.249,0-.029.015-.044,0-.073.015a.361.361,0,0,0-.116-.015h-1.844c-.232,0-.218.015-.218-.218V28.293c0-.174-.073-.232-.261-.232-.145,0-.174.029-.174.218v1.365c0,.145-.015.145-.16.145h-2.672a.828.828,0,0,0-.189.015c-.015.015,0,.015,0,.029h-.015a2.643,2.643,0,0,0,.015-.479,1.075,1.075,0,0,0-.015-.3c-.014-.015-.014,0-.029,0a.014.014,0,0,0,.015-.015.156.156,0,0,0,.029-.116v-.77c0-.131-.029-.145-.16-.1a3.42,3.42,0,0,1-.668.145,7.711,7.711,0,0,1-1,.044c-.189,0-.2.015-.2.2v1.234c0,.116-.015.131-.131.131h-3.4a.418.418,0,0,0-.189.015c-.015.015,0,.015,0,.015h0a.735.735,0,0,0-.29-.3h.014c.029-.044,0-.073-.029-.1-.174-.189-.334-.377-.508-.566-.073-.087-.116-.087-.2,0-.116.1-.218.232-.334.348-.16.16-.3.319-.45.479a.289.289,0,0,1-.247.116h-5.735a.4.4,0,0,0-.131.015h-.015l-.029-.029a.4.4,0,0,1-.014-.131v-1.1c0-.029-.015-.058-.015-.087v-.145a.051.051,0,0,1,.015-.029V26.929a.131.131,0,0,0-.015-.073V26.3a1.173,1.173,0,0,0,.015-.232.32.32,0,0,0-.015-.116v-.61a.55.55,0,0,0,0-.218V24.1a.478.478,0,0,0,0-.2V23.27h0c.044-.1.116-.116.232-.116.174,0,.363.015.537,0h.087c.014,0,.044.015.058.015h2.018c.014,0,.029-.015.058-.015h.1c.581.015,1.176.015,1.757,0h.116c.014,0,.029.015.044.015h1.016c.014,0,.029-.015.044-.015h.087v.015c.116.174.276.319.407.479a.053.053,0,0,0,.073.029h0v.044a3.4,3.4,0,0,0,.363.436c.044.044.087.029.131-.015.261-.29.537-.581.8-.871a.234.234,0,0,1,.189-.087h.871a.494.494,0,0,0,.145-.015v-.015h.014a.12.12,0,0,0,.116.044h.668a.12.12,0,0,0,.116-.044h0c.015.015.015.029.044.044h2.207c.015,0,.044-.015.058-.015h.073a2.166,2.166,0,0,1,.3.029,2.287,2.287,0,0,1,.857.232.588.588,0,0,0,.131.073c.044.015.073.015.087-.029a.592.592,0,0,0-.015-.319c.015.015.029.015.044.029a4.692,4.692,0,0,0,.639,0c.392,0,.77.015,1.162,0,.029-.015.058,0,.087-.015a.361.361,0,0,0,.116.015h1.8a.828.828,0,0,1,.189.015,2.82,2.82,0,0,1,1.133.319c.087.044.116.015.131-.073v-.276a.369.369,0,0,0,.174.029h4.472a.708.708,0,0,0,.174-.015c.029-.015.029-.015.029-.029h0c.029.058.087.044.131.044h.392c.174,0,.174,0,.174.16v.073c.014.116.044.131.131.073a1.8,1.8,0,0,1,.479-.218c.044-.015.087-.015.1-.058a.014.014,0,0,1,.015-.015c0,.015,0,.029.029.044a7.386,7.386,0,0,1,.813-.058h.871c.058,0,.116.015.145-.044h0c0,.015,0,.029.029.044a.6.6,0,0,0,.16.015h1.481c.232,0,.232,0,.247.232,0,.044,0,.1.058.116s.1-.029.1-.087c0-.015.015-.015.015-.029,0,.015,0,.029.014.029.043,0,.073-.029.116-.044a2.5,2.5,0,0,1,1.074-.218h2.018a.262.262,0,0,0,.145-.029v.726c0,.16,0,.16-.16.16h-2.134a.08.08,0,0,0-.073.044h0a1.551,1.551,0,0,0-.363.044,1.333,1.333,0,0,0-1.1,1.016,1.638,1.638,0,0,0,.058.987.973.973,0,0,0,.392.508,1.531,1.531,0,0,0,.436.218,5.531,5.531,0,0,0,1.466.145.11.11,0,0,0,.044.029,1.311,1.311,0,0,1,.232.044.359.359,0,0,1,.276.363.38.38,0,0,1-.261.377c-.058.015-.1.029-.16.044a2.33,2.33,0,0,1-.45,0c-.044,0-.087.015-.131.015H143c-.073,0-.087.015-.087.087v.842c0,.087.029.1.1.1h.958c.015,0,.015.015.029.015H145.3a1.447,1.447,0,0,0,.552-.073,1.312,1.312,0,0,0,.784-.479c0,.029-.014.058-.014.087v1.016a.185.185,0,0,0,.014.087.119.119,0,0,0-.1.015A5.847,5.847,0,0,1,145.087,29.8Zm1.6-.218c0,.015.014.029.014.044C146.7,29.615,146.684,29.6,146.684,29.586Zm-14-12.719a1.3,1.3,0,0,1,.334-.029h1.089c.058,0,.1,0,.1-.087V15.88c0-.058-.014-.087-.073-.087a14.934,14.934,0,0,0-1.612.044,1.843,1.843,0,0,0-1.655,1.35,3.883,3.883,0,0,0-.1,1.684,2.092,2.092,0,0,0,.363.958,1.512,1.512,0,0,0,.494.465,2.531,2.531,0,0,0,1.176.3c.508.015,1,0,1.51.015.058,0,.073-.044.1-.087.116-.29.247-.6.348-.886.029-.073.058-.116.16-.1a3.027,3.027,0,0,0,.363,0h1.844c.058-.015.073.044.087.087.131.3.247.61.377.915.015.044.029.087.087.087h2.163c.087,0,.116-.029.116-.116V17.027c.232.363.436.711.653,1.06.261.465.552.915.828,1.379.189.319.392.624.566.958a.335.335,0,0,0,.421.2h1.234c.087,0,.116-.015.116-.116V15.894c0-.073-.015-.1-.1-.1h-.944c-.1,0-.145.015-.145.131V19.1h-.015c-.2-.334-.406-.668-.61-.987-.276-.479-.552-.929-.842-1.394a.111.111,0,0,0-.029-.073c-.16-.261-.319-.508-.465-.77a.146.146,0,0,0-.145-.087H138.96c-.1,0-.131.029-.131.131v4.37h-.014c-.073-.16-.145-.3-.2-.465-.087-.218-.174-.421-.261-.639-.174-.421-.363-.828-.537-1.249v-.029l-.871-2.047a.127.127,0,0,0-.131-.073h-1.539c-.029,0-.073-.015-.087.015s-.029.058-.044.087l-.958,2.221-.61,1.437a6.054,6.054,0,0,1-.726,0,.838.838,0,0,1-.857-.74,1.362,1.362,0,0,0-.058-.232c0-.1-.015-.218-.015-.319a2.563,2.563,0,0,1,.116-.813A.838.838,0,0,1,132.688,16.867Zm3.949,1.641h-.755c-.044,0-.1-.015-.145.029h0v-.015a1.1,1.1,0,0,0-.377-.015c-.116,0-.116,0-.073-.116.218-.537.45-1.074.668-1.612.014-.015.014-.058.044-.058.073.145.116.29.189.436a.149.149,0,0,0,.073.087h0c-.029.073.015.131.044.189.131.319.261.653.407.973C136.738,18.508,136.738,18.508,136.637,18.508Zm-7.652,2.018c0,.073.029.073.087.073h.624a2.37,2.37,0,0,0,.45-.015c.029-.029.014-.073.014-.116V15.909c0-.044.015-.073-.014-.116-.015,0-.015-.015-.029-.015h-1.074c-.044,0-.058.029-.058.073v2.076C129,18.812,129,19.669,128.985,20.526Zm1.162-4.574Zm-18.759,4.08a3.522,3.522,0,0,0-.145-.348c-.087-.247-.2-.479-.3-.711a7,7,0,0,0-.334-.755c-.1-.261-.2-.508-.334-.77v-.029c-.218-.523-.45-1.031-.668-1.554-.029-.058-.058-.073-.1-.073h-1.539a.109.109,0,0,0-.116.073c-.058.16-.131.319-.189.465-.087.218-.189.436-.276.653-.073.189-.16.363-.232.552l-.131.3a1.572,1.572,0,0,0-.116.276c-.087.174-.16.363-.232.552a5.338,5.338,0,0,0-.218.508c-.1.218-.2.45-.29.668-.116.247-.218.494-.334.74.015.044.058.029.087.029h1.162c.029-.073.058-.16.087-.232a5.586,5.586,0,0,0,.276-.682c.029-.145.131-.16.261-.16.232.015.465,0,.7,0,.421,0,.828.015,1.249,0,.2-.015.319.029.363.247,0,.015.015.015.015.029.1.247.2.508.3.755a.09.09,0,0,0,.087.058h2.192c.058,0,.087-.015.087-.087V16.9h.015c.058.116.116.247.174.363.131.334.276.653.436.973a5.3,5.3,0,0,0,.261.6h0a3.378,3.378,0,0,0,.2.479c.116.276.247.537.363.813.058.145.116.29.174.421a.109.109,0,0,0,.116.073h.8a.159.159,0,0,0,.174-.116c.087-.232.189-.45.29-.668.145-.3.29-.624.421-.944.131-.247.218-.523.348-.784s.261-.552.378-.842c.058-.131.116-.247.174-.377h.014v3.63c0,.029-.014.058.015.073h1.089c.058,0,.073-.015.073-.073v-4.69c-.015,0-.015-.015-.029-.015h-1.829a.067.067,0,0,0-.073.044c-.116.29-.232.581-.363.857-.145.3-.276.624-.392.929-.116.247-.218.508-.319.77-.015.015-.015.029-.029.044-.073.174-.145.348-.232.523-.015.015-.015.058-.044.058s-.029-.044-.044-.058c-.044-.1-.1-.2-.145-.3a.21.21,0,0,0-.029-.1,4.225,4.225,0,0,1-.2-.45c-.145-.334-.3-.668-.465-1h0v-.029c-.189-.407-.377-.828-.566-1.234-.029-.058-.073-.058-.131-.058h-1.641c-.145,0-.145,0-.145.145v4.225c0,.044.029.1-.029.131C111.461,20.206,111.432,20.119,111.388,20.032Zm-2.555-3.078c-.029.044,0,.087.015.131.1.232.189.465.29.7.015.029.029.073.073.087-.029.044,0,.087.014.116a3.654,3.654,0,0,0,.174.421c.029.058,0,.087-.029.116a.014.014,0,0,1-.014-.015.6.6,0,0,0-.16-.015h-1.1c-.116,0-.116,0-.1-.116,0-.015-.014-.015-.014-.029a.258.258,0,0,0,.1-.261h.014a.031.031,0,0,0,.029-.029c.073-.16.145-.319.2-.479a.093.093,0,0,0,0-.087h0a.014.014,0,0,1,.014.015c.015-.015.029-.015.044-.044.073-.174.145-.348.218-.537a.092.092,0,0,0,0-.087h0c.087-.029.058-.131.116-.16C108.746,16.78,108.746,16.9,108.833,16.954Zm8.218,1.466c.015,0,.015,0,.029-.015-.015.015-.029.015-.029.029Zm0,.871c.015,0,.015,0,.029-.015-.015.015-.029.015-.029.029Zm0,.929h0c.015.015,0,.015,0,.015Zm11.223-2.73a1.562,1.562,0,0,0-.015-.857,1.007,1.007,0,0,0-.392-.523.8.8,0,0,0-.377-.2,1.025,1.025,0,0,0-.407-.087,2.167,2.167,0,0,0-.3-.029.32.32,0,0,0-.116-.015h-2.831c-.058,0-.116-.015-.116.073v4.515c0,.232,0,.232.247.218.29,0,.6.015.886,0,.029-.029.015-.073.015-.116V18.943c0-.087.015-.116.1-.116h1.205a2.4,2.4,0,0,1,.552.073.6.6,0,0,1,.348.377,3.176,3.176,0,0,1,.044.523v.653c0,.044-.015.073.015.116.363.029.726,0,1.1.015.058,0,.058-.044.058-.087v-1a1.266,1.266,0,0,0-.1-.566.879.879,0,0,0-.436-.45c-.058-.058-.145-.073-.2-.116A1.317,1.317,0,0,0,128.274,17.491Zm-2.555.407Zm-.857-.015Zm.653-2.062Zm.334,3.005a.014.014,0,0,0,.015.015h-.015C125.835,18.827,125.849,18.827,125.849,18.827Zm.784-1.016c-.029.015-.058.015-.087.044a.014.014,0,0,1-.015.015h-.044a.25.25,0,0,0-.174-.029h-1.278c-.073,0-.145,0-.145-.116v-.886c0-.015.015-.029.015-.044h.769a.014.014,0,0,1,.015-.015c0,.015.015.029.029.044a4.69,4.69,0,0,0,.639,0c.015,0,.015-.015.029-.015h0a.11.11,0,0,0,.058.029.4.4,0,0,1,.131.015c.1.015.2.087.3.1,0,.029,0,.044.029.058a.433.433,0,0,1,.116.261c0,.029.015.044.029.073a.014.014,0,0,1-.014.015c-.015.029-.015.058-.029.087A.432.432,0,0,1,126.633,17.811Zm-7.564,2.425v.3c0,.058.015.073.073.073h3.688c.073,0,.073-.029.073-.087v-.755c0-.145,0-.145-.145-.145h-2.512c-.029-.3,0-.61-.015-.915,0-.058.044-.058.087-.058h2.454c.058,0,.073-.015.073-.073v-.886c-.029-.044-.073-.015-.116-.015h-2.41c-.029,0-.073,0-.087-.015a.014.014,0,0,0-.015-.015c-.015-.015-.015-.058-.015-.1a6.3,6.3,0,0,1,.015-.74h2.6c.058,0,.087-.015.087-.073v-.915c-.029-.044-.087-.015-.116-.015H119.17c-.073,0-.087.015-.087.087v3.644C119.069,19.771,119.069,20,119.069,20.235Zm1.132-3.209h0Zm0,.421v.029a.014.014,0,0,0-.015-.015A.014.014,0,0,1,120.2,17.448Zm2.526.232h0c-.015.015-.015,0-.029,0Zm-.973.015a.014.014,0,0,0-.015-.015c.015,0,.015,0,.015.015Zm-.915-.015Zm1.931-1.858a.014.014,0,0,1-.015-.015c0,.015,0,.015.015.015Zm-.871,0Zm-.871,0c-.015,0-.015.015-.029.015a.014.014,0,0,1,.015-.015Zm6.2,8.436a5.113,5.113,0,0,0-1.873-.174h-2.831c-.058,0-.087.029-.131.073-.45.479-.9.958-1.336,1.452-.044.058-.073.058-.116,0l-.436-.479c-.16-.189-.319-.377-.494-.552-.029-.029-.044-.058-.073-.087-.1-.116-.218-.232-.319-.348-.014-.044-.058-.044-.087-.044h-4.472c-.1,0-.087.044-.087.116V28.8c0,.087.029.116.116.116h4.341c.044,0,.087.015.116-.015s.058-.044.073-.073c.436-.479.886-.944,1.321-1.423.058-.058.087-.058.131,0,.145.174.29.334.45.508.29.319.581.653.857.973a.146.146,0,0,0,.131.044h2.047c.087,0,.1-.015.1-.1V27.422c0-.087.029-.116.116-.116h1.263a3.589,3.589,0,0,0,.958-.1,1.337,1.337,0,0,0,1.045-1.031,2.114,2.114,0,0,0,.029-.8A1.341,1.341,0,0,0,127.228,24.257Zm-12.24,3.935h0C114.974,28.206,114.989,28.206,114.989,28.192Zm4.515-.973c-.16.174-.334.348-.479.523a.3.3,0,0,1-.261.116h-1.771a.707.707,0,0,0-.174.015.053.053,0,0,1-.044.015c-.189,0-.378-.015-.566,0-.087,0-.116-.029-.116-.116V27.2c0-.087-.044-.2.015-.261s.174-.015.261-.015H118.5c.058,0,.1.015.1-.073v-.842c0-.044-.014-.073-.073-.073h-2.25c-.189,0-.189,0-.2-.189V25.2h.015a.141.141,0,0,1,.16-.1,2.644,2.644,0,0,0,.479-.015c.015,0,.015,0,.029-.015a.287.287,0,0,0,.16.029h1.5a1.851,1.851,0,0,0,.276-.015c.014,0,.029-.015.044-.015s.029.015.058.015a.271.271,0,0,1,.232.1c.1.1.189.218.276.3.029.029.044.058.087.058a.147.147,0,0,0,.058.1c.218.247.45.494.668.74.044.058.044.1-.015.145-.131.131-.247.276-.392.407a.3.3,0,0,0-.1.16h-.029A.148.148,0,0,1,119.5,27.219Zm3.949.987a.312.312,0,0,1,0,.116c-.029,0-.044-.029-.073-.058-.174-.189-.334-.378-.508-.552a1.742,1.742,0,0,0-.319-.334h-.029c0-.058-.044-.087-.073-.131-.2-.218-.407-.45-.6-.682-.087-.1-.073-.1,0-.189.029-.029.073-.058.058-.1h0c.058-.015.087-.058.131-.1a1.651,1.651,0,0,1,.218-.232c.1-.116.218-.218.319-.319.276-.276.537-.566.8-.857a.332.332,0,0,0,.1-.145.6.6,0,0,0-.015.16C123.453,25.927,123.453,27.074,123.453,28.206Zm2.918-1.96a1.609,1.609,0,0,1-.276.029h-1.307a.225.225,0,0,1-.16-.044h0c.044-.044.029-.087.029-.145v-.842c0-.145,0-.145.16-.145h1.191c.058,0,.116.015.16-.029h.015c0,.015-.015.015,0,.029a.216.216,0,0,0,.131.029.562.562,0,0,1,.436.261A.589.589,0,0,1,126.372,26.246Zm15.332-.131a1.581,1.581,0,0,0-.45-.116,9.844,9.844,0,0,0-1.133-.044.773.773,0,0,1-.552-.16.413.413,0,0,1,.319-.682.131.131,0,0,0,.073-.015h2.192c.058,0,.073-.015.073-.073v-.886c0-.044-.014-.073-.073-.073h-1.525a5.718,5.718,0,0,0-1.22.044,1.33,1.33,0,0,0-1.089.944,1.762,1.762,0,0,0,.029,1.06,1.021,1.021,0,0,0,.566.61.943.943,0,0,0,.334.131,6.609,6.609,0,0,0,1.408.131.835.835,0,0,1,.377.073.426.426,0,0,1,.174.334c.015.247-.116.378-.407.45H138.5c-.087,0-.1.029-.1.116v.813c0,.087.029.116.116.116h2.105a.793.793,0,0,0,.261-.015,1.879,1.879,0,0,0,.842-.189,1.19,1.19,0,0,0,.668-.8,1.965,1.965,0,0,0,0-1.045A.963.963,0,0,0,141.7,26.116Zm-1.554,2.73c.015,0,.015.015,0,0,.015.015,0,.015,0,0Zm-6.911-3.63c-.029-.044,0-.1-.015-.145a1.086,1.086,0,0,0-.711-.828,2.3,2.3,0,0,0-.987-.145h-2.831c-.087,0-.073.044-.073.1v4.646c0,.073.044.073.087.073h.973c.073,0,.1-.015.1-.1V27.408c0-.247,0-.247.247-.247h1.278c.029,0,.058.015.087.015a.624.624,0,0,1,.639.581c.029.2.014.392.029.6v.494c0,.073.029.073.087.073h.973c.073,0,.087-.015.087-.087V27.9a1.523,1.523,0,0,0-.073-.566,1.079,1.079,0,0,0-.653-.653A1.446,1.446,0,0,0,133.239,25.215Zm-1.96.9h-1.321c-.058,0-.116-.015-.16.015v.015h0a.123.123,0,0,0,.029-.1V25.23c0-.015-.015-.029-.015-.044a.131.131,0,0,1,.015-.073c.044-.044.087-.029.145-.029h.566a.262.262,0,0,0,.145-.029l.014-.015c0,.015,0,.029.015.029.261.015.508.015.769.029a.491.491,0,0,1,.087.973A.743.743,0,0,1,131.279,26.116Zm6.447,1.844v.857c0,.087-.044.073-.1.073h-3.615a.184.184,0,0,1-.087-.015h0a.014.014,0,0,1-.015-.015v-4.7c0-.044-.015-.1.073-.1h3.7c.044,0,.073.015.073.073v.857c0,.087-.058.073-.1.073h-2.526c-.058,0-.058.044-.058.087v.552c.015.232.015.232.261.232H137.6c.087,0,.116.015.116.116V26.8c0,.087-.015.116-.116.116h-2.4c-.1,0-.131.029-.131.131a5.578,5.578,0,0,1,0,.7c0,.116.044.131.145.131h2.5A.317.317,0,0,1,137.726,27.96Z" transform="translate(-104.68 0.324)"/><path class="h" d="M134.784,17.534v1.336a1.432,1.432,0,0,0-1.016-.45c-.334.015-.653-.029-.987-.015a1.8,1.8,0,0,1-.392-.044.409.409,0,0,1-.348-.465.49.49,0,0,1,.189-.319.468.468,0,0,1,.3-.087h2.12C134.7,17.5,134.755,17.5,134.784,17.534Z" transform="translate(-92.781 7.889)"/><path class="h" d="M127.084,12.319c.174.421.348.842.523,1.278h-1.6c.261-.639.523-1.263.8-1.917C126.91,11.912,127,12.116,127.084,12.319Z" transform="translate(-95.505 5.264)"/><path class="h" d="M107.288,13.413a.972.972,0,0,0,.1-.261,4.842,4.842,0,0,0,.232-.581,5.11,5.11,0,0,0,.261-.653c.058-.058.058-.16.116-.218.044.1.1.2.145.3.073.247.189.465.276.7.029.073.058.145.087.2.073.189.145.377.218.552.029.087.044.131-.073.116h-1.292C107.2,13.587,107.2,13.587,107.288,13.413Z" transform="translate(-103.992 5.273)"/><path class="h" d="M120.928,11.944a.483.483,0,0,1,.174.407.548.548,0,0,1-.508.523.065.065,0,0,1-.073,0H119c-.087,0-.116-.029-.116-.116v-.842c0-.044-.015-.087.029-.116a.156.156,0,0,1,.116-.029h.581a.156.156,0,0,1,.116.029h.755c.044.015.087,0,.131.015A1.324,1.324,0,0,1,120.928,11.944Z" transform="translate(-98.728 5.304)"/><path class="h" d="M116.921,18.86c.523-.552,1.045-1.118,1.568-1.67v3.8c-.044.015-.058-.029-.073-.044-.276-.3-.537-.61-.813-.9-.029-.029-.044-.058-.073-.073-.247-.276-.479-.552-.726-.813-.058-.058-.073-.1,0-.16C116.849,18.947,116.892,18.9,116.921,18.86Z" transform="translate(-99.687 7.754)"/><path class="h" d="M118.751,18.672v-1.06c0-.087.029-.1.116-.1H120.3c.058.015.116.015.189.029a.527.527,0,0,1,.479.61.572.572,0,0,1-.523.581,1.578,1.578,0,0,1-.261.015h-1.321C118.794,18.73,118.736,18.744,118.751,18.672Z" transform="translate(-98.787 7.898)"/><path class="h" d="M115.541,17.5a.413.413,0,0,1,.407.2c.087.1.174.2.261.29.247.276.494.566.74.828.058.073.058.1-.015.16-.174.189-.363.363-.523.566l-.653.7a.208.208,0,0,1-.16.073h-2a1.238,1.238,0,0,1-.465.029c-.29,0-.29,0-.29-.29v-.494c0-.247,0-.247.261-.247h2.105c.145,0,.16-.015.16-.16v-.61c0-.131-.015-.145-.145-.145h-.378c-.581.015-1.147,0-1.728,0H113c-.116,0-.145-.029-.145-.145v-.523a.157.157,0,0,1,.029-.116c-.014-.1.044-.131.131-.131h.537C114.219,17.5,114.887,17.5,115.541,17.5Z" transform="translate(-101.457 7.889)"/><path class="h" d="M122.29,18.585V17.568c0-.073.044-.058.087-.058h.813c.261,0,.523,0,.8.015a.508.508,0,0,1,.421.813.556.556,0,0,1-.537.247Z" transform="translate(-97.186 7.898)"/></g><g transform="translate(687 364.898)"><path class="h" d="M91.771,37.054h-21.6c-.16,0-.174-.044-.174-.174V10.653A7.235,7.235,0,0,1,77.243,3.41h36.126c.16,0,.174.044.174.189V29.826a7.235,7.235,0,0,1-7.243,7.243C101.452,37.054,96.619,37.054,91.771,37.054Z" transform="translate(-70 -3.41)"/><path class="j" d="M83.614,5.181c.015-.087-.029-.131-.116-.131-.174.015-.348,0-.523.015H76.966a3.383,3.383,0,0,0-.769.029h0a.81.81,0,0,0-.319.044,1.011,1.011,0,0,0-.363.073,1.041,1.041,0,0,0-.363.1,1.152,1.152,0,0,0-.392.145,1.194,1.194,0,0,0-.363.174,2.009,2.009,0,0,0-.479.29,1.584,1.584,0,0,0-.421.334,2.347,2.347,0,0,0-.464.464,2.259,2.259,0,0,0-.392.508,3.159,3.159,0,0,0-.348.61c-.073.044-.1.073-.116.116A5.189,5.189,0,0,0,71.785,10V21.291c0,.464,0,.464.45.61a.975.975,0,0,0,.334.145,1.12,1.12,0,0,0,.363.145,2.363,2.363,0,0,0,.537.189,2.011,2.011,0,0,0,.479.145,1.53,1.53,0,0,0,.348.087h0a1.077,1.077,0,0,0,.363.073,1.825,1.825,0,0,0,.479.073,1.106,1.106,0,0,0,.435.029.474.474,0,0,0,.247,0,1.792,1.792,0,0,0,.624-.029,1.237,1.237,0,0,0,.508-.116,1.17,1.17,0,0,0,.435-.189,1.313,1.313,0,0,0,.392-.29,1.475,1.475,0,0,0,.435-.6,1.8,1.8,0,0,0,.247-.943c.015-.7.015-1.393.015-2.1V14.862h0a.429.429,0,0,1,.189-.029h3.745c.16,0,.189.044.189.189v5.2a4.86,4.86,0,0,1-.232,1.582,3.657,3.657,0,0,1-.493.871c-.16.16-.319.319-.479.464l-.435.3c-.145.073-.29.16-.435.232l-.435.174c-.2.058-.406.131-.624.189a1.14,1.14,0,0,0-.319.073c-.145.029-.29.058-.435.073s-.29.029-.435.058a1.481,1.481,0,0,0-.435.044,4.085,4.085,0,0,0-.6.029H76.1a2.575,2.575,0,0,0-.464-.029l-.537-.044a3.558,3.558,0,0,0-.392-.029l-.363-.044c-.189-.029-.392-.044-.581-.073-.16-.029-.319-.044-.464-.073s-.261-.044-.392-.073l-.435-.087c-.145-.029-.29-.073-.435-.1-.261-.087-.261-.087-.261.189v9.565c0,.29,0,.29.3.276h6.909a2.505,2.505,0,0,0,.653-.073,1.659,1.659,0,0,0,.464-.1,1.539,1.539,0,0,0,.435-.145A1.5,1.5,0,0,0,81,33.251a1.959,1.959,0,0,0,.479-.276,1.905,1.905,0,0,0,.464-.363,3.221,3.221,0,0,0,.537-.552,3.28,3.28,0,0,0,.508-.755c.029-.029.044-.073.073-.1a4.963,4.963,0,0,0,.537-2.322V5.253A.109.109,0,0,0,83.614,5.181Z" transform="translate(-69.201 -2.67)"/><path class="k" d="M92.747,5.1c-.131-.116-.392-.044-.581-.029H85.925A2.255,2.255,0,0,0,85.3,5.1a.642.642,0,0,0-.29.029,1.237,1.237,0,0,0-.508.116h0a.9.9,0,0,0-.348.116,1.8,1.8,0,0,0-.537.2,1.95,1.95,0,0,0-.45.247,1.136,1.136,0,0,0-.319.218,1.458,1.458,0,0,0-.29.232,2.006,2.006,0,0,0-.392.392,2.313,2.313,0,0,0-.406.508,3.844,3.844,0,0,0-.435.8,4.172,4.172,0,0,0-.392,1.727c-.015,2.119,0,4.224,0,6.343,0,.029-.015.058.029.087.145-.1.29-.218.435-.334.145-.087.29-.174.435-.247.116-.058.247-.116.363-.174l.435-.174c.087-.029.174-.058.247-.087.116-.029.247-.073.363-.1.145-.029.29-.073.435-.1a3.373,3.373,0,0,1,.406-.073c.145-.029.29-.044.435-.073.174-.029.334-.044.508-.073a13.22,13.22,0,0,1,.871-.073c.16,0,.319,0,.465-.015h.827c.2.015.406.015.61.029a1.576,1.576,0,0,1,.261.015c.2.015.406.044.61.058l.334.044c.16.029.319.044.464.073s.29.044.435.073.261.044.406.073c.174.044.363.073.537.116s.319.073.464.1c.116.015.1.1.1.189v1.843c-.174,0-.3-.145-.464-.174a.907.907,0,0,0-.319-.145c-.145-.1-.319-.1-.464-.189a.824.824,0,0,0-.319-.1,2.228,2.228,0,0,0-.508-.145,1.579,1.579,0,0,0-.435-.1,1.519,1.519,0,0,0-.435-.073.959.959,0,0,0-.348-.044h0a1.282,1.282,0,0,0-.406-.029c-.015-.015-.015-.015-.029,0a2.281,2.281,0,0,0-.769,0,1.482,1.482,0,0,0-.435.044,2.55,2.55,0,0,0-.479.1.9.9,0,0,0-.348.116,1.114,1.114,0,0,0-.406.174,1.376,1.376,0,0,0-.392.247,1.619,1.619,0,0,0-.435.392,1.873,1.873,0,0,0-.363.523c-.015.029-.029.044-.044.073a3.8,3.8,0,0,0-.334,2.032,3.1,3.1,0,0,0,.377,1.292,1.873,1.873,0,0,0,.363.523,1.668,1.668,0,0,0,.435.406,1.376,1.376,0,0,0,.392.247,1.018,1.018,0,0,0,.406.174,1.062,1.062,0,0,0,.363.116,1.01,1.01,0,0,0,.363.073,1.405,1.405,0,0,0,.552.058,1.459,1.459,0,0,0,.435,0,2.73,2.73,0,0,0,.6-.029.4.4,0,0,0,.131-.015,1.6,1.6,0,0,0,.45-.058h0a1.245,1.245,0,0,0,.392-.073,1.921,1.921,0,0,0,.479-.116,1.34,1.34,0,0,0,.392-.116,1.9,1.9,0,0,0,.406-.131,1.848,1.848,0,0,0,.392-.16A2.447,2.447,0,0,0,91,21.922a4.429,4.429,0,0,1,.464-.189v1.858c0,.087,0,.16-.1.189-.174.044-.334.073-.508.116-.131.015-.261.044-.406.073s-.261.044-.392.073-.261.044-.392.073c-.174.029-.334.044-.508.073s-.334.044-.508.073l-.464.044c-.145,0-.29.015-.435.029a7.073,7.073,0,0,0-.784.029c-.261,0-.537-.015-.8-.015H85.91c-.174-.015-.363-.029-.537-.029a3.056,3.056,0,0,0-.363-.029l-.435-.044c-.189-.029-.363-.058-.552-.1-.116-.029-.247-.044-.363-.073-.16-.044-.319-.073-.464-.116a2.553,2.553,0,0,0-.435-.145l-.435-.174c-.131-.058-.261-.131-.392-.189-.145-.087-.29-.16-.435-.247-.16-.116-.319-.232-.508-.377v10.9c0,.058-.015.116.015.16h0c.044.029.087.015.131.015H86.81c.058,0,.1-.015.16-.015a7.06,7.06,0,0,0,.784,0,1.241,1.241,0,0,0,.464-.015,1.116,1.116,0,0,0,.435-.044,1.766,1.766,0,0,0,.552-.1,1.729,1.729,0,0,0,.464-.145,1.651,1.651,0,0,0,.435-.189,1.293,1.293,0,0,0,.392-.218,1.429,1.429,0,0,0,.435-.29,2.266,2.266,0,0,0,.523-.464,2.077,2.077,0,0,0,.406-.464,3.127,3.127,0,0,0,.421-.653c.029-.058.058-.1.087-.16a4.857,4.857,0,0,0,.464-2.177V5.652C92.776,5.463,92.863,5.2,92.747,5.1ZM81.353,33.853h0Z" transform="translate(-65.068 -2.676)"/><path class="l" d="M101.787,5.052H95.255a3.384,3.384,0,0,0-.769.029.283.283,0,0,0-.1.015,1.951,1.951,0,0,0-.581.1,1.317,1.317,0,0,0-.479.145,1.119,1.119,0,0,0-.363.145,2.5,2.5,0,0,0-.552.29,2.941,2.941,0,0,0-.639.479,2.5,2.5,0,0,0-.624.61,3,3,0,0,0-.479.726c-.015.029-.029.044-.044.073a4.907,4.907,0,0,0-.537,2.264v4.8c0,.073.029.1.1.1.174,0,.363,0,.537-.015h6.357a2.216,2.216,0,0,0,.435.044c.16.029.319.044.464.073s.29.073.435.116c.116.044.218.087.334.131.16.1.319.189.464.29a2.579,2.579,0,0,1,.464.508,2.689,2.689,0,0,1,.189.421,2.215,2.215,0,0,1-.116,1.669,2.808,2.808,0,0,1-.406.523,5.216,5.216,0,0,1-.581.406,5.806,5.806,0,0,1-.972.3,7.835,7.835,0,0,1,1.045.232c.16.073.319.131.479.2.145.1.29.189.435.29a3.411,3.411,0,0,1,.435.479,2.13,2.13,0,0,1,0,2.351,3.486,3.486,0,0,1-.552.581c-.16.1-.334.2-.494.29-.116.044-.247.1-.363.145-.189.044-.377.087-.552.145a1.432,1.432,0,0,0-.348.044H90.161c-.044,0-.087-.015-.116.029h0c0,.058-.014.116-.014.174v9.362c0,.058.014.116.014.174h0c.044.058.116.029.16.029H97a1.193,1.193,0,0,0,.392-.029,2.4,2.4,0,0,0,.464-.044,1.66,1.66,0,0,0,.464-.1,1.538,1.538,0,0,0,.435-.145,1.98,1.98,0,0,0,.479-.2,1.514,1.514,0,0,0,.464-.276,2.953,2.953,0,0,0,.581-.45,2.266,2.266,0,0,0,.479-.508,2.675,2.675,0,0,0,.435-.624,3.445,3.445,0,0,0,.435-.972,4.513,4.513,0,0,0,.247-1.582V5.183C101.932,5.1,101.888,5.038,101.787,5.052ZM90.712,33.82h0Zm6.72-9.7v-.015a1.1,1.1,0,0,0-.435,0h.493C97.476,24.124,97.461,24.124,97.432,24.124ZM95.705,16.5a1.139,1.139,0,0,1,0,1.872,1.046,1.046,0,0,1-.508.2.729.729,0,0,1-.3.029H92.614c-.131,0-.174-.015-.174-.16.015-.668,0-1.335,0-2,0-.044-.029-.116.029-.145a6.546,6.546,0,0,1,.755,0,2.969,2.969,0,0,1,.508,0,2.481,2.481,0,0,1,.464,0,2.969,2.969,0,0,1,.508,0,1.289,1.289,0,0,1,.406.015A.817.817,0,0,1,95.705,16.5Zm-3.237,6.038h2.743a1.14,1.14,0,0,0,.653-.145,1.188,1.188,0,0,0,.653-1.1,1.162,1.162,0,0,0-.639-1.1.825.825,0,0,0-.479-.16H94.108c-.493,0-1,0-1.495-.015-.131,0-.174.029-.174.174v2.221C92.439,22.455,92.41,22.513,92.468,22.542Zm2.25-2.482a3.026,3.026,0,0,0-.363,0h.363Zm-.871,0h0a1.249,1.249,0,0,0-.464,0h.464Z" transform="translate(-60.958 -2.672)"/></g><g transform="translate(618 364.536)"><path class="m" d="M56.783,27.336c-.014-.044-.058-.073-.087-.1a13.311,13.311,0,0,1-3.482-4.208,13.617,13.617,0,0,1-.943-2.293,13.315,13.315,0,0,1-.58-3.366,14.773,14.773,0,0,1,.073-2.119,13.324,13.324,0,0,1,.595-2.713,13.582,13.582,0,0,1,1.074-2.394,14.139,14.139,0,0,1,1.843-2.51,13.893,13.893,0,0,1,1.349-1.262c.058-.044.116-.073.131-.145V6.194a1.838,1.838,0,0,0-.363-.3,13.126,13.126,0,0,0-2.51-1.451A13.367,13.367,0,0,0,50.791,3.5a7.186,7.186,0,0,0-.958-.116c-.174-.015-.334,0-.508-.029H47.584v.015a7.623,7.623,0,0,0-1.146.087A13.422,13.422,0,0,0,41.925,4.99,13.123,13.123,0,0,0,39.24,6.949a13.735,13.735,0,0,0-1.669,1.886,13.288,13.288,0,0,0-1.785,3.352A12.819,12.819,0,0,0,35,16.163a15.792,15.792,0,0,0,.058,2.191,14.445,14.445,0,0,0,.609,2.742,11.964,11.964,0,0,0,.958,2.162,13.478,13.478,0,0,0,3.221,3.9,13.684,13.684,0,0,0,3.8,2.22,13.544,13.544,0,0,0,4.8.885c.3,0,.609-.015.929-.044a12.129,12.129,0,0,0,1.437-.174,13.273,13.273,0,0,0,5.862-2.583.2.2,0,0,0,.1-.116Z" transform="translate(-34.992 -3.335)"/><path class="n" d="M71.693,15.064a13.371,13.371,0,0,0-2.336-6.036,16.366,16.366,0,0,0-1.262-1.553,14.2,14.2,0,0,0-1.93-1.683,13.4,13.4,0,0,0-2.206-1.277,12.68,12.68,0,0,0-2.83-.929,9.344,9.344,0,0,0-1.915-.232V3.34H57.429v.015c-.3.015-.609.015-.914.058a13.389,13.389,0,0,0-2.481.58A12.765,12.765,0,0,0,51.8,4.98a13.455,13.455,0,0,0-1.683,1.1c-.058.029-.1.058-.116.116v.015a.2.2,0,0,0,.1.116A12.51,12.51,0,0,1,51.77,7.94a13.214,13.214,0,0,1,3.105,6.428,11.718,11.718,0,0,1,.2,1.872,14.645,14.645,0,0,1-.029,1.6,12.614,12.614,0,0,1-.334,2.075,13.8,13.8,0,0,1-1.277,3.323,13.761,13.761,0,0,1-3.337,3.99.2.2,0,0,0-.1.116v.015c.015.073.073.1.116.131a13.524,13.524,0,0,0,8.1,2.771c.435,0,.871-.015,1.306-.058a12.09,12.09,0,0,0,1.6-.232,13.573,13.573,0,0,0,8.068-5.209,13.376,13.376,0,0,0,2.206-4.687,11.076,11.076,0,0,0,.377-2.757A19.312,19.312,0,0,0,71.693,15.064Z" transform="translate(-28.224 -3.34)"/><path class="o" d="M51.6,5.32a7.665,7.665,0,0,1,.638.522A9.437,9.437,0,0,1,53,6.6,14.519,14.519,0,0,1,54.279,8.15a12.714,12.714,0,0,1,1.146,1.973,13.545,13.545,0,0,1,.987,2.917,12.2,12.2,0,0,1,.247,1.625,12.426,12.426,0,0,1,.044,1.8,13.389,13.389,0,0,1-.45,2.946,13.906,13.906,0,0,1-.726,2.017,13.66,13.66,0,0,1-1.161,2.06c-.29.435-.624.842-.958,1.248a12.631,12.631,0,0,1-.972,1,8.087,8.087,0,0,1-.856.726,13.351,13.351,0,0,1-2.046-2,13.924,13.924,0,0,1-1.843-2.917,12.688,12.688,0,0,1-.987-3.076,13.091,13.091,0,0,1-.218-1.828c-.029-.45-.029-.885-.014-1.335a13.452,13.452,0,0,1,.667-3.642A13.676,13.676,0,0,1,49.23,7.729,13.859,13.859,0,0,1,50.753,6.06,9.913,9.913,0,0,1,51.6,5.32Z" transform="translate(-29.819 -2.447)"/><g transform="translate(41.975 21.239)"><path class="n" d="M64.77,18.17c-.029.073-.073.16-.1.232-.015.029-.029.058-.073.058s-.058-.014-.072-.058c-.029-.073-.073-.145-.116-.232v.261c0,.029,0,.073-.044.073s-.044-.044-.044-.073v-.363c0-.029-.014-.073.044-.087s.087-.015.116.044c.044.087.087.189.131.29a2.194,2.194,0,0,0,.131-.261c.029-.058.058-.087.116-.073s.044.073.044.116v.319c0,.029.029.087-.044.087s-.044-.058-.044-.1V18.17Z" transform="translate(-63.74 -17.977)"/><path class="n" d="M64.152,17.98h.16c.029,0,.058,0,.058.044s-.029.058-.058.044c-.116-.015-.116.044-.116.131v.232c0,.044-.014.058-.058.058s-.044-.029-.044-.058v-.276c0-.058-.015-.087-.087-.087-.029,0-.087.015-.087-.044s.058-.044.087-.044Z" transform="translate(-63.92 -17.977)"/></g><g transform="translate(2.231 28.629)"><path class="f" d="M37.328,24.522a1.366,1.366,0,0,1,2.22.1c.029-.015.044-.044.073-.073a1.424,1.424,0,0,1,1.364-.537A1.274,1.274,0,0,1,42.2,25.364c.015.74,0,1.48,0,2.22,0,.058-.015.073-.073.073h-.624c-.073,0-.1-.029-.087-.1V25.712a1.622,1.622,0,0,0-.073-.522.653.653,0,0,0-.624-.464.817.817,0,0,0-.958.856c-.015.653-.015,1.291,0,1.944,0,.087-.015.131-.116.116-.189-.015-.377,0-.58,0-.073,0-.1-.015-.1-.1V25.7a1.624,1.624,0,0,0-.073-.522.653.653,0,0,0-.624-.464.817.817,0,0,0-.958.856c-.014.653-.014,1.291,0,1.944,0,.087-.014.116-.116.116H36.6c-.058,0-.073-.015-.073-.087v-3.41c0-.073.029-.087.087-.087h.595c.058,0,.087.015.087.087C37.314,24.29,37.328,24.392,37.328,24.522Z" transform="translate(-36.53 -22.65)"/><path class="f" d="M45.511,27.744a2.7,2.7,0,0,1-1.451-.392c-.073-.044-.087-.087-.029-.16.087-.145.174-.276.261-.421.044-.073.058-.073.131-.029A1.955,1.955,0,0,0,45.975,27a.5.5,0,0,0,.232-.116.292.292,0,0,0-.058-.522,1.946,1.946,0,0,0-.638-.145,2.821,2.821,0,0,1-.711-.16.949.949,0,0,1-.682-.9,1.034,1.034,0,0,1,.653-1,2.215,2.215,0,0,1,.972-.16,2.694,2.694,0,0,1,1.2.3c.087.044.1.087.058.174-.087.145-.16.29-.232.435-.029.073-.058.087-.131.044a2.18,2.18,0,0,0-1.277-.247.625.625,0,0,0-.319.131.3.3,0,0,0,.087.522,2.485,2.485,0,0,0,.653.131,3,3,0,0,1,.711.174.97.97,0,0,1,.638.769,1.014,1.014,0,0,1-.45,1.016,1.728,1.728,0,0,1-.958.29A1.092,1.092,0,0,1,45.511,27.744Z" transform="translate(-33.163 -22.651)"/><path class="f" d="M47.256,26.067V25.2c0-.073-.015-.087-.087-.087h-.551c-.058,0-.087-.015-.087-.087v-.551c0-.073.029-.073.087-.073h.551c.073,0,.087-.015.087-.087v-.9c0-.073.029-.1.1-.1h.58c.073,0,.1.014.1.1v.9c0,.073.014.087.087.087H49.2c.1,0,.116.029.116.116v.508c0,.073-.015.087-.087.087H48.141c-.073,0-.087.015-.087.087v1.567a.737.737,0,0,0,.044.247.4.4,0,0,0,.377.3,1.224,1.224,0,0,0,.711-.16c.058-.029.073-.029.1.044.058.174.1.334.174.508a.1.1,0,0,1-.058.145,1.851,1.851,0,0,1-1.146.2,1.036,1.036,0,0,1-.972-1.146,8.294,8.294,0,0,1-.029-.842Z" transform="translate(-32.02 -22.962)"/><path class="f" d="M55.469,27.755a1.8,1.8,0,0,1-1.683-.914,1.949,1.949,0,0,1,.479-2.467,2.125,2.125,0,0,1,1.437-.363,1.814,1.814,0,0,1,.972.363c.058.044.058.058.029.116-.1.16-.189.319-.276.479-.029.073-.058.073-.131.029a1.6,1.6,0,0,0-.8-.276,1.067,1.067,0,0,0-1.132,1.03A1.1,1.1,0,0,0,54.9,26.87a1.275,1.275,0,0,0,1.146,0,1.512,1.512,0,0,0,.261-.145c.044-.029.058-.029.087.015l.3.522c.044.058,0,.073-.029.1A1.8,1.8,0,0,1,55.469,27.755Z" transform="translate(-28.857 -22.648)"/><path class="f" d="M60.035,24.521a1.1,1.1,0,0,1,.638-.479,1.647,1.647,0,0,1,.8.029c.058.015.058.044.044.087-.073.2-.131.392-.189.595-.015.058-.044.058-.087.044a1.829,1.829,0,0,0-.406-.073.7.7,0,0,0-.755.653,2.25,2.25,0,0,0-.014.319v1.843c0,.073-.015.1-.1.1-.2-.015-.392,0-.595,0-.058,0-.087-.015-.087-.087v-3.41c0-.073.015-.087.087-.087h.609c.058,0,.087.015.087.073A1.781,1.781,0,0,0,60.035,24.521Z" transform="translate(-26.269 -22.649)"/><path class="f" d="M52.6,24.489h.029a1.184,1.184,0,0,1,1.378-.421c.073.015.087.044.058.116-.073.189-.131.377-.189.58-.014.058-.029.073-.087.044a1.348,1.348,0,0,0-.421-.073.693.693,0,0,0-.74.624,2.586,2.586,0,0,0-.029.334v1.843c0,.087-.029.1-.1.1h-.58c-.087,0-.1-.029-.1-.1V24.17c0-.073.015-.1.087-.1H52.5c.073,0,.087.015.087.087A2.683,2.683,0,0,1,52.6,24.489Z" transform="translate(-29.634 -22.647)"/><path class="f" d="M64.677,25.841v-2.67c0-.073-.015-.1-.1-.1H64c-.087,0-.087.029-.087.1v1.654a.134.134,0,0,1-.015.1,1.337,1.337,0,0,0-.653-.435,1.668,1.668,0,0,0-1.611.348,1.892,1.892,0,0,0-.566,2A1.735,1.735,0,0,0,63.2,28.12a1.419,1.419,0,0,0,.711-.464v.363c0,.058.014.073.073.073h.595c.087,0,.116-.015.116-.1C64.677,27.263,64.677,26.552,64.677,25.841Zm-1.291,1.48a1.138,1.138,0,1,1-.784-2.133,1.158,1.158,0,0,1,.784,2.133Z" transform="translate(-25.499 -23.07)"/><path class="f" d="M44.612,24.2c0-.087-.029-.116-.1-.1-.189,0-.377.015-.566,0-.087,0-.116.029-.116.116a2.333,2.333,0,0,1,0,.319,1.406,1.406,0,0,0-.493-.392,1.735,1.735,0,0,0-1.857.348,1.932,1.932,0,0,0-.508,1.9,1.747,1.747,0,0,0,2.06,1.335,1.325,1.325,0,0,0,.784-.479v.334c0,.073.014.087.087.087h.609c.073,0,.087-.015.087-.087v-.551C44.612,26.085,44.612,25.142,44.612,24.2ZM43,27a1.148,1.148,0,0,1-.711-2.133,1.075,1.075,0,0,1,1.582,1.03A1.053,1.053,0,0,1,43,27Z" transform="translate(-34.556 -22.647)"/><path class="f" d="M59.633,24.092h-.624c-.058,0-.073.015-.073.073V24.5a2.226,2.226,0,0,1-.189-.174,1.528,1.528,0,0,0-1.524-.232,1.924,1.924,0,0,0-.334,3.4,1.587,1.587,0,0,0,2.017-.232h.029v.319c0,.058.015.073.073.073h.624c.058,0,.073-.029.073-.087V24.15C59.706,24.121,59.706,24.092,59.633,24.092Zm-1.727,2.931a1.092,1.092,0,0,1-1.088-1.146,1.083,1.083,0,1,1,1.088,1.146Z" transform="translate(-27.74 -22.655)"/><path class="f" d="M52.332,25.493a1.653,1.653,0,0,0-1.466-1.48,1.7,1.7,0,0,0-1.582.624,1.965,1.965,0,0,0-.392,1.437,1.764,1.764,0,0,0,.638,1.277,2.2,2.2,0,0,0,2.612-.073c.044-.044.029-.058,0-.1-.1-.145-.2-.3-.3-.45-.029-.058-.058-.058-.1-.014a1.655,1.655,0,0,1-.813.319,1.018,1.018,0,0,1-1.233-.856h2.554c.087,0,.1-.015.1-.1A2.589,2.589,0,0,0,52.332,25.493Zm-.856.073H49.793c-.073,0-.087-.015-.073-.087a.95.95,0,0,1,1.262-.74.975.975,0,0,1,.58.755C51.548,25.58,51.5,25.566,51.476,25.566Z" transform="translate(-30.958 -22.649)"/></g><g transform="translate(42.338 33.127)"><path class="f" d="M64.533,26.17a.356.356,0,0,0-.363.348.379.379,0,0,0,.363.363.356.356,0,1,0,0-.711Zm.014.624a.267.267,0,0,1-.276-.276.276.276,0,0,1,.551,0A.285.285,0,0,1,64.547,26.794Z" transform="translate(-64.17 -26.17)"/><g transform="translate(0.232 0.203)"><path class="f" d="M64.33,26.615v-.3h.131a.109.109,0,0,1,.073.015c.015,0,.029.015.044.029a.053.053,0,0,1,.015.044c0,.029,0,.044-.015.058a.075.075,0,0,1-.058.029c.015.015.029.015.029.029s.014.029.029.058l.044.058h-.073l-.044-.073a.179.179,0,0,0-.029-.044l-.014-.015h-.044v.131H64.33Zm.058-.174h.1a.014.014,0,0,0,.015-.015V26.4c0-.015,0-.015-.015-.029a.051.051,0,0,0-.029-.015h-.087v.087Z" transform="translate(-64.33 -26.31)"/></g></g></g><g transform="translate(549 374.696)"><path class="p" d="M33.918,23.92H30.682c-.131-.6-.247-1.176-.363-1.771-.044-.2-.116-.261-.319-.261-1.335.015-2.685.015-4.02,0a.294.294,0,0,0-.334.232c-.189.552-.377,1.089-.6,1.64a.281.281,0,0,1-.2.16c-1.147.015-2.293,0-3.44,0-.029,0-.044-.015-.087-.015.218-.508.421-1.016.624-1.524,1.539-3.658,3.063-7.33,4.6-10.987a1.6,1.6,0,0,1,1.611-1.074h2.685c.174,0,.247.029.29.218.9,4.369,1.829,8.738,2.729,13.106A2.361,2.361,0,0,1,33.918,23.92Zm-5.3-9.826h-.044c-.61,1.669-1.2,3.324-1.814,5.007h2.9Q29.143,16.576,28.621,14.094Z" transform="translate(9.624 -10.077)"/><path class="p" d="M9.173,19.566c.131-.334.247-.624.363-.9,1.074-2.7,2.134-5.4,3.208-8.113a.3.3,0,0,1,.334-.232c1.06.015,2.134,0,3.193,0h.261a3.013,3.013,0,0,1-.116.29c-1.829,4.369-3.672,8.752-5.486,13.121a.286.286,0,0,1-.3.2c-1.1-.015-2.192-.015-3.295,0-.174,0-.232-.044-.276-.218Q5.661,18.339,4.282,12.962A1.654,1.654,0,0,0,3.324,11.8,16.171,16.171,0,0,0,.16,10.755.378.378,0,0,1,0,10.712c.029-.116.044-.232.073-.377H5.951A1.628,1.628,0,0,1,7.693,11.8c.464,2.5.943,4.978,1.408,7.475C9.115,19.348,9.144,19.42,9.173,19.566Z" transform="translate(0 -10.077)"/><path class="p" d="M14.52,23.516c.218-1,.421-1.974.639-2.975.131.058.261.1.377.16a6.807,6.807,0,0,0,3.672.653,2.431,2.431,0,0,0,1.176-.406,1.008,1.008,0,0,0,.131-1.669,9.624,9.624,0,0,0-1.2-.8c-.639-.392-1.321-.726-1.916-1.161a3.465,3.465,0,0,1-.61-5.051,5.214,5.214,0,0,1,3.033-1.858,9.094,9.094,0,0,1,5.24.29c.044.015.087.044.16.073-.2.943-.406,1.887-.61,2.859-.087-.029-.174-.058-.247-.087a6.733,6.733,0,0,0-3.063-.523,2.214,2.214,0,0,0-1.234.421.856.856,0,0,0-.029,1.451c.421.319.914.566,1.379.856.61.377,1.248.711,1.829,1.132a3.35,3.35,0,0,1,1.234,3.7,4.358,4.358,0,0,1-2.932,3.121,8.932,8.932,0,0,1-4.049.464,10,10,0,0,1-2.525-.508A3.277,3.277,0,0,1,14.52,23.516Z" transform="translate(6.555 -10.153)"/><path class="p" d="M16.845,10.33c-.131.624-.247,1.2-.377,1.785-.813,3.832-1.64,7.664-2.453,11.5-.058.261-.145.334-.406.319-.958-.015-1.916,0-2.874,0h-.3c.073-.377.145-.74.232-1.1.784-3.672,1.568-7.359,2.366-11.031.087-.435.189-.871.29-1.292.015-.073.1-.174.16-.174Z" transform="translate(4.708 -10.073)"/></g><g transform="translate(488.426 -48.666)"><path d="M427.776,676.32h2.393a2.425,2.425,0,0,1,2.7,2.462c0,1.87-1.273,3.4-3.995,3.4h-2.342v-.148c.454-.083.592-.111.75-.685l1.1-3.911a2.685,2.685,0,0,0,.1-.574c0-.315-.241-.361-.713-.4Z" transform="translate(-19.042 -241.99)"/><path d="M502.051,699.274c-.361.546-.768,1.055-1.287,1.055-.435,0-.435-.407-.435-.574,0-.435.731-2.731.731-2.99,0-.194-.074-.241-.583-.241v-.148c.352-.018,1.12-.167,1.481-.231l.028.019-.815,2.98a4.162,4.162,0,0,0-.148.611.151.151,0,0,0,.148.139c.111,0,.379-.185.759-.722Z" transform="translate(-86.205 -260.033)"/><path d="M512.926,675.185a.438.438,0,0,1-.444-.481.453.453,0,0,1,.435-.5.5.5,0,0,1,.463.509A.473.473,0,0,1,512.926,675.185Z" transform="translate(-97.265 -240.064)"/><path d="M524.77,699.264c-.463.62-.787,1.046-1.287,1.046-.426,0-.444-.278-.444-.546,0-.222.685-2.481.685-2.851,0-.167-.056-.3-.231-.3-.444,0-1.028.8-1.361,1.314a7.273,7.273,0,0,0-.926,2.3h-.694c.287-1.046.907-3.212.907-3.406,0-.139-.093-.241-.592-.241v-.148c.5-.093,1-.185,1.5-.287l.028.019-.592,1.935.019.019c.435-.685,1.286-1.972,2.055-1.972a.56.56,0,0,1,.639.611c0,.4-.741,2.684-.741,2.962a.154.154,0,0,0,.148.157c.185,0,.417-.3.759-.731Z" transform="translate(-104.574 -260.033)"/><path d="M572.476,699.329a2.84,2.84,0,0,1-1.87,1,1.2,1.2,0,0,1-1.268-1.305,3.209,3.209,0,0,1,2.768-2.879c.472,0,.759.222.759.629,0,.731-.87,1.481-2.37,1.694l-.259.037a2.479,2.479,0,0,0-.093.565.808.808,0,0,0,.87.842,2.227,2.227,0,0,0,1.351-.694Z" transform="translate(-149.012 -260.033)"/><path d="M607.645,700.227l.75-2.7a4.433,4.433,0,0,0,.148-.74c0-.13-.046-.278-.333-.278a1.748,1.748,0,0,0-.306.046v-.157c.472-.065,1.018-.185,1.435-.25l.028.019-.454,1.842.018.018.074-.185c.305-.611,1.009-1.694,1.592-1.694a.429.429,0,0,1,.444.454c0,.481-.333.481-.435.481-.4,0-.259-.333-.481-.333-.287,0-.842,1.027-.916,1.166a11.61,11.61,0,0,0-.861,2.314Z" transform="translate(-183.877 -260.033)"/><path d="M637.405,698.782c.065.407.213,1.259.963,1.259a.676.676,0,0,0,.667-.75c0-.611-1.1-1.5-1.1-2.212a1,1,0,0,1,1.111-1.027c.416,0,.6.157.879.157a.278.278,0,0,0,.259-.167h.13l-.185,1.287h-.148c-.046-.528-.268-1.065-.87-1.065a.468.468,0,0,0-.5.537c0,.583,1.129,1.407,1.129,2.194a1.242,1.242,0,0,1-1.379,1.24c-.278,0-.648-.176-.916-.176-.13,0-.167.092-.222.194h-.148l.185-1.472Z" transform="translate(-210.66 -259.94)"/><path d="M700.817,674.8a1.421,1.421,0,0,0-1.426-1.5c-1.851,0-2.8,2.24-2.8,3.6,0,1.213.509,1.981,1.611,1.981a3,3,0,0,0,2.138-1.092l.157.13a3.326,3.326,0,0,1-2.518,1.379,2.328,2.328,0,0,1-2.425-2.5,3.99,3.99,0,0,1,3.758-3.832,9.787,9.787,0,0,1,1.444.222c.268,0,.324-.111.37-.2h.194l-.342,1.842Z" transform="translate(-263.891 -238.94)"/><path d="M758.707,676.484c-.472.713-.833,1.157-1.407,1.157-.407,0-.444-.315-.444-.574,0-.194,1.342-5.026,1.342-5.221,0-.241-.389-.241-.629-.231v-.148a13.1,13.1,0,0,0,1.444-.25l.046.046-1.4,5.359a3,3,0,0,0-.092.435c0,.055,0,.185.139.185.231,0,.426-.259.879-.842Z" transform="translate(-319.68 -237.346)"/><path d="M783.55,699.227c-.583.842-.824,1.083-1.287,1.083a.415.415,0,0,1-.435-.481,13.076,13.076,0,0,1,.4-1.7H782.2c-.629,1.046-1.314,2.2-2.147,2.2-.333,0-.509-.139-.509-.546s.7-2.74.7-2.99c0-.269-.176-.269-.555-.269v-.13a12.18,12.18,0,0,0,1.389-.25l.028.019-.842,3.36c-.028.12,0,.315.194.315.4,0,.981-.87,1.3-1.351a9.734,9.734,0,0,0,1.018-2.259h.685L782.726,699a4.348,4.348,0,0,0-.176.731c0,.046.009.148.111.148.176,0,.435-.324.759-.731Z" transform="translate(-340.327 -260.033)"/><path d="M825.464,671.43c.463-.055.935-.12,1.416-.213l.046.046c-.2.759-.485,1.794-.8,2.84l.018.009a1.825,1.825,0,0,1,1.613-.944c.648,0,1.065.734,1.065,1.409a3.356,3.356,0,0,1-2.962,3.064c-.491,0-1.2-.287-1.2-.491v-.037l1.259-4.637a4.013,4.013,0,0,0,.148-.62c0-.213-.065-.259-.6-.268Z" transform="translate(-381.39 -237.346)"/><path d="M405.613,761.664c.454-.083.592-.111.75-.685l1.1-3.874a2.208,2.208,0,0,0,.1-.574c0-.324-.25-.352-.648-.4v-.148h2.286v.148c-.454.083-.6.1-.759.685l-1.1,3.884a1.983,1.983,0,0,0-.1.592c0,.3.231.324.629.37v.148h-2.259Z" transform="translate(0 -314.496)"/><path d="M441.584,778.527c-.463.62-.787,1.046-1.287,1.046-.426,0-.444-.278-.444-.546,0-.222.685-2.481.685-2.851,0-.167-.056-.3-.231-.3-.444,0-1.027.8-1.361,1.314a7.271,7.271,0,0,0-.926,2.3h-.694c.287-1.046.907-3.212.907-3.406,0-.139-.092-.241-.592-.241v-.148c.5-.092,1-.185,1.5-.287l.028.018-.592,1.935.019.019c.435-.685,1.287-1.972,2.055-1.972a.56.56,0,0,1,.639.611c0,.4-.74,2.684-.74,2.962a.154.154,0,0,0,.148.157c.185,0,.417-.3.759-.731Z" transform="translate(-28.863 -332.174)"/><path d="M488.316,765.954h-.777l-.815,3.082a.2.2,0,0,0-.009.074.143.143,0,0,0,.148.157c.185,0,.509-.435.741-.731l.12.065c-.472.713-.833,1.12-1.314,1.12a.4.4,0,0,1-.444-.37,7.653,7.653,0,0,1,.213-.852l.666-2.545h-.685a.2.2,0,0,1,.019-.148c.056-.083.315-.148.472-.231a3.94,3.94,0,0,0,1.009-.9c.037-.046.074-.13.157-.111.065-.019.083.065.065.139l-.259.953h.741Z" transform="translate(-73.131 -322.303)"/><path d="M512.274,778.592a2.84,2.84,0,0,1-1.87,1,1.2,1.2,0,0,1-1.268-1.305,3.209,3.209,0,0,1,2.768-2.879c.472,0,.759.222.759.629,0,.731-.87,1.481-2.37,1.694l-.259.037a2.482,2.482,0,0,0-.092.565.808.808,0,0,0,.87.842,2.228,2.228,0,0,0,1.351-.694Z" transform="translate(-94.22 -332.174)"/><path d="M547.846,779.49l.75-2.7a4.407,4.407,0,0,0,.148-.74c0-.13-.046-.278-.333-.278a1.731,1.731,0,0,0-.305.046v-.157c.472-.065,1.018-.185,1.435-.25l.028.018-.454,1.842.019.019.074-.185c.305-.611,1.009-1.694,1.592-1.694a.429.429,0,0,1,.444.453c0,.481-.333.481-.435.481-.4,0-.259-.333-.481-.333-.287,0-.842,1.028-.916,1.166a11.605,11.605,0,0,0-.861,2.314Z" transform="translate(-129.452 -332.174)"/><path d="M587.36,778.527c-.463.62-.787,1.046-1.287,1.046-.426,0-.444-.278-.444-.546,0-.222.685-2.481.685-2.851,0-.167-.056-.3-.231-.3-.444,0-1.028.8-1.361,1.314a7.274,7.274,0,0,0-.926,2.3H583.1c.287-1.046.907-3.212.907-3.406,0-.139-.093-.241-.592-.241v-.148c.5-.092,1-.185,1.5-.287l.028.018-.592,1.935.019.019c.435-.685,1.287-1.972,2.055-1.972a.56.56,0,0,1,.639.611c0,.4-.741,2.684-.741,2.962a.154.154,0,0,0,.148.157c.185,0,.417-.3.759-.731Z" transform="translate(-161.539 -332.174)"/><path d="M634.735,778.564c-.555.685-.87,1.018-1.268,1.018s-.389-.241-.389-.4a4.008,4.008,0,0,1,.194-.981l-.018-.018c-.768,1.129-1.259,1.407-1.814,1.407a.943.943,0,0,1-.953-1.092c0-1.361,1.416-3.092,2.647-3.092a.689.689,0,0,1,.731.5h.019l.093-.407.028-.028.565-.065.065.028c-.028.111-.879,3.267-.879,3.554a.125.125,0,0,0,.13.12c.139,0,.324-.231.741-.639Z" transform="translate(-204.665 -332.174)"/><path d="M679.96,765.954h-.777l-.815,3.082a.2.2,0,0,0-.009.074.143.143,0,0,0,.148.157c.185,0,.509-.435.74-.731l.12.065c-.472.713-.833,1.12-1.314,1.12a.4.4,0,0,1-.444-.37,7.639,7.639,0,0,1,.213-.852l.666-2.545H677.8a.2.2,0,0,1,.019-.148c.056-.083.315-.148.472-.231a3.94,3.94,0,0,0,1.009-.9c.037-.046.074-.13.157-.111.065-.019.083.065.065.139l-.259.953h.741Z" transform="translate(-247.554 -322.303)"/><path d="M707.977,778.537c-.361.546-.768,1.055-1.287,1.055-.435,0-.435-.407-.435-.574,0-.435.731-2.731.731-2.99,0-.194-.074-.241-.583-.241v-.148c.352-.018,1.12-.167,1.481-.231l.028.018-.815,2.98a4.168,4.168,0,0,0-.148.611.151.151,0,0,0,.148.139c.111,0,.379-.185.759-.722Z" transform="translate(-273.626 -332.174)"/><path d="M718.854,754.448a.438.438,0,0,1-.444-.481.453.453,0,0,1,.435-.5.5.5,0,0,1,.463.509A.473.473,0,0,1,718.854,754.448Z" transform="translate(-284.688 -312.204)"/><path d="M731.056,776.778a3.122,3.122,0,0,1-2.684,2.814,1.236,1.236,0,0,1-1.4-1.333,3.06,3.06,0,0,1,2.721-2.851A1.255,1.255,0,0,1,731.056,776.778Z" transform="translate(-292.483 -332.174)"/><path d="M773.749,778.527c-.463.62-.787,1.046-1.287,1.046-.426,0-.444-.278-.444-.546,0-.222.685-2.481.685-2.851,0-.167-.055-.3-.231-.3-.444,0-1.027.8-1.361,1.314a7.269,7.269,0,0,0-.926,2.3h-.694c.287-1.046.907-3.212.907-3.406,0-.139-.093-.241-.592-.241v-.148c.5-.092,1-.185,1.5-.287l.028.018-.592,1.935.018.019c.435-.685,1.287-1.972,2.055-1.972a.56.56,0,0,1,.639.611c0,.4-.741,2.684-.741,2.962a.154.154,0,0,0,.148.157c.185,0,.417-.3.759-.731Z" transform="translate(-331.179 -332.174)"/><path d="M821.526,778.564c-.555.685-.87,1.018-1.268,1.018s-.389-.241-.389-.4a4.011,4.011,0,0,1,.194-.981l-.019-.018c-.768,1.129-1.259,1.407-1.814,1.407a.943.943,0,0,1-.953-1.092c0-1.361,1.416-3.092,2.647-3.092a.689.689,0,0,1,.731.5h.019l.093-.407.028-.028.565-.065.065.028c-.028.111-.879,3.267-.879,3.554a.125.125,0,0,0,.13.12c.139,0,.324-.231.741-.639Z" transform="translate(-374.671 -332.174)"/><path d="M867.287,756c-.472.713-.652.9-1.226.9-.407,0-.444-.315-.444-.574,0-.194,1.342-5.026,1.342-5.221,0-.241-.389-.241-.629-.231v-.148a13.085,13.085,0,0,0,1.444-.25l.046.046-1.4,5.359a3,3,0,0,0-.093.435c0,.056,0,.185.139.185.231,0,.245-.006.7-.589Z" transform="translate(-418.667 -309.486)"/><path class="q" d="M497.915,467.712a9.153,9.153,0,1,0,0-18.305h-11.57a9.153,9.153,0,1,0,0,18.305Z" transform="translate(-65.147 -35.468)"/><g transform="translate(408.543 410.437)"><circle class="d" cx="8.948" cy="8.948" r="8.948" transform="translate(0 12.655) rotate(-45)"/></g><path class="q" d="M521.826,493.772a5.473,5.473,0,0,0,.011,10.336Z" transform="translate(-102.434 -75.846)"/><path class="q" d="M602.7,498.938a5.473,5.473,0,0,1-3.676,5.17l.011-10.336a5.473,5.473,0,0,1,3.665,5.166" transform="translate(-176.027 -75.846)"/><path class="d" d="M445.074,683.5a5.709,5.709,0,0,0-.2.861c0,.306.222.361.657.361a2.926,2.926,0,0,0,3-3.235c0-.935-.134-2.073-1.772-2.073-.528,0-.565.139-.6.268Z" transform="translate(-35.729 -244.801)"/><path class="d" d="M580.051,700.458c1.907-.389,1.953-1.5,1.953-1.573,0-.194-.093-.37-.324-.37-.5,0-1.129.713-1.472,1.537Z" transform="translate(-158.763 -262.189)"/><path class="d" d="M835.453,698.376c-1.018,0-1.815,1.821-1.943,3.465-.005.065,0,.305.435.305,1.268,0,2.147-1.953,2.147-2.731C836.092,699.129,836.036,698.376,835.453,698.376Z" transform="translate(-389.444 -262.064)"/><path class="d" d="M519.849,779.72c1.907-.389,1.953-1.5,1.953-1.574,0-.194-.093-.37-.324-.37-.5,0-1.129.713-1.472,1.537Z" transform="translate(-103.97 -334.329)"/><path class="d" d="M639.694,781.2c.981,0,1.888-2,1.888-2.907,0-.444-.259-.62-.528-.62-1.083,0-1.916,2.036-1.916,2.869C639.139,781.034,639.444,781.2,639.694,781.2Z" transform="translate(-212.541 -334.236)"/><path class="d" d="M735.626,780.505c0,.528.278.861.74.861,1.055,0,1.787-1.916,1.787-2.906,0-.481-.2-.889-.648-.889C736.468,777.571,735.626,779.413,735.626,780.505Z" transform="translate(-300.357 -334.142)"/><path class="d" d="M826.484,781.2c.981,0,1.888-2,1.888-2.907,0-.444-.259-.62-.528-.62-1.083,0-1.916,2.036-1.916,2.869C825.929,781.034,826.235,781.2,826.484,781.2Z" transform="translate(-382.546 -334.236)"/></g></g></svg>