<svg xmlns="http://www.w3.org/2000/svg" xmlns:xlink="http://www.w3.org/1999/xlink" width="43.543" height="33.659" viewBox="0 0 43.543 33.659"><defs><style>.a{fill:#fefefe;}.b{fill:url(#a);}.c{fill:url(#b);}.d{fill:url(#c);}</style><linearGradient id="a" x1="-0.001" y1="0.501" x2="1" y2="0.501" gradientUnits="objectBoundingBox"><stop offset="0" stop-color="#1e2a70"/><stop offset="1" stop-color="#006eba"/></linearGradient><linearGradient id="b" y1="0.5" x2="0.998" y2="0.5" gradientUnits="objectBoundingBox"><stop offset="0" stop-color="#6f2c2f"/><stop offset="1" stop-color="#e60039"/></linearGradient><linearGradient id="c" x1="0.003" y1="0.501" x2="1.002" y2="0.501" gradientUnits="objectBoundingBox"><stop offset="0" stop-color="#007b40"/><stop offset="1" stop-color="#5bb531"/></linearGradient></defs><path class="a" d="M91.771,37.054h-21.6c-.16,0-.174-.044-.174-.174V10.653A7.235,7.235,0,0,1,77.243,3.41h36.126c.16,0,.174.044.174.189V29.826a7.235,7.235,0,0,1-7.243,7.243C101.452,37.054,96.619,37.054,91.771,37.054Z" transform="translate(-70 -3.41)"/><path class="b" d="M83.614,5.181c.015-.087-.029-.131-.116-.131-.174.015-.348,0-.523.015H76.966a3.383,3.383,0,0,0-.769.029h0a.81.81,0,0,0-.319.044,1.011,1.011,0,0,0-.363.073,1.041,1.041,0,0,0-.363.1,1.152,1.152,0,0,0-.392.145,1.194,1.194,0,0,0-.363.174,2.009,2.009,0,0,0-.479.29,1.584,1.584,0,0,0-.421.334,2.347,2.347,0,0,0-.464.464,2.259,2.259,0,0,0-.392.508,3.159,3.159,0,0,0-.348.61c-.073.044-.1.073-.116.116A5.189,5.189,0,0,0,71.785,10V21.291c0,.464,0,.464.45.61a.975.975,0,0,0,.334.145,1.12,1.12,0,0,0,.363.145,2.363,2.363,0,0,0,.537.189,2.011,2.011,0,0,0,.479.145,1.53,1.53,0,0,0,.348.087h0a1.077,1.077,0,0,0,.363.073,1.825,1.825,0,0,0,.479.073,1.106,1.106,0,0,0,.435.029.474.474,0,0,0,.247,0,1.792,1.792,0,0,0,.624-.029,1.237,1.237,0,0,0,.508-.116,1.17,1.17,0,0,0,.435-.189,1.313,1.313,0,0,0,.392-.29,1.475,1.475,0,0,0,.435-.6,1.8,1.8,0,0,0,.247-.943c.015-.7.015-1.393.015-2.1V14.862h0a.429.429,0,0,1,.189-.029h3.745c.16,0,.189.044.189.189v5.2a4.86,4.86,0,0,1-.232,1.582,3.657,3.657,0,0,1-.493.871c-.16.16-.319.319-.479.464l-.435.3c-.145.073-.29.16-.435.232l-.435.174c-.2.058-.406.131-.624.189a1.14,1.14,0,0,0-.319.073c-.145.029-.29.058-.435.073s-.29.029-.435.058a1.481,1.481,0,0,0-.435.044,4.085,4.085,0,0,0-.6.029H76.1a2.575,2.575,0,0,0-.464-.029l-.537-.044a3.558,3.558,0,0,0-.392-.029l-.363-.044c-.189-.029-.392-.044-.581-.073-.16-.029-.319-.044-.464-.073s-.261-.044-.392-.073l-.435-.087c-.145-.029-.29-.073-.435-.1-.261-.087-.261-.087-.261.189v9.565c0,.29,0,.29.3.276h6.909a2.505,2.505,0,0,0,.653-.073,1.659,1.659,0,0,0,.464-.1,1.539,1.539,0,0,0,.435-.145A1.5,1.5,0,0,0,81,33.251a1.959,1.959,0,0,0,.479-.276,1.905,1.905,0,0,0,.464-.363,3.221,3.221,0,0,0,.537-.552,3.28,3.28,0,0,0,.508-.755c.029-.029.044-.073.073-.1a4.963,4.963,0,0,0,.537-2.322V5.253A.109.109,0,0,0,83.614,5.181Z" transform="translate(-69.201 -2.67)"/><path class="c" d="M92.747,5.1c-.131-.116-.392-.044-.581-.029H85.925A2.255,2.255,0,0,0,85.3,5.1a.642.642,0,0,0-.29.029,1.237,1.237,0,0,0-.508.116h0a.9.9,0,0,0-.348.116,1.8,1.8,0,0,0-.537.2,1.95,1.95,0,0,0-.45.247,1.136,1.136,0,0,0-.319.218,1.458,1.458,0,0,0-.29.232,2.006,2.006,0,0,0-.392.392,2.313,2.313,0,0,0-.406.508,3.844,3.844,0,0,0-.435.8,4.172,4.172,0,0,0-.392,1.727c-.015,2.119,0,4.224,0,6.343,0,.029-.015.058.029.087.145-.1.29-.218.435-.334.145-.087.29-.174.435-.247.116-.058.247-.116.363-.174l.435-.174c.087-.029.174-.058.247-.087.116-.029.247-.073.363-.1.145-.029.29-.073.435-.1a3.373,3.373,0,0,1,.406-.073c.145-.029.29-.044.435-.073.174-.029.334-.044.508-.073a13.22,13.22,0,0,1,.871-.073c.16,0,.319,0,.465-.015h.827c.2.015.406.015.61.029a1.576,1.576,0,0,1,.261.015c.2.015.406.044.61.058l.334.044c.16.029.319.044.464.073s.29.044.435.073.261.044.406.073c.174.044.363.073.537.116s.319.073.464.1c.116.015.1.1.1.189v1.843c-.174,0-.3-.145-.464-.174a.907.907,0,0,0-.319-.145c-.145-.1-.319-.1-.464-.189a.824.824,0,0,0-.319-.1,2.228,2.228,0,0,0-.508-.145,1.579,1.579,0,0,0-.435-.1,1.519,1.519,0,0,0-.435-.073.959.959,0,0,0-.348-.044h0a1.282,1.282,0,0,0-.406-.029c-.015-.015-.015-.015-.029,0a2.281,2.281,0,0,0-.769,0,1.482,1.482,0,0,0-.435.044,2.55,2.55,0,0,0-.479.1.9.9,0,0,0-.348.116,1.114,1.114,0,0,0-.406.174,1.376,1.376,0,0,0-.392.247,1.619,1.619,0,0,0-.435.392,1.873,1.873,0,0,0-.363.523c-.015.029-.029.044-.044.073a3.8,3.8,0,0,0-.334,2.032,3.1,3.1,0,0,0,.377,1.292,1.873,1.873,0,0,0,.363.523,1.668,1.668,0,0,0,.435.406,1.376,1.376,0,0,0,.392.247,1.018,1.018,0,0,0,.406.174,1.062,1.062,0,0,0,.363.116,1.01,1.01,0,0,0,.363.073,1.405,1.405,0,0,0,.552.058,1.459,1.459,0,0,0,.435,0,2.73,2.73,0,0,0,.6-.029.4.4,0,0,0,.131-.015,1.6,1.6,0,0,0,.45-.058h0a1.245,1.245,0,0,0,.392-.073,1.921,1.921,0,0,0,.479-.116,1.34,1.34,0,0,0,.392-.116,1.9,1.9,0,0,0,.406-.131,1.848,1.848,0,0,0,.392-.16A2.447,2.447,0,0,0,91,21.922a4.429,4.429,0,0,1,.464-.189v1.858c0,.087,0,.16-.1.189-.174.044-.334.073-.508.116-.131.015-.261.044-.406.073s-.261.044-.392.073-.261.044-.392.073c-.174.029-.334.044-.508.073s-.334.044-.508.073l-.464.044c-.145,0-.29.015-.435.029a7.073,7.073,0,0,0-.784.029c-.261,0-.537-.015-.8-.015H85.91c-.174-.015-.363-.029-.537-.029a3.056,3.056,0,0,0-.363-.029l-.435-.044c-.189-.029-.363-.058-.552-.1-.116-.029-.247-.044-.363-.073-.16-.044-.319-.073-.464-.116a2.553,2.553,0,0,0-.435-.145l-.435-.174c-.131-.058-.261-.131-.392-.189-.145-.087-.29-.16-.435-.247-.16-.116-.319-.232-.508-.377v10.9c0,.058-.015.116.015.16h0c.044.029.087.015.131.015H86.81c.058,0,.1-.015.16-.015a7.06,7.06,0,0,0,.784,0,1.241,1.241,0,0,0,.464-.015,1.116,1.116,0,0,0,.435-.044,1.766,1.766,0,0,0,.552-.1,1.729,1.729,0,0,0,.464-.145,1.651,1.651,0,0,0,.435-.189,1.293,1.293,0,0,0,.392-.218,1.429,1.429,0,0,0,.435-.29,2.266,2.266,0,0,0,.523-.464,2.077,2.077,0,0,0,.406-.464,3.127,3.127,0,0,0,.421-.653c.029-.058.058-.1.087-.16a4.857,4.857,0,0,0,.464-2.177V5.652C92.776,5.463,92.863,5.2,92.747,5.1ZM81.353,33.853h0Z" transform="translate(-65.068 -2.676)"/><path class="d" d="M101.787,5.052H95.255a3.384,3.384,0,0,0-.769.029.283.283,0,0,0-.1.015,1.951,1.951,0,0,0-.581.1,1.317,1.317,0,0,0-.479.145,1.119,1.119,0,0,0-.363.145,2.5,2.5,0,0,0-.552.29,2.941,2.941,0,0,0-.639.479,2.5,2.5,0,0,0-.624.61,3,3,0,0,0-.479.726c-.015.029-.029.044-.044.073a4.907,4.907,0,0,0-.537,2.264v4.8c0,.073.029.1.1.1.174,0,.363,0,.537-.015h6.357a2.216,2.216,0,0,0,.435.044c.16.029.319.044.464.073s.29.073.435.116c.116.044.218.087.334.131.16.1.319.189.464.29a2.579,2.579,0,0,1,.464.508,2.689,2.689,0,0,1,.189.421,2.215,2.215,0,0,1-.116,1.669,2.808,2.808,0,0,1-.406.523,5.216,5.216,0,0,1-.581.406,5.806,5.806,0,0,1-.972.3,7.835,7.835,0,0,1,1.045.232c.16.073.319.131.479.2.145.1.29.189.435.29a3.411,3.411,0,0,1,.435.479,2.13,2.13,0,0,1,0,2.351,3.486,3.486,0,0,1-.552.581c-.16.1-.334.2-.494.29-.116.044-.247.1-.363.145-.189.044-.377.087-.552.145a1.432,1.432,0,0,0-.348.044H90.161c-.044,0-.087-.015-.116.029h0c0,.058-.014.116-.014.174v9.362c0,.058.014.116.014.174h0c.044.058.116.029.16.029H97a1.193,1.193,0,0,0,.392-.029,2.4,2.4,0,0,0,.464-.044,1.66,1.66,0,0,0,.464-.1,1.538,1.538,0,0,0,.435-.145,1.98,1.98,0,0,0,.479-.2,1.514,1.514,0,0,0,.464-.276,2.953,2.953,0,0,0,.581-.45,2.266,2.266,0,0,0,.479-.508,2.675,2.675,0,0,0,.435-.624,3.445,3.445,0,0,0,.435-.972,4.513,4.513,0,0,0,.247-1.582V5.183C101.932,5.1,101.888,5.038,101.787,5.052ZM90.712,33.82h0Zm6.72-9.7v-.015a1.1,1.1,0,0,0-.435,0h.493C97.476,24.124,97.461,24.124,97.432,24.124ZM95.705,16.5a1.139,1.139,0,0,1,0,1.872,1.046,1.046,0,0,1-.508.2.729.729,0,0,1-.3.029H92.614c-.131,0-.174-.015-.174-.16.015-.668,0-1.335,0-2,0-.044-.029-.116.029-.145a6.546,6.546,0,0,1,.755,0,2.969,2.969,0,0,1,.508,0,2.481,2.481,0,0,1,.464,0,2.969,2.969,0,0,1,.508,0,1.289,1.289,0,0,1,.406.015A.817.817,0,0,1,95.705,16.5Zm-3.237,6.038h2.743a1.14,1.14,0,0,0,.653-.145,1.188,1.188,0,0,0,.653-1.1,1.162,1.162,0,0,0-.639-1.1.825.825,0,0,0-.479-.16H94.108c-.493,0-1,0-1.495-.015-.131,0-.174.029-.174.174v2.221C92.439,22.455,92.41,22.513,92.468,22.542Zm2.25-2.482a3.026,3.026,0,0,0-.363,0h.363Zm-.871,0h0a1.249,1.249,0,0,0-.464,0h.464Z" transform="translate(-60.958 -2.672)"/></svg>