<svg xmlns="http://www.w3.org/2000/svg" width="43.543" height="33.838" viewBox="0 0 43.543 33.838"><defs><style>.a{fill:#eb001b;}.b{fill:#f79e1b;}.c{fill:#ff5f00;}.d{fill:#231f20;}</style></defs><path class="a" d="M56.783,27.336c-.014-.044-.058-.073-.087-.1a13.311,13.311,0,0,1-3.482-4.208,13.617,13.617,0,0,1-.943-2.293,13.315,13.315,0,0,1-.58-3.366,14.773,14.773,0,0,1,.073-2.119,13.324,13.324,0,0,1,.595-2.713,13.582,13.582,0,0,1,1.074-2.394,14.139,14.139,0,0,1,1.843-2.51,13.893,13.893,0,0,1,1.349-1.262c.058-.044.116-.073.131-.145V6.194a1.838,1.838,0,0,0-.363-.3,13.126,13.126,0,0,0-2.51-1.451A13.367,13.367,0,0,0,50.791,3.5a7.186,7.186,0,0,0-.958-.116c-.174-.015-.334,0-.508-.029H47.584v.015a7.623,7.623,0,0,0-1.146.087A13.422,13.422,0,0,0,41.925,4.99,13.123,13.123,0,0,0,39.24,6.949a13.735,13.735,0,0,0-1.669,1.886,13.288,13.288,0,0,0-1.785,3.352A12.819,12.819,0,0,0,35,16.163a15.792,15.792,0,0,0,.058,2.191,14.445,14.445,0,0,0,.609,2.742,11.964,11.964,0,0,0,.958,2.162,13.478,13.478,0,0,0,3.221,3.9,13.684,13.684,0,0,0,3.8,2.22,13.544,13.544,0,0,0,4.8.885c.3,0,.609-.015.929-.044a12.129,12.129,0,0,0,1.437-.174,13.273,13.273,0,0,0,5.862-2.583.2.2,0,0,0,.1-.116Z" transform="translate(-34.992 -3.335)"/><path class="b" d="M71.693,15.064a13.371,13.371,0,0,0-2.336-6.036,16.366,16.366,0,0,0-1.262-1.553,14.2,14.2,0,0,0-1.93-1.683,13.4,13.4,0,0,0-2.206-1.277,12.68,12.68,0,0,0-2.83-.929,9.344,9.344,0,0,0-1.915-.232V3.34H57.429v.015c-.3.015-.609.015-.914.058a13.389,13.389,0,0,0-2.481.58A12.765,12.765,0,0,0,51.8,4.98a13.455,13.455,0,0,0-1.683,1.1c-.058.029-.1.058-.116.116v.015a.2.2,0,0,0,.1.116A12.51,12.51,0,0,1,51.77,7.94a13.214,13.214,0,0,1,3.105,6.428,11.718,11.718,0,0,1,.2,1.872,14.645,14.645,0,0,1-.029,1.6,12.614,12.614,0,0,1-.334,2.075,13.8,13.8,0,0,1-1.277,3.323,13.761,13.761,0,0,1-3.337,3.99.2.2,0,0,0-.1.116v.015c.015.073.073.1.116.131a13.524,13.524,0,0,0,8.1,2.771c.435,0,.871-.015,1.306-.058a12.09,12.09,0,0,0,1.6-.232,13.573,13.573,0,0,0,8.068-5.209,13.376,13.376,0,0,0,2.206-4.687,11.076,11.076,0,0,0,.377-2.757A19.312,19.312,0,0,0,71.693,15.064Z" transform="translate(-28.224 -3.34)"/><path class="c" d="M51.6,5.32a7.665,7.665,0,0,1,.638.522A9.437,9.437,0,0,1,53,6.6,14.519,14.519,0,0,1,54.279,8.15a12.714,12.714,0,0,1,1.146,1.973,13.545,13.545,0,0,1,.987,2.917,12.2,12.2,0,0,1,.247,1.625,12.426,12.426,0,0,1,.044,1.8,13.389,13.389,0,0,1-.45,2.946,13.906,13.906,0,0,1-.726,2.017,13.66,13.66,0,0,1-1.161,2.06c-.29.435-.624.842-.958,1.248a12.631,12.631,0,0,1-.972,1,8.087,8.087,0,0,1-.856.726,13.351,13.351,0,0,1-2.046-2,13.924,13.924,0,0,1-1.843-2.917,12.688,12.688,0,0,1-.987-3.076,13.091,13.091,0,0,1-.218-1.828c-.029-.45-.029-.885-.014-1.335a13.452,13.452,0,0,1,.667-3.642A13.676,13.676,0,0,1,49.23,7.729,13.859,13.859,0,0,1,50.753,6.06,9.913,9.913,0,0,1,51.6,5.32Z" transform="translate(-29.819 -2.447)"/><g transform="translate(41.975 21.239)"><path class="b" d="M64.77,18.17c-.029.073-.073.16-.1.232-.015.029-.029.058-.073.058s-.058-.014-.072-.058c-.029-.073-.073-.145-.116-.232v.261c0,.029,0,.073-.044.073s-.044-.044-.044-.073v-.363c0-.029-.014-.073.044-.087s.087-.015.116.044c.044.087.087.189.131.29a2.194,2.194,0,0,0,.131-.261c.029-.058.058-.087.116-.073s.044.073.044.116v.319c0,.029.029.087-.044.087s-.044-.058-.044-.1V18.17Z" transform="translate(-63.74 -17.977)"/><path class="b" d="M64.152,17.98h.16c.029,0,.058,0,.058.044s-.029.058-.058.044c-.116-.015-.116.044-.116.131v.232c0,.044-.014.058-.058.058s-.044-.029-.044-.058v-.276c0-.058-.015-.087-.087-.087-.029,0-.087.015-.087-.044s.058-.044.087-.044Z" transform="translate(-63.92 -17.977)"/></g><g transform="translate(2.231 28.629)"><path class="d" d="M37.328,24.522a1.366,1.366,0,0,1,2.22.1c.029-.015.044-.044.073-.073a1.424,1.424,0,0,1,1.364-.537A1.274,1.274,0,0,1,42.2,25.364c.015.74,0,1.48,0,2.22,0,.058-.015.073-.073.073h-.624c-.073,0-.1-.029-.087-.1V25.712a1.622,1.622,0,0,0-.073-.522.653.653,0,0,0-.624-.464.817.817,0,0,0-.958.856c-.015.653-.015,1.291,0,1.944,0,.087-.015.131-.116.116-.189-.015-.377,0-.58,0-.073,0-.1-.015-.1-.1V25.7a1.624,1.624,0,0,0-.073-.522.653.653,0,0,0-.624-.464.817.817,0,0,0-.958.856c-.014.653-.014,1.291,0,1.944,0,.087-.014.116-.116.116H36.6c-.058,0-.073-.015-.073-.087v-3.41c0-.073.029-.087.087-.087h.595c.058,0,.087.015.087.087C37.314,24.29,37.328,24.392,37.328,24.522Z" transform="translate(-36.53 -22.65)"/><path class="d" d="M45.511,27.744a2.7,2.7,0,0,1-1.451-.392c-.073-.044-.087-.087-.029-.16.087-.145.174-.276.261-.421.044-.073.058-.073.131-.029A1.955,1.955,0,0,0,45.975,27a.5.5,0,0,0,.232-.116.292.292,0,0,0-.058-.522,1.946,1.946,0,0,0-.638-.145,2.821,2.821,0,0,1-.711-.16.949.949,0,0,1-.682-.9,1.034,1.034,0,0,1,.653-1,2.215,2.215,0,0,1,.972-.16,2.694,2.694,0,0,1,1.2.3c.087.044.1.087.058.174-.087.145-.16.29-.232.435-.029.073-.058.087-.131.044a2.18,2.18,0,0,0-1.277-.247.625.625,0,0,0-.319.131.3.3,0,0,0,.087.522,2.485,2.485,0,0,0,.653.131,3,3,0,0,1,.711.174.97.97,0,0,1,.638.769,1.014,1.014,0,0,1-.45,1.016,1.728,1.728,0,0,1-.958.29A1.092,1.092,0,0,1,45.511,27.744Z" transform="translate(-33.163 -22.651)"/><path class="d" d="M47.256,26.067V25.2c0-.073-.015-.087-.087-.087h-.551c-.058,0-.087-.015-.087-.087v-.551c0-.073.029-.073.087-.073h.551c.073,0,.087-.015.087-.087v-.9c0-.073.029-.1.1-.1h.58c.073,0,.1.014.1.1v.9c0,.073.014.087.087.087H49.2c.1,0,.116.029.116.116v.508c0,.073-.015.087-.087.087H48.141c-.073,0-.087.015-.087.087v1.567a.737.737,0,0,0,.044.247.4.4,0,0,0,.377.3,1.224,1.224,0,0,0,.711-.16c.058-.029.073-.029.1.044.058.174.1.334.174.508a.1.1,0,0,1-.058.145,1.851,1.851,0,0,1-1.146.2,1.036,1.036,0,0,1-.972-1.146,8.294,8.294,0,0,1-.029-.842Z" transform="translate(-32.02 -22.962)"/><path class="d" d="M55.469,27.755a1.8,1.8,0,0,1-1.683-.914,1.949,1.949,0,0,1,.479-2.467,2.125,2.125,0,0,1,1.437-.363,1.814,1.814,0,0,1,.972.363c.058.044.058.058.029.116-.1.16-.189.319-.276.479-.029.073-.058.073-.131.029a1.6,1.6,0,0,0-.8-.276,1.067,1.067,0,0,0-1.132,1.03A1.1,1.1,0,0,0,54.9,26.87a1.275,1.275,0,0,0,1.146,0,1.512,1.512,0,0,0,.261-.145c.044-.029.058-.029.087.015l.3.522c.044.058,0,.073-.029.1A1.8,1.8,0,0,1,55.469,27.755Z" transform="translate(-28.857 -22.648)"/><path class="d" d="M60.035,24.521a1.1,1.1,0,0,1,.638-.479,1.647,1.647,0,0,1,.8.029c.058.015.058.044.044.087-.073.2-.131.392-.189.595-.015.058-.044.058-.087.044a1.829,1.829,0,0,0-.406-.073.7.7,0,0,0-.755.653,2.25,2.25,0,0,0-.014.319v1.843c0,.073-.015.1-.1.1-.2-.015-.392,0-.595,0-.058,0-.087-.015-.087-.087v-3.41c0-.073.015-.087.087-.087h.609c.058,0,.087.015.087.073A1.781,1.781,0,0,0,60.035,24.521Z" transform="translate(-26.269 -22.649)"/><path class="d" d="M52.6,24.489h.029a1.184,1.184,0,0,1,1.378-.421c.073.015.087.044.058.116-.073.189-.131.377-.189.58-.014.058-.029.073-.087.044a1.348,1.348,0,0,0-.421-.073.693.693,0,0,0-.74.624,2.586,2.586,0,0,0-.029.334v1.843c0,.087-.029.1-.1.1h-.58c-.087,0-.1-.029-.1-.1V24.17c0-.073.015-.1.087-.1H52.5c.073,0,.087.015.087.087A2.683,2.683,0,0,1,52.6,24.489Z" transform="translate(-29.634 -22.647)"/><path class="d" d="M64.677,25.841v-2.67c0-.073-.015-.1-.1-.1H64c-.087,0-.087.029-.087.1v1.654a.134.134,0,0,1-.015.1,1.337,1.337,0,0,0-.653-.435,1.668,1.668,0,0,0-1.611.348,1.892,1.892,0,0,0-.566,2A1.735,1.735,0,0,0,63.2,28.12a1.419,1.419,0,0,0,.711-.464v.363c0,.058.014.073.073.073h.595c.087,0,.116-.015.116-.1C64.677,27.263,64.677,26.552,64.677,25.841Zm-1.291,1.48a1.138,1.138,0,1,1-.784-2.133,1.158,1.158,0,0,1,.784,2.133Z" transform="translate(-25.499 -23.07)"/><path class="d" d="M44.612,24.2c0-.087-.029-.116-.1-.1-.189,0-.377.015-.566,0-.087,0-.116.029-.116.116a2.333,2.333,0,0,1,0,.319,1.406,1.406,0,0,0-.493-.392,1.735,1.735,0,0,0-1.857.348,1.932,1.932,0,0,0-.508,1.9,1.747,1.747,0,0,0,2.06,1.335,1.325,1.325,0,0,0,.784-.479v.334c0,.073.014.087.087.087h.609c.073,0,.087-.015.087-.087v-.551C44.612,26.085,44.612,25.142,44.612,24.2ZM43,27a1.148,1.148,0,0,1-.711-2.133,1.075,1.075,0,0,1,1.582,1.03A1.053,1.053,0,0,1,43,27Z" transform="translate(-34.556 -22.647)"/><path class="d" d="M59.633,24.092h-.624c-.058,0-.073.015-.073.073V24.5a2.226,2.226,0,0,1-.189-.174,1.528,1.528,0,0,0-1.524-.232,1.924,1.924,0,0,0-.334,3.4,1.587,1.587,0,0,0,2.017-.232h.029v.319c0,.058.015.073.073.073h.624c.058,0,.073-.029.073-.087V24.15C59.706,24.121,59.706,24.092,59.633,24.092Zm-1.727,2.931a1.092,1.092,0,0,1-1.088-1.146,1.083,1.083,0,1,1,1.088,1.146Z" transform="translate(-27.74 -22.655)"/><path class="d" d="M52.332,25.493a1.653,1.653,0,0,0-1.466-1.48,1.7,1.7,0,0,0-1.582.624,1.965,1.965,0,0,0-.392,1.437,1.764,1.764,0,0,0,.638,1.277,2.2,2.2,0,0,0,2.612-.073c.044-.044.029-.058,0-.1-.1-.145-.2-.3-.3-.45-.029-.058-.058-.058-.1-.014a1.655,1.655,0,0,1-.813.319,1.018,1.018,0,0,1-1.233-.856h2.554c.087,0,.1-.015.1-.1A2.589,2.589,0,0,0,52.332,25.493Zm-.856.073H49.793c-.073,0-.087-.015-.073-.087a.95.95,0,0,1,1.262-.74.975.975,0,0,1,.58.755C51.548,25.58,51.5,25.566,51.476,25.566Z" transform="translate(-30.958 -22.649)"/></g><g transform="translate(42.338 33.127)"><path class="d" d="M64.533,26.17a.356.356,0,0,0-.363.348.379.379,0,0,0,.363.363.356.356,0,1,0,0-.711Zm.014.624a.267.267,0,0,1-.276-.276.276.276,0,0,1,.551,0A.285.285,0,0,1,64.547,26.794Z" transform="translate(-64.17 -26.17)"/><g transform="translate(0.232 0.203)"><path class="d" d="M64.33,26.615v-.3h.131a.109.109,0,0,1,.073.015c.015,0,.029.015.044.029a.053.053,0,0,1,.015.044c0,.029,0,.044-.015.058a.075.075,0,0,1-.058.029c.015.015.029.015.029.029s.014.029.029.058l.044.058h-.073l-.044-.073a.179.179,0,0,0-.029-.044l-.014-.015h-.044v.131H64.33Zm.058-.174h.1a.014.014,0,0,0,.015-.015V26.4c0-.015,0-.015-.015-.029a.051.051,0,0,0-.029-.015h-.087v.087Z" transform="translate(-64.33 -26.31)"/></g></g></svg>