<svg xmlns="http://www.w3.org/2000/svg" xmlns:xlink="http://www.w3.org/1999/xlink" width="381.997" height="218" viewBox="0 0 381.997 218"><defs><style>.a{fill:#fff;}.b,.e{fill:#eee;}.b,.c{stroke:#fff;stroke-linejoin:round;}.b,.c,.g{stroke-linecap:round;stroke-width:3px;}.c,.f{fill:#ccc;}.d{fill:#ddd;}.g{fill:none;stroke:#eee;}.h{filter:url(#c);}.i{filter:url(#a);}</style><filter id="a" x="169.43" y="0" width="212.567" height="208.022" filterUnits="userSpaceOnUse"><feOffset dx="3" dy="3" input="SourceAlpha"/><feGaussianBlur stdDeviation="3" result="b"/><feFlood flood-opacity="0.2"/><feComposite operator="in" in2="b"/><feComposite in="SourceGraphic"/></filter><filter id="c" x="0" y="8.87" width="212.665" height="209.13" filterUnits="userSpaceOnUse"><feOffset dx="3" dy="3" input="SourceAlpha"/><feGaussianBlur stdDeviation="3" result="d"/><feFlood flood-opacity="0.2"/><feComposite operator="in" in2="d"/><feComposite in="SourceGraphic"/></filter></defs><g transform="translate(-636 -185)"><g transform="matrix(0.996, 0.087, -0.087, 0.996, 45.415, 33.748)"><g class="i" transform="matrix(1, -0.09, 0.09, 1, 601.52, 99.2)"><rect class="a" width="180" height="175" rx="5" transform="matrix(1, 0.09, -0.09, 1, 190.68, 6)"/></g><g transform="translate(811.708 117.155)"><path class="b" d="M67.691,0h-.118A68.071,68.071,0,0,0,53.954,1.373,67.2,67.2,0,0,0,29.792,11.54,67.769,67.769,0,0,0,5.31,41.27,67.232,67.232,0,0,0,1.373,53.954a68.231,68.231,0,0,0,0,27.236A67.2,67.2,0,0,0,11.54,105.352a67.771,67.771,0,0,0,29.73,24.482,67.233,67.233,0,0,0,12.684,3.937,68.072,68.072,0,0,0,13.618,1.373h.118a68.073,68.073,0,0,0,13.618-1.373A67.2,67.2,0,0,0,105.471,123.6a67.768,67.768,0,0,0,24.482-29.73,67.23,67.23,0,0,0,3.937-12.684,68.231,68.231,0,0,0,0-27.236,67.2,67.2,0,0,0-10.167-24.162A67.769,67.769,0,0,0,93.993,5.31,67.233,67.233,0,0,0,81.309,1.373,68.074,68.074,0,0,0,67.691,0Zm-.119,67.572h0l44.04-51.25a67.541,67.541,0,0,1,23.532,51.25H67.691l-.118.138v-.137Z"/><path class="c" d="M0,51.251,44.04,0A67.42,67.42,0,0,1,67.572,51.251Z" transform="translate(73.767 13.506)"/></g><rect class="d" width="82" height="8" rx="4" transform="translate(803 97.561)"/></g><g transform="matrix(0.966, -0.259, 0.259, 0.966, -146.048, 360.298)"><g class="h" transform="matrix(0.97, 0.26, -0.26, 0.97, 800.77, 33.08)"><rect class="a" width="160" height="155" rx="5" transform="matrix(0.97, -0.26, 0.26, 0.97, 6, 56.28)"/></g><rect class="d" width="73" height="7" rx="3.5" transform="translate(802 97)"/><path class="e" d="M3,0H14a3,3,0,0,1,3,3V58a0,0,0,0,1,0,0H0a0,0,0,0,1,0,0V3A3,3,0,0,1,3,0Z" transform="translate(815 168)"/><path class="d" d="M3,0H15a3,3,0,0,1,3,3V77a0,0,0,0,1,0,0H0a0,0,0,0,1,0,0V3A3,3,0,0,1,3,0Z" transform="translate(847 149)"/><path class="f" d="M3,0H14a3,3,0,0,1,3,3V98a0,0,0,0,1,0,0H0a0,0,0,0,1,0,0V3A3,3,0,0,1,3,0Z" transform="translate(880 128)"/><path class="e" d="M3,0H15a3,3,0,0,1,3,3V65a0,0,0,0,1,0,0H0a0,0,0,0,1,0,0V3A3,3,0,0,1,3,0Z" transform="translate(912 161)"/><line class="g" x2="125" transform="translate(810 226)"/></g></g></svg>