<svg xmlns="http://www.w3.org/2000/svg" width="47" height="18" viewBox="0 0 47 18"><defs><style>.a,.b{fill:#fff;}.b{stroke:#333;}.c{fill:#fc0;}.d{fill:#333;font-size:10px;font-family:OpenSans-Bold, Open Sans;font-weight:700;}.e{stroke:none;}.f{fill:none;}</style></defs><g transform="translate(-163 -180)"><g transform="translate(-4.45 47.495)"><path class="a" d="M-1426,20.157v-8.5h-7.051a1.5,1.5,0,0,1-1.5-1.5,1.5,1.5,0,0,1,1.5-1.5h13.636l-3.475-3.475a1.5,1.5,0,0,1,0-2.121,1.5,1.5,0,0,1,2.121,0l5.6,5.6h.171v.171l2.011,2.01a1.5,1.5,0,0,1,0,2.121,1.5,1.5,0,0,1-2.011.1v7.1Z" transform="translate(1602 129.883)"/><g class="b" transform="translate(173 140.5)"><rect class="e" width="9" height="4" rx="2"/><rect class="f" x="0.5" y="0.5" width="8" height="3" rx="1.5"/></g><g class="b" transform="translate(173 143.5)"><rect class="e" width="9" height="4" rx="2"/><rect class="f" x="0.5" y="0.5" width="8" height="3" rx="1.5"/></g><g class="b" transform="translate(173 146.5)"><rect class="e" width="9" height="4" rx="2"/><rect class="f" x="0.5" y="0.5" width="8" height="3" rx="1.5"/></g><path class="c" d="M.857,0H4.172A1.461,1.461,0,0,1,5.462,1.586V9.912A1.461,1.461,0,0,1,4.172,11.5H.857Z" transform="translate(185.989 138.543)"/></g><rect class="c" width="18" height="18" rx="2" transform="translate(192 180)"/><text class="d" transform="translate(201 193)"><tspan x="-2.854" y="0">3</tspan></text></g></svg>