<svg xmlns="http://www.w3.org/2000/svg" width="36" height="36" viewBox="0 0 36 36"><defs><style>.a{fill:none;}.b{fill:#a1a1a1;stroke:#a1a1a1;stroke-width:0.5px;}</style></defs><g transform="translate(-1115 -227)"><rect class="a" width="36" height="36" transform="translate(1115 227)"/><g transform="translate(1127.107 239.989)"><path class="b" d="M36.323,31.7V28.512a3.318,3.318,0,0,0-1.739-2.752,4.477,4.477,0,1,0-7.386.027,3.309,3.309,0,0,0-1.7,2.725V31.7h.908V28.512a2.47,2.47,0,0,1,1.38-2.027,4.459,4.459,0,0,0,2.139,1.149L29,32.172,30.913,33.7l1.914-1.531-.947-4.553a4.461,4.461,0,0,0,2.116-1.157,2.481,2.481,0,0,1,1.42,2.049V31.7h.908Zm-5.41.84L30,31.811l.765-3.733h.28l.777,3.734Zm-.033-5.712a3.595,3.595,0,1,1,3.569-3.594A3.585,3.585,0,0,1,30.88,26.829Z" transform="translate(-25.502 -18.731)"/></g><g transform="translate(1136.215 235)"><path class="b" d="M36.323,31.7V28.512a3.318,3.318,0,0,0-1.739-2.752,4.477,4.477,0,1,0-7.386.027,3.309,3.309,0,0,0-1.7,2.725V31.7h.908V28.512a2.47,2.47,0,0,1,1.38-2.027,4.459,4.459,0,0,0,2.139,1.149L29,32.172,30.913,33.7l1.914-1.531-.947-4.553a4.461,4.461,0,0,0,2.116-1.157,2.481,2.481,0,0,1,1.42,2.049V31.7h.908Zm-5.41.84L30,31.811l.765-3.733h.28l.777,3.734Zm-.033-5.712a3.595,3.595,0,1,1,3.569-3.594A3.585,3.585,0,0,1,30.88,26.829Z" transform="translate(-25.502 -18.731)"/></g><g transform="translate(1118 235)"><path class="b" d="M36.323,31.7V28.512a3.318,3.318,0,0,0-1.739-2.752,4.477,4.477,0,1,0-7.386.027,3.309,3.309,0,0,0-1.7,2.725V31.7h.908V28.512a2.47,2.47,0,0,1,1.38-2.027,4.459,4.459,0,0,0,2.139,1.149L29,32.172,30.913,33.7l1.914-1.531-.947-4.553a4.461,4.461,0,0,0,2.116-1.157,2.481,2.481,0,0,1,1.42,2.049V31.7h.908Zm-5.41.84L30,31.811l.765-3.733h.28l.777,3.734Zm-.033-5.712a3.595,3.595,0,1,1,3.569-3.594A3.585,3.585,0,0,1,30.88,26.829Z" transform="translate(-25.502 -18.731)"/></g></g></svg>