<svg xmlns="http://www.w3.org/2000/svg" width="12.786" height="17.227" viewBox="0 0 12.786 17.227"><defs><style>.a{fill:#524456;}</style></defs><g transform="translate(-65.991 -0.001)"><path class="a" d="M98.123,1.764A1.764,1.764,0,0,0,95.112.517l-1.7,1.7-.772-.772a.337.337,0,0,0-.476,0L91.156,2.454a.336.336,0,0,0,0,.476l.771.772L87.06,8.568a.337.337,0,0,0-.081.132l-.311.934-.28.28a1.288,1.288,0,0,0,1.822,1.822l.28-.28.934-.311a.336.336,0,0,0,.132-.081L94.422,6.2l.772.772a.337.337,0,0,0,.476,0l1.009-1.009a.337.337,0,0,0,0-.476l-.772-.772,1.7-1.7a1.752,1.752,0,0,0,.517-1.247Zm-6.2,5.975H88.841L92.4,4.177,93.946,5.72Zm3.5-1.485L91.869,2.692l.534-.534L95.965,5.72Zm1.7-3.718-1.7,1.7L93.888,2.692l1.7-1.7a1.091,1.091,0,0,1,1.543,1.543Z" transform="translate(-19.346 0)"/><path class="a" d="M67.673,371.993a.337.337,0,0,0-.277.145,8.28,8.28,0,0,0-1.406,2.883,1.682,1.682,0,1,0,3.365,0,8.28,8.28,0,0,0-1.406-2.883A.337.337,0,0,0,67.673,371.993Zm0,4.038a1.011,1.011,0,0,1-1.009-1.009,6.544,6.544,0,0,1,1.009-2.083,6.545,6.545,0,0,1,1.009,2.083A1.011,1.011,0,0,1,67.673,376.031Z" transform="translate(0 -359.476)"/></g></svg>