<svg xmlns="http://www.w3.org/2000/svg" width="39" height="27.083" viewBox="0 0 39 27.083"><defs><style>.a,.b{fill:#fff;}.b{font-size:8px;font-family:Poppins-Medium, Poppins;font-weight:500;}</style></defs><path class="a" d="M1.311,3.45A2.141,2.141,0,0,1,3.45,1.311H6.21V0H3.45a3.45,3.45,0,0,0,0,6.9H6.21V5.589H3.45A2.141,2.141,0,0,1,1.311,3.45Zm2.829.69H9.66V2.76H4.14ZM10.35,0H7.59V1.311h2.76a2.139,2.139,0,1,1,0,4.278H7.59V6.9h2.76a3.45,3.45,0,1,0,0-6.9Z" transform="translate(16.879 0) rotate(45)"/><text class="b" transform="translate(0 24.083)"><tspan x="0" y="0">Copy Link</tspan></text></svg>