<svg xmlns="http://www.w3.org/2000/svg" xmlns:xlink="http://www.w3.org/1999/xlink" width="238.345" height="312.997" viewBox="0 0 238.345 312.997"><defs><style>.a{fill:#fff;}.b{fill:url(#c);}.c{fill:url(#d);}.d{fill:url(#e);}.e,.g,.i{fill:#191919;}.e{font-size:20px;font-family:FuturaBT-Medium, Futura Md BT;}.e,.h{font-weight:500;}.f{fill:#524456;}.g,.h{font-size:12px;}.g,.i{font-family:Poppins-Light, Poppins;font-weight:300;}.h{fill:#f99829;font-family:Poppins-Medium, Poppins;}.j{filter:url(#a);}</style><filter id="a" x="7.345" y="9.997" width="231" height="303" filterUnits="userSpaceOnUse"><feOffset dy="2" input="SourceAlpha"/><feGaussianBlur stdDeviation="2" result="b"/><feFlood flood-color="#515151" flood-opacity="0.071"/><feComposite operator="in" in2="b"/><feComposite in="SourceGraphic"/></filter><linearGradient id="c" x1="0.5" y1="2.793" x2="0.853" y2="2.793" gradientUnits="objectBoundingBox"><stop offset="0" stop-color="#a57d24"/><stop offset="0.211" stop-color="#d8bd62"/><stop offset="0.328" stop-color="#f1dd80"/><stop offset="0.524" stop-color="#fbf2a8"/><stop offset="0.73" stop-color="#f1dd80"/><stop offset="1" stop-color="#a57d24"/></linearGradient><linearGradient id="d" x1="-3.278" y1="-1.14" x2="-0.442" y2="-1.14" xlink:href="#c"/><linearGradient id="e" x1="0.109" y1="0.429" x2="0.816" y2="0.429" xlink:href="#c"/></defs><g transform="translate(0 -0.003)"><g class="j" transform="matrix(1, 0, 0, 1, 0, 0)"><rect class="a" width="219" height="291" rx="6" transform="translate(13.35 14)"/></g><g transform="matrix(0.719, -0.695, 0.695, 0.719, 0, 43.487)"><path class="b" d="M0,0,14.494.05l.018,5.11L.018,5.11Z" transform="translate(0 12.21) rotate(-44.777)"/><path class="c" d="M0,0,5.11.018l.05,14.494L.05,14.494Z" transform="translate(48.718 5.789) rotate(-44.777)"/><path class="d" d="M0,12.191l62.6.247V12.43L51.53,1.108A3.2,3.2,0,0,0,49.256.142L13.444,0a3.2,3.2,0,0,0-2.282.949Z"/></g><g transform="translate(37.001 49)"><text class="e" transform="translate(0.345 19)"><tspan x="0" y="0">Gold</tspan></text></g><g transform="translate(37.001 84)"><path class="f" d="M7.275,13.034,4.369,10.088,3.4,11.07,7.275,15l8.3-8.416L14.611,5.6Z" transform="translate(-3.4 -1.299)"/><path class="f" d="M7.275,13.034,4.369,10.088,3.4,11.07,7.275,15l8.3-8.416L14.611,5.6Z" transform="translate(-3.4 25.701)"/><path class="f" d="M7.275,13.034,4.369,10.088,3.4,11.07,7.275,15l8.3-8.416L14.611,5.6Z" transform="translate(-3.4 52.701)"/><path class="f" d="M7.275,13.034,4.369,10.088,3.4,11.07,7.275,15l8.3-8.416L14.611,5.6Z" transform="translate(-3.4 79.701)"/><path class="f" d="M7.275,13.034,4.369,10.088,3.4,11.07,7.275,15l8.3-8.416L14.611,5.6Z" transform="translate(-2.4 106.701)"/><path class="f" d="M7.275,13.034,4.369,10.088,3.4,11.07,7.275,15l8.3-8.416L14.611,5.6Z" transform="translate(-2.4 136.701)"/><text class="g" transform="translate(21.345 13)"><tspan x="0" y="0">Wallet/Portal</tspan></text><text class="g" transform="translate(21.345 67)"><tspan x="0" y="0">Pharmacy</tspan></text><text class="g" transform="translate(21.345 40)"><tspan x="0" y="0">Telemedicine</tspan></text><text class="g" transform="translate(21.345 94)"><tspan x="0" y="0">Dental</tspan></text><text class="h" transform="translate(21.345 121)"><tspan x="0" y="0">2</tspan><tspan class="i" y="0" xml:space="preserve"> Free Telemed Visits</tspan></text><text class="h" transform="translate(21.345 138)"><tspan x="0" y="13">10%</tspan><tspan class="i" y="13" xml:space="preserve"> In-person </tspan><tspan class="i" x="0" y="29">Services Discount </tspan></text></g></g></svg>