<svg xmlns="http://www.w3.org/2000/svg" width="85" height="82" viewBox="0 0 85 82"><defs><style>.a,.c{fill:#fff;}.a{stroke:#ff3737;}.b,.d{fill:#524456;}.b,.c{stroke:#524456;}.b{stroke-width:0.5px;}.e{stroke:none;}.f{fill:none;}</style></defs><g transform="translate(-331 -217)"><g transform="translate(18)"><g transform="translate(-199 -4)"><g transform="translate(512 221)"><g class="a"><circle class="e" cx="41" cy="41" r="41"/><circle class="f" cx="41" cy="41" r="40.5"/></g></g></g><g transform="translate(336 246)"><g transform="translate(10.989 6.594)"><path class="b" d="M38.559,34.381V30.533a4,4,0,0,0-2.1-3.32,5.4,5.4,0,1,0-8.913.033A3.992,3.992,0,0,0,25.5,30.533v3.848h1.1V30.533a2.98,2.98,0,0,1,1.665-2.446,5.381,5.381,0,0,0,2.581,1.386L29.721,34.95,32.031,36.8,34.34,34.95,33.2,29.457a5.383,5.383,0,0,0,2.553-1.4,2.994,2.994,0,0,1,1.713,2.473v3.848h1.1Zm-6.528,1.013-1.1-.88.924-4.5h.338l.938,4.506Zm-.04-6.892A4.337,4.337,0,1,1,36.3,24.165,4.326,4.326,0,0,1,31.991,28.5Z" transform="translate(-25.502 -18.731)"/></g><g transform="translate(21.979)"><path class="b" d="M38.559,34.381V30.533a4,4,0,0,0-2.1-3.32,5.4,5.4,0,1,0-8.913.033A3.992,3.992,0,0,0,25.5,30.533v3.848h1.1V30.533a2.98,2.98,0,0,1,1.665-2.446,5.381,5.381,0,0,0,2.581,1.386L29.721,34.95,32.031,36.8,34.34,34.95,33.2,29.457a5.383,5.383,0,0,0,2.553-1.4,2.994,2.994,0,0,1,1.713,2.473v3.848h1.1Zm-6.528,1.013-1.1-.88.924-4.5h.338l.938,4.506Zm-.04-6.892A4.337,4.337,0,1,1,36.3,24.165,4.326,4.326,0,0,1,31.991,28.5Z" transform="translate(-25.502 -18.731)"/></g><path class="b" d="M38.559,34.381V30.533a4,4,0,0,0-2.1-3.32,5.4,5.4,0,1,0-8.913.033A3.992,3.992,0,0,0,25.5,30.533v3.848h1.1V30.533a2.98,2.98,0,0,1,1.665-2.446,5.381,5.381,0,0,0,2.581,1.386L29.721,34.95,32.031,36.8,34.34,34.95,33.2,29.457a5.383,5.383,0,0,0,2.553-1.4,2.994,2.994,0,0,1,1.713,2.473v3.848h1.1Zm-6.528,1.013-1.1-.88.924-4.5h.338l.938,4.506Zm-.04-6.892A4.337,4.337,0,1,1,36.3,24.165,4.326,4.326,0,0,1,31.991,28.5Z" transform="translate(-25.502 -18.731)"/></g></g><g class="c" transform="translate(396 227)"><circle class="e" cx="10" cy="10" r="10"/><circle class="f" cx="10" cy="10" r="9.5"/></g><g transform="translate(399.326 231)"><path class="d" d="M98.123,1.764A1.764,1.764,0,0,0,95.112.517l-1.7,1.7-.772-.772a.337.337,0,0,0-.476,0L91.156,2.454a.336.336,0,0,0,0,.476l.771.772L87.06,8.568a.337.337,0,0,0-.081.132l-.311.934-.28.28a1.288,1.288,0,1,0,1.822,1.822l.28-.28.934-.311a.336.336,0,0,0,.132-.081L94.422,6.2l.772.772a.337.337,0,0,0,.476,0l1.009-1.009a.337.337,0,0,0,0-.476l-.772-.772,1.7-1.7a1.752,1.752,0,0,0,.517-1.247Zm-6.2,5.975H88.841L92.4,4.177,93.946,5.72Zm3.5-1.485L91.869,2.692l.534-.534L95.965,5.72Zm1.7-3.718-1.7,1.7L93.888,2.692l1.7-1.7a1.091,1.091,0,0,1,1.543,1.543Z" transform="translate(-85.337 -0.001)"/></g></g></svg>