<svg xmlns="http://www.w3.org/2000/svg" viewBox="0 0 25 25"><defs><style>.cls-1{fill:#fff;}</style></defs><title>appointment icon</title><g id="Layer_2" data-name="Layer 2"><g id="laptop"><g id="panel"><path class="cls-1" d="M12.5,0A12.5,12.5,0,1,0,25,12.5,12.5,12.5,0,0,0,12.5,0Zm0,23.86A11.36,11.36,0,1,1,23.86,12.5,11.38,11.38,0,0,1,12.5,23.86Z"/><rect class="cls-1" x="11.98" y="13.02" width="1.05" height="1.05"/><rect class="cls-1" x="11.98" y="15.11" width="1.05" height="1.05"/><rect class="cls-1" x="14.07" y="15.11" width="1.05" height="1.05"/><rect class="cls-1" x="9.89" y="13.02" width="1.05" height="1.05"/><path class="cls-1" d="M17.2,8.32h-1V6.75a.52.52,0,1,0-1,0V9.89a1,1,0,0,1-1-1V8.32H10.41V6.75a.52.52,0,1,0-1,0V9.89a1,1,0,0,1-1-1V8.32H7.8a1,1,0,0,0-1,1v8.36a1,1,0,0,0,1,1H17.2a1,1,0,0,0,1-1V9.36a1,1,0,0,0-1-1Zm0,9.41H7.8V11.45H17.2Zm0,0"/></g></g></g></svg>