<svg xmlns="http://www.w3.org/2000/svg" viewBox="0 0 15.81 20"><defs><style>.cls-1{fill:#f60;}</style></defs><title>delete</title><g id="Layer_2" data-name="Layer 2"><g id="laptop"><g id="center"><g id="_1" data-name="1"><path class="cls-1" d="M14.44,2.35H11.77V.62A.62.62,0,0,0,11.14,0a.09.09,0,0,0-.07,0l0,0H4.66A.61.61,0,0,0,4,.62V2.35H1.36A1.35,1.35,0,0,0,0,3.72V5.95H1.18v12.7A1.33,1.33,0,0,0,2.54,20H13.27a1.34,1.34,0,0,0,1.36-1.35V5.95h1.17V3.72a1.35,1.35,0,0,0-1.36-1.36ZM5.28,1.24h5.24V2.35H5.28Zm8.1,17.41c0,.08,0,.11-.11.11H2.54c-.08,0-.11,0-.11-.11V5.95h11ZM14.56,4.71H1.25v-1c0-.08,0-.12.11-.12H14.44c.08,0,.11,0,.11.12Zm0,0"/><rect class="cls-1" x="10.17" y="7.4" width="1.25" height="10.25"/><rect class="cls-1" x="7.29" y="7.4" width="1.25" height="10.25"/><rect class="cls-1" x="4.41" y="7.4" width="1.25" height="10.25"/></g></g></g></g></svg>