<svg xmlns="http://www.w3.org/2000/svg" viewBox="0 0 21.41901 20"><defs><style>.cls-1{fill:#f60;}.cls-2{fill:#fff;}</style></defs><title>dependants selected</title><g id="Layer_2" data-name="Layer 2"><g id="laptop"><g id="center"><path class="cls-1" d="M17.82442,6.47538a4.59636,4.59636,0,0,0,1.15462-2.931,3.54282,3.54282,0,1,0-7.08563,0,4.59968,4.59968,0,0,0,1.15462,2.931c-2.18269.90937-3.59249,2.86824-3.59249,4.37584a.53684.53684,0,0,0,.09308.30225,7.1246,7.1246,0,0,0,5.94147,2.68q.12707,0,.25414-.00314a6.66527,6.66527,0,0,0,5.59634-2.70091.53433.53433,0,0,0,.07844-.27872C21.418,9.3431,20.00711,7.38422,17.82442,6.47538Zm-2.10843,6.284a6.27825,6.27825,0,0,1-5.18114-2.06921c.12341-1.26443,1.65976-2.966,3.68767-3.48059a.53626.53626,0,0,0,.16734-.96375,3.47613,3.47613,0,0,1-1.42549-2.70143,2.47187,2.47187,0,1,1,4.94373,0,3.47474,3.47474,0,0,1-1.42654,2.70143.53576.53576,0,0,0,.16629.96375c2.03732.5156,3.5789,2.22871,3.6929,3.49523A5.727,5.727,0,0,1,15.716,12.75937Z"/><path class="cls-1" d="M8.36889,6.47538a4.59636,4.59636,0,0,0,1.15462-2.931,3.54282,3.54282,0,1,0-7.08563,0,4.59968,4.59968,0,0,0,1.15462,2.931C1.40981,7.38475,0,9.34362,0,10.85122a.53684.53684,0,0,0,.09308.30225,7.1246,7.1246,0,0,0,5.94147,2.68c.08471,0,.17047-.001.25519-.00314a6.66527,6.66527,0,0,0,5.59634-2.70091.53433.53433,0,0,0,.07844-.27872C11.96243,9.34258,10.55158,7.38422,8.36889,6.47538Zm-2.10739,6.284a6.22911,6.22911,0,0,1-5.18219-2.06921c.12341-1.26443,1.65976-2.966,3.68767-3.48059a.53626.53626,0,0,0,.16734-.96375A3.47613,3.47613,0,0,1,3.50883,3.54439a2.47187,2.47187,0,1,1,4.94373,0A3.47474,3.47474,0,0,1,7.026,6.24582a.53576.53576,0,0,0,.16629.96375c2.03627.5156,3.5789,2.22871,3.69394,3.49523A5.727,5.727,0,0,1,6.2615,12.75937Z"/><path class="cls-2" d="M12.49855,10.4681a5.34265,5.34265,0,0,0,2.21889-4.19458,4.00927,4.00927,0,1,0-8.01854,0A5.34871,5.34871,0,0,0,8.91417,10.4681c-3.137.79575-5.4656,3.52577-5.4656,5.547,3.03327,4.43526,11.92709,4.26259,14.52188,0-.00169-2.02123-2.32959-4.75124-5.47189-5.547Zm-1.79037,6.36466"/><path class="cls-1" d="M13.906,10.1779A6.13377,6.13377,0,0,0,15.4403,6.27353a4.73221,4.73221,0,1,0-9.46442,0A6.144,6.144,0,0,0,7.50826,10.1779c-2.90663,1.21517-4.78257,3.82671-4.78257,5.83726a.72519.72519,0,0,0,.12613.408C4.37291,18.64646,7.38872,20,10.77916,20c.113,0,.22684-.00141.3398-.00424,3.30666-.088,6.16905-1.46884,7.46894-3.60457a.72736.72736,0,0,0,.10542-.37651C18.69143,14.00367,16.81361,11.3926,13.906,10.1779Zm-2.82568,8.37255c-2.90192.0913-5.55441-.97139-6.89759-2.75273.1666-1.682,2.211-3.94484,4.90964-4.62867a.72276.72276,0,0,0,.2259-1.30036A4.62732,4.62732,0,0,1,7.42167,6.27353a3.28643,3.28643,0,1,1,6.57285,0A4.62261,4.62261,0,0,1,12.096,9.86822a.72245.72245,0,0,0,.2259,1.30083c2.709.68618,4.76186,2.9631,4.91623,4.64844C16.13684,17.43694,13.80344,18.478,11.08036,18.55045Z"/></g></g></g></svg>