<svg xmlns="http://www.w3.org/2000/svg" viewBox="0 0 20 19.63"><defs><style>.cls-1{fill:#fff;}</style></defs><title>Asset 2</title><g id="Layer_2" data-name="Layer 2"><g id="laptop"><g id="center"><g id="_2" data-name="2"><path class="cls-1" d="M19.29,18.24H.71a.7.7,0,0,0-.7.7.71.71,0,0,0,.7.7H19.3a.7.7,0,0,0,.7-.7.71.71,0,0,0-.71-.7Zm0,0"/><path class="cls-1" d="M0,12.07l0,3.31a.72.72,0,0,0,.2.51.68.68,0,0,0,.49.2l3.29,0a.68.68,0,0,0,.49-.2L15.86,4.5a.72.72,0,0,0,0-1L12.6.2a.72.72,0,0,0-1,0L9.32,2.5.22,11.58a.76.76,0,0,0-.2.49ZM12.11,1.7,14.4,4,13.11,5.28,10.82,3ZM1.43,12.38,9.81,4l2.29,2.29L3.72,14.65l-2.31,0Zm0,0"/></g></g></g></g></svg>