<svg xmlns="http://www.w3.org/2000/svg" viewBox="0 0 109.03 45"><defs><style>.cls-1{fill:#606;}.cls-2{fill:#f60;}</style></defs><title>logo</title><g id="Layer_2" data-name="Layer 2"><g id="laptop"><g id="header"><g id="logo"><path class="cls-1" d="M98.76,17.32l-2.55,9.25L88.44,0,81.11,22.43l-1.57-5.1H71a16.67,16.67,0,0,0-33,0H29.11l-2.55,9.25L18.79,0,11.45,22.43l-1.57-5.1H0v5H6.16l5.14,16.71L18.52,17,26.7,45l6.24-22.64H38a16.67,16.67,0,0,0,32.94,0h4.83L81,39.07,88.17,17l8.18,28,6.24-22.64H109v-5Zm-44.24,15A12.51,12.51,0,1,1,67,19.77,12.53,12.53,0,0,1,54.52,32.28Z"/><polygon class="cls-2" points="62.09 17.88 56.41 17.88 56.41 12.19 52.62 12.19 52.62 17.88 46.94 17.88 46.94 21.67 52.62 21.67 52.62 27.35 56.41 27.35 56.41 21.67 62.09 21.67 62.09 17.88"/></g></g></g></g></svg>