<svg xmlns="http://www.w3.org/2000/svg" viewBox="0 0 33.17 25.43"><defs><style>.cls-1{fill:#fff;}.cls-2{fill:#606;}</style></defs><title>msg</title><g id="Layer_2" data-name="Layer 2"><g id="laptop"><g id="header"><g id="msg"><rect class="cls-1" width="33.17" height="25.43" rx="2.99" ry="2.99"/><path class="cls-2" d="M16.58,15.36a3.58,3.58,0,0,1-2.16-.73L1.61,4.13A.8.8,0,0,1,1.54,3h0a.8.8,0,0,1,1.13-.07L15.44,13.39a2.06,2.06,0,0,0,2.33,0L30.5,2.93A.8.8,0,0,1,31.63,3h0a.8.8,0,0,1-.07,1.13L18.79,14.59A3.61,3.61,0,0,1,16.58,15.36Z"/></g></g></g></g></svg>