<svg xmlns="http://www.w3.org/2000/svg" viewBox="0 0 39.96 29.73"><defs><style>.cls-1{fill:#fff;}.cls-2{fill:#606;}.cls-3{fill:#f60;}</style></defs><title>other notification</title><g id="Layer_2" data-name="Layer 2"><g id="laptop"><g id="header"><g id="noti"><rect class="cls-1" y="4.3" width="33.17" height="25.43" rx="2.99" ry="2.99"/><path class="cls-2" d="M7.22,24.12a1.61,1.61,0,1,1-1.61-1.61,1.61,1.61,0,0,1,1.61,1.61Zm0,0"/><path class="cls-2" d="M13.1,24.12a1.61,1.61,0,1,1-1.61-1.61,1.61,1.61,0,0,1,1.61,1.61Zm0,0"/><path class="cls-2" d="M19,24.12a1.61,1.61,0,1,1-1.61-1.61A1.61,1.61,0,0,1,19,24.12Zm0,0"/><circle class="cls-2" cx="32.86" cy="7.1" r="7.1"/><path class="cls-3" d="M32.86,12.71A5.61,5.61,0,1,1,38.47,7.1a5.61,5.61,0,0,1-5.61,5.61Zm0-9.74A4.13,4.13,0,1,0,37,7.1,4.14,4.14,0,0,0,32.86,3Zm0,0"/><path class="cls-3" d="M32.86,10A2.89,2.89,0,1,1,35.75,7.1,2.89,2.89,0,0,1,32.86,10Z"/></g></g></g></g></svg>