<svg xmlns="http://www.w3.org/2000/svg" viewBox="0 0 25 25"><defs><style>.cls-1{fill:#fff;}</style></defs><title>payments icon</title><g id="Layer_2" data-name="Layer 2"><g id="laptop"><g id="panel"><path class="cls-1" d="M13,6.06v.73a4.25,4.25,0,0,1,1.25.3,2.46,2.46,0,0,1,.91.68,2.89,2.89,0,0,1,.47.71,1.65,1.65,0,0,1,.17.67.8.8,0,0,1-.25.59.82.82,0,0,1-.6.25A.85.85,0,0,1,14,9.27,1.54,1.54,0,0,0,13,8.14V11q.84.23,1.34.42a2.78,2.78,0,0,1,.89.55,2.55,2.55,0,0,1,.65.89A2.81,2.81,0,0,1,16.07,14a3,3,0,0,1-.36,1.45,2.87,2.87,0,0,1-1.07,1.1A3.81,3.81,0,0,1,13,17v1.69a1.6,1.6,0,0,1-.08.58.33.33,0,0,1-.34.18.38.38,0,0,1-.34-.15.85.85,0,0,1-.1-.46V17.05a4.29,4.29,0,0,1-1.39-.37,3.28,3.28,0,0,1-1-.71,3,3,0,0,1-.59-.88,2.34,2.34,0,0,1-.19-.9.82.82,0,0,1,.25-.59.85.85,0,0,1,.64-.26.9.9,0,0,1,.52.14.74.74,0,0,1,.29.4,8.58,8.58,0,0,0,.32.85,1.64,1.64,0,0,0,.41.54,1.84,1.84,0,0,0,.73.37V12.49a8.31,8.31,0,0,1-1.52-.56,2.56,2.56,0,0,1-1-.88A2.6,2.6,0,0,1,9.2,9.58a2.6,2.6,0,0,1,.74-1.92,3.33,3.33,0,0,1,2.15-.87V6.07q0-.57.43-.57T13,6.06Zm-.86,4.66V8.12a2.37,2.37,0,0,0-.89.45,1.06,1.06,0,0,0-.32.84,1,1,0,0,0,.3.81A2.75,2.75,0,0,0,12.09,10.72Zm.86,2v3A1.87,1.87,0,0,0,14,15.16a1.4,1.4,0,0,0,.37-1,1.16,1.16,0,0,0-.36-.91A3,3,0,0,0,13,12.74Z"/><path class="cls-1" d="M12.5,0A12.5,12.5,0,1,0,25,12.5,12.5,12.5,0,0,0,12.5,0Zm0,23.86A11.36,11.36,0,1,1,23.86,12.5,11.38,11.38,0,0,1,12.5,23.86Z"/></g></g></g></svg>