<svg xmlns="http://www.w3.org/2000/svg" viewBox="0 0 25 25"><defs><style>.cls-1{fill:#fff;}</style></defs><title>services icon</title><g id="Layer_2" data-name="Layer 2"><g id="laptop"><g id="panel"><path class="cls-1" d="M12.5,0A12.5,12.5,0,1,0,25,12.5,12.5,12.5,0,0,0,12.5,0Zm0,23.86A11.36,11.36,0,1,1,23.86,12.5,11.38,11.38,0,0,1,12.5,23.86Z"/><path class="cls-1" d="M10.43,14.58,13,13.27a1.19,1.19,0,0,0,.75-.34l2.41-2.41-1.7-1.7-2.41,2.41a1.19,1.19,0,0,0-.34.76Zm7.07-5.38a1.2,1.2,0,0,0-1.7-1.7l-.34.34,1.7,1.7Zm-.18,3.29a.69.69,0,0,0-.69.69v3.44H8.37V8.37h2.75a.69.69,0,0,0,0-1.37H7.69A.69.69,0,0,0,7,7.69v9.62a.69.69,0,0,0,.69.69h9.62a.69.69,0,0,0,.69-.69V13.19a.69.69,0,0,0-.69-.69Zm0,0"/></g></g></g></svg>