<svg xmlns="http://www.w3.org/2000/svg" viewBox="0 0 25 25"><defs><style>.cls-1{fill:#fff;}</style></defs><title>affiliate</title><g id="Layer_2" data-name="Layer 2"><g id="wow_admin" data-name="wow admin"><g id="Layer_22" data-name="Layer 22"><path class="cls-1" d="M12.5,0A12.5,12.5,0,1,0,25,12.5,12.5,12.5,0,0,0,12.5,0Zm0,23.86A11.34,11.34,0,0,1,4.33,20.4a.67.67,0,0,1-.15-.16,11.36,11.36,0,1,1,8.31,3.63Z"/><path class="cls-1" d="M13.86,12.27a4,4,0,0,0,1.68-3.18,3,3,0,1,0-6.07,0,4.05,4.05,0,0,0,1.68,3.18C8.76,12.87,7,14.94,7,16.47c2.3,3.36,9,3.23,11,0,0-1.53-1.76-3.6-4.14-4.2ZM12.5,18.56,11,16.14,12.25,13h0l-1.1-.88a3.61,3.61,0,0,0,1.36.33,3.65,3.65,0,0,0,1.36-.33l-1.1.88h0L14,16.13Zm0-1.47"/></g></g></g></svg>