<svg xmlns="http://www.w3.org/2000/svg" viewBox="0 0 25 25"><defs><style>.cls-1{fill:#fff;}</style></defs><title>employer</title><g id="Layer_2" data-name="Layer 2"><g id="Layer_15" data-name="Layer 15"><g id="Layer_16" data-name="Layer 16"><path class="cls-1" d="M12.5,0A12.5,12.5,0,1,0,25,12.5,12.5,12.5,0,0,0,12.5,0Zm0,23.86A11.34,11.34,0,0,1,4.33,20.4a.67.67,0,0,1-.15-.16,11.36,11.36,0,1,1,8.31,3.63Z"/><path class="cls-1" d="M15.33,11.48c.35-.08.68-.37.73-1s-.09-.8-.29-.94c.56-2.27-1-2.72-1-2.72a2.31,2.31,0,0,0-3.39-.58,4,4,0,0,0-1,.85,3.55,3.55,0,0,0-.76,2.37c-.27.1-.49.37-.43,1s.41,1,.78,1a3.19,3.19,0,0,0,2.67,2.23,3.2,3.2,0,0,0,2.67-2.24Zm-2.67,1.67"/><path class="cls-1" d="M11.5,15.38l.16-.65a.38.38,0,0,1,.11-.19l0,0-1.4-1.16-.85.2a3.1,3.1,0,0,0-2.47,3v1.84a.68.68,0,0,0,.71.65h3.62l.55-3.14a.38.38,0,0,1-.37-.47Zm-.63.07"/><path class="cls-1" d="M15.55,13.55l-.84-.2-1.4,1.16,0,0a.38.38,0,0,1,.11.19l.16.65a.38.38,0,0,1-.37.47L13.71,19h3.62a.66.66,0,0,0,.68-.65V16.51a3.08,3.08,0,0,0-2.45-3Zm-.13.07"/></g></g></g></svg>