<svg xmlns="http://www.w3.org/2000/svg" viewBox="0 0 25 25"><defs><style>.cls-1{fill:#fff;}</style></defs><title>service category</title><g id="Layer_2" data-name="Layer 2"><g id="wow_admin" data-name="wow admin"><g id="Layer_24" data-name="Layer 24"><path class="cls-1" d="M12.5,0A12.5,12.5,0,1,0,25,12.5,12.5,12.5,0,0,0,12.5,0Zm0,23.86A11.34,11.34,0,0,1,4.33,20.4a.67.67,0,0,1-.15-.16,11.36,11.36,0,1,1,8.31,3.63Z"/><rect class="cls-1" x="6" y="8" width="2" height="2" rx="1" ry="1"/><rect class="cls-1" x="9" y="8" width="10" height="2" rx="1" ry="1"/><rect class="cls-1" x="6" y="12" width="2" height="2" rx="1" ry="1"/><rect class="cls-1" x="9" y="12" width="10" height="2" rx="1" ry="1"/><rect class="cls-1" x="6" y="16" width="2" height="2" rx="1" ry="1"/><rect class="cls-1" x="9" y="16" width="10" height="2" rx="1" ry="1"/></g></g></g></svg>