<svg xmlns="http://www.w3.org/2000/svg" viewBox="0 0 25 25"><defs><style>.cls-1{fill:#fff;}</style></defs><title>group</title><g id="Layer_2" data-name="Layer 2"><g id="user-531275"><g id="Layer_10" data-name="Layer 10"><path class="cls-1" d="M12.5,0A12.5,12.5,0,1,0,25,12.5,12.5,12.5,0,0,0,12.5,0Zm0,23.86A11.36,11.36,0,1,1,23.86,12.5,11.38,11.38,0,0,1,12.5,23.86Z"/><path class="cls-1" d="M10.14,14.23a4,4,0,0,1-.68-2.12A3.64,3.64,0,0,0,8,11.37,2.38,2.38,0,0,0,9,9.5a1.78,1.78,0,1,0-3.57,0,2.38,2.38,0,0,0,1,1.87A3.12,3.12,0,0,0,4,13.83C5.25,15.65,8.71,15.72,10.14,14.23Zm-3.82-.39L7.09,12h0l-.65-.52a2.12,2.12,0,0,0,.8.2,2.14,2.14,0,0,0,.8-.2L7.38,12h0l.76,1.84-.91,1.43Z"/><path class="cls-1" d="M18.57,11.37a2.38,2.38,0,0,0,1-1.87A1.78,1.78,0,1,0,16,9.5a2.38,2.38,0,0,0,1,1.87,3.63,3.63,0,0,0-1.44.75,4,4,0,0,1-.67,2.1c1.57,1.57,5.06,1.38,6.13-.38A3.13,3.13,0,0,0,18.57,11.37Zm-.8,3.9-.91-1.43L17.63,12h0L17,11.48a2.12,2.12,0,0,0,.8.2,2.14,2.14,0,0,0,.8-.2l-.65.52h0l.76,1.84Z"/><path class="cls-1" d="M13.55,14.32a3.14,3.14,0,0,0,1.3-2.47,2.36,2.36,0,1,0-4.71,0,3.14,3.14,0,0,0,1.3,2.47c-1.84.47-3.21,2.07-3.21,3.26,1.78,2.61,7,2.51,8.53,0,0-1.19-1.37-2.79-3.22-3.26Zm-1.05,5-1.2-1.88,1-2.43h0l-.85-.68a2.8,2.8,0,0,0,1.06.26,2.83,2.83,0,0,0,1.05-.26L12.7,15h0l1,2.43Zm0-1.25"/></g></g></g></svg>