<svg xmlns="http://www.w3.org/2000/svg" width="82" height="82" viewBox="0 0 82 82"><defs><style>.a{fill:#fff;stroke:#80ab08;}.b{fill:#524456;}.c{fill:#606060;}.d{stroke:none;}.e{fill:none;}</style></defs><g transform="translate(-512 -221)"><g transform="translate(512 221)"><g class="a"><circle class="d" cx="41" cy="41" r="41"/><circle class="e" cx="41" cy="41" r="40.5"/></g></g><g transform="translate(579.046 231.204)"><circle class="b" cx="1.786" cy="1.786" r="1.786" transform="translate(3.796 3.796)"/><path class="b" d="M5.908,2,4.886,3.117H3.117A1.12,1.12,0,0,0,2,4.233v6.7a1.12,1.12,0,0,0,1.117,1.117h8.932a1.12,1.12,0,0,0,1.117-1.117v-6.7a1.12,1.12,0,0,0-1.117-1.117h-1.77L9.257,2Zm1.675,8.374a2.791,2.791,0,1,1,2.791-2.791A2.792,2.792,0,0,1,7.583,10.374Z" transform="translate(-2 -2)"/></g><g transform="translate(543 250)"><g transform="translate(0 0)"><path class="c" d="M19.284,39.029a9.866,9.866,0,0,0-19.2,0,2.609,2.609,0,0,0,.5,2.227A2.7,2.7,0,0,0,2.7,42.278H16.656a2.687,2.687,0,0,0,2.12-1.027A2.6,2.6,0,0,0,19.284,39.029Z" transform="translate(-0.012 -19.068)"/><path class="c" d="M16.506,10.472A5.236,5.236,0,1,0,11.27,5.236h0A5.24,5.24,0,0,0,16.506,10.472Z" transform="translate(-6.841 0)"/></g></g></g></svg>