<svg xmlns="http://www.w3.org/2000/svg" width="40" height="40" viewBox="0 0 40 40"><defs><style>.a{fill:#524456;}.b{fill:#fff;}</style></defs><g transform="translate(-1612.901 -199.901)"><circle class="a" cx="20" cy="20" r="20" transform="translate(1612.901 199.901)"/><g transform="translate(1626.079 211.617)"><g transform="translate(0 0)"><path class="b" d="M13.735,36.842a7.025,7.025,0,0,0-13.673,0,1.857,1.857,0,0,0,.356,1.585,1.919,1.919,0,0,0,1.51.728h9.936a1.913,1.913,0,0,0,1.51-.731A1.855,1.855,0,0,0,13.735,36.842Z" transform="translate(-0.012 -22.628)"/><path class="b" d="M15,7.457A3.728,3.728,0,1,0,11.27,3.728h0A3.731,3.731,0,0,0,15,7.457Z" transform="translate(-8.117 0)"/></g></g></g></svg>