<svg xmlns="http://www.w3.org/2000/svg" xmlns:xlink="http://www.w3.org/1999/xlink" width="1366" height="768.269" viewBox="0 0 1366 768.269"><defs><style>.a{fill:#fff;}.b{opacity:0.14;}.ac,.ad,.ae,.c,.d,.e,.f,.j,.m,.n,.o,.p,.r,.w,.x{fill:none;}.c,.d,.e{stroke:#afdee8;}.ac,.ad,.ae,.c,.d,.e,.j,.m,.n,.o,.p,.r,.w,.x{stroke-linecap:round;}.ac,.ad,.ae,.c,.e,.j,.m,.n,.o,.p,.r,.w,.x{stroke-linejoin:round;}.c{stroke-width:2.993px;}.d,.e{stroke-width:2.489px;}.f{stroke:#6a9ca0;stroke-miterlimit:10;stroke-width:0.55px;}.g{fill:#2d201b;}.h{fill:#ff8775;}.i{fill:#afdee8;}.j{stroke:#362f36;stroke-width:0.566px;}.k{fill:#f5e9e1;}.l{fill:#edd9d1;}.m{stroke:#b7a091;stroke-width:0.927px;}.n{stroke:#472a1c;stroke-width:0.316px;}.ac,.ae,.o,.x{stroke:#2d1a14;}.o{stroke-width:1.29px;}.ad,.p,.w{stroke:#2d201b;}.p{stroke-width:0.81px;}.q{fill:#f5e4dd;}.r{stroke:#ff8772;stroke-width:19.965px;}.s{fill:#6277ca;}.t{fill:#ff8772;}.u{fill:#8da8ff;}.v{fill:#ff8b6b;}.w{stroke-width:0.703px;}.x{stroke-width:0.869px;}.y{fill:#2d1a14;}.z{fill:#c1b6ae;}.aa{fill:#a52f13;}.ab{fill:#5a525d;}.ac{stroke-width:1.294px;}.ad{stroke-width:0.54px;}.ae{stroke-width:1.08px;}.af{opacity:0.32;}.ag{fill:#f8e8d8;}.ah{fill:url(#a);}.ai{fill:#dd7e52;}.aj{fill:#cfd4d8;}.ak{fill:#452925;}.al{fill:#302624;}.am{fill:#63281f;}.an{fill:#722f27;opacity:0.16;mix-blend-mode:multiply;isolation:isolate;}.ao{fill:#330e00;}.ap{fill:url(#b);}.aq{fill:url(#c);}.ar{fill:#f84511;}.as{fill:url(#d);}.at{fill:#d36548;}.au{fill:url(#e);}.av{fill:url(#f);}.aw{fill:#cb4453;}.ax{fill:#dd5664;}.ay{fill:url(#g);}.az{fill:url(#h);}.ba{fill:url(#i);}.bb{fill:url(#j);}.bc{fill:url(#k);}.bd{fill:url(#l);}.be{fill:#5b3517;}.bf{fill:url(#m);}.bg{fill:#cf8c38;}</style><linearGradient id="a" x1="0.741" y1="0.666" x2="-0.044" y2="0.294" gradientUnits="objectBoundingBox"><stop offset="0" stop-color="#cfd4d8"/><stop offset="0.096" stop-color="#cfd4d8" stop-opacity="0.953"/><stop offset="0.259" stop-color="#cfd4d8" stop-opacity="0.831"/><stop offset="0.468" stop-color="#cfd4d8" stop-opacity="0.635"/><stop offset="0.715" stop-color="#cfd4d8" stop-opacity="0.357"/><stop offset="0.991" stop-color="#cfd4d8" stop-opacity="0.012"/><stop offset="1" stop-color="#cfd4d8" stop-opacity="0"/></linearGradient><linearGradient id="b" x1="0.664" y1="0.448" x2="-0.068" y2="1.051" gradientUnits="objectBoundingBox"><stop offset="0" stop-color="#cfd4d8"/><stop offset="0.326" stop-color="#cfd4d8" stop-opacity="0.631"/><stop offset="0.652" stop-color="#cfd4d8" stop-opacity="0.29"/><stop offset="0.884" stop-color="#cfd4d8" stop-opacity="0.082"/><stop offset="1" stop-color="#cfd4d8" stop-opacity="0"/></linearGradient><linearGradient id="c" x1="1" y1="0.5" x2="0" y2="0.5" gradientUnits="objectBoundingBox"><stop offset="0" stop-color="#d25533" stop-opacity="0.702"/><stop offset="0.161" stop-color="#d25533" stop-opacity="0.616"/><stop offset="0.483" stop-color="#d25533" stop-opacity="0.4"/><stop offset="0.931" stop-color="#d25533" stop-opacity="0.055"/><stop offset="1" stop-color="#d25533" stop-opacity="0"/></linearGradient><linearGradient id="d" x1="0.526" y1="0.441" x2="0.45" y2="1.09" xlink:href="#c"/><radialGradient id="e" cx="0.5" cy="0.5" r="0.5" gradientTransform="matrix(0.999, 0.045, -0.045, 0.999, 198.804, 4.502)" xlink:href="#c"/><radialGradient id="f" cx="0.5" cy="0.5" r="0.5" gradientTransform="translate(207.855 4.708) rotate(2.608)" xlink:href="#c"/><linearGradient id="g" x1="168.55" y1="0.601" x2="167.848" y2="0.404" xlink:href="#c"/><linearGradient id="h" x1="0.468" y1="-0.019" x2="0.535" y2="1.071" gradientUnits="objectBoundingBox"><stop offset="0" stop-color="#302624" stop-opacity="0.502"/><stop offset="0.242" stop-color="#302624" stop-opacity="0.361"/><stop offset="0.995" stop-color="#302624" stop-opacity="0"/></linearGradient><linearGradient id="i" x1="0.5" y1="0.172" x2="0.585" y2="1.079" xlink:href="#h"/><linearGradient id="j" x1="0.438" y1="1.11" x2="0.537" y2="0.089" gradientUnits="objectBoundingBox"><stop offset="0" stop-color="#f8e8d8" stop-opacity="0.2"/><stop offset="0.408" stop-color="#f8e8d8" stop-opacity="0.129"/><stop offset="1" stop-color="#f8e8d8" stop-opacity="0"/></linearGradient><linearGradient id="k" x1="0.5" y1="0.621" x2="0.5" y2="0.869" gradientUnits="objectBoundingBox"><stop offset="0" stop-color="#593417"/><stop offset="1" stop-color="#683a16"/></linearGradient><linearGradient id="l" x1="0.52" y1="0.935" x2="0.445" y2="0.114" gradientUnits="objectBoundingBox"><stop offset="0" stop-color="#683a16"/><stop offset="1" stop-color="#89582a"/></linearGradient><linearGradient id="m" x1="0.623" y1="0.81" x2="0.161" y2="-0.332" xlink:href="#l"/></defs><rect class="a" width="1366" height="768"/><g transform="translate(7.394 437)"><g class="b"><g transform="translate(134.024 0.937)"><ellipse class="c" cx="18.722" cy="19.264" rx="18.722" ry="19.264" transform="matrix(0.093, -0.996, 0.996, 0.093, 0, 60.1)"/><line class="c" y1="14.333" x2="20.301" transform="translate(39.51 20.686)"/><ellipse class="c" cx="12.849" cy="13.22" rx="12.849" ry="13.22" transform="translate(57.081 25.595) rotate(-84.692)"/></g><g transform="translate(136.077 226.65)"><path class="d" d="M15.542-.025A15.743,15.743,0,0,1,31.059,16,15.864,15.864,0,0,1,15.491,32.079,15.743,15.743,0,0,1-.025,16.052,15.864,15.864,0,0,1,15.542-.025Z" transform="translate(0 19.888) rotate(-39.686)"/><line class="e" x2="20.336" y2="3.547" transform="translate(37.928 28.448)"/><path class="d" d="M10.666-.017a10.8,10.8,0,0,1,10.649,11A10.887,10.887,0,0,1,10.631,22.015a10.8,10.8,0,0,1-10.649-11A10.887,10.887,0,0,1,10.666-.017Z" transform="matrix(0.77, -0.639, 0.639, 0.77, 53.782, 33.27)"/></g><line class="f" x2="7.176" transform="translate(2.5 10.27)"/><line class="f" x2="7.176" transform="translate(2.5 12.18)"/><line class="f" x2="7.176" transform="translate(2.5 14.09)"/><g transform="translate(25.778 3.918)"><path class="g" d="M594.673,55.241a20.1,20.1,0,0,0-9.485.676A15.588,15.588,0,0,0,577.244,61a7.19,7.19,0,0,0-1.6,3.33c-.385,2.578,1.251,4.959,2.533,7.227s2.216,5.275.623,7.335a4.459,4.459,0,0,1-4.455,1.438c-1.606-.362-2.659-1.51-3.918-2.83-.279.659.453,5.067,2.284,7.932a18.981,18.981,0,0,0,7,6.156,26.02,26.02,0,0,0,16.4,2.892,19.857,19.857,0,0,0,13.683-9.13c4.842-8.237,1.717-19.317-7.939-21.9-.556-.1-1.076-2.58-1.241-3.032A7.752,7.752,0,0,0,594.673,55.241Z" transform="translate(-522.285 -54.927)"/><path class="h" d="M570.076,173.442a156.174,156.174,0,0,1-4.815,19.154c16.909,1.854,28.356,4.3,44.922.178,2.392-16.732.15-32.23,4.092-47.679,1.165-4.568,2.83-9,3.562-13.672,3.144-20.077-25.866-21.332-37.571-19.03-5.458,1.074-11.2,3.293-14.236,8.333-2.905,4.825-2.635,11.164-1.2,16.714s3.9,10.753,5.143,16.357A51.439,51.439,0,0,1,570.076,173.442Z" transform="translate(-521.056 -65.351)"/><path class="h" d="M606.748,109.35c-5.414-2.968-9.733-15.336-8.305-25.073l-8.619,4.878c.884,5.986-3.64,12.866-5.966,16.406A7.736,7.736,0,0,1,579,108.816c3.059,4.111,8.353,6.165,13.464,6.3S603.486,113.3,606.748,109.35Z" transform="translate(-523.896 -60.33)"/><path class="h" d="M593.25,88.5h0a7.418,7.418,0,0,1-7.385-7.409V70.355a7.418,7.418,0,0,1,7.385-7.409h0a7.418,7.418,0,0,1,7.385,7.409V81.1A7.418,7.418,0,0,1,593.25,88.5Z" transform="translate(-525.179 -56.403)"/><path class="h" d="M607.969,81.245a2.844,2.844,0,1,1-2.843-2.853A2.848,2.848,0,0,1,607.969,81.245Z" transform="translate(-528.244 -59.247)"/><path class="h" d="M626.417,399.159c-1.061-.3-2.146-.525-3.234-.748A18.956,18.956,0,0,1,608.2,385.032c-2.724-8.822-.938-18.442-.7-27.48.19-7.273.277-14.548.333-21.823.112-14.4.089-28.8.073-43.2,5.446-22.962,14.045-73.012-3.317-109.131,0,0-38.705.308-37.931.308,0,0-20.135,26.6-7.252,102.027,1.154,36.329,2.616,79.213,3.115,92.99a32.712,32.712,0,0,1-1.247,6.31A18.956,18.956,0,0,1,546.3,398.411c-1.088.224-2.172.453-3.234.748a25.767,25.767,0,0,0-8.535,4.255h38.947c.334-35.893,7.7-64.928,4.2-107.476q-.1-1.218-.176-2.437l4.384-83.025,6.269-.411,1.079,20.1c.088,2.808.248,5.622.453,8.438l2.769,51.581c-.16,1.923-.37,3.844-.65,5.759-8.792,60.088,3.866,71.583,4.2,107.476h38.947A25.758,25.758,0,0,0,626.417,399.159Z" transform="translate(-515.594 -78.575)"/><path class="i" d="M560.876,261.128a85.269,85.269,0,0,0,12.739,3.417c3.329.629,6.689,1.08,10.066,1.379l2.928-55.448,6.269-.411,1.079,20.1c.088,2.808.248,5.622.453,8.438l1.489,27.735a130.05,130.05,0,0,0,20.836-2.13c.36-.066.719-.14,1.079-.208,3.106-24.623,3.387-55.873-8.5-80.6,0,0-38.705.308-37.931.308C571.385,183.7,555.709,204.426,560.876,261.128Z" transform="translate(-520.318 -78.575)"/><path class="j" d="M576.769,298.152a32.184,32.184,0,0,1-5.1,11.54" transform="translate(-522.528 -99.699)"/><path class="j" d="M613.53,298.529a32.2,32.2,0,0,0,5.1,11.54" transform="translate(-530.344 -99.768)"/><path class="j" d="M616.9,442.5a10.925,10.925,0,0,1-3.089-7.205" transform="translate(-530.397 -124.943)"/><path class="j" d="M575.78,442.645a8.453,8.453,0,0,0,1.945-5.457" transform="translate(-523.296 -125.292)"/><g transform="translate(76.373 301.351)"><path class="k" d="M617.649,430.127a18.829,18.829,0,0,0,6.039-5.863,13.919,13.919,0,0,0,5.547,5.608c3.463,1.852,7.5,2.127,11.263,3.2a28.15,28.15,0,0,1,17.207,14.4H607.993V430.3A10.192,10.192,0,0,0,617.649,430.127Z" transform="translate(-605.683 -424.264)"/><path class="k" d="M617.649,430.129a18.818,18.818,0,0,0,6.033-5.853,13.966,13.966,0,0,0,5.553,5.6c3.463,1.852,7.5,2.127,11.263,3.2a28.15,28.15,0,0,1,17.207,14.4H607.993V430.3A10.192,10.192,0,0,0,617.649,430.129Z" transform="translate(-605.683 -424.266)"/><path class="l" d="M656.053,454.855h-48.4a2.54,2.54,0,0,1-2.5-2.56h0a2.54,2.54,0,0,1,2.5-2.561h48.4a2.54,2.54,0,0,1,2.5,2.561h0A2.54,2.54,0,0,1,656.053,454.855Z" transform="translate(-605.153 -428.952)"/><path class="m" d="M621.217,447.631s-2.011-8.07-13.575-7.313" transform="translate(-605.618 -427.21)"/><line class="m" x1="4.206" y2="4.5" transform="translate(22.327 2.813)"/><line class="m" x1="4.206" y2="4.5" transform="translate(25.411 4.501)"/></g><g transform="translate(10.066 301.351)"><path class="k" d="M565.378,430.127a18.826,18.826,0,0,1-6.039-5.863,13.919,13.919,0,0,1-5.547,5.608c-3.463,1.852-7.5,2.127-11.263,3.2a28.154,28.154,0,0,0-17.207,14.4h49.713V430.3A10.194,10.194,0,0,1,565.378,430.127Z" transform="translate(-523.941 -424.264)"/><path class="k" d="M565.378,430.129a18.809,18.809,0,0,1-6.032-5.853,13.971,13.971,0,0,1-5.553,5.6c-3.463,1.852-7.5,2.127-11.263,3.2a28.154,28.154,0,0,0-17.207,14.4h49.713V430.3A10.194,10.194,0,0,1,565.378,430.129Z" transform="translate(-523.941 -424.266)"/><path class="l" d="M526.127,454.855h48.4a2.54,2.54,0,0,0,2.5-2.56h0a2.54,2.54,0,0,0-2.5-2.561h-48.4a2.54,2.54,0,0,0-2.5,2.561h0A2.54,2.54,0,0,0,526.127,454.855Z" transform="translate(-523.624 -428.952)"/><path class="m" d="M570.107,447.631s2.011-8.07,13.574-7.313" transform="translate(-532.303 -427.21)"/><line class="m" x2="4.205" y2="4.5" transform="translate(26.87 2.813)"/><line class="m" x2="4.206" y2="4.5" transform="translate(23.786 4.501)"/></g><g transform="translate(62.387 19.172)"><path class="a" d="M592.177,79.038c0,.266-.569.5-1.365.593a.276.276,0,0,1-.058,0,6.344,6.344,0,0,1-.692.042c-.219,0-.43-.007-.626-.027-.085-.007-.169-.016-.25-.027-.726-.092-1.234-.308-1.23-.563,0-.216.372-.409.934-.521.05-.011.1-.023.157-.031a5.913,5.913,0,0,1,1.022-.085,6.332,6.332,0,0,1,.93.058c.093.011.181.027.266.042C591.815,78.637,592.177,78.826,592.177,79.038Z" transform="translate(-587.956 -78.424)"/><g transform="translate(5.282 0.062)"><path class="a" d="M598.671,79.114c0,.228-.423.432-1.046.547-.1.02-.207.035-.319.047-.23.027-.484.042-.75.047a6.862,6.862,0,0,1-.769-.042l-.107-.011c-.726-.093-1.234-.308-1.23-.563,0-.236.442-.444,1.092-.556.011,0,.023,0,.034,0a6.017,6.017,0,0,1,.988-.077,6.229,6.229,0,0,1,.93.058c.107.016.207.03.3.05C598.329,78.72,598.671,78.906,598.671,79.114Z" transform="translate(-594.45 -78.5)"/></g><path class="n" d="M592.348,81.689l.114-1.029.912.686v-.972" transform="translate(-588.776 -78.783)"/><path class="a" d="M591.516,83.036c0,.056-.008.113-.008.171a1.823,1.823,0,1,0,3.646,0,1.689,1.689,0,0,0-.009-.171Z" transform="translate(-588.619 -79.273)"/></g><path class="g" d="M591.532,78.826a.936.936,0,0,1-.577.809,6.344,6.344,0,0,1-.692.042c-.219,0-.43-.007-.626-.027a.946.946,0,0,1-.6-.825.705.705,0,0,1,.058-.286c.05-.011.1-.023.157-.031a5.913,5.913,0,0,1,1.022-.085,6.332,6.332,0,0,1,.93.058c.093.011.181.027.266.042A.731.731,0,0,1,591.532,78.826Z" transform="translate(-525.77 -59.253)"/><path class="g" d="M598.15,79.033a.865.865,0,0,1-.3.628c-.1.02-.207.035-.319.047-.23.027-.484.042-.75.047a6.861,6.861,0,0,1-.768-.042.884.884,0,0,1-.361-.679.78.78,0,0,1,.15-.455,6.016,6.016,0,0,1,.988-.077,6.227,6.227,0,0,1,.93.058c.107.016.207.03.3.05A.762.762,0,0,1,598.15,79.033Z" transform="translate(-527.006 -59.267)"/><ellipse class="o" cx="1.634" cy="1.639" rx="1.634" ry="1.639" transform="translate(82.388 142.308)"/><path class="p" d="M595.078,74.236a9.881,9.881,0,0,0,4.247,2.13" transform="translate(-526.899 -58.482)"/><path class="p" d="M587.612,76.506a7.951,7.951,0,0,0,3.363-2.09" transform="translate(-525.505 -58.515)"/><path class="i" d="M568.786,182.249c-10.381,16.405-13.642,36.442-13.491,55.872s3.466,38.68,5.188,58.034c2.462,27.665,1.666,55.506.867,83.269h20.619c9.007-29.63,2.045-62.393,1.791-93.37-.113-13.723,1.171-27.416,2.454-41.079q1.487-15.835,2.973-31.669c.386-4.117-1.571-8.585-3.65-12.156C581.145,193.606,575.281,188.071,568.786,182.249Z" transform="translate(-519.47 -78.364)"/><path class="i" d="M616.256,183.33c10.381,16.4,13.642,36.442,13.491,55.871s-3.466,38.681-5.189,58.034c-2.461,27.666-1.665,55.506-.866,83.27H603.073c-9.007-29.63-2.045-62.394-1.791-93.37.113-13.724-1.171-27.416-2.454-41.08l-2.973-31.669c-.386-4.116,1.57-8.585,3.649-12.156C603.9,194.686,609.761,189.152,616.256,183.33Z" transform="translate(-527.034 -78.563)"/><g transform="translate(36.302 45.358)"><path class="i" d="M610.7,167.052a113.581,113.581,0,0,1,9.7,33.912H557.229c.633-12.112,2.855-24.956,9.191-35.3-1.924-1.42-2.4-4.637-3.479-6.771a65.526,65.526,0,0,1-7.038-31.11c5.658-8.586,14.717-15.171,24.9-16.441,7.372-.916,12.9-1.269,19.727-.026l.712.132c.686.132,1.4.291,2.118.459,5.1,1.2,13.11,4.786,17.038,8.269.686,8.172,1.037,16.432-.211,24.533S616,160.811,610.7,167.052Z" transform="translate(-555.883 -110.518)"/></g><path class="q" d="M612.541,112.324c-5.782,18.38-5.723,38.074-4.414,57.3s4.175,38.413,3.092,57.655v91.256a49.887,49.887,0,0,0,13.9-2.279,26.245,26.245,0,0,1,10.262-.76c.708-14,1.129-27.187,1.836-41.184,1.286-25.455,2.47-51.67-5.951-75.718-3.068-8.761-7.445-17.515-6.769-26.776.432-5.933,2.926-11.491,5.382-16.906l6.371-14.047c1-5.266.4-15.544-8.114-21.8C626.091,117.571,615,111.72,612.541,112.324Z" transform="translate(-529.2 -65.485)"/><path class="q" d="M583.594,111.684s-3.844,16.088,7.8,26.446c0,0,13.949-12.121,12.631-27.107C604.024,111.022,591.541,108,583.594,111.684Z" transform="translate(-524.641 -65.039)"/><path class="r" d="M630.267,176.718l26.36-10.872s-11.424-26.887-34.269-40.11" transform="translate(-531.992 -67.961)"/><path class="q" d="M573.883,113.11c1.025,19.687,2.12,38.3.812,57.533S570.52,209.056,571.6,228.3v91.256a49.923,49.923,0,0,1-13.9-2.278,26.23,26.23,0,0,0-10.262-.76c-.707-14-1.129-27.187-1.836-41.184-1.286-25.456-2.47-51.671,5.951-75.718,3.068-8.761,7.445-17.516,6.769-26.777-.433-5.933-2.926-11.492-5.381-16.906q-3.185-7.024-6.37-14.046c4.48-9.581,9.968-19.1,18.48-25.351C567.1,115.034,571.424,112.507,573.883,113.11Z" transform="translate(-517.493 -65.621)"/><path class="q" d="M558.411,119.071c3.435-.216,6.72,3.31,6.806,6.6.11,4.187-3.779,6.961-6.292,9.781-7.522,8.446-15.752,16.625-20.342,26.973,1.85.872,10.609,7.989,14.042,11.341l-1.269,12.175c-10.9,0-19.8-3.886-30.145-7.327a17.6,17.6,0,0,1-7.349-4.7,11.69,11.69,0,0,1-2.551-6.883c-.735-9.231,4.786-17.772,10.933-24.683C533.5,129.694,539.812,120.247,558.411,119.071Z" transform="translate(-511.247 -66.733)"/><path class="p" d="M621.819,237.559c3.514,8.375,10.873,17.935,15.736,20.849" transform="translate(-531.891 -88.545)"/><path class="p" d="M565.528,236.118c-3.515,8.375-10.874,17.936-15.737,20.85" transform="translate(-518.443 -88.28)"/><path class="s" d="M627.333,190.8,600.3,203.117a4.579,4.579,0,0,1-6.08-2.284l-21.308-47.048a4.613,4.613,0,0,1,2.285-6.1l25.271-11.531.694-.317,1.054-.476a4.587,4.587,0,0,1,4.367.308,4.24,4.24,0,0,1,.7.556,4.417,4.417,0,0,1,1.011,1.428L629.609,184.7A4.611,4.611,0,0,1,627.333,190.8Z" transform="translate(-522.684 -69.657)"/><path class="t" d="M630.866,184.1s-19.405-10.769-20.81-8.544c-.832,1.319,8.976,5.95,8.976,5.95s-18.813.7-18.841,2.741a.5.5,0,0,0,.059.231q.712.343,1.408.715a23.469,23.469,0,0,0,4.537.324c-.905,2.42.451,5.98,3.391,4.815a2.579,2.579,0,0,0,.555,3.077,5.428,5.428,0,0,0,3.086,1.348,11.117,11.117,0,0,0,7.042-1.283,48.448,48.448,0,0,0,9.812-4.628Z" transform="translate(-527.854 -77.076)"/><path class="u" d="M2.1,0,15.039-.017a2.1,2.1,0,0,1,2.1,2.106l0,2.392a2.111,2.111,0,0,1-2.106,2.111L2.1,6.606A2.1,2.1,0,0,1,0,4.5L0,2.108A2.111,2.111,0,0,1,2.1,0Z" transform="translate(57.243 73.036) rotate(-21.383)"/><path class="q" d="M619.946,116a6.107,6.107,0,0,0-5.742.424c-2.726,1.833-2.883,5.1-2.024,7.866,1.144,3.688,3.709,6.737,6.275,9.617,5.893,6.616,12.22,13.068,16.891,20.528a6.385,6.385,0,0,1-2.246,8.924,35.864,35.864,0,0,0-4.767,3.317,6.348,6.348,0,0,0-2.31,4.907v5.873a6.321,6.321,0,0,0,7.425,6.246c7.753-1.417,14.815-4.732,22.719-7.36,2.675-.889,5.479-1.862,7.349-3.976a11.692,11.692,0,0,0,2.551-6.884c.735-9.231-4.786-17.772-10.932-24.682C644.394,128.727,634.475,122.06,619.946,116Z" transform="translate(-530.005 -66.074)"/><path class="p" d="M625.663,120.514c.146,5.436-1.9,13.517-6,16.162" transform="translate(-531.488 -67)"/><path class="v" d="M559.25,185.263a1.247,1.247,0,0,0-1.793-.538c-5.333,3.158-8.978,14.271-6.345,19.935a8.649,8.649,0,0,0-4.99,1.733,1.271,1.271,0,0,0,.988,2.32c2.216-.6,3.9-.394,6.217-.734C557.276,201.882,562.132,191.925,559.25,185.263Z" transform="translate(-517.64 -78.786)"/><path class="p" d="M526.563,165.149a26.4,26.4,0,0,1,15.266,6.146" transform="translate(-514.107 -75.216)"/><path class="w" d="M567.627,120.89a19.364,19.364,0,0,0,9.325,19.368" transform="translate(-521.734 -67.069)"/><path class="p" d="M546.167,195.932a18.821,18.821,0,0,1,6.639-16.1" transform="translate(-517.751 -77.918)"/><path class="p" d="M640.951,168.2a20.711,20.711,0,0,1,11.868-13.531" transform="translate(-535.463 -73.288)"/><path class="p" d="M637.04,174.741a21.611,21.611,0,0,0-1.413,7.919,20.078,20.078,0,0,0,.647,6.431,8.877,8.877,0,0,0,3.74,5.117" transform="translate(-534.466 -76.982)"/><path class="p" d="M550.821,157.745a25.81,25.81,0,0,1-7.339-11.3" transform="translate(-517.265 -71.774)"/><path class="x" d="M579.435,126.781V121.33c0-1.419-.032-2.839,0-4.257.061-2.65.25-4.723,3.651-5.383" transform="translate(-523.975 -65.376)"/><g transform="translate(80.915 46.161)"><path class="y" d="M611.485,111.634c0,.741-.009,1.481-.018,2.248-.009.882-.017,1.8-.017,2.777a.356.356,0,1,1-.712-.008c0-.97.008-1.886.017-2.777.009-.811.018-1.6.018-2.371Z" transform="translate(-610.738 -111.502)"/></g><g transform="translate(81.108 51)"><path class="y" d="M614.516,121.418,614.472,133a4.238,4.238,0,0,0-.7-.556l.044-11.054a3.308,3.308,0,0,0-2.592-3.262.347.347,0,0,1-.246-.326.125.125,0,0,0,.009-.061.15.15,0,0,1,.009-.062.349.349,0,0,1,.439-.229A4.045,4.045,0,0,1,614.516,121.418Z" transform="translate(-610.975 -117.434)"/></g><g transform="translate(77.575 50.959)"><path class="y" d="M610.173,117.733a.125.125,0,0,1-.009.061.34.34,0,0,1-.237.282,3.251,3.251,0,0,0-2.584,3.191l.194,11.336-.695.317-.211-11.619a4.012,4.012,0,0,1,3.084-3.905.35.35,0,0,1,.44.238A.407.407,0,0,1,610.173,117.733Z" transform="translate(-606.63 -117.383)"/></g><path class="y" d="M577.917,137.714h0a3.7,3.7,0,0,1-3.685-3.7h0a3.7,3.7,0,0,1,3.685-3.7h0a3.7,3.7,0,0,1,3.684,3.7h0A3.7,3.7,0,0,1,577.917,137.714Z" transform="translate(-523.007 -68.805)"/><ellipse class="y" cx="0.961" cy="0.964" rx="0.961" ry="0.964" transform="translate(80.465 50.379)"/><path class="g" d="M599.861,75.115a7.148,7.148,0,0,1-2.655-6.864c-.558,1.136-2.034,1.455-3.269,1.713a15.373,15.373,0,0,1-6.917.228,6.461,6.461,0,0,1-4.863-4.52A10.393,10.393,0,0,1,588.2,59.43a9.309,9.309,0,0,1,8.4,1.394,4.81,4.81,0,0,1,2.052,3.243c1.771.4,2.734,1.931,3.369,3.637a12.132,12.132,0,0,1,.388,7.154A2.268,2.268,0,0,0,599.861,75.115Z" transform="translate(-524.486 -55.675)"/></g><g transform="translate(0 167.709)"><rect class="i" width="5.752" height="19.787" transform="translate(6.985 0)"/><rect class="i" width="5.771" height="19.723" transform="translate(19.723 7.008) rotate(90)"/></g><g transform="translate(168.124 186.418)"><rect class="i" width="4.756" height="16.358" transform="translate(5.775 0)"/><rect class="i" width="4.771" height="16.305" transform="translate(16.305 5.793) rotate(90)"/></g><g transform="translate(292.85 7.808)"><rect class="i" width="4.756" height="16.358" transform="translate(5.775 0)"/><rect class="i" width="4.771" height="16.305" transform="translate(16.305 5.793) rotate(90)"/></g><ellipse class="i" cx="2.343" cy="2.351" rx="2.343" ry="2.351" transform="translate(1.074 137.052)"/><ellipse class="i" cx="2.929" cy="2.938" rx="2.929" ry="2.938" transform="translate(40.909 223.443)"/><path class="i" d="M490.062,413.936a3.515,3.515,0,1,1-3.515-3.526A3.521,3.521,0,0,1,490.062,413.936Z" transform="translate(-480.201 -116.444)"/><path class="i" d="M533.278,77.566a3.515,3.515,0,1,1-3.514-3.526A3.52,3.52,0,0,1,533.278,77.566Z" transform="translate(-488.27 -54.527)"/><path class="i" d="M678.774,58.119a3.515,3.515,0,1,1-3.514-3.526A3.52,3.52,0,0,1,678.774,58.119Z" transform="translate(-515.435 -50.947)"/><path class="i" d="M707.854,165.573a2.929,2.929,0,1,1-2.929-2.938A2.933,2.933,0,0,1,707.854,165.573Z" transform="translate(-521.083 -70.835)"/><path class="i" d="M878.829,107.363a2.343,2.343,0,1,1-2.343-2.351A2.347,2.347,0,0,1,878.829,107.363Z" transform="translate(-553.224 -60.228)"/><ellipse class="i" cx="2.343" cy="2.351" rx="2.343" ry="2.351" transform="translate(317.99 212.276)"/><path class="i" d="M694.938,415.538a4.393,4.393,0,1,1-4.393-4.408A4.4,4.4,0,0,1,694.938,415.538Z" transform="translate(-518.124 -116.577)"/><ellipse class="i" cx="3.808" cy="3.82" rx="3.808" ry="3.82" transform="translate(309.789 279.861)"/><ellipse class="i" cx="2.05" cy="2.057" rx="2.05" ry="2.057" transform="translate(156.31 166.436)"/><g transform="translate(143.006)"><g transform="translate(119.218 286.663)"><path class="z" d="M817.556,401.459c.351,8.625,1.051,15.194,6.911,19.516,6.715,4.952,15.828,3.894,22.908,8.065,4.208,2.479,10.348,9.164,12.64,13.167l-55.3-1.145-.321-16.369-.7-17.6Z" transform="translate(-802.294 -401.459)"/><path class="q" d="M814.065,431.236c5.613.233,8.286-2.882,9.3-7.144a15.12,15.12,0,0,0,1.261,1.048c6.715,4.953,15.828,3.894,22.908,8.066,4.208,2.479,10.347,9.164,12.64,13.167l-55.3-1.145-.314-16.014A34.725,34.725,0,0,0,814.065,431.236Z" transform="translate(-802.456 -405.625)"/><path class="l" d="M805.829,454.382h50.907a3.874,3.874,0,0,0,3.856-3.869h0a3.874,3.874,0,0,0-3.856-3.869H805.829a3.874,3.874,0,0,0-3.857,3.869h0A3.874,3.874,0,0,0,805.829,454.382Z" transform="translate(-801.972 -409.776)"/></g><g transform="translate(44.335 285.723)"><path class="z" d="M753.462,400.308c-.351,8.625-1.05,15.194-6.911,19.516-6.715,4.952-15.827,3.894-22.908,8.065-4.208,2.479-10.348,9.164-12.64,13.167l55.3-1.145.321-16.369.7-17.6Z" transform="translate(-710.105 -400.308)"/><path class="q" d="M757.116,430.085c-5.614.233-8.287-2.882-9.3-7.144a15.154,15.154,0,0,1-1.261,1.048c-6.715,4.953-15.827,3.894-22.908,8.066-4.208,2.48-10.348,9.164-12.64,13.167l55.3-1.145.313-16.014A34.654,34.654,0,0,1,757.116,430.085Z" transform="translate(-710.105 -404.474)"/><path class="l" d="M764.661,453.231H713.756a3.874,3.874,0,0,1-3.857-3.869h0a3.874,3.874,0,0,1,3.857-3.869h50.906a3.874,3.874,0,0,1,3.857,3.869h0A3.874,3.874,0,0,1,764.661,453.231Z" transform="translate(-709.899 -408.625)"/></g><g transform="translate(78.813 24.027)"><rect class="y" width="76.788" height="52.103" rx="23.794" transform="matrix(0.056, -0.998, 0.998, 0.056, 8.676, 145.783)"/><g transform="translate(7.343 105.746)"><path class="v" d="M816.838,373.92c-7.135.388-9.558.338-14.255.711l-2.9-80.363c-1.517-23.518-2.88-59.582-1.9-73.321l25.964-9.239c.5,6.793-.2,22.046-1.266,38.722Z" transform="translate(-768.066 -209.641)"/><path class="v" d="M761.32,373.583c.118-30.326.646-145.525,3.719-164.409l24.417,15.679c.027,12.427-9.535,100.169-14.027,148.73Z" transform="translate(-761.32 -209.174)"/></g><g transform="translate(8.489 105.746)"><path class="s" d="M821.739,265.475H798.2c-.714-17.893-1.043-35.758-.416-44.528l25.964-9.239c.5,6.793-.2,22.046-1.266,38.722Z" transform="translate(-769.213 -209.641)"/><path class="s" d="M762.73,265.009c.551-26.15,1.366-48.419,2.572-55.835l28.9,15.72c.011,4.695-5.834,20.1-7.77,40.114Z" transform="translate(-762.73 -209.174)"/></g><g transform="translate(5.093)"><path class="aa" d="M802.863,79.572c-.44,2.337.974,9.461,1.986,12.509,1.93,5.809,6.124,9.948,8.6,12.5-1.534,2.116-11.855,2.281-14.381,2.928a11.374,11.374,0,0,1-7.631-.741c-.642-.305-1.255-.671-1.866-1.036l-2.25-1.344c3.25-5.616,6.027-11.829,5.157-18.265,1.623-.3,3.919-.989,5.541-1.292a9.433,9.433,0,0,1,2.13-.233C801.282,84.645,801.743,79.765,802.863,79.572Z" transform="translate(-763.924 -79.572)"/><path class="y" d="M792.673,94.831c6.379-2.138,11.06-6.827,10.9-15.033,0-.007,0-.012,0-.02-.921.869-1.4,4.9-2.431,4.856a9.439,9.439,0,0,0-2.13.233c-1.622.3-3.918.989-5.541,1.292A20.72,20.72,0,0,1,792.673,94.831Z" transform="translate(-764.924 -79.61)"/><path class="y" d="M793.656,92.184a18.877,18.877,0,0,0,0-4.93c1.622-.3,3.918-.989,5.541-1.292a9.433,9.433,0,0,1,2.13-.233c.019,0,.039,0,.059,0A19.667,19.667,0,0,1,793.656,92.184Z" transform="translate(-765.107 -80.704)"/><path class="s" d="M758.828,156.281c.177,3.408.42,6.811.711,10.21.2,2.281.4,4.554.711,6.815.682,3.629,1.522,7.231,2.324,10.834.355,1.372.715,2.741,1.061,4.113.434,1.721.8,3.475,1.228,5.208a5.875,5.875,0,0,0,.762,1.049,5.26,5.26,0,0,0,.482.469,6.993,6.993,0,0,0,2.217,1.061q1.341.487,2.721.849a42.419,42.419,0,0,0,7.429,1.09c2.636.211,5.28.313,7.924.337q2.026.018,4.053-.019c3.868-.069,7.73-.271,11.558-.51.78-.048,10.849-1.176,14.262-1.58.383-.045.682-.082.877-.107l.019,0,.069-.01a1.286,1.286,0,0,0,.163-.024c.25-3.588.765-7.707,1.44-12.106.528-3.443,1.153-7.058,1.821-10.724q.261-1.439.533-2.885l.007-.038c1.256-6.735,2.615-13.538,3.748-19.677.4-2.173.778-4.262,1.109-6.236.056-.327.11-.653.163-.973.007-.049.016-.1.024-.148,1.179-7.071,13.031-14.226,10.783-21.144-3.51-10.8-9.829-10.8-18.019-13.616-.521-.18-19.56-3.168-28.111-2.64-6.359.392-12.77-.049-18.9,1.94-7.525,2.444-10.91,8.274-11.977,15.955A171.189,171.189,0,0,0,758.828,156.281Z" transform="translate(-758.553 -84.403)"/></g><path class="s" d="M760.781,267.613l0-.245q.021-.956.042-1.905c0-.16.006-.32.011-.479q.023-1.1.049-2.2c0-.044,0-.088,0-.132q.023-1.024.047-2.037c0-.149.007-.3.011-.448q.026-1.081.052-2.151l0-.059q.024-1.017.051-2.021c0-.172.008-.344.013-.516q.026-1,.052-1.983l0-.07c.019-.684.037-1.361.056-2.036,0-.16.01-.319.014-.479.013-.459.026-.912.039-1.366l.543-15.651c.013-.307.026-.614.039-.916.006-.148.012-.3.019-.441.024-.537.047-1.068.071-1.59,0-.044,0-.087.007-.132q.033-.712.066-1.4c.007-.151.015-.3.022-.449.023-.47.046-.934.069-1.39l0-.1c.025-.484.05-.957.076-1.425.007-.13.015-.259.021-.388q.033-.6.068-1.186c0-.073.008-.148.012-.22.018-.3.036-.587.054-.877.37.1.741.21,1.109.319,10.419,3.061,20.357,7.715,31,10.016,7.047,1.522,14.272,1.7,20.728-.9-.257,6-.64,12.777-1.087,19.811L815,380.54a72.839,72.839,0,0,1-24.741.46l.986-84.594c-.548-8.507-1.077-18.655-1.482-28.793h0c0-.1-.008-.208-.012-.312-.015-.382-.03-.764-.045-1.145-.006-.162-.012-.323-.019-.485q-.021-.562-.042-1.124c-.006-.146-.012-.293-.016-.44q-.057-1.545-.111-3.081l-.011-.348q-.021-.589-.04-1.175-.007-.231-.015-.461-.02-.584-.038-1.167c0-.119-.007-.239-.011-.359q-.024-.765-.047-1.526c0-.041,0-.082,0-.122q-.017-.59-.034-1.174a21.582,21.582,0,0,1-2.932-.441c-.768,4.141-1.447,8.615-1.905,13.355-2.9,29.963-4.994,84.907-7.832,114.674-4.521-1.015-20.058.273-24.337-1.408C751.775,380.662,760.088,300.48,760.781,267.613Z" transform="translate(-752.292 -106.032)"/><path class="ab" d="M841.488,156.378q.171-1.934.309-3.87c.123.227.244.454.359.683C841.96,154.133,841.734,155.208,841.488,156.378Z" transform="translate(-768.945 -92.998)"/><path class="s" d="M759.443,207.032l19.527.122a4.275,4.275,0,0,1,1.668.384c4.563,1.981,23.041.231,33.036.91a4.088,4.088,0,0,0,4.342-3.848c.008-.127.016-.255.024-.381a303,303,0,0,1,5.914-46.333q.834-5.225,1.9-10.417a4.146,4.146,0,0,0-.834-3.441,28.822,28.822,0,0,1-5.338-9.812,33.583,33.583,0,0,1-.852-12.285,25.585,25.585,0,0,1,1.03-5.589,4.081,4.081,0,0,0-2.212-4.949l-.26-.117-.127-.057c-.5-.226-1-.437-1.478-.642a32.206,32.206,0,0,0-9.756-2.223q-1.011-.087-2.028-.136c-.145,0-.291,0-.438-.007,0,.023.008.046.011.068l-1.25-.038a4.088,4.088,0,0,0-3.968,2.7l-7.641,21.2a4.085,4.085,0,0,1-7.923-1.157l-1.028-17.777a4.093,4.093,0,0,0-4.1-3.863c-.115,0-.233-.006-.348-.016a23.254,23.254,0,0,0-4.783.037l-.471,0-.008.056c.053-.358-8.053,3.061-8.863,3.687a20.316,20.316,0,0,0-5.044,5.623c-3.5,6.044-1.678,16.249-1.788,23.122q-.49,30.5-.982,61.006A4.094,4.094,0,0,0,759.443,207.032Z" transform="translate(-752.869 -84.844)"/></g><path class="aa" d="M811.282,106.956a15.948,15.948,0,0,0-5.146,4.413,77.053,77.053,0,0,1-8.585,10.743c-4.794,4.672-17.715,6.818-16.583-1.451a32.968,32.968,0,0,1,2.314-6.19c1.74-3.515,3.206-6.783,5.206-10.156C794.939,101.37,805.5,102.839,811.282,106.956Z" transform="translate(-678.819 -59.815)"/><path class="q" d="M816.065,105.373c-5.857,5.289-8.371,31.608-9.263,42.117a597.86,597.86,0,0,0,8.008,160.041H843.6l2.344-190.7C840.376,109.486,825.505,107.176,816.065,105.373Z" transform="translate(-683.258 -60.295)"/><path class="q" d="M783.281,115.07c.787-1.59,1.52-3.127,2.27-4.649a17.882,17.882,0,0,0,9.159,2.711c5.727.038,10.548-3.2,14.451-7.113a8.339,8.339,0,0,0,2.121,1.536c-.693.924-3.878,4.445-5.014,6.031a67.328,67.328,0,0,1-8.457,9.586c-4.794,4.672-17.976,6.358-16.844-1.911A32.976,32.976,0,0,1,783.281,115.07Z" transform="translate(-678.82 -60.413)"/><path class="ac" d="M780.429,107.826" transform="translate(-678.732 -60.746)"/><path class="ac" d="M779.165,128.374" transform="translate(-678.496 -64.529)"/><path class="ac" d="M755.328,126.235" transform="translate(-674.046 -64.135)"/><g transform="translate(130.912 56.885)"><g transform="translate(0 101.932)"><path class="aa" d="M843.635,250.757s-.088.15-.255.423c0,.017-.009.009-.009.009-.589.987-2.162,3.57-4.033,6.505-.36.573-.738,1.164-1.125,1.754a46.521,46.521,0,0,0-9.006.15c.1-.159.176-.282.229-.37-.062.088-.15.211-.255.37a21.871,21.871,0,0,0-5.852,1.578c1.652-2.292,3.278-4.249,3.479-4.479-.2.2-2.293,2.38-4.56,4.382a25,25,0,0,1-3.919,2.989c-.553.123-1.1.255-1.652.406a.6.6,0,0,1-.211-.15c-.651-.8,1.555-3.729,4.121-6.638,2.988-3.393,6.467-6.779,6.467-6.779s-8.427.7-8.673-1.022c-.36-2.5,12.829-4.488,16.485-4.989.589-.08.931-.124.931-.124l5.826,4.452Z" transform="translate(-816.35 -244.771)"/><path class="aa" d="M829.706,264.213a2.835,2.835,0,0,0,2.62,2.2,5.684,5.684,0,0,0,3.464-1.076,12.111,12.111,0,0,0,4.942-6.436c.572-1.78.6-4.013-.829-5.216-1.206-1.017-2.981-.908-4.523-.59-3.678.76-10.552,3.073-11.908,7.126C822.305,263.7,827.685,268.188,829.706,264.213Z" transform="translate(-817.649 -246.263)"/></g><path class="aa" d="M869.943,196.1c-.14.723-.307,1.454-.518,2.177-.053.212-.114.423-.185.635-.088.317-.185.626-.3.943-.088.282-.185.574-.29.855-.035.088-.07.185-.1.282-.132.352-.273.7-.422,1.049-.333.811-.7,1.622-1.1,2.433a64.583,64.583,0,0,1-9.947,14.157c-1.257,1.4-2.557,2.75-3.866,4.037-2.012,1.992-4.05,3.844-6.036,5.519,0,.017-.009.009-.009.009-.729.626-1.458,1.225-2.17,1.8-.8-.053-1.477-.115-2.057-.185A4.618,4.618,0,0,1,840,228.7a2.241,2.241,0,0,1-.246-.309c-.659-.96-.914-2.556-1.74-5.289.229-.4.448-.794.651-1.2a62.75,62.75,0,0,0,5.3-13.734c.1-.388.2-.785.3-1.181s.194-.794.272-1.19c.378-1.648.7-3.332.966-5.033.053-.335.106-.67.15-1.005.1-.679.176-1.357.255-2.036.071-.547.133-1.093.177-1.649a.671.671,0,0,0,.008-.123c.036-.335.071-.67.088-1.005.036-.45.071-.9.1-1.349.018-.193.027-.379.035-.573v-.009a2.115,2.115,0,0,0,.009-.237q.052-.913.079-1.825c.027-.758.036-1.525.036-2.283,0-11.125-2.328-22.179-7.083-31.251-6.344-12.1-1.01-36.169,12.39-37.571,6.151,7.14,8.875,13.258,12.249,22.065a108.129,108.129,0,0,1,4.517,15.63C871.244,170.187,872.377,183.375,869.943,196.1Z" transform="translate(-820.147 -119.843)"/><path class="q" d="M869.943,196.1c-.14.723-.307,1.454-.518,2.177-.053.212-.114.423-.185.635-.088.317-.185.626-.3.943-.088.282-.185.574-.29.855-.035.088-.07.185-.1.282-.132.352-.273.7-.422,1.049-.333.811-.7,1.622-1.1,2.433a53.142,53.142,0,0,1-13.9,3.6,40.941,40.941,0,0,1-9.164.1c.1-.388.2-.785.3-1.181s.185-.785.272-1.19c.378-1.648.7-3.332.966-5.033.044-.335.1-.67.15-1.005.1-.679.176-1.357.255-2.036.071-.547.124-1.1.177-1.649a.671.671,0,0,0,.008-.123c.036-.335.062-.67.088-1.005.036-.45.071-.9.1-1.349.018-.193.027-.379.035-.573v-.009a2.115,2.115,0,0,0,.009-.237q.052-.913.079-1.825c.027-.767.036-1.525.036-2.283,0-11.125-2.328-22.179-7.083-31.251-6.344-12.1-1.01-36.169,12.39-37.571,6.151,7.14,8.875,13.258,12.249,22.065a108.129,108.129,0,0,1,4.517,15.63C871.244,170.187,872.377,183.375,869.943,196.1Z" transform="translate(-820.147 -119.843)"/></g><g transform="translate(105.959 6.264)"><path class="aa" d="M786.5,77.853c0,.109,0,.221.009.333a.48.48,0,0,0,0,.077,2.568,2.568,0,0,0,.014.266c0,.045,0,.094.009.14,0,.027,0,.054.009.081.009.086.018.171.031.256a.472.472,0,0,0,.009.077c.018.122.036.247.059.37s.054.256.081.387c.014.045.023.09.036.135a.506.506,0,0,0,.022.082c.027.108.058.211.089.319.081.257.171.513.274.761.027.058.049.117.076.175a8.422,8.422,0,0,0,.866,1.494c.072.1.148.2.224.293.041.054.081.1.125.157.072.081.144.166.215.247.18.2.372.387.57.567.094.086.188.166.287.247a7.908,7.908,0,0,0,2.324,1.341c.081.027.162.059.242.081.058.023.116.041.175.059l.094.027.089.027c.094.027.189.05.283.073a7.8,7.8,0,0,0,1.758.215c.13,0,.26,0,.39,0a7.9,7.9,0,0,0,4.019-1.3A8.275,8.275,0,0,0,802.588,78l.013-1.94.054-5.711.014-1.786.023-2.467c0-.135,0-.275,0-.406,0-.067-.009-.135-.014-.2s0-.109-.009-.157a1.55,1.55,0,0,0-.018-.157v-.041l-.013-.095c0-.041-.01-.077-.014-.113s0-.049-.009-.072c-.009-.054-.018-.113-.027-.166s-.014-.095-.022-.144a.476.476,0,0,0-.019-.081c-.018-.113-.04-.22-.067-.329-.014-.058-.027-.122-.046-.18s-.027-.113-.045-.166-.031-.109-.045-.162v0l-.054-.162-.054-.162c-.018-.054-.036-.108-.059-.162-.041-.109-.081-.216-.125-.32-.009-.022-.019-.04-.027-.063-.037-.086-.076-.171-.117-.256-.009-.023-.018-.041-.027-.059-.041-.091-.085-.18-.13-.266-.009-.013-.013-.027-.023-.04a7.964,7.964,0,0,0-14.548.85,8.329,8.329,0,0,0-.57,2.962Z" transform="translate(-785.825 -57.803)"/><path class="aa" d="M813.086,78.462a4.087,4.087,0,1,1-4.049-4.211A4.129,4.129,0,0,1,813.086,78.462Z" transform="translate(-789.262 -60.83)"/><path class="y" d="M786.452,71.739l3.136.107a.754.754,0,0,0,.828-.656h0a.755.755,0,0,0-.782-.711l-3.136-.106a.754.754,0,0,0-.829.656h0A.756.756,0,0,0,786.452,71.739Z" transform="translate(-785.67 -60.116)"/><path class="y" d="M796.675,71.739l3.136.107a.755.755,0,0,0,.829-.656h0a.756.756,0,0,0-.782-.711l-3.136-.106a.753.753,0,0,0-.828.656h0A.755.755,0,0,0,796.675,71.739Z" transform="translate(-787.578 -60.116)"/><path class="a" d="M791.593,80.317a.612.612,0,0,0-.017.139c0,.614.9,1.112,2.009,1.112s2.009-.5,2.009-1.112a.656.656,0,0,0-.017-.139Z" transform="translate(-786.773 -61.947)"/><g transform="translate(7.088 12.466)"><path class="a" d="M794.385,73.827c0,.325.689.606,1.655.72a8.361,8.361,0,0,0,.913.055,7.969,7.969,0,0,0,1.061-.062c.885-.115,1.5-.377,1.5-.685,0-.286-.538-.539-1.326-.673a7.725,7.725,0,0,0-1.242-.1,7.94,7.94,0,0,0-1.13.071C794.965,73.271,794.383,73.527,794.385,73.827Z" transform="translate(-794.385 -73.081)"/></g><g transform="translate(7.088 12.466)"><path class="y" d="M795.812,73.152a7.94,7.94,0,0,1,1.13-.071,7.725,7.725,0,0,1,1.242.1c.059.011.114.022.17.033q-.637.706-1.3,1.384l-.1,0a8.361,8.361,0,0,1-.913-.055c-.966-.114-1.653-.4-1.655-.72C794.383,73.527,794.965,73.271,795.812,73.152Z" transform="translate(-794.385 -73.081)"/></g><g transform="translate(0.671 12.44)"><path class="a" d="M786.495,73.872c0,.352.642.655,1.548.775a6.562,6.562,0,0,0,.856.055,6.407,6.407,0,0,0,.994-.073c.83-.129,1.408-.417,1.407-.751,0-.312-.5-.583-1.239-.725a6.26,6.26,0,0,0-1.164-.1,6.434,6.434,0,0,0-1.059.082C787.042,73.265,786.494,73.547,786.495,73.872Z" transform="translate(-786.495 -73.049)"/></g><g transform="translate(0.671 12.44)"><path class="y" d="M787.837,73.131a6.427,6.427,0,0,1,1.059-.082,6.26,6.26,0,0,1,1.164.1l.049.011q-.55.748-1.048,1.532c-.055,0-.107.006-.162.006a6.562,6.562,0,0,1-.856-.055c-.9-.12-1.547-.423-1.548-.775C786.494,73.547,787.042,73.265,787.837,73.131Z" transform="translate(-786.495 -73.049)"/></g><path class="y" d="M786.766,80.954a4.5,4.5,0,0,1,1.086-1.171,7.643,7.643,0,0,1,5.486-1.7,6.346,6.346,0,0,1,4.745,3.094,10.751,10.751,0,0,1,1.21-3.314,6.983,6.983,0,0,1,3.35-2.149c0,.276-.041,3.638-.041,3.638l-.013,1.94a8.274,8.274,0,0,1-3.706,6.837,7.914,7.914,0,0,1-4.019,1.3c-.13,0-.26,0-.39,0a7.8,7.8,0,0,1-1.758-.215c-.094-.023-.189-.046-.283-.073l-.089-.027-.094-.027c-.058-.018-.116-.036-.175-.058-.08-.023-.162-.055-.242-.082a7.909,7.909,0,0,1-2.324-1.341c-.1-.081-.194-.162-.287-.247-.2-.18-.39-.369-.57-.567-.072-.081-.143-.166-.216-.247-.045-.054-.085-.1-.125-.157-.076-.095-.153-.194-.224-.293a8.414,8.414,0,0,1-.866-1.494c-.027-.059-.049-.117-.076-.175-.1-.248-.193-.5-.274-.761-.031-.108-.063-.211-.089-.319a.6.6,0,0,1-.023-.082c-.013-.045-.022-.09-.036-.135-.027-.131-.054-.256-.081-.387s-.041-.248-.059-.37a.486.486,0,0,1-.009-.077c-.013-.085-.022-.171-.031-.256,0-.027,0-.054-.009-.081,0-.046,0-.095-.009-.14a2.375,2.375,0,0,1-.014-.266.473.473,0,0,1,0-.077A3.08,3.08,0,0,1,786.766,80.954Z" transform="translate(-785.826 -61.1)"/><path class="a" d="M795,79.877a1.749,1.749,0,0,1-3.492,0Z" transform="translate(-786.76 -61.866)"/></g><path class="p" d="M833.325,141.751A64.281,64.281,0,0,0,843.5,173.625a27.746,27.746,0,0,1-13.454-16.56" transform="translate(-687.997 -66.991)"/><path class="p" d="M845.643,217.522a58.893,58.893,0,0,0,2.4-23.264c-.734-7.486-2.864-15.312-.116-22.313" transform="translate(-690.908 -72.549)"/><path class="p" d="M848.753,212.825c5.034-1.588,9.6-4.479,14.146-7.172s8.584-6.521,10.634-11.4" transform="translate(-691.489 -76.655)"/><g transform="translate(0 53.401)"><g transform="translate(0 73.17)"><path class="aa" d="M665,205.776c-.743,1.563,6.636,5.7,6.636,5.7s-16.45,2.975-16.245,5.214a.54.54,0,0,0,.09.244c.537.184,1.07.379,1.6.587,3.487.309,11.162-1.387,11.162-1.387s-2.582.742-5.4,1.784a21.964,21.964,0,0,1,5.73,1.962c.358-.143.564-.228.564-.228s-.2.088-.534.242a46.582,46.582,0,0,1,7.555,4.909c4.878-2.081,9.338-4.181,9.338-4.181l-3.19-9.351S666.251,203.14,665,205.776Z" transform="translate(-655.386 -205.25)"/><path class="aa" d="M667.671,224a2.846,2.846,0,0,0,.95,3.295,5.686,5.686,0,0,0,3.474,1.044,12.058,12.058,0,0,0,7.679-2.58c1.464-1.158,2.726-3,2.211-4.794-.436-1.518-1.97-2.421-3.428-3.02-3.474-1.426-10.466-3.35-13.846-.745C661.81,219.442,663.785,226.172,667.671,224Z" transform="translate(-656.868 -207.214)"/></g><path class="aa" d="M754.39,116.939c1.139,9.364,0,15.967-2.1,25.162a107.116,107.116,0,0,1-4.934,15.5c-4.758,12.039-11.142,23.62-20.229,32.818s-26.683,13.119-39.548,14.189c-4.8-3.747-3.743-3.795-1.967-9.629,19.233-9.613,35.309-32.357,37.608-53.791C724.682,127.6,742.489,110.607,754.39,116.939Z" transform="translate(-660.751 -115.574)"/><path class="q" d="M723.439,195.741c-7.412-1.536-15.3-4.858-21.2-9.834,12.957-11.463,22.625-28.464,24.369-44.717,1.458-13.591,19.265-30.583,31.166-24.252,1.14,9.363,0,15.967-2.1,25.162a107.125,107.125,0,0,1-4.934,15.5c-4.758,12.039-11.141,23.62-20.229,32.818A32.975,32.975,0,0,1,723.439,195.741Z" transform="translate(-664.133 -115.574)"/></g><path class="p" d="M711,193.971c5.061,1.5,10.462,1.653,15.73,1.958s10.749-.612,15.162-3.516" transform="translate(-665.769 -76.316)"/><path class="p" d="M814.279,204.823a49.716,49.716,0,0,0,21.466,18.426" transform="translate(-685.052 -78.601)"/><path class="q" d="M776.084,106.453c-10.6,15.749-9.2,33.746-10.91,52.669-4.48,49.452.561,99.3-1.867,148.9H746.088c-4.012-37.612-7.316-75.219-6.361-113.033.53-20.986-.8-41.418,6.188-61.2,2.672-7.559,3.886-13.267,9.666-18.806S766.711,107.628,776.084,106.453Z" transform="translate(-671.102 -60.493)"/><path class="p" d="M743.971,224.006a71.073,71.073,0,0,0,12.562-22.422" transform="translate(-671.925 -78.005)"/><path class="ad" d="M791.491,77.069s1.172,1.028,3.222-.147" transform="translate(-680.797 -55.058)"/><path class="y" d="M799.644,66.745c.159-1.789-.013-3.814-1.351-5.007A5.119,5.119,0,0,0,794.2,60.8c-1.431.189-2.812.677-4.246.841A9.613,9.613,0,0,1,782.91,59.6a5.443,5.443,0,0,1-2.263-4.05c.007-1.6,1.394-3.22,2.979-3.026,1.27.155,2.413,1.35,3.635.975,1.02-.313,1.413-1.523,2.123-2.32a3.291,3.291,0,0,1,3.915-.683,10.032,10.032,0,0,1,2.489,2.612c.787.92,1.987,1.727,3.138,1.358a9.418,9.418,0,0,0,1.3-.7,3.088,3.088,0,0,1,4.471,2.656c.038,1.07-.476,2.119-.35,3.183.149,1.26,1.139,2.226,1.756,3.333s.676,2.828-.483,3.335c-.724.317-1.621-.007-2.321.361a2.655,2.655,0,0,0-1.052,1.977q-.378,1.918-.755,3.837c-.4,2.028-2.586,2.108-2.725-.066a8.348,8.348,0,0,1,.515-2A34.4,34.4,0,0,0,799.644,66.745Z" transform="translate(-678.773 -50.125)"/><path class="ae" d="M820.159,128.675c.008-5.963.243-10.156-.462-16.112-.469-2.837-1.644-5.673-4.085-6.807" transform="translate(-685.301 -60.365)"/><path class="ae" d="M825.02,153.7V138.386a4.554,4.554,0,0,0-3.522-4.475" transform="translate(-686.4 -65.548)"/><path class="ae" d="M816.1,153.392V138.268a4.5,4.5,0,0,1,3.522-4.422" transform="translate(-685.391 -65.536)"/><path class="y" d="M815.757,161.117h0a1.769,1.769,0,0,1-1.762-1.766h0a1.769,1.769,0,0,1,1.762-1.766h0a1.769,1.769,0,0,1,1.761,1.766h0A1.769,1.769,0,0,1,815.757,161.117Z" transform="translate(-684.999 -69.905)"/><path class="y" d="M826.817,157.958h0a1.776,1.776,0,0,1,0,2.5h0a1.762,1.762,0,0,1-2.49,0h0a1.776,1.776,0,0,1,0-2.5h0A1.761,1.761,0,0,1,826.817,157.958Z" transform="translate(-686.832 -69.879)"/><path class="y" d="M762.275,161.849h0a4.6,4.6,0,0,1-4.351-4.812h0a4.6,4.6,0,0,1,4.8-4.365h0a4.6,4.6,0,0,1,4.352,4.812h0A4.6,4.6,0,0,1,762.275,161.849Z" transform="translate(-674.529 -69)"/><path class="ae" d="M778.393,107.359s-9.811,2.758-13.649,39.639" transform="translate(-675.804 -60.66)"/><path class="y" d="M837.8,203.482v.009c-.008.194-.017.379-.035.573-.026.45-.061.9-.1,1.349-.026.335-.052.67-.088,1.005a.671.671,0,0,1-.008.123c-.044.556-.106,1.1-.177,1.649-.079.679-.158,1.357-.255,2.036-.053.335-.106.671-.15,1.005-.263,1.7-.588,3.385-.966,5.033-.088.405-.176.794-.272,1.19s-.194.793-.3,1.181a62.757,62.757,0,0,1-5.3,13.734c-3.656.5-16.845,2.494-16.485,4.989.246,1.718,8.673,1.022,8.673,1.022s-3.479,3.385-6.467,6.779a4.53,4.53,0,0,1-3.049-2.547l-21.308-47.048a4.614,4.614,0,0,1,2.284-6.1l25.271-11.531.694-.317,1.055-.476a4.585,4.585,0,0,1,4.367.309,4.2,4.2,0,0,1,.7.555,4.425,4.425,0,0,1,1.01,1.429Z" transform="translate(-680.725 -73.429)"/><path class="z" d="M2.1,0,15.039-.017a2.1,2.1,0,0,1,2.1,2.106l0,2.392a2.111,2.111,0,0,1-2.106,2.111L2.1,6.606A2.1,2.1,0,0,1,0,4.5L0,2.108A2.111,2.111,0,0,1,2.1,0Z" transform="translate(117.805 111.041) rotate(-21.382)"/><path class="p" d="M739.849,144.628s-3.514,17.043.586,22.919l-.586,11.754" transform="translate(-670.894 -67.521)"/></g></g></g><g transform="translate(1084.286 413)"><g class="af" transform="translate(0)"><path class="ag" d="M183.555,135.256c-2.033,2.84-5.717,11.015-7.336,21.289-1.862,11.815-4.337,31.926-4.337,31.926a57.422,57.422,0,0,1-6.8,17.459l20.241,2.725,6.067-59.032Z" transform="translate(-146.474 -48.818)"/><path class="ah" d="M183.555,135.256c-2.033,2.84-5.717,11.015-7.336,21.289-1.862,11.815-4.337,31.926-4.337,31.926a57.422,57.422,0,0,1-6.8,17.459l20.241,2.725,6.067-59.032Z" transform="translate(-146.474 -48.818)"/><path class="ai" d="M197.9,269.669a1.192,1.192,0,0,0-.2.739c.1.645.947.807,1.6.79a29.017,29.017,0,0,0,5.76-.73,3.918,3.918,0,0,0-7.163-.8Z" transform="translate(-184.491 -73.676)"/><path class="aj" d="M204.625,229.565l-53.585-10.644-7.174,35.169,54.076,8.545Z" transform="translate(-143.865 -63.111)"/><path class="ag" d="M152.645,220.113l-6.381,33.459,51.957,8.051,5.588-30.949Z" transform="translate(-144.841 -63.443)"/><path class="ai" d="M193.725,274.225c-1.564,1.587-5.8.353-7.824.066l-4.117-.582c-1.373-.194-2.874-.457-3.767-1.515-1.436-1.7-1.137-5.271-1.387-7.4l2.331-.572.869,2.1,2.532-.615,1.671,2.425s1.345-1.744,2.618-1.512l2.207,2.655c1.9.671,4.879-.214,5.363,2.3A2.806,2.806,0,0,1,193.725,274.225Z" transform="translate(-158.018 -72.624)"/><path class="ak" d="M104.453,65.659c-1.188,5.552-5.117,19.263-5.117,19.263l-3.5-3.977,1.754-17.139Z" transform="translate(2.471 -41.767)"/><path class="al" d="M103.5,437.2l-1.561-8.329-9.511,1.384.513,7.816a7.641,7.641,0,0,0,6.78,3.586C104.714,441.735,103.5,437.2,103.5,437.2Z" transform="translate(6.051 -98.51)"/><path class="al" d="M160.715,431.523l.309,6.772-1.82,4.41-7.85-2.494-1.713-5.024-.574-7.806Z" transform="translate(-98.734 -98.132)"/><path class="al" d="M150.034,445.514c2.435-1.214,10.172-3.545,15.583-7.822a2.629,2.629,0,0,1,2.115-.51l.417.076a6.941,6.941,0,0,0,4.7,4.912c2.689.863,6.712-1.387,6.712-1.387l.728,9.6H149.307a1.79,1.79,0,0,1-.828-1S146.929,447.062,150.034,445.514Z" transform="translate(-119.008 -100.619)"/><path class="am" d="M142.427,226.27s4.782,60.9,5.252,66.439S154,380.684,154,380.684c-7.336,2.862-15.233.661-15.233.661l-12.814-83.1-8.437-44.32-2.842-.787s-.966,53.957-.985,53.683-1.217,72.451-1.217,72.451c-7.1,3.58-16.975-.291-16.975-.291s-3.073-70.555-3.938-74.677-1.1-83.267-1.1-83.267Z" transform="translate(-45.585 -45.509)"/><path class="an" d="M157.413,247.3c-12.981,3.514-37.006,6.606-53.314-2.79-.028-4.942-.049-9.354-.063-12.826l52.507,4.555C156.782,239.274,157.082,243.079,157.413,247.3Z" transform="translate(-60.123 -66.71)"/><g transform="translate(46.502 152.616)"><path class="ao" d="M108.4,219.838c.406-1.49.735-2.427.735-2.427l46.359,1.9s.163.945.416,2.56c-.229.317-.416.556-.416.556C134.806,230.856,119.823,230.864,108.4,219.838Z" transform="translate(-108.399 -217.411)"/></g><path class="ag" d="M159.012,165.916l-8.126,29.8,4.131,27.839s-36.7,13.923-59.731-1.078l4.73-62.212Z" transform="translate(-54.977 -52.666)"/><g transform="translate(42.921 78.531)"><g transform="translate(0)"><path class="ag" d="M92.015,129.19c-4.919,2.067-8.916,7.866-2.848,22.163l2.112,44.006s-2.356,6.781-.87,8.219c11.43,11.064,26.423,11.064,47.134,2.626a9.588,9.588,0,0,0,1.232-1.944c.759-2.99-1.77-11.338-1.77-11.338l11.574-35.916s11.41-15.5,3.856-21.12C140.55,127.042,111.478,121.012,92.015,129.19Z" transform="translate(-86.1 -125.326)"/></g></g><path class="ap" d="M96.187,177.509a71.288,71.288,0,0,1,12.473,21.137,87.335,87.335,0,0,0,7.786-4.572c-1.555-2.921-4.322-7.426-4.446-7.278,0,0,10.807-41.278,13.073-49.829-.72-.983-1.65-1.715-2.37-2.7a6.319,6.319,0,0,1-4.366,1.971c-1.3-.306-1.361-4.369-1.361-4.369l-.259-6.144c.013-.031.027-.063.041-.093.324-.025.928-.1,1.225-.118l20.092,2.222c-.072.238.734,1.91.588,2.379-1.164,3.419-4.915,8.338-5.667,8.457-.884.141-3.13-2.428-3.433-3.268-.462.415-1.252,1.66-1.714,2.075-.22,5.366.587,36.4.655,47.951,4.425-4.062,7.6-8.572,11.1-13.451q-4.528,12.078-9.054,24.155c7.827-9.166,20.162-33.92,27.988-43.086l-9.5,33.9,4.131,27.839s-36.7,13.923-59.731-1.078Z" transform="translate(-52.99 -46.432)"/><g transform="translate(71.073 46.75)"><g transform="translate(0)"><path class="ai" d="M111.952,121.622c1.95,1.124,5.978,1.71,8.166,1.763,3.252.088,1.944-1.81,3.03-2.1L133.7,96.976l-19.082,8.584-.044.807Z" transform="translate(-111.952 -96.976)"/></g></g><g transform="translate(72.378 46.75)"><g transform="translate(0)"><path class="aq" d="M115.962,114.058a19.172,19.172,0,0,0,5.858-1.7,40.092,40.092,0,0,0,5.2-2.843l5.439-12.535-19.082,8.584-.044.807-1.383,8.061C113.287,114.3,114.627,114.215,115.962,114.058Z" transform="translate(-111.952 -96.976)"/></g></g><path class="ar" d="M130.559,188.346l11.37-51.015L138.958,134,144,130.92l3.858,3.552-3.592,3.174s.385,39.694-.138,52.189l-7.763,8.6Z" transform="translate(-70.44 -48.442)"/><g transform="translate(63.552 71.911)"><g transform="translate(0)"><path class="ag" d="M137.781,121.1s-7.672,7.333-9.64,7.014-2.995-7.711-2.995-7.711-7.006,2.011-7.863,2.988,1.237,10.548,2.16,11.013c1.94.977,7.785-5.535,8.849-4.7s4.075,6.393,5.07,6.281,8.893-7.89,8.448-10.75S137.781,121.1,137.781,121.1Z" transform="translate(-117.082 -120.402)"/></g></g><path class="ai" d="M132.633,72.1s6.591-1.5,5.678,6.352-6.61,8.01-8.291,8.35c0,0-3.136,13.985-20.421,12.646s-14.451-14.7-14.325-23.557-.864-24.24,10.451-25.374C117.138,49.377,133.636,50.127,132.633,72.1Z" transform="translate(-32.421 -38.296)"/><path class="as" d="M113.428,50.521c9.751-.977,23.211-.569,26.3,13.276a11.884,11.884,0,0,1-6.057,5.781A6.046,6.046,0,0,1,129.75,63.2a6.985,6.985,0,0,1-5.4.242,6.884,6.884,0,0,1-3.9-3.686,35.636,35.636,0,0,1-7.938,3.485,13.064,13.064,0,0,1-8.589-.387c-.12-.054-.238-.114-.356-.174C104.484,56.545,106.917,51.173,113.428,50.521Z" transform="translate(-40.651 -38.296)"/><g transform="translate(71.611 37.094)"><path class="at" d="M136.459,93.109c.007-.081-.132-.156-.314-.3a1.882,1.882,0,0,1-.555-.74,2.132,2.132,0,0,1-.16-.6l0-.072,0-.036V91.3l0-.109c0-.017,0,.022,0,.017h0v-.042l0-.045a2.8,2.8,0,0,1,.049-.38,7.86,7.86,0,0,1,.656-1.75c1.207-2.615,1.959-4.842,1.677-4.971s-1.487,1.887-2.7,4.5a6.579,6.579,0,0,0-.661,2.076,3.224,3.224,0,0,0-.011.529l.01.147.016.108.008.053.013.069.03.136a2.5,2.5,0,0,0,.39.83,1.753,1.753,0,0,0,1.07.739C136.291,93.261,136.456,93.179,136.459,93.109Z" transform="translate(-134.436 -84.014)"/></g><g transform="translate(79.765 30.17)"><path class="ak" d="M118.108,76.715c.137.2.659.057,1.423-.1a12.012,12.012,0,0,1,1.323-.2c.247-.02.5-.039.77-.037.13,0,.275,0,.4.007.068,0,.117,0,.2.01l.239.019.188.022c.069.007.137.02.2.028.135.018.267.044.4.069.261.049.511.116.749.183a11.984,11.984,0,0,1,1.261.448c.36.148.667.283.892.353s.408.1.488.013.07-.252-.042-.489a3.127,3.127,0,0,0-.683-.864,5.737,5.737,0,0,0-3.333-1.433l-.239-.016c-.075-.005-.183-.005-.272-.007-.19,0-.354.007-.526.019a5.9,5.9,0,0,0-.964.158,5.222,5.222,0,0,0-1.507.627C118.286,76.022,117.978,76.536,118.108,76.715Z" transform="translate(-118.079 -74.72)"/></g><g transform="translate(62.77 29.063)"><path class="ak" d="M147.019,76.047c.161-.151-.043-.715-.723-1.354a5.251,5.251,0,0,0-1.361-.9,5.913,5.913,0,0,0-.916-.337c-.167-.045-.326-.086-.513-.118-.087-.015-.193-.035-.268-.044L143,73.263a5.739,5.739,0,0,0-3.545.776,3.125,3.125,0,0,0-.834.719c-.155.213-.195.375-.134.472s.236.113.481.08.561-.1.943-.177a11.988,11.988,0,0,1,1.324-.2c.246-.019.5-.039.77-.037.133,0,.268,0,.4.008.068,0,.137,0,.205.011l.19.014.237.027c.084.008.131.019.2.028.122.016.264.043.392.067.261.049.51.116.748.183a11.959,11.959,0,0,1,1.261.448C146.361,75.978,146.847,76.213,147.019,76.047Z" transform="translate(-138.46 -73.235)"/></g><path class="au" d="M112.8,95.475a4.637,4.637,0,1,0,4.843-4.413A4.631,4.631,0,0,0,112.8,95.475Z" transform="translate(-29.306 -48.717)"/><path class="av" d="M140.892,94.2a4.637,4.637,0,1,0,4.843-4.413A4.631,4.631,0,0,0,140.892,94.2Z" transform="translate(-80.847 -48.39)"/><path class="ak" d="M121.166,84.169a2.322,2.322,0,1,0,2.426-2.21A2.32,2.32,0,0,0,121.166,84.169Z" transform="translate(-39.803 -46.396)"/><path class="ak" d="M138.88,83.363a2.322,2.322,0,1,0,2.425-2.21A2.319,2.319,0,0,0,138.88,83.363Z" transform="translate(-72.241 -46.19)"/><g transform="translate(70.336 46.102)"><path class="aw" d="M137.271,96.106a18.186,18.186,0,0,1-11.051,1.346c.792,2.926,1.732,4.979,5.953,4.726A5.255,5.255,0,0,0,137.271,96.106Z" transform="translate(-126.22 -96.106)"/><path class="ax" d="M133.242,96.321a7.019,7.019,0,0,0-1.043.431,15.122,15.122,0,0,0-5.972,5.409,8.835,8.835,0,0,0,1.9.072A5.25,5.25,0,0,0,133.242,96.321Z" transform="translate(-122.176 -96.161)"/><path class="ag" d="M126.2,97.662a8.249,8.249,0,0,0,.392,1.34c.143.247,4.967,1.161,9.358-1.233a4.575,4.575,0,0,0,.007-1.663A22,22,0,0,1,126.2,97.662Z" transform="translate(-124.908 -96.106)"/></g><path class="ay" d="M102.622,83.707c.6,2.078-.252,4.269-1.091,6.265a3.391,3.391,0,0,1-1.057,1.581,1.175,1.175,0,0,1-1.679-.272c-.27-.56.129-1.191.441-1.73s.488-1.346-.036-1.683c-.244-.156-.564-.143-.82-.279-.558-.294-.554-1.088-.41-1.7a9.513,9.513,0,0,1,.937-2.432c.414-.748,1.068-1.514,1.925-1.5C101.727,81.971,102.373,82.848,102.622,83.707Z" transform="translate(2.519 -46.396)"/><path class="al" d="M86.112,441.279c3.742-3.525,7.07-.554,7.07-.554l1.422-.8c2.062,3.087,6.023,6.78,6.522,8.591.947,3.434-.735,7.433-6.28,7.433-5.407,0-10.615-3.3-11.2-5.979-.351-1.6.22-5.946.4-9.173Z" transform="translate(15.558 -101.236)"/><g transform="translate(46.816 230.915)"><path class="az" d="M90.711,323.671l-.252-1.322c2.795,9.756,6.7,22.928,7.394,22.964,1.109.057,12.2-1.717,12.681-3.175.217-.654,1.148-10.579,2.1-21.394,1.141,15.238,6.12,85.368,6.12,85.368-7.336,2.862-15.233.662-15.233.662Z" transform="translate(-56.991 -301.852)"/><path class="ba" d="M146.974,397.936l-.007-.156,0-.068c0-.075-.007-.163-.012-.275-.014-.31-.034-.759-.059-1.333q-.009-.2-.018-.414-.018-.392-.038-.846c0-.113-.01-.233-.016-.352-.029-.67-.063-1.427-.1-2.26-.006-.138-.013-.276-.019-.417q-.031-.713-.066-1.492v-.027q-.037-.828-.078-1.727c0-.1-.008-.191-.013-.287-.066-1.474-.139-3.079-.217-4.789-.007-.168-.015-.336-.022-.507-.134-2.923-.281-6.137-.439-9.512l-.008-.171c-.059-1.267-.119-2.557-.181-3.861l-.007-.131c-.509-10.8-1.092-22.629-1.6-31.621v-.033c-.127-2.248-.249-4.316-.363-6.148,2.258,1.631,6.088,4.213,7.642,4.162,2.27-.074,9.93-6.29,10.381-9.058.36-2.212,2.968-22.981,4-31.227-.263,14.562-.555,30.545-.566,30.4,0-.01,0,.09-.007.294l0,.134c-.016.83-.052,2.827-.1,5.65,0,.166-.005.335-.009.507-.017,1.03-.037,2.161-.057,3.377q-.01.608-.021,1.243c-.029,1.695-.06,3.533-.093,5.478,0,.243-.008.488-.013.734-.36,21.438-.913,55.035-.913,55.035a14.091,14.091,0,0,1-4.2,1.3q-.722.111-1.445.162c-.481.035-.961.052-1.435.054s-.946-.012-1.408-.038-.918-.065-1.362-.113-.877-.107-1.3-.171c-.629-.1-1.228-.211-1.784-.331-.371-.08-.723-.162-1.054-.245a26.8,26.8,0,0,1-2.986-.912Z" transform="translate(-143.709 -295.385)"/></g><g transform="translate(91.525 19.114)"><path class="ak" d="M110.5,74.574a10.3,10.3,0,0,0-3.454,6.388h-1.992v-7.6s-6.03-1.656-3.743-10.5,10.649,4.786,10.649,4.786Z" transform="translate(-100.796 -59.88)"/></g><path class="ak" d="M139.765,46.61a5.562,5.562,0,0,0-3.549-4.884,14.4,14.4,0,0,0-6.074-.736c-2.285.054-4.25.469-6.535.522a4.652,4.652,0,0,0-2.9-2.031,4.228,4.228,0,0,0-3.215,1.14,5.153,5.153,0,0,0-4.248-4.9,7.141,7.141,0,0,0-6.11,2.324,18.714,18.714,0,0,0-3.453,5.81,7.024,7.024,0,0,1,1.659-7.065,6.3,6.3,0,0,0-4.063,2.241,7.4,7.4,0,0,0-1.735,4.64,7.517,7.517,0,0,1,.552-5.561,6.861,6.861,0,0,1,4.4-3.212,8.761,8.761,0,0,0-9.973,2.394,11.682,11.682,0,0,0-2,10.763,14.333,14.333,0,0,0,7.208,8.493,16.324,16.324,0,0,0,10.744,1.275,16.679,16.679,0,0,0,6.912-3.409,11.207,11.207,0,0,0,6.08,3.551,10.283,10.283,0,0,0,6.769-.944c2.338,1.383,4.51,2.705,7.138,3.129s5.565-.349,7.036-2.613a6.907,6.907,0,0,0,.664-5.558A8.077,8.077,0,0,0,139.765,46.61Z" transform="translate(-37.443 -34.223)"/><path class="bb" d="M99.81,45.376c0-.065.006-.13.007-.194a55.787,55.787,0,0,0,43.53,5.16,7.761,7.761,0,0,1,1.986,3.343c.037.13.062.263.092.4a67.023,67.023,0,0,1-24.833,4.407,11.433,11.433,0,0,1-2.945-2.368,22.491,22.491,0,0,1-2.823,1.871,44.092,44.092,0,0,1-22.413-9.931,11.978,11.978,0,0,1,1.1-7.156,51.854,51.854,0,0,0,6.241,4.242C99.775,45.222,99.788,45.3,99.81,45.376Z" transform="translate(-37.73 -35.926)"/><g transform="translate(86.198 214.362)"><rect class="bc" width="61.231" height="40.941" rx="2.229" transform="translate(0 8.256)"/><g transform="translate(19.572)"><path class="bd" d="M77.156,294.05v-2.667H91.91v2.667h3.666v-3.059a3.273,3.273,0,0,0-3.272-3.266H76.762a3.273,3.273,0,0,0-3.272,3.266v3.059Z" transform="translate(-73.49 -287.725)"/></g><rect class="be" width="2.676" height="1.931" transform="translate(38.488 6.325)"/><rect class="be" width="2.676" height="1.931" transform="translate(20.067 6.325)"/><path class="bf" d="M48.931,298.807h57.9a1.662,1.662,0,0,1,1.663,1.661v23.783H47.961l-.693-23.783A1.662,1.662,0,0,1,48.931,298.807Z" transform="translate(-47.268 -290.551)"/></g><g transform="translate(106.108 140.371)"><path class="ai" d="M94.728,198.291c.443,4.665.625,23.927.625,23.927-.69,19.093-3.5,43.213-4.849,45.959-1.8,3.662-2.953,5.6-5.356,3.513s-4.2,2.231-5.869.138-4.421,2.482-5.24-.411,3.793-7.039,3.793-7.039-2.27-5.232,5.335-6.913c6.8-1.5-4.922-25.576-2.771-39.13.793-5-1.234-16.685-1.257-16.9C78.708,197.431,94.728,198.291,94.728,198.291Z" transform="translate(-73.942 -198.214)"/></g><path class="ag" d="M80.722,139.5c7.689,3.292,13.553,45.337,14.662,57.513s-1.709,39.3-1.709,39.3a22.094,22.094,0,0,1-15.812-.553l-1.556-42.6-6.735-34.832Z" transform="translate(35.137 -48.131)"/><rect class="bg" width="10.452" height="6.365" rx="0.947" transform="translate(108.566 243.389)"/></g></g></svg>