<svg xmlns="http://www.w3.org/2000/svg" width="13.696" height="15.504" viewBox="0 0 13.696 15.504"><defs><style>.a{fill:#524456;}</style></defs><path class="a" d="M10.853,0H2.843A2.846,2.846,0,0,0,0,2.843V5.169a.788.788,0,0,0,1.55,0V2.843A1.3,1.3,0,0,1,2.843,1.55h8.01a1.3,1.3,0,0,1,1.293,1.293v9.818a1.3,1.3,0,0,1-1.293,1.293H2.843A1.3,1.3,0,0,1,1.55,12.661V10.335a.775.775,0,1,0-1.55,0v2.326A2.846,2.846,0,0,0,2.843,15.5h8.01A2.846,2.846,0,0,0,13.7,12.661V2.843A2.846,2.846,0,0,0,10.853,0Z"/><path class="a" d="M0,18.835a.788.788,0,0,0,.788.788H7.3L5.519,21.387a.788.788,0,0,0,1.1,1.1l3.109-3.1a.789.789,0,0,0,0-1.1l-3.1-3.1a.788.788,0,0,0-1.1,1.1L7.3,18.06H.788A.788.788,0,0,0,0,18.835Z" transform="translate(0 -11.083)"/></svg>