<svg id="Group_5083" data-name="Group 5083" xmlns="http://www.w3.org/2000/svg" width="21.554" height="21.158" viewBox="0 0 21.554 21.158">
  <path id="Path_3031" data-name="Path 3031" d="M13.4,19.675l-.309.31H9.347V16.244l.31-.309,9.351-9.351.748-.748.17-.171V4.116A2.115,2.115,0,0,0,17.811,2H8.29L3,7.29V21.042a2.115,2.115,0,0,0,2.116,2.116H17.811a2.115,2.115,0,0,0,2.116-2.116v-7.9ZM4.587,8.347,9.347,3.587V8.347Zm8.062,10.579H10.405V16.683l9.351-9.351L22,9.576ZM24.244,7.332l-1.5,1.5L20.5,6.584l1.5-1.5a1.057,1.057,0,0,1,1.5,0l.748.748A1.057,1.057,0,0,1,24.244,7.332Z" transform="translate(-3 -2)" fill="#524456"/>
</svg>
