<svg xmlns="http://www.w3.org/2000/svg" width="14.381" height="17.757" viewBox="0 0 14.381 17.757"><defs><style>.a{fill:#524456;}</style></defs><g transform="translate(-0.004 0.021)"><g transform="translate(0.004 -0.021)"><path class="a" d="M14.041,10.991l-.758-1.122a1.758,1.758,0,0,1-.3-.99V5.771A5.792,5.792,0,0,0,7.191-.021q-.134,0-.268.006A5.852,5.852,0,0,0,1.408,5.912V8.879a1.758,1.758,0,0,1-.3.99L.349,10.991a2.01,2.01,0,0,0,1.664,3.135H12.377a2.01,2.01,0,0,0,1.664-3.135Z" transform="translate(-0.004 0.021)"/><path class="a" d="M15.771,53.407A3.761,3.761,0,0,0,19.267,51H12.26A3.758,3.758,0,0,0,15.771,53.407Z" transform="translate(-8.573 -35.65)"/></g></g></svg>