<svg xmlns="http://www.w3.org/2000/svg" width="13.54" height="13.533" viewBox="0 0 13.54 13.533"><defs><style>.a{fill:#524456;}</style></defs><path class="a" d="M17.866,39.2l-.819-2.026a.218.218,0,0,0-.244-.131l-1.2.238a5.786,5.786,0,0,0-.943-.963l.26-1.194a.218.218,0,0,0-.129-.249l-2.013-.854a.218.218,0,0,0-.268.081l-.679,1.017a5.579,5.579,0,0,0-1.349-.011l-.655-1.03a.218.218,0,0,0-.266-.085l-2.021.816a.218.218,0,0,0-.131.247l.238,1.2a5.623,5.623,0,0,0-.963.943l-1.2-.26a.218.218,0,0,0-.247.129l-.854,2.008a.218.218,0,0,0,.081.266l1.017.681a5.561,5.561,0,0,0-.013,1.347l-1.03.655a.218.218,0,0,0-.083.264l.816,2.026a.218.218,0,0,0,.244.131l1.2-.238a5.626,5.626,0,0,0,.943.971L7.3,46.374a.218.218,0,0,0,.129.249l2.008.854A.218.218,0,0,0,9.7,47.4l.672-1.017a5.561,5.561,0,0,0,1.347,0l.655,1.03a.221.221,0,0,0,.266.085l2.024-.816a.218.218,0,0,0,.133-.247l-.238-1.2a5.61,5.61,0,0,0,.96-.943l1.2.26a.218.218,0,0,0,.247-.129l.854-2.008a.218.218,0,0,0-.079-.266l-1.017-.681a5.673,5.673,0,0,0,.011-1.347l1.03-.655A.218.218,0,0,0,17.866,39.2Zm-3.512,2.838a3.515,3.515,0,0,1-4.6,1.871L9.732,43.9a3.523,3.523,0,1,1,4.621-1.864Z" transform="translate(-4.338 -33.976)"/></svg>