<svg xmlns="http://www.w3.org/2000/svg" width="13.963" height="16.758" viewBox="0 0 13.963 16.758"><defs><style>.a{fill:#524456;}</style></defs><g transform="translate(0 0)"><path class="a" d="M13.926,36.917a7.123,7.123,0,0,0-13.863,0,1.883,1.883,0,0,0,.361,1.608,1.946,1.946,0,0,0,1.531.738H12.029a1.94,1.94,0,0,0,1.531-.741A1.88,1.88,0,0,0,13.926,36.917Z" transform="translate(-0.012 -22.506)"/><path class="a" d="M15.05,7.561a3.78,3.78,0,1,0-3.78-3.78h0A3.783,3.783,0,0,0,15.05,7.561Z" transform="translate(-8.073 0)"/></g></svg>