<svg xmlns="http://www.w3.org/2000/svg" width="525.156" height="209.624" viewBox="0 0 525.156 209.624"><defs><style>.a{fill:#f2f2f2;}.b{fill:#524456;}.c{fill:#ff9898;}.d{fill:none;stroke:#3f3d56;stroke-miterlimit:10;}.e{fill:#3f3d56;}.f{fill:#57b894;}.g{fill:#2f2e41;}.h{fill:#fff;}.i{fill:#6c63ff;opacity:0.3;isolation:isolate;}</style></defs><g transform="translate(0.233 -155.482)"><ellipse class="a" cx="257.591" cy="17.053" rx="257.591" ry="17.053" transform="translate(6.419 331)"/><path class="b" d="M444.877,167.01c-41.969,0-72.1,26.926-72.1,89.753,0,71.2,30.133,90.052,72.1,90.052s73.9-20.643,73.9-90.052C518.773,182.567,486.845,167.01,444.877,167.01Zm.276,156.17c-29.068,0-44.255-17.054-44.255-66.371,0-43.516,15.808-66.463,44.876-66.463s44.876,15.074,44.876,66.463C490.651,304.883,474.22,323.18,445.152,323.18Z" transform="translate(-190.74 -5.643)"/><path class="c" d="M184.946,304.555H167.594v-51.1a10.234,10.234,0,0,0-10.233-10.233h-4.066a10.233,10.233,0,0,0-10.233,10.233h0v51.1H94.117a5.842,5.842,0,0,1-5.165-8.571l51.8-98.046a10.233,10.233,0,0,0-4.267-13.828q-.2-.107-.411-.206l-3.058-1.444a10.233,10.233,0,0,0-13.394,4.429L56.443,305.079a13.877,13.877,0,0,0-1.639,6.542h0A13.876,13.876,0,0,0,68.68,325.5h74.381v32.311a12.266,12.266,0,0,0,12.266,12.266h0a12.266,12.266,0,0,0,12.266-12.266h0V325.5h17.352a10.471,10.471,0,0,0,10.471-10.471h0a10.471,10.471,0,0,0-10.471-10.471Z" transform="translate(-28.042 -13.046)"/><path class="c" d="M842.943,304.555H825.591v-51.1a10.234,10.234,0,0,0-10.233-10.233h-4.066a10.234,10.234,0,0,0-10.233,10.233h0v51.1H752.113a5.842,5.842,0,0,1-5.165-8.571l51.8-98.046a10.233,10.233,0,0,0-4.268-13.828q-.2-.107-.411-.206l-3.058-1.444a10.233,10.233,0,0,0-13.394,4.429L714.44,305.079a13.877,13.877,0,0,0-1.639,6.542h0A13.876,13.876,0,0,0,726.677,325.5h74.38v32.311a12.266,12.266,0,0,0,12.266,12.266h0a12.267,12.267,0,0,0,12.267-12.266h0V325.5h17.352a10.471,10.471,0,0,0,10.471-10.471h0a10.471,10.471,0,0,0-10.471-10.471Z" transform="translate(-364.723 -13.046)"/><path class="d" d="M194.749,292.3H177.4V241.2a10.234,10.234,0,0,0-10.233-10.233H163.1A10.233,10.233,0,0,0,152.864,241.2h0v51.1H103.919a5.842,5.842,0,0,1-5.165-8.571l51.8-98.046a10.233,10.233,0,0,0-4.267-13.828q-.2-.108-.411-.206l-3.058-1.444a10.233,10.233,0,0,0-13.394,4.429L66.246,292.826a13.875,13.875,0,0,0-1.639,6.542h0a13.876,13.876,0,0,0,13.876,13.876h74.381v32.311a12.266,12.266,0,0,0,12.266,12.266h0A12.266,12.266,0,0,0,177.4,345.555h0V313.244h17.352a10.472,10.472,0,0,0,10.471-10.471h0A10.471,10.471,0,0,0,194.749,292.3Z" transform="translate(-33.058 -6.776)"/><path class="d" d="M861.323,292.3H843.97V241.2a10.233,10.233,0,0,0-10.233-10.233h-4.066A10.233,10.233,0,0,0,819.438,241.2h0v51.1H770.493a5.843,5.843,0,0,1-5.166-8.571l51.8-98.046a10.233,10.233,0,0,0-4.268-13.828q-.2-.108-.411-.206l-3.058-1.444A10.233,10.233,0,0,0,796,174.635l-63.18,118.191a13.875,13.875,0,0,0-1.638,6.542h0a13.876,13.876,0,0,0,13.876,13.876h74.381v32.311A12.266,12.266,0,0,0,831.7,357.821h0a12.266,12.266,0,0,0,12.266-12.266h0V313.244h17.353a10.472,10.472,0,0,0,10.471-10.471h0A10.472,10.472,0,0,0,861.323,292.3Z" transform="translate(-374.127 -6.776)"/><path class="d" d="M464.482,155.982c-41.969,0-72.1,26.926-72.1,89.753,0,71.2,30.133,90.052,72.1,90.052s73.9-20.643,73.9-90.052C538.378,171.539,506.45,155.982,464.482,155.982Zm.276,156.17c-29.068,0-44.255-17.054-44.255-66.371,0-43.516,15.808-66.463,44.877-66.463s44.876,15.074,44.876,66.463c0,48.074-16.43,66.371-45.5,66.371Z" transform="translate(-200.771)"/><path class="e" d="M548.224,177.531c-.379,1.559-2.016,2.808-3.828,3.681-3.809,1.834-8.509,2.382-13.067,2.566a22.082,22.082,0,0,1-3.489-.064,10.025,10.025,0,0,1-5.982-2.75.82.82,0,0,1,.021-1.388c2.427-2.666,6.477-4.3,10.556-5.478,3.093-.892,8.488-3.2,11.861-2.892C547.564,171.507,548.7,175.562,548.224,177.531Z" transform="translate(-266.831 -7.775)"/><path class="f" d="M999.849,398.892A10.163,10.163,0,1,0,1001.2,379.4l.254,5.231-2.475-4.483a10.126,10.126,0,0,0-5.217,5.725,9.98,9.98,0,0,0-.585,2.749A10.162,10.162,0,0,0,999.849,398.892Z" transform="translate(-508.173 -114.203)"/><path class="d" d="M1029.935,450.409c-.874-4.449,2.912-8.393,6.651-10.956s8.109-5.082,9.385-9.433c1.834-6.253-3.628-11.979-7.88-16.917a61.181,61.181,0,0,1-8.069-11.992,16.519,16.519,0,0,1-1.93-5.453c-.335-2.771.555-5.529,1.452-8.173q4.483-13.21,9.585-26.2" transform="translate(-526.013 -105.05)"/><path class="d" d="M1000.706,396.134a10.163,10.163,0,1,0,1.354-19.492l.254,5.231-2.475-4.483a10.123,10.123,0,0,0-5.217,5.725,9.981,9.981,0,0,0-.585,2.749A10.162,10.162,0,0,0,1000.706,396.134Z" transform="translate(-508.612 -112.792)"/><path class="f" d="M1028.759,350.573a10.15,10.15,0,0,1,7.315-6.444l.837,4.973,1.552-5.223a10.16,10.16,0,1,1-9.7,6.694Z" transform="translate(-526.079 -96.142)"/><path class="d" d="M1029.9,346.9a10.152,10.152,0,0,1,7.315-6.445l.837,4.973,1.552-5.223a10.161,10.161,0,1,1-9.7,6.695Z" transform="translate(-526.664 -94.26)"/><path class="f" d="M1037.968,446.941a10.162,10.162,0,0,0,8.995-18.079l-1.192,4.014-.845-5.032-.026-.01a10.163,10.163,0,1,0-6.938,19.1l.006,0Z" transform="translate(-527.673 -138.787)"/><path class="d" d="M1038.958,443.217a10.162,10.162,0,0,0,8.994-18.079l-1.192,4.014-.845-5.032-.026-.01a10.163,10.163,0,1,0-6.937,19.1l.006,0Z" transform="translate(-528.18 -136.881)"/><path class="f" d="M1023.16,489.679a10.158,10.158,0,1,0,1.958-7.958l4.528,6.815-6.187-3.617A10.068,10.068,0,0,0,1023.16,489.679Z" transform="translate(-523.446 -164.647)"/><path class="d" d="M1024.018,486.921a10.158,10.158,0,1,0,1.959-7.958l4.528,6.815-6.187-3.617A10.072,10.072,0,0,0,1024.018,486.921Z" transform="translate(-523.885 -163.236)"/><path class="f" d="M4.4,456.676a6.678,6.678,0,1,0,.889-12.806l.167,3.437-1.626-2.946A6.655,6.655,0,0,0,.4,448.122a6.558,6.558,0,0,0-.384,1.806A6.677,6.677,0,0,0,4.4,456.676Z" transform="translate(0 -147.23)"/><path class="d" d="M24.166,490.524c-.574-2.923,1.913-5.514,4.37-7.2s5.328-3.339,6.166-6.2c1.2-4.108-2.384-7.87-5.177-11.114a40.177,40.177,0,0,1-5.3-7.879,10.838,10.838,0,0,1-1.268-3.582,12.362,12.362,0,0,1,.954-5.37q2.945-8.679,6.3-17.213" transform="translate(-11.721 -141.216)"/><path class="d" d="M4.962,454.864a6.678,6.678,0,1,0,.889-12.806l.167,3.437-1.626-2.946A6.652,6.652,0,0,0,.965,446.31a6.54,6.54,0,0,0-.384,1.806A6.677,6.677,0,0,0,4.962,454.864Z" transform="translate(-0.288 -146.303)"/><path class="f" d="M23.393,424.93A6.671,6.671,0,0,1,28.2,420.7l.55,3.267,1.02-3.432a6.676,6.676,0,1,1-6.376,4.4Z" transform="translate(-11.764 -135.363)"/><path class="d" d="M24.144,422.514a6.671,6.671,0,0,1,4.806-4.234l.55,3.267,1.02-3.432a6.676,6.676,0,1,1-6.376,4.4Z" transform="translate(-12.149 -134.127)"/><path class="f" d="M29.436,488.243a6.677,6.677,0,0,0,5.909-11.878L34.562,479l-.555-3.306-.017-.006a6.677,6.677,0,0,0-4.572,12.547Z" transform="translate(-12.804 -163.379)"/><path class="d" d="M30.1,485.8a6.677,6.677,0,0,0,5.91-11.878l-.783,2.637-.555-3.306-.017-.006A6.677,6.677,0,1,0,30.1,485.8Z" transform="translate(-13.147 -162.131)"/><path class="f" d="M19.714,516.325A6.674,6.674,0,1,0,21,511.1l2.975,4.478L19.911,513.2A6.609,6.609,0,0,0,19.714,516.325Z" transform="translate(-10.035 -180.373)"/><path class="d" d="M20.278,514.513a6.673,6.673,0,1,0,1.287-5.229l2.975,4.478-4.065-2.377A6.615,6.615,0,0,0,20.278,514.513Z" transform="translate(-10.323 -179.445)"/><ellipse class="g" cx="8.302" cy="10.743" rx="8.302" ry="10.743" transform="translate(226.556 224.901)"/><ellipse class="g" cx="8.302" cy="10.743" rx="8.302" ry="10.743" transform="translate(271.726 225.145)"/><path class="g" d="M528.722,375.4c0,4.854-6.778,8.79-15.138,8.79s-15.138-3.936-15.138-8.79c0-4.2,5.083-7.72,11.876-8.58a24.532,24.532,0,0,1,3.262-.21,24.779,24.779,0,0,1,5.435.586C524.693,368.466,528.722,371.665,528.722,375.4Z" transform="translate(-255.043 -107.776)"/><ellipse class="d" cx="8.302" cy="10.743" rx="8.302" ry="10.743" transform="translate(228.51 222.459)"/><ellipse class="d" cx="8.302" cy="10.743" rx="8.302" ry="10.743" transform="translate(273.68 222.703)"/><ellipse class="d" cx="15.138" cy="8.79" rx="15.138" ry="8.79" transform="translate(245.357 256.398)"/><path class="h" d="M531.223,367.677a2.412,2.412,0,0,1-.645,1.657,2.117,2.117,0,0,1-1.553.687h-4.883a2.278,2.278,0,0,1-2.2-2.344,2.4,2.4,0,0,1,.4-1.339,23,23,0,0,1,3.262-.224,23.279,23.279,0,0,1,5.435.626A2.466,2.466,0,0,1,531.223,367.677Z" transform="translate(-267.066 -107.52)"/><circle class="h" cx="2.442" cy="2.442" r="2.442" transform="translate(234.369 227.831)"/><circle class="h" cx="2.442" cy="2.442" r="2.442" transform="translate(279.784 227.831)"/><circle class="i" cx="2.442" cy="2.442" r="2.442" transform="translate(282.225 250.782)"/><circle class="i" cx="2.442" cy="2.442" r="2.442" transform="translate(222.65 250.782)"/></g></svg>