<svg xmlns="http://www.w3.org/2000/svg" width="24" height="24" viewBox="0 0 24 24"><defs><style>.a{fill:#fff;}.b{fill:#a1a1a1;}</style></defs><rect class="a" width="24" height="24"/><g transform="translate(3.869 3.523)"><path class="b" d="M21.737,11.377,17.689,5.146A.323.323,0,0,0,17.418,5H9.378a.323.323,0,0,0-.271.146L5.06,11.377a.322.322,0,0,0,.093.439.307.307,0,0,0,.178.05H21.466a.314.314,0,0,0,.32-.309A.322.322,0,0,0,21.737,11.377Z" transform="translate(-5.01 -5)"/><path class="b" d="M28.569,44.715H16.787a.319.319,0,0,0-.319.318v8.923a.319.319,0,0,0,.319.318h4.2V49.963a1.7,1.7,0,0,1,3.391,0v4.311h4.2a.319.319,0,0,0,.319-.318V45.033A.319.319,0,0,0,28.569,44.715Z" transform="translate(-14.29 -37.493)"/></g></svg>