<svg xmlns="http://www.w3.org/2000/svg" width="82" height="82" viewBox="0 0 82 82"><defs><style>.a{fill:#fff;}.b{fill:#606060;}.c,.d{stroke:none;}.d{fill:#ff9898;}</style></defs><g transform="translate(0 0)"><g class="a" transform="translate(0 0)"><path class="c" d="M 41 81.5 C 35.53231048583984 81.5 30.22844505310059 80.42925262451172 25.23572158813477 78.31751251220703 C 20.41307830810547 76.27770233154297 16.08178901672363 73.35743713378906 12.36217784881592 69.63782501220703 C 8.642566680908203 65.918212890625 5.722300052642822 61.58692169189453 3.682488918304443 56.76427841186523 C 1.570744395256042 51.77155685424805 0.5 46.46768951416016 0.5 41 C 0.5 35.53231048583984 1.570744395256042 30.22844505310059 3.682488918304443 25.23572158813477 C 5.722300052642822 20.41307830810547 8.642566680908203 16.08178901672363 12.36217784881592 12.36217784881592 C 16.08178901672363 8.642566680908203 20.41307830810547 5.722300052642822 25.23572158813477 3.682488918304443 C 30.22844505310059 1.570744395256042 35.53231048583984 0.5 41 0.5 C 46.46768951416016 0.5 51.77155685424805 1.570744395256042 56.76427841186523 3.682488918304443 C 61.58692169189453 5.722300052642822 65.918212890625 8.642566680908203 69.63782501220703 12.36217784881592 C 73.35743713378906 16.08178901672363 76.27770233154297 20.41307830810547 78.31751251220703 25.23572158813477 C 80.42925262451172 30.22844505310059 81.5 35.53231048583984 81.5 41 C 81.5 46.46768951416016 80.42925262451172 51.77155685424805 78.31751251220703 56.76427841186523 C 76.27770233154297 61.58692169189453 73.35743713378906 65.918212890625 69.63782501220703 69.63782501220703 C 65.918212890625 73.35743713378906 61.58692169189453 76.27770233154297 56.76427841186523 78.31751251220703 C 51.77155685424805 80.42925262451172 46.46768951416016 81.5 41 81.5 Z"/><path class="d" d="M 41 1 C 35.59959030151367 1 30.36125564575195 2.057456970214844 25.43050003051758 4.142990112304688 C 20.66744613647461 6.157585144042969 16.38957977294922 9.041877746582031 12.71572113037109 12.71572113037109 C 9.041877746582031 16.38957977294922 6.157585144042969 20.66744613647461 4.142990112304688 25.43050003051758 C 2.057456970214844 30.36125564575195 1 35.59959030151367 1 41 C 1 46.40040969848633 2.057456970214844 51.63874435424805 4.142990112304688 56.56949996948242 C 6.157585144042969 61.33255767822266 9.041877746582031 65.61042022705078 12.71572113037109 69.28427886962891 C 16.38957977294922 72.95812225341797 20.66744613647461 75.8424072265625 25.43050003051758 77.85700988769531 C 30.36125564575195 79.94254302978516 35.59959030151367 81 41 81 C 46.40040969848633 81 51.63874435424805 79.94254302978516 56.56949996948242 77.85700988769531 C 61.33255767822266 75.8424072265625 65.61042022705078 72.95812225341797 69.28427886962891 69.28427886962891 C 72.95812225341797 65.61042022705078 75.8424072265625 61.33255767822266 77.85700988769531 56.56949996948242 C 79.94254302978516 51.63874435424805 81 46.40040969848633 81 41 C 81 35.59959030151367 79.94254302978516 30.36125564575195 77.85700988769531 25.43050003051758 C 75.8424072265625 20.66744613647461 72.95812225341797 16.38957977294922 69.28427886962891 12.71572113037109 C 65.61042022705078 9.041877746582031 61.33255767822266 6.157585144042969 56.56949996948242 4.142990112304688 C 51.63874435424805 2.057456970214844 46.40040969848633 1 41 1 M 41 0 C 63.6436767578125 0 82 18.3563232421875 82 41 C 82 63.6436767578125 63.6436767578125 82 41 82 C 18.3563232421875 82 0 63.6436767578125 0 41 C 0 18.3563232421875 18.3563232421875 0 41 0 Z"/></g><g transform="translate(30.723 28.972)"><g transform="translate(0 0)"><path class="b" d="M19.284,39.029a9.866,9.866,0,0,0-19.2,0,2.609,2.609,0,0,0,.5,2.227A2.7,2.7,0,0,0,2.7,42.278H16.656a2.687,2.687,0,0,0,2.12-1.027A2.6,2.6,0,0,0,19.284,39.029Z" transform="translate(-0.012 -19.068)"/><path class="b" d="M16.506,10.472A5.236,5.236,0,1,0,11.27,5.236h0A5.24,5.24,0,0,0,16.506,10.472Z" transform="translate(-6.841 0)"/></g></g></g></svg>