<svg xmlns="http://www.w3.org/2000/svg" width="41.409" height="35.935" viewBox="0 0 41.409 35.935"><defs><style>.a,.d{fill:#fff;}.a{stroke:#707070;}.b{fill:#575757;}.c{fill:#524456;}.d{font-size:7px;font-family:Poppins-Medium, Poppins;font-weight:500;}.e{stroke:none;}.f{fill:none;}</style></defs><g transform="translate(-500.982 -296)"><g transform="translate(507 296)"><g class="a" transform="translate(0 0)"><circle class="e" cx="15" cy="15" r="15"/><circle class="f" cx="15" cy="15" r="14.5"/></g><g transform="translate(9.447 8.11)"><g transform="translate(0 0)"><path class="b" d="M11.279,35.874a5.768,5.768,0,0,0-11.226,0,1.525,1.525,0,0,0,.292,1.3,1.576,1.576,0,0,0,1.24.6H9.742a1.571,1.571,0,0,0,1.24-.6A1.523,1.523,0,0,0,11.279,35.874Z" transform="translate(-0.012 -24.204)"/><path class="b" d="M14.331,6.122A3.061,3.061,0,1,0,11.27,3.061h0A3.063,3.063,0,0,0,14.331,6.122Z" transform="translate(-8.681 0)"/></g></g></g><g transform="translate(-259.018 -171.942)"><rect class="c" width="41.409" height="12.877" rx="2" transform="translate(760 491)"/><text class="d" transform="translate(764.704 499.938)"><tspan x="0" y="0">Manager</tspan></text></g></g></svg>