<svg xmlns="http://www.w3.org/2000/svg" width="82" height="82" viewBox="0 0 82 82"><defs><style>.a{fill:#fff;stroke:#524456;}.b{fill:#524456;}.c{stroke:none;}.d{fill:none;}</style></defs><g transform="translate(-582 -427)"><g class="a" transform="translate(582 427)"><circle class="c" cx="41" cy="41" r="41"/><circle class="d" cx="41" cy="41" r="40.5"/></g><g transform="translate(609.193 454.64)"><path class="b" d="M32.633,15.531,25.948,5.241A.533.533,0,0,0,25.5,5H12.224a.533.533,0,0,0-.447.241L5.092,15.531a.531.531,0,0,0,.154.725.507.507,0,0,0,.293.083H32.186a.519.519,0,0,0,.529-.509A.532.532,0,0,0,32.633,15.531Z" transform="translate(-5.01 -5)"/><path class="b" d="M36.452,44.715H17a.526.526,0,0,0-.527.525V59.975A.526.526,0,0,0,17,60.5h6.928V53.382a2.8,2.8,0,0,1,5.6,0V60.5h6.928a.526.526,0,0,0,.527-.525V45.24A.526.526,0,0,0,36.452,44.715Z" transform="translate(-12.871 -32.789)"/></g></g></svg>