<svg xmlns="http://www.w3.org/2000/svg" width="9.531" height="8.578" viewBox="0 0 9.531 8.578"><defs><style>.a{fill:#524456;}</style></defs><g transform="translate(-2 -2)"><circle class="a" cx="1.525" cy="1.525" r="1.525" transform="translate(5.241 5.241)"/><path class="a" d="M5.336,2l-.872.953H2.953A.956.956,0,0,0,2,3.906V9.625a.956.956,0,0,0,.953.953h7.625a.956.956,0,0,0,.953-.953V3.906a.956.956,0,0,0-.953-.953H9.067L8.2,2Zm1.43,7.148A2.383,2.383,0,1,1,9.148,6.766,2.384,2.384,0,0,1,6.766,9.148Z"/></g></svg>