<svg id="Layer_1" data-name="Layer 1" xmlns="http://www.w3.org/2000/svg" xmlns:xlink="http://www.w3.org/1999/xlink" viewBox="0 0 33 33"><defs><style>.cls-1{fill:none;}.cls-2{clip-path:url(#clip-path);}.cls-3{fill:#999;}.cls-4{fill:#fff;}</style><clipPath id="clip-path"><rect class="cls-1" x="0.5" y="0.5" width="32" height="32"/></clipPath></defs><title>list</title><g id="img"><g class="cls-2"><path class="cls-3" d="M32.5,7.77273V25.22727A3.14109,3.14109,0,0,1,29.5,28.5H3.5a2.87388,2.87388,0,0,1-2.12-.96A3.41984,3.41984,0,0,1,.5,25.22727V7.77273A3.141,3.141,0,0,1,3.5,4.5h26A3.141,3.141,0,0,1,32.5,7.77273Z"/><path class="cls-4" d="M24.49612,14.18831,14.70422,22.8a.3.3,0,0,1-.41363.00635L8.19687,18.18168a.3.3,0,0,0-.39956-.0066l-5.26267,4.545A.1.1,0,0,0,2.5,22.79577V24.5a2,2,0,0,0,2,2h24a2,2,0,0,0,2-2V18.79742a.1.1,0,0,0-.03672-.07743l-5.56716-4.54988A.3.3,0,0,0,24.49612,14.18831Z"/><circle class="cls-4" cx="8" cy="11.13305" r="3.5"/></g></g></svg>