<svg xmlns="http://www.w3.org/2000/svg" width="76" height="75.949" viewBox="0 0 76 75.949"><defs><style>.a{fill:#524456;}</style></defs><g transform="translate(-0.033)"><rect class="a" width="76" height="3" transform="translate(0.033 72.949)"/><path class="a" d="M37.889,313.253H25.263A1.263,1.263,0,0,1,24,311.99V289.263A1.263,1.263,0,0,1,25.263,288H37.889a1.263,1.263,0,0,1,1.263,1.263V311.99A1.263,1.263,0,0,1,37.889,313.253Zm-1.263-22.728h-10.1v20.2h10.1Z" transform="translate(32.973 -242.545)"/><path class="a" d="M261.889,232.4H249.263A1.263,1.263,0,0,1,248,231.142V193.263A1.263,1.263,0,0,1,249.263,192h12.626a1.263,1.263,0,0,1,1.263,1.263v37.879A1.263,1.263,0,0,1,261.889,232.4Zm-1.263-37.879h-10.1v35.354h10.1Z" transform="translate(-226.381 -161.697)"/><path class="a" d="M149.889,151.556H137.263A1.263,1.263,0,0,1,136,150.294V97.263A1.263,1.263,0,0,1,137.263,96h12.626a1.263,1.263,0,0,1,1.263,1.263v53.031A1.263,1.263,0,0,1,149.889,151.556Zm-1.263-53.031h-10.1v50.506h10.1Z" transform="translate(-96.704 -80.848)"/><path class="a" d="M373.889,70.708H361.263A1.263,1.263,0,0,1,360,69.445V1.263A1.263,1.263,0,0,1,361.263,0h12.626a1.263,1.263,0,0,1,1.263,1.263V69.445A1.263,1.263,0,0,1,373.889,70.708ZM372.626,2.525h-10.1V68.183h10.1Z" transform="translate(-356.058)"/></g></svg>