<svg xmlns="http://www.w3.org/2000/svg" width="78.395" height="71.748" viewBox="0 0 78.395 71.748"><defs><style>.a{fill:#524456;}</style></defs><g transform="translate(22.813 5.057)"><g transform="translate(0 0)"><path class="a" d="M164.177,52.2h-20.79a1.284,1.284,0,1,0,0,2.569h20.79a1.284,1.284,0,0,0,0-2.569Z" transform="translate(-142.102 -52.201)"/></g></g><g transform="translate(49.929 0)"><g transform="translate(0 0)"><path class="a" d="M312.286,20.7A1.288,1.288,0,0,0,311,21.985v10a1.284,1.284,0,0,0,2.569,0v-10A1.288,1.288,0,0,0,312.286,20.7Z" transform="translate(-311.002 -20.701)"/></g></g><g transform="translate(16.697 0)"><g transform="translate(0 0)"><path class="a" d="M105.286,20.7A1.288,1.288,0,0,0,104,21.985v10a1.284,1.284,0,0,0,2.569,0v-10A1.288,1.288,0,0,0,105.286,20.7Z" transform="translate(-104.002 -20.701)"/></g></g><g transform="translate(8.284 20.79)"><path class="a" d="M102.928,150.2H52.886a1.284,1.284,0,0,0,0,2.569h50.025a1.284,1.284,0,1,0,.016-2.569Z" transform="translate(-51.602 -150.201)"/></g><g transform="translate(8.284 30.905)"><path class="a" d="M91.24,213.2H52.886a1.284,1.284,0,0,0,0,2.569H91.24a1.284,1.284,0,0,0,0-2.569Z" transform="translate(-51.602 -213.201)"/></g><g transform="translate(8.284 40.858)"><path class="a" d="M74.56,275.2H52.886a1.284,1.284,0,1,0,0,2.569H74.56a1.284,1.284,0,0,0,0-2.569Z" transform="translate(-51.602 -275.201)"/></g><g transform="translate(0 5.057)"><g transform="translate(0 0)"><path class="a" d="M76.467,93.892a17.183,17.183,0,0,0-7.273-7.273v-33.2a1.2,1.2,0,0,0-1.188-1.22H56.27a1.284,1.284,0,0,0,0,2.569H66.625v30.76a16.552,16.552,0,0,0-5.378-.867,17.105,17.105,0,0,0-17.114,17.1,16.376,16.376,0,0,0,.883,5.346H2.569V54.768h8.669a1.284,1.284,0,1,0,0-2.569h-10A1.2,1.2,0,0,0,0,53.339v55.114a1.186,1.186,0,0,0,1.156,1.22H46.108A17.108,17.108,0,0,0,76.467,93.892Zm-15.2,22.46a14.561,14.561,0,1,1,14.561-14.561A14.56,14.56,0,0,1,61.263,116.352Z" transform="translate(0 -52.199)"/></g></g><g transform="translate(60.042 44.181)"><path class="a" d="M382.937,305.9h-6.374v-8.717a1.284,1.284,0,1,0-2.569,0v10a1.213,1.213,0,0,0,1.188,1.268h7.754a1.288,1.288,0,0,0,1.284-1.284A1.274,1.274,0,0,0,382.937,305.9Z" transform="translate(-373.993 -295.901)"/></g></svg>