<svg xmlns="http://www.w3.org/2000/svg" width="24" height="24" viewBox="0 0 24 24"><defs><style>.a{fill:#524456;}.b{fill:#fff;}</style></defs><g transform="translate(-1033 -121)"><rect class="a" width="24" height="24" rx="4" transform="translate(1033 121)"/><g transform="translate(1040 127)"><path class="b" d="M18.375,19.158a2.188,2.188,0,1,0-2.187,2.158A2.176,2.176,0,0,0,18.375,19.158Zm-3.7,0a1.514,1.514,0,1,1,1.514,1.494A1.506,1.506,0,0,1,14.673,19.158Z" transform="translate(-14 -15.506)"/><path class="b" d="M35.187,18.311a2.176,2.176,0,0,0,2.187-2.158,2.136,2.136,0,0,0-.617-1.5l.26-.709a.327.327,0,0,0,.02-.113c0-.745-.813-1.328-1.851-1.328s-1.851.583-1.851,1.328a.334.334,0,0,0,.02.113l.26.708a2.137,2.137,0,0,0-.617,1.5A2.176,2.176,0,0,0,35.187,18.311Zm-.861-3.681-.313-.851c.046-.3.515-.616,1.174-.616s1.128.315,1.174.616l-.312.851a.329.329,0,0,0,.1.369,1.484,1.484,0,0,1,.551,1.153,1.514,1.514,0,0,1-3.029,0A1.482,1.482,0,0,1,34.224,15,.329.329,0,0,0,34.326,14.631Z" transform="translate(-26.606 -12.5)"/><path class="b" d="M37.668,16.83H38v.332a.168.168,0,0,0,.337,0V16.83h.337a.166.166,0,1,0,0-.332h-.337v-.332a.168.168,0,0,0-.337,0V16.5h-.337a.166.166,0,1,0,0,.332Z" transform="translate(-29.592 -14.838)"/><g transform="translate(0 7.14)"><path class="b" d="M37.375,35.992A2.008,2.008,0,0,0,35.356,34h-.337A2.008,2.008,0,0,0,33,35.992v1.66h4.375Z" transform="translate(-26.606 -34)"/><path class="b" d="M37.311,46.664c.021-.018.043-.034.064-.053V46H33v.664Z" transform="translate(-26.606 -42.015)"/><path class="b" d="M18.532,35.328c.518,0,.942-.583,1-1.328h-2C17.591,34.745,18.014,35.328,18.532,35.328Z" transform="translate(-16.345 -34)"/><path class="b" d="M18.375,38.682V35.029a1,1,0,0,0-.848-.98,1.668,1.668,0,0,1-1.171,1.628v.379a.5.5,0,1,1-.337,0v-.379a1.668,1.668,0,0,1-1.171-1.628,1,1,0,0,0-.848.98v3.609c.017.015.036.029.053.043Z" transform="translate(-14 -34.033)"/><ellipse class="b" cx="0.168" cy="0.166" rx="0.168" ry="0.166" transform="translate(2.019 2.325)"/></g></g></g></svg>