<svg xmlns="http://www.w3.org/2000/svg" width="80" height="80" viewBox="0 0 80 80"><defs><style>.a{fill:#524456;}</style></defs><g transform="translate(0)"><path class="a" d="M280.009,42.5a2.5,2.5,0,0,1-2.5-2.5,35.038,35.038,0,0,0-35-35,2.5,2.5,0,0,1,0-5,40,40,0,0,1,40,40,2.5,2.5,0,0,1-2.5,2.5Z" transform="translate(-202.509)"/><path class="a" d="M270.01,96.5a2.5,2.5,0,0,1-2.5-2.5,25.027,25.027,0,0,0-25-25,2.5,2.5,0,0,1,0-5,30.033,30.033,0,0,1,30,30A2.5,2.5,0,0,1,270.01,96.5Z" transform="translate(-202.509 -53.997)"/><path class="a" d="M260.01,150.494a2.5,2.5,0,0,1-2.5-2.5,15.016,15.016,0,0,0-15-15,2.5,2.5,0,0,1,0-5,20.022,20.022,0,0,1,20,20A2.5,2.5,0,0,1,260.01,150.494Z" transform="translate(-202.509 -107.996)"/><path class="a" d="M78.023,54.99,59.712,51.067a2.5,2.5,0,0,0-2.29.677l-6.706,6.7A65.805,65.805,0,0,1,21.552,29.285l6.7-6.706a2.5,2.5,0,0,0,.677-2.29L25.01,1.977A2.5,2.5,0,0,0,22.565,0,22.284,22.284,0,0,0,11.9,2.664,22.688,22.688,0,0,0,.238,19.274,22.119,22.119,0,0,0,1.366,30.15,81.546,81.546,0,0,0,20.24,59.76,81.546,81.546,0,0,0,49.85,78.634a22.087,22.087,0,0,0,10.876,1.128A22.688,22.688,0,0,0,77.336,68.1,22.284,22.284,0,0,0,80,57.435a2.5,2.5,0,0,0-1.977-2.445ZM12.754,8.073c-.078.019-.156.039-.233.059A17.18,17.18,0,0,1,19.84,5.2a.781.781,0,0,1,.879.61L23.671,19.59a.781.781,0,0,1-.211.716l-1.578,1.578a.781.781,0,0,1-1.316-.389l-2.112-9.85a4.69,4.69,0,0,0-5.7-3.572ZM48.617,64.082a4.7,4.7,0,0,1-5.544.809A68.284,68.284,0,0,1,15.109,36.927a4.7,4.7,0,0,1,.809-5.544h0a.743.743,0,0,1,1.188.19A70.794,70.794,0,0,0,48.428,62.893a.743.743,0,0,1,.19,1.188Zm23.251,3.4c.025-.089.047-.178.069-.269a4.682,4.682,0,0,0-3.581-5.664L58.5,59.435a.781.781,0,0,1-.389-1.316l1.578-1.578a.781.781,0,0,1,.716-.211l13.775,2.952a.781.781,0,0,1,.61.879,17.182,17.182,0,0,1-2.928,7.319Z" transform="translate(0)"/></g></svg>