<svg xmlns="http://www.w3.org/2000/svg" width="41" height="41" viewBox="0 0 41 41">
  <g id="Group_25459" data-name="Group 25459" transform="translate(-816 -200)">
    <circle id="Ellipse_634" data-name="Ellipse 634" cx="20.5" cy="20.5" r="20.5" transform="translate(816 200)" fill="#f6e4f8" opacity="0.45"/>
    <g id="appointment" transform="translate(825 205.25)">
      <path id="Path_10875" data-name="Path 10875" d="M28.391,27.157a.758.758,0,0,0-1.062.144l-5.54,7.25L19.561,32.17a.759.759,0,0,0-1.107,1.039L21.3,36.242a.758.758,0,0,0,.554.239h.038a.758.758,0,0,0,.565-.3l6.067-7.963A.758.758,0,0,0,28.391,27.157Z" transform="translate(-11.329 -15.522)" fill="#855b8a"/>
      <path id="Path_10874" data-name="Path 10874" d="M21.992,3.517H18.769V2.758a.758.758,0,0,0-1.517,0v.758H7.015V2.758a.758.758,0,0,0-1.517,0v.758H2.275A2.275,2.275,0,0,0,0,5.792V22.475A2.275,2.275,0,0,0,2.275,24.75H21.992a2.275,2.275,0,0,0,2.275-2.275V5.792A2.275,2.275,0,0,0,21.992,3.517ZM2.275,5.033H5.5v.758a.758.758,0,0,0,1.517,0V5.033H17.252v.758a.758.758,0,0,0,1.517,0V5.033h3.223a.758.758,0,0,1,.758.758v1.9H1.517v-1.9a.758.758,0,0,1,.758-.758Zm19.717,18.2H2.275a.758.758,0,0,1-.758-.758V9.2H22.75V22.475A.758.758,0,0,1,21.992,23.233Z" transform="translate(0)" fill="#855b8a"/>
    </g>
  </g>
</svg>
