<svg xmlns="http://www.w3.org/2000/svg" width="30" height="30" viewBox="0 0 30 30"><defs><style>.a{fill:#fff;stroke:#524456;}.b{fill:#524456;}.c{stroke:none;}.d{fill:none;}</style></defs><g transform="translate(-682 -351)"><g class="a" transform="translate(682 351)"><circle class="c" cx="15" cy="15" r="15"/><circle class="d" cx="15" cy="15" r="14.5"/></g><g transform="translate(653.04 336.59)"><path class="b" d="M37.453,23.409a.5.5,0,0,1,0-1H50.006a.5.5,0,0,1,0,1H48.256V34.133a11.211,11.211,0,0,1-1.44,2.122.5.5,0,0,1-.808-.005l-.936-1.274-.94,1.28a.5.5,0,0,1-.808-.005l-.936-1.274-.94,1.28a.5.5,0,0,1-.808-.005A11.234,11.234,0,0,1,39.2,34.133V23.409Zm6.829,8.754V32.6a.4.4,0,0,1-.808,0v-.418a2.527,2.527,0,0,1-2.21-1.341.525.525,0,0,1,.662-.7c.556.18.2.791,1.549.972V28.987c-2.626-.47-2.773-3.554,0-3.894v-.3a.4.4,0,0,1,.808,0v.3a2.674,2.674,0,0,1,.5.107c.489.156,1.413.858,1.413,1.473a.5.5,0,0,1-.509.5c-.611,0-.507-.826-1.4-1.016v1.922a2.044,2.044,0,0,1,0,4.085Zm-.808-4.219v-1.8C42.33,26.344,42.253,27.608,43.474,27.944Zm.808,3.135a.982.982,0,0,0,0-1.939Zm2.975-7.669H40.2V33.971l.843,1.147.936-1.274a.5.5,0,0,1,.808-.006l.94,1.28.936-1.274a.5.5,0,0,1,.809-.006l.94,1.28.843-1.147V23.409Z"/></g></g></svg>