<svg xmlns="http://www.w3.org/2000/svg" width="24" height="24" viewBox="0 0 24 24"><defs><style>.a{fill:none;}.b{fill:#a1a1a1;}</style></defs><rect class="a" width="24" height="24"/><g transform="translate(2 5.777)"><g transform="translate(0 0)"><path class="b" d="M19.317,4.445a.855.855,0,0,0,.855-.855V.855A.855.855,0,0,0,19.317,0H.855A.855.855,0,0,0,0,.855V3.59a.855.855,0,0,0,.855.855,2.222,2.222,0,0,1,0,4.445A.855.855,0,0,0,0,9.744v2.735a.855.855,0,0,0,.855.855H19.317a.855.855,0,0,0,.855-.855V9.744a.855.855,0,0,0-.855-.855,2.222,2.222,0,1,1,0-4.445Zm-8.062-.992a.855.855,0,0,1,1.209,0h0l.834.834a.855.855,0,0,1-.605,1.46.838.838,0,0,1-.6-.25l-.838-.834A.862.862,0,0,1,11.255,3.453ZM8.917,9.881a.858.858,0,0,1-1.21,0l-.834-.834a.855.855,0,0,1,1.207-1.21l.838.838A.992.992,0,0,1,8.917,9.881Zm5.023.639a.858.858,0,0,1-1.21,0l-6.5-6.5a.856.856,0,1,1,1.21-1.21l6.5,6.5A.862.862,0,0,1,13.939,10.52Z"/></g></g></svg>