<svg xmlns="http://www.w3.org/2000/svg" width="24" height="24" viewBox="0 0 24 24"><defs><style>.a{fill:#fff;}.b{fill:#a1a1a1;stroke:#a1a1a1;stroke-width:0.75px;}</style></defs><rect class="a" width="24" height="24"/><g transform="translate(2 3)"><g transform="translate(0 0)"><path class="b" d="M40.873,59.739H28.217c-1.682,0-3.364.013-5.051,0a.445.445,0,0,1-.483-.461c0-.251,0-.506,0-.756v-7.61c0-.693-.036-1.4,0-2.089.031-.568.752-.438,1.163-.438H40.614a1.261,1.261,0,0,1,.434.031c.3.125.264.421.264.689v10c-.009.309-.063.622-.438.631-.573.018-.577.913,0,.895A1.358,1.358,0,0,0,42.2,59.211V49.14a1.726,1.726,0,0,0-.246-1.087c-.479-.662-1.248-.564-1.955-.564H28.584c-1.8,0-3.593-.009-5.391,0a1.363,1.363,0,0,0-1.378,1.029,3.968,3.968,0,0,0-.027.765V52.6c0,2.224-.022,4.447,0,6.671a1.348,1.348,0,0,0,1.333,1.36c.143,0,.291,0,.434,0H40.873A.448.448,0,0,0,40.873,59.739Z" transform="translate(-21.778 -47.484)"/></g><g transform="translate(0.007 7.129)"><g transform="translate(0)"><path class="b" d="M22.358,207.74H39.493c.792,0,1.588.027,2.376,0H41.9a.448.448,0,0,0,0-.895H24.769c-.792,0-1.588-.027-2.376,0h-.036a.448.448,0,0,0,0,.895Z" transform="translate(-21.925 -206.833)"/></g></g><g transform="translate(0.007 9.643)"><g transform="translate(0 0)"><path class="b" d="M22.358,263.94H39.493c.792,0,1.588.027,2.376,0H41.9a.448.448,0,0,0,0-.895H24.769c-.792,0-1.588-.027-2.376,0h-.036a.448.448,0,0,0,0,.895Z" transform="translate(-21.925 -263.033)"/></g></g><g transform="translate(5.906 12.269)"><g transform="translate(0)"><path class="b" d="M153.8,322.158v4.97a.449.449,0,0,0,.671.385l3.476-2.174c.166-.1.331-.206.5-.313h-.452q1.637,1.087,3.27,2.174c.157.1.313.21.47.313a.449.449,0,0,0,.671-.385v-4.97a.448.448,0,0,0-.895,0v4.97c.224-.13.447-.26.671-.385l-3.27-2.174c-.157-.1-.313-.21-.47-.313a.442.442,0,0,0-.452,0l-3.476,2.174c-.166.1-.331.206-.5.313.224.13.447.26.671.385v-4.97a.443.443,0,0,0-.886,0Z" transform="translate(-153.8 -321.725)"/></g></g></g></svg>