<svg xmlns="http://www.w3.org/2000/svg" width="24" height="24" viewBox="0 0 24 24"><defs><style>.a{fill:none;}.b{fill:#a1a1a1;}</style></defs><rect class="a" width="24" height="24"/><g transform="translate(2 3.139)"><path class="b" d="M18.337,9.949h-2.97v-.4A2.553,2.553,0,0,0,12.821,7H9.809A2.553,2.553,0,0,0,7.264,9.546v.382H4.294A3.4,3.4,0,0,0,.9,13.321v8.527a3.4,3.4,0,0,0,3.394,3.394H18.316a3.4,3.4,0,0,0,3.394-3.394V13.343A3.359,3.359,0,0,0,18.337,9.949Zm-2.546,1.7v11.9H6.84v-11.9Zm-6.83-2.1A.851.851,0,0,1,9.809,8.7h3.012a.851.851,0,0,1,.849.849v.382H8.961ZM2.6,21.849V13.343a1.7,1.7,0,0,1,1.7-1.7h.849v11.9H4.294A1.7,1.7,0,0,1,2.6,21.849Zm17.437,0a1.7,1.7,0,0,1-1.7,1.7h-.849v-11.9h.849a1.7,1.7,0,0,1,1.7,1.7Z" transform="translate(-0.9 -7)"/><path class="b" d="M30.231,29.9H29.022V28.634a.605.605,0,1,0-1.209,0V29.9H26.6a.635.635,0,0,0,0,1.268h1.209v1.268a.605.605,0,1,0,1.209,0V31.169h1.209a.635.635,0,0,0,0-1.268Z" transform="translate(-17.676 -19.676)"/></g></svg>