<svg xmlns="http://www.w3.org/2000/svg" width="24" height="24" viewBox="0 0 24 24"><defs><style>.a{fill:none;}.b{fill:#a1a1a1;}</style></defs><rect class="a" width="24" height="24"/><g transform="translate(-54.838 -792.098)"><g transform="translate(57.522 793.748)"><path class="b" d="M21.617,20.809a3.809,3.809,0,1,0-3.809,3.809A3.813,3.813,0,0,0,21.617,20.809Zm-6.445,0a2.637,2.637,0,1,1,2.637,2.637A2.64,2.64,0,0,1,15.172,20.809Z" transform="translate(-14 -14.363)"/><path class="b" d="M36.809,22.754a3.808,3.808,0,0,0,2.735-6.459L40,15.044a.584.584,0,0,0,.035-.2c0-1.314-1.416-2.344-3.223-2.344s-3.223,1.029-3.223,2.344a.6.6,0,0,0,.035.2l.454,1.25a3.809,3.809,0,0,0,2.734,6.46Zm-1.5-6.494-.545-1.5c.08-.53.9-1.086,2.044-1.086s1.964.557,2.044,1.087l-.544,1.5a.586.586,0,0,0,.178.652,2.637,2.637,0,1,1-3.355,0A.586.586,0,0,0,35.309,16.259Z" transform="translate(-21.867 -12.5)"/><path class="b" d="M37.793,17.465h.586v.586a.293.293,0,1,0,.586,0v-.586h.586a.293.293,0,1,0,0-.586h-.586v-.586a.293.293,0,1,0-.586,0v.586h-.586a.293.293,0,1,0,0,.586Z" transform="translate(-23.731 -13.949)"/><g transform="translate(0 12.597)"><path class="b" d="M40.617,37.516A3.519,3.519,0,0,0,37.1,34h-.586A3.519,3.519,0,0,0,33,37.516v2.93h7.617Z" transform="translate(-21.867 -34)"/><path class="b" d="M40.505,47.172c.036-.032.076-.06.112-.093V46H33v1.172Z" transform="translate(-21.867 -38.969)"/><path class="b" d="M19.272,36.344c.9,0,1.639-1.029,1.738-2.344H17.534C17.632,35.315,18.37,36.344,19.272,36.344Z" transform="translate(-15.463 -34)"/><path class="b" d="M21.617,42.223V35.778a1.756,1.756,0,0,0-1.477-1.729A2.939,2.939,0,0,1,18.1,36.922v.668a.879.879,0,1,1-.586,0v-.668a2.939,2.939,0,0,1-2.039-2.873A1.756,1.756,0,0,0,14,35.778v6.368c.03.027.062.05.092.077Z" transform="translate(-14 -34.02)"/><circle class="b" cx="0.293" cy="0.293" r="0.293" transform="translate(3.516 4.101)"/></g></g></g></svg>