<svg xmlns="http://www.w3.org/2000/svg" width="43.54" height="36.981" viewBox="0 0 43.54 36.981"><defs><style>.a{fill:#2656a0;}.b{fill:#fff;}</style></defs><g transform="translate(-405.613 -410.437)"><path d="M427.776,676.32h2.393a2.425,2.425,0,0,1,2.7,2.462c0,1.87-1.273,3.4-3.995,3.4h-2.342v-.148c.454-.083.592-.111.75-.685l1.1-3.911a2.685,2.685,0,0,0,.1-.574c0-.315-.241-.361-.713-.4Z" transform="translate(-19.042 -241.99)"/><path d="M502.051,699.274c-.361.546-.768,1.055-1.287,1.055-.435,0-.435-.407-.435-.574,0-.435.731-2.731.731-2.99,0-.194-.074-.241-.583-.241v-.148c.352-.018,1.12-.167,1.481-.231l.028.019-.815,2.98a4.162,4.162,0,0,0-.148.611.151.151,0,0,0,.148.139c.111,0,.379-.185.759-.722Z" transform="translate(-86.205 -260.033)"/><path d="M512.926,675.185a.438.438,0,0,1-.444-.481.453.453,0,0,1,.435-.5.5.5,0,0,1,.463.509A.473.473,0,0,1,512.926,675.185Z" transform="translate(-97.265 -240.064)"/><path d="M524.77,699.264c-.463.62-.787,1.046-1.287,1.046-.426,0-.444-.278-.444-.546,0-.222.685-2.481.685-2.851,0-.167-.056-.3-.231-.3-.444,0-1.028.8-1.361,1.314a7.273,7.273,0,0,0-.926,2.3h-.694c.287-1.046.907-3.212.907-3.406,0-.139-.093-.241-.592-.241v-.148c.5-.093,1-.185,1.5-.287l.028.019-.592,1.935.019.019c.435-.685,1.286-1.972,2.055-1.972a.56.56,0,0,1,.639.611c0,.4-.741,2.684-.741,2.962a.154.154,0,0,0,.148.157c.185,0,.417-.3.759-.731Z" transform="translate(-104.574 -260.033)"/><path d="M572.476,699.329a2.84,2.84,0,0,1-1.87,1,1.2,1.2,0,0,1-1.268-1.305,3.209,3.209,0,0,1,2.768-2.879c.472,0,.759.222.759.629,0,.731-.87,1.481-2.37,1.694l-.259.037a2.479,2.479,0,0,0-.093.565.808.808,0,0,0,.87.842,2.227,2.227,0,0,0,1.351-.694Z" transform="translate(-149.012 -260.033)"/><path d="M607.645,700.227l.75-2.7a4.433,4.433,0,0,0,.148-.74c0-.13-.046-.278-.333-.278a1.748,1.748,0,0,0-.306.046v-.157c.472-.065,1.018-.185,1.435-.25l.028.019-.454,1.842.018.018.074-.185c.305-.611,1.009-1.694,1.592-1.694a.429.429,0,0,1,.444.454c0,.481-.333.481-.435.481-.4,0-.259-.333-.481-.333-.287,0-.842,1.027-.916,1.166a11.61,11.61,0,0,0-.861,2.314Z" transform="translate(-183.877 -260.033)"/><path d="M637.405,698.782c.065.407.213,1.259.963,1.259a.676.676,0,0,0,.667-.75c0-.611-1.1-1.5-1.1-2.212a1,1,0,0,1,1.111-1.027c.416,0,.6.157.879.157a.278.278,0,0,0,.259-.167h.13l-.185,1.287h-.148c-.046-.528-.268-1.065-.87-1.065a.468.468,0,0,0-.5.537c0,.583,1.129,1.407,1.129,2.194a1.242,1.242,0,0,1-1.379,1.24c-.278,0-.648-.176-.916-.176-.13,0-.167.092-.222.194h-.148l.185-1.472Z" transform="translate(-210.66 -259.94)"/><path d="M700.817,674.8a1.421,1.421,0,0,0-1.426-1.5c-1.851,0-2.8,2.24-2.8,3.6,0,1.213.509,1.981,1.611,1.981a3,3,0,0,0,2.138-1.092l.157.13a3.326,3.326,0,0,1-2.518,1.379,2.328,2.328,0,0,1-2.425-2.5,3.99,3.99,0,0,1,3.758-3.832,9.787,9.787,0,0,1,1.444.222c.268,0,.324-.111.37-.2h.194l-.342,1.842Z" transform="translate(-263.891 -238.94)"/><path d="M758.707,676.484c-.472.713-.833,1.157-1.407,1.157-.407,0-.444-.315-.444-.574,0-.194,1.342-5.026,1.342-5.221,0-.241-.389-.241-.629-.231v-.148a13.1,13.1,0,0,0,1.444-.25l.046.046-1.4,5.359a3,3,0,0,0-.092.435c0,.055,0,.185.139.185.231,0,.426-.259.879-.842Z" transform="translate(-319.68 -237.346)"/><path d="M783.55,699.227c-.583.842-.824,1.083-1.287,1.083a.415.415,0,0,1-.435-.481,13.076,13.076,0,0,1,.4-1.7H782.2c-.629,1.046-1.314,2.2-2.147,2.2-.333,0-.509-.139-.509-.546s.7-2.74.7-2.99c0-.269-.176-.269-.555-.269v-.13a12.18,12.18,0,0,0,1.389-.25l.028.019-.842,3.36c-.028.12,0,.315.194.315.4,0,.981-.87,1.3-1.351a9.734,9.734,0,0,0,1.018-2.259h.685L782.726,699a4.348,4.348,0,0,0-.176.731c0,.046.009.148.111.148.176,0,.435-.324.759-.731Z" transform="translate(-340.327 -260.033)"/><path d="M825.464,671.43c.463-.055.935-.12,1.416-.213l.046.046c-.2.759-.485,1.794-.8,2.84l.018.009a1.825,1.825,0,0,1,1.613-.944c.648,0,1.065.734,1.065,1.409a3.356,3.356,0,0,1-2.962,3.064c-.491,0-1.2-.287-1.2-.491v-.037l1.259-4.637a4.013,4.013,0,0,0,.148-.62c0-.213-.065-.259-.6-.268Z" transform="translate(-381.39 -237.346)"/><path d="M405.613,761.664c.454-.083.592-.111.75-.685l1.1-3.874a2.208,2.208,0,0,0,.1-.574c0-.324-.25-.352-.648-.4v-.148h2.286v.148c-.454.083-.6.1-.759.685l-1.1,3.884a1.983,1.983,0,0,0-.1.592c0,.3.231.324.629.37v.148h-2.259Z" transform="translate(0 -314.496)"/><path d="M441.584,778.527c-.463.62-.787,1.046-1.287,1.046-.426,0-.444-.278-.444-.546,0-.222.685-2.481.685-2.851,0-.167-.056-.3-.231-.3-.444,0-1.027.8-1.361,1.314a7.271,7.271,0,0,0-.926,2.3h-.694c.287-1.046.907-3.212.907-3.406,0-.139-.092-.241-.592-.241v-.148c.5-.092,1-.185,1.5-.287l.028.018-.592,1.935.019.019c.435-.685,1.287-1.972,2.055-1.972a.56.56,0,0,1,.639.611c0,.4-.74,2.684-.74,2.962a.154.154,0,0,0,.148.157c.185,0,.417-.3.759-.731Z" transform="translate(-28.863 -332.174)"/><path d="M488.316,765.954h-.777l-.815,3.082a.2.2,0,0,0-.009.074.143.143,0,0,0,.148.157c.185,0,.509-.435.741-.731l.12.065c-.472.713-.833,1.12-1.314,1.12a.4.4,0,0,1-.444-.37,7.653,7.653,0,0,1,.213-.852l.666-2.545h-.685a.2.2,0,0,1,.019-.148c.056-.083.315-.148.472-.231a3.94,3.94,0,0,0,1.009-.9c.037-.046.074-.13.157-.111.065-.019.083.065.065.139l-.259.953h.741Z" transform="translate(-73.131 -322.303)"/><path d="M512.274,778.592a2.84,2.84,0,0,1-1.87,1,1.2,1.2,0,0,1-1.268-1.305,3.209,3.209,0,0,1,2.768-2.879c.472,0,.759.222.759.629,0,.731-.87,1.481-2.37,1.694l-.259.037a2.482,2.482,0,0,0-.092.565.808.808,0,0,0,.87.842,2.228,2.228,0,0,0,1.351-.694Z" transform="translate(-94.22 -332.174)"/><path d="M547.846,779.49l.75-2.7a4.407,4.407,0,0,0,.148-.74c0-.13-.046-.278-.333-.278a1.731,1.731,0,0,0-.305.046v-.157c.472-.065,1.018-.185,1.435-.25l.028.018-.454,1.842.019.019.074-.185c.305-.611,1.009-1.694,1.592-1.694a.429.429,0,0,1,.444.453c0,.481-.333.481-.435.481-.4,0-.259-.333-.481-.333-.287,0-.842,1.028-.916,1.166a11.605,11.605,0,0,0-.861,2.314Z" transform="translate(-129.452 -332.174)"/><path d="M587.36,778.527c-.463.62-.787,1.046-1.287,1.046-.426,0-.444-.278-.444-.546,0-.222.685-2.481.685-2.851,0-.167-.056-.3-.231-.3-.444,0-1.028.8-1.361,1.314a7.274,7.274,0,0,0-.926,2.3H583.1c.287-1.046.907-3.212.907-3.406,0-.139-.093-.241-.592-.241v-.148c.5-.092,1-.185,1.5-.287l.028.018-.592,1.935.019.019c.435-.685,1.287-1.972,2.055-1.972a.56.56,0,0,1,.639.611c0,.4-.741,2.684-.741,2.962a.154.154,0,0,0,.148.157c.185,0,.417-.3.759-.731Z" transform="translate(-161.539 -332.174)"/><path d="M634.735,778.564c-.555.685-.87,1.018-1.268,1.018s-.389-.241-.389-.4a4.008,4.008,0,0,1,.194-.981l-.018-.018c-.768,1.129-1.259,1.407-1.814,1.407a.943.943,0,0,1-.953-1.092c0-1.361,1.416-3.092,2.647-3.092a.689.689,0,0,1,.731.5h.019l.093-.407.028-.028.565-.065.065.028c-.028.111-.879,3.267-.879,3.554a.125.125,0,0,0,.13.12c.139,0,.324-.231.741-.639Z" transform="translate(-204.665 -332.174)"/><path d="M679.96,765.954h-.777l-.815,3.082a.2.2,0,0,0-.009.074.143.143,0,0,0,.148.157c.185,0,.509-.435.74-.731l.12.065c-.472.713-.833,1.12-1.314,1.12a.4.4,0,0,1-.444-.37,7.639,7.639,0,0,1,.213-.852l.666-2.545H677.8a.2.2,0,0,1,.019-.148c.056-.083.315-.148.472-.231a3.94,3.94,0,0,0,1.009-.9c.037-.046.074-.13.157-.111.065-.019.083.065.065.139l-.259.953h.741Z" transform="translate(-247.554 -322.303)"/><path d="M707.977,778.537c-.361.546-.768,1.055-1.287,1.055-.435,0-.435-.407-.435-.574,0-.435.731-2.731.731-2.99,0-.194-.074-.241-.583-.241v-.148c.352-.018,1.12-.167,1.481-.231l.028.018-.815,2.98a4.168,4.168,0,0,0-.148.611.151.151,0,0,0,.148.139c.111,0,.379-.185.759-.722Z" transform="translate(-273.626 -332.174)"/><path d="M718.854,754.448a.438.438,0,0,1-.444-.481.453.453,0,0,1,.435-.5.5.5,0,0,1,.463.509A.473.473,0,0,1,718.854,754.448Z" transform="translate(-284.688 -312.204)"/><path d="M731.056,776.778a3.122,3.122,0,0,1-2.684,2.814,1.236,1.236,0,0,1-1.4-1.333,3.06,3.06,0,0,1,2.721-2.851A1.255,1.255,0,0,1,731.056,776.778Z" transform="translate(-292.483 -332.174)"/><path d="M773.749,778.527c-.463.62-.787,1.046-1.287,1.046-.426,0-.444-.278-.444-.546,0-.222.685-2.481.685-2.851,0-.167-.055-.3-.231-.3-.444,0-1.027.8-1.361,1.314a7.269,7.269,0,0,0-.926,2.3h-.694c.287-1.046.907-3.212.907-3.406,0-.139-.093-.241-.592-.241v-.148c.5-.092,1-.185,1.5-.287l.028.018-.592,1.935.018.019c.435-.685,1.287-1.972,2.055-1.972a.56.56,0,0,1,.639.611c0,.4-.741,2.684-.741,2.962a.154.154,0,0,0,.148.157c.185,0,.417-.3.759-.731Z" transform="translate(-331.179 -332.174)"/><path d="M821.526,778.564c-.555.685-.87,1.018-1.268,1.018s-.389-.241-.389-.4a4.011,4.011,0,0,1,.194-.981l-.019-.018c-.768,1.129-1.259,1.407-1.814,1.407a.943.943,0,0,1-.953-1.092c0-1.361,1.416-3.092,2.647-3.092a.689.689,0,0,1,.731.5h.019l.093-.407.028-.028.565-.065.065.028c-.028.111-.879,3.267-.879,3.554a.125.125,0,0,0,.13.12c.139,0,.324-.231.741-.639Z" transform="translate(-374.671 -332.174)"/><path d="M867.287,756c-.472.713-.652.9-1.226.9-.407,0-.444-.315-.444-.574,0-.194,1.342-5.026,1.342-5.221,0-.241-.389-.241-.629-.231v-.148a13.085,13.085,0,0,0,1.444-.25l.046.046-1.4,5.359a3,3,0,0,0-.093.435c0,.056,0,.185.139.185.231,0,.245-.006.7-.589Z" transform="translate(-418.667 -309.486)"/><path class="a" d="M497.915,467.712a9.153,9.153,0,1,0,0-18.305h-11.57a9.153,9.153,0,1,0,0,18.305Z" transform="translate(-65.147 -35.468)"/><g transform="translate(408.543 410.437)"><circle class="b" cx="8.948" cy="8.948" r="8.948" transform="translate(0 12.655) rotate(-45)"/></g><path class="a" d="M521.826,493.772a5.473,5.473,0,0,0,.011,10.336Z" transform="translate(-102.434 -75.846)"/><path class="a" d="M602.7,498.938a5.473,5.473,0,0,1-3.676,5.17l.011-10.336a5.473,5.473,0,0,1,3.665,5.166" transform="translate(-176.027 -75.846)"/><path class="b" d="M445.074,683.5a5.709,5.709,0,0,0-.2.861c0,.306.222.361.657.361a2.926,2.926,0,0,0,3-3.235c0-.935-.134-2.073-1.772-2.073-.528,0-.565.139-.6.268Z" transform="translate(-35.729 -244.801)"/><path class="b" d="M580.051,700.458c1.907-.389,1.953-1.5,1.953-1.573,0-.194-.093-.37-.324-.37-.5,0-1.129.713-1.472,1.537Z" transform="translate(-158.763 -262.189)"/><path class="b" d="M835.453,698.376c-1.018,0-1.815,1.821-1.943,3.465-.005.065,0,.305.435.305,1.268,0,2.147-1.953,2.147-2.731C836.092,699.129,836.036,698.376,835.453,698.376Z" transform="translate(-389.444 -262.064)"/><path class="b" d="M519.849,779.72c1.907-.389,1.953-1.5,1.953-1.574,0-.194-.093-.37-.324-.37-.5,0-1.129.713-1.472,1.537Z" transform="translate(-103.97 -334.329)"/><path class="b" d="M639.694,781.2c.981,0,1.888-2,1.888-2.907,0-.444-.259-.62-.528-.62-1.083,0-1.916,2.036-1.916,2.869C639.139,781.034,639.444,781.2,639.694,781.2Z" transform="translate(-212.541 -334.236)"/><path class="b" d="M735.626,780.505c0,.528.278.861.74.861,1.055,0,1.787-1.916,1.787-2.906,0-.481-.2-.889-.648-.889C736.468,777.571,735.626,779.413,735.626,780.505Z" transform="translate(-300.357 -334.142)"/><path class="b" d="M826.484,781.2c.981,0,1.888-2,1.888-2.907,0-.444-.259-.62-.528-.62-1.083,0-1.916,2.036-1.916,2.869C825.929,781.034,826.235,781.2,826.484,781.2Z" transform="translate(-382.546 -334.236)"/></g></svg>