<svg xmlns="http://www.w3.org/2000/svg" xmlns:xlink="http://www.w3.org/1999/xlink" width="43.543" height="27.848" viewBox="0 0 43.543 27.848"><defs><style>.a{fill:#001722;}.b{fill:#fff;}.c{fill:#f58220;}.d{fill:#231f20;}.e{fill:url(#a);}</style><radialGradient id="a" cx="0.502" cy="0.5" r="0.505" gradientTransform="translate(0.008) scale(0.978 1)" gradientUnits="objectBoundingBox"><stop offset="0" stop-color="#feedda"/><stop offset="0.108" stop-color="#fee7d0"/><stop offset="0.292" stop-color="#fcd8b5"/><stop offset="0.529" stop-color="#fabf8a"/><stop offset="0.806" stop-color="#f79c4e"/><stop offset="1" stop-color="#f58220"/></radialGradient></defs><path class="a" d="M161.779,33.258h-21.59c-.16,0-.189-.029-.189-.189V5.6c0-.16.029-.189.189-.189h43.165c.16,0,.189.029.189.189v27.47c0,.16-.029.189-.189.189Z" transform="translate(-140 -5.41)"/><path class="b" d="M140.308,32.86c-.058,0-.087-.044-.087-.1V5.913c0-.3-.044-.276.276-.276h42.352c.1,0,.232-.087.29.087V20.562a.534.534,0,0,1-.247.479c-1.133.74-2.309,1.423-3.5,2.062-.857.465-1.713.915-2.584,1.336-2.28,1.1-4.617,2.105-6.984,3.02-1.684.653-3.4,1.234-5.111,1.8-2.744.886-5.517,1.641-8.32,2.309-1.945.465-3.92.871-5.895,1.22a4.411,4.411,0,0,1-.871.073Q144.99,32.838,140.308,32.86Z" transform="translate(-139.901 -5.317)"/><path class="c" d="M140.28,32.822c.073,0,.145-.015.2-.015h8.886a9.9,9.9,0,0,0,1.858-.276,109.137,109.137,0,0,0,11.383-2.744,94.03,94.03,0,0,0,13.808-5.3,58.456,58.456,0,0,0,6.461-3.586.4.4,0,0,0,.2-.392V5.86a.545.545,0,0,1,.014-.16c0,.073.014.145.014.218V20.524c0,4.022,0,8.058.014,12.08,0,.2-.058.261-.261.261H140.411A.16.16,0,0,0,140.28,32.822Z" transform="translate(-139.873 -5.279)"/><g transform="translate(13.343 14.722)"><path class="d" d="M154.633,17.9c-.276-.77-.537-1.5-.813-2.207.218-.058.319,0,.378.218.116.392.261.784.421,1.234.232-.552.436-1.06.653-1.6.218.552.436,1.06.653,1.6.16-.465.319-.886.465-1.321.029-.058.029-.131.131-.145.2-.015.218,0,.16.189-.232.624-.45,1.249-.682,1.873-.014.044-.043.087-.073.16-.218-.537-.421-1.045-.653-1.612C155.069,16.828,154.865,17.336,154.633,17.9Z" transform="translate(-147.098 -15.55)"/><path class="d" d="M149.2,15.55c.537.566,1.031,1.089,1.568,1.641V15.855c0-.087-.029-.2.131-.2s.131.1.131.2v2.018c-.537-.552-1.031-1.074-1.568-1.641v1.394c0,.116-.044.131-.145.131s-.131-.015-.131-.131C149.2,16.958,149.2,16.276,149.2,15.55Z" transform="translate(-149.19 -15.55)"/><path class="d" d="M161.426,17.705a.537.537,0,0,1-.581-.2,8.774,8.774,0,0,0-.639-.711v.755c0,.087.029.189-.131.189s-.145-.1-.145-.2V15.847c0-.1-.029-.2.145-.2s.131.116.131.218v.61a8.064,8.064,0,0,0,.61-.624.475.475,0,0,1,.552-.189c-.029.1-.131.16-.218.247-.2.2-.407.407-.624.61-.087.087-.087.131,0,.218C160.831,17.037,161.107,17.357,161.426,17.705Z" transform="translate(-144.337 -15.513)"/><path class="d" d="M151.18,16.675V15.8c0-.145.044-.174.189-.174a7.059,7.059,0,0,0,.784,0c.116,0,.145.044.145.145s-.044.131-.145.131c-.174,0-.349.015-.537,0-.131-.015-.16.044-.16.174,0,.377,0,.377.378.377h.276c.1,0,.16.015.16.131s-.058.145-.16.131h-.537c-.087,0-.131.029-.116.116v.015c0,.189-.058.436.029.552s.363.029.552.044h.131c.116-.015.131.044.131.145s-.014.131-.116.131h-.871c-.116,0-.116-.058-.116-.145C151.18,17.271,151.18,16.98,151.18,16.675Z" transform="translate(-148.291 -15.514)"/><path class="d" d="M152.991,16.806c0-.247-.014-.494,0-.74,0-.131-.029-.174-.16-.16a1.092,1.092,0,0,1-.218,0c-.1.015-.116-.058-.1-.131s0-.145.1-.145h1.045c.116,0,.1.058.1.131s0,.131-.1.131-.276-.058-.348.029-.029.276-.029.407v1.205c0,.1-.014.16-.145.16s-.145-.058-.145-.16Z" transform="translate(-147.691 -15.514)"/><path class="d" d="M157.443,15.61a1.079,1.079,0,0,0-1.1,1.031,1.094,1.094,0,0,0,1.06,1.1,1.067,1.067,0,1,0,.044-2.134Zm0,1.887a.818.818,0,0,1-.8-.813.8.8,0,0,1,.8-.8.787.787,0,0,1,.8.8A.839.839,0,0,1,157.443,17.5Z" transform="translate(-145.959 -15.523)"/><path class="d" d="M159.08,16.817c.029-.015.043-.029.058-.029a.562.562,0,0,0,.407-.639.51.51,0,0,0-.508-.479c-.145-.015-.276-.015-.421-.029-.1-.015-.145.015-.145.131V17.6c0,.116.058.116.145.116s.145-.015.131-.131c-.015-.247,0-.479,0-.784.189.276.348.479.479.711a.363.363,0,0,0,.465.174C159.486,17.383,159.283,17.107,159.08,16.817Zm-.334-.392a.822.822,0,0,0,0-.189v-.044c.044-.087-.087-.232.073-.276a.355.355,0,0,1,.421.2.327.327,0,0,1-.16.421.72.72,0,0,1-.189.044C158.8,16.585,158.717,16.57,158.746,16.425Z" transform="translate(-144.996 -15.51)"/></g><g transform="translate(40.262 7.26)"><path class="a" d="M168.209,10.41a.471.471,0,0,0-.479.465.493.493,0,0,0,.479.479.472.472,0,1,0,0-.944Zm0,.842a.37.37,0,1,1,.363-.377A.382.382,0,0,1,168.209,11.252Z" transform="translate(-167.73 -10.41)"/><g transform="translate(0.29 0.276)"><path class="a" d="M167.93,11.007V10.6h.174a.215.215,0,0,1,.1.015c.015.015.029.015.044.044a.109.109,0,0,1,.014.073.111.111,0,0,1-.029.073.236.236,0,0,1-.087.044c.014.015.029.029.044.029a.156.156,0,0,1,.044.073l.044.087h-.1l-.058-.087c-.015-.029-.029-.058-.044-.058s-.015-.015-.029-.015h-.058v.174h-.058Zm.087-.247h.131c.014,0,.014-.015.029-.015s.014-.015.014-.029,0-.029-.014-.029-.015-.015-.029-.015h-.131Z" transform="translate(-167.93 -10.6)"/></g></g><g transform="translate(2.829 7.042)"><path class="a" d="M162.11,13.371V10.54c0-.16.043-.2.2-.189.987.015,1.975,0,2.947,0,.16,0,.218.029.2.189a5.348,5.348,0,0,0,0,.682c.014.131-.044.16-.174.16H163.46c-.131,0-.174.029-.16.16.014.334.014.682,0,1.016,0,.131.044.145.16.145H165.2c.145,0,.189.044.174.174a4.9,4.9,0,0,0,0,.653c.014.16-.029.2-.2.2-.566-.015-1.133,0-1.7,0-.131,0-.189.029-.174.174.014.421.014.857,0,1.278,0,.145.058.174.189.174h1.757c.16,0,.232.029.218.2-.015.232,0,.45,0,.682,0,.1-.015.16-.131.16h-3.078c-.145,0-.131-.087-.131-.174C162.11,15.273,162.11,14.315,162.11,13.371Z" transform="translate(-132.837 -10.22)"/><path class="a" d="M148.857,16.566a2.283,2.283,0,0,1-1.931-1.031c-.073-.087-.073-.145.015-.232.189-.174.377-.348.552-.523.1-.116.131-.073.2.029a1.341,1.341,0,0,0,1.365.653.818.818,0,0,0,.726-.7.73.73,0,0,0-.494-.828c-.29-.131-.6-.232-.886-.348a1.607,1.607,0,0,1-.232-.1,1.476,1.476,0,0,1-1.016-1.626,1.71,1.71,0,0,1,1.35-1.51,2.566,2.566,0,0,1,2.221.508c.087.073.087.116.029.2-.145.174-.29.363-.421.552-.087.116-.131.145-.247.029a1.093,1.093,0,0,0-1.162-.319.833.833,0,0,0-.276.145.55.55,0,0,0,.015.929,2.326,2.326,0,0,0,.639.29,8.046,8.046,0,0,1,.813.348,1.566,1.566,0,0,1,.9,1.873A1.988,1.988,0,0,1,148.857,16.566Z" transform="translate(-139.722 -10.251)"/><path class="a" d="M157.76,10.35h1.176c.131,0,.145.073.189.16.479,1.22.958,2.425,1.452,3.644.029.058.029.145.1.189.276-.7.552-1.379.828-2.062.247-.6.479-1.191.711-1.786a.2.2,0,0,1,.218-.145c.363.015.741,0,1.133,0-.189.45-.377.886-.552,1.321-.653,1.554-1.321,3.107-1.96,4.675-.073.16-.145.218-.3.2-.421-.015-.421,0-.581-.392-.784-1.887-1.568-3.789-2.352-5.677A.273.273,0,0,1,157.76,10.35Z" transform="translate(-134.803 -10.219)"/><path class="a" d="M154.64,12.031a1.951,1.951,0,0,0-1.7-.668,1.88,1.88,0,0,0-1.263.7,2.216,2.216,0,0,0,.087,2.846,1.969,1.969,0,0,0,2.875-.087v1.336c0,.073-.058.087-.1.116a3.167,3.167,0,1,1-1.365-6.011,3.049,3.049,0,0,1,1.336.3.187.187,0,0,1,.131.189Z" transform="translate(-138.318 -10.26)"/><path class="a" d="M145.74,13.36V10.529c0-.145.044-.189.189-.189a8.427,8.427,0,0,0,.857,0c.116,0,.16.044.16.16v5.735c0,.131-.044.16-.16.145-.29,0-.581-.015-.871,0-.145,0-.16-.044-.16-.174C145.755,15.276,145.74,14.318,145.74,13.36Z" transform="translate(-140.235 -10.224)"/><path class="a" d="M144.332,10.408c-.726-.1-1.452-.029-2.192-.058-.16,0-.2.044-.189.2.014.929,0,1.873,0,2.8V16.2c0,.145.044.189.189.189.407-.015.828,0,1.234,0a5.961,5.961,0,0,0,1.249-.1,3.018,3.018,0,0,0,2.294-3.194A2.938,2.938,0,0,0,144.332,10.408Zm1.234,3.688a1.829,1.829,0,0,1-1.626,1.234c-.218.015-.421.015-.639.029-.131.015-.174-.029-.174-.174.014-.61,0-1.22,0-1.829v-1.8c0-.131.014-.174.16-.174a4.4,4.4,0,0,1,.871.058A1.961,1.961,0,0,1,145.566,14.1Z" transform="translate(-141.948 -10.219)"/><path class="a" d="M167.476,13.859c.058-.015.087-.044.131-.044a1.776,1.776,0,0,0,.8-2.875,1.926,1.926,0,0,0-1.423-.566c-.61-.029-1.234,0-1.844-.015-.174,0-.189.058-.189.2V16.2c0,.174.043.218.218.2s.334,0,.508,0c.465,0,.465,0,.465-.479v-1.8c0-.044-.029-.116.058-.145s.1.029.131.073.029.044.044.073l1.437,2.134c.044.073.073.145.189.145h1.379C168.725,15.529,168.1,14.687,167.476,13.859Zm-1.263-.74c-.1,0-.087-.073-.087-.131V11.434c0-.073-.015-.145.1-.145a2.4,2.4,0,0,1,.842.1.767.767,0,0,1,.537.74.843.843,0,0,1-.479.871A2.151,2.151,0,0,1,166.213,13.119Z" transform="translate(-131.553 -10.215)"/><path class="e" d="M158.385,10.735a3.274,3.274,0,0,0-3.659.2.305.305,0,0,0-.087.058,3.143,3.143,0,0,0-.523,4.327,2.8,2.8,0,0,0,1.336,1,3.274,3.274,0,0,0,2.613-.044,3.5,3.5,0,0,0,1.147-.857A3.12,3.12,0,0,0,158.385,10.735Zm.189.261Zm-.174,4.98Z" transform="translate(-136.735 -10.256)"/></g></svg>