<svg xmlns="http://www.w3.org/2000/svg" width="88.785" height="28.787" viewBox="0 0 88.785 28.787"><defs><style>.a{fill:#1a1f71;}</style></defs><path class="a" d="M47.009,38.156h-6.6c-.266-1.218-.5-2.406-.74-3.624-.089-.416-.237-.535-.651-.535-2.723.03-5.475.03-8.2,0a.6.6,0,0,0-.681.475c-.385,1.129-.769,2.228-1.213,3.357a.573.573,0,0,1-.414.327c-2.338.03-4.676,0-7.014,0-.059,0-.089-.03-.178-.03.444-1.04.858-2.08,1.273-3.119,3.137-7.486,6.245-15,9.382-22.488a3.263,3.263,0,0,1,3.285-2.2h5.475c.355,0,.5.059.592.446,1.835,8.942,3.729,17.884,5.564,26.826A4.849,4.849,0,0,1,47.009,38.156Zm-10.8-20.112h-.089c-1.243,3.416-2.456,6.8-3.7,10.249h5.919Q37.272,23.124,36.206,18.044Z" transform="translate(41.777 -9.824)"/><path class="a" d="M18.7,29.244c.266-.683.5-1.277.74-1.842,2.19-5.526,4.35-11.051,6.541-16.606a.617.617,0,0,1,.681-.475c2.16.03,4.35,0,6.511,0h.533a6.18,6.18,0,0,1-.237.594c-3.729,8.942-7.488,17.914-11.187,26.855a.583.583,0,0,1-.622.416c-2.249-.03-4.469-.03-6.718,0-.355,0-.474-.089-.562-.446Q11.542,26.733,8.731,15.727A3.382,3.382,0,0,0,6.777,13.35,32.885,32.885,0,0,0,.326,11.211.769.769,0,0,1,0,11.122c.059-.238.089-.475.148-.772H12.134a3.323,3.323,0,0,1,3.551,3c.947,5.11,1.924,10.19,2.871,15.3C18.586,28.8,18.645,28.947,18.7,29.244Z" transform="translate(0 -9.823)"/><path class="a" d="M14.52,37.505c.444-2.05.858-4.04,1.3-6.09.266.119.533.208.769.327a13.834,13.834,0,0,0,7.488,1.337,4.945,4.945,0,0,0,2.4-.832,2.067,2.067,0,0,0,.266-3.416A19.619,19.619,0,0,0,24.286,27.2c-1.3-.8-2.693-1.485-3.907-2.377-4.025-3.03-3.315-7.575-1.243-10.338a10.626,10.626,0,0,1,6.185-3.8,18.476,18.476,0,0,1,10.684.594c.089.03.178.089.326.149-.414,1.931-.829,3.862-1.243,5.852-.178-.059-.355-.119-.5-.178a13.683,13.683,0,0,0-6.245-1.069,4.5,4.5,0,0,0-2.516.862,1.755,1.755,0,0,0-.059,2.971c.858.654,1.864,1.159,2.812,1.753,1.243.772,2.545,1.456,3.729,2.317A6.871,6.871,0,0,1,34.822,31.5c-.769,3.268-2.989,5.229-5.978,6.387a18.148,18.148,0,0,1-8.257.951,20.333,20.333,0,0,1-5.15-1.04A6.665,6.665,0,0,1,14.52,37.505Z" transform="translate(28.452 -10.153)"/><path class="a" d="M23.511,10.33c-.266,1.277-.5,2.466-.769,3.654-1.657,7.843-3.344,15.685-5,23.528-.118.535-.3.683-.829.654-1.953-.03-3.907,0-5.86,0H10.43c.148-.772.3-1.515.474-2.258,1.6-7.516,3.2-15.062,4.824-22.578.178-.891.385-1.782.592-2.644.03-.149.207-.356.326-.356Z" transform="translate(20.438 -9.803)"/></svg>