<svg xmlns="http://www.w3.org/2000/svg" xmlns:xlink="http://www.w3.org/1999/xlink" width="53.684" height="52.431" viewBox="0 0 53.684 52.431"><defs><style>.a{fill:url(#a);}.b{fill:url(#b);}.c{fill:url(#c);}</style><linearGradient id="a" x1="0.5" y1="2.793" x2="0.853" y2="2.793" gradientUnits="objectBoundingBox"><stop offset="0" stop-color="#a57d24"/><stop offset="0.211" stop-color="#d8bd62"/><stop offset="0.328" stop-color="#f1dd80"/><stop offset="0.524" stop-color="#fbf2a8"/><stop offset="0.73" stop-color="#f1dd80"/><stop offset="1" stop-color="#a57d24"/></linearGradient><linearGradient id="b" x1="-3.278" y1="-1.14" x2="-0.442" y2="-1.14" xlink:href="#a"/><linearGradient id="c" x1="0.109" y1="0.429" x2="0.816" y2="0.429" xlink:href="#a"/></defs><g transform="matrix(0.719, -0.695, 0.695, 0.719, -1092.388, 679.416)"><g transform="translate(1227.554 301.386)"><path class="a" d="M0,0,14.494.05l.018,5.11L.018,5.11Z" transform="translate(0 12.21) rotate(-44.777)"/><path class="b" d="M0,0,5.11.018l.05,14.494L.05,14.494Z" transform="translate(48.718 5.789) rotate(-44.777)"/><path class="c" d="M1227.554,313.576l62.6.247v-.008l-11.068-11.321a3.2,3.2,0,0,0-2.275-.967L1241,301.386a3.2,3.2,0,0,0-2.282.949Z" transform="translate(-1227.554 -301.386)"/></g></g></svg>