<svg xmlns="http://www.w3.org/2000/svg" xmlns:xlink="http://www.w3.org/1999/xlink" width="83.124" height="83.138" viewBox="0 0 83.124 83.138"><defs><style>.a{fill:#fff;stroke:#524456;}.b{fill:#524456;}.c{fill:url(#a);}.d{fill:url(#b);}.e{fill:url(#c);}.f{stroke:none;}.g{fill:none;}</style><linearGradient id="a" x1="0.5" y1="2.793" x2="0.853" y2="2.793" gradientUnits="objectBoundingBox"><stop offset="0" stop-color="#a57d24"/><stop offset="0.211" stop-color="#d8bd62"/><stop offset="0.328" stop-color="#f1dd80"/><stop offset="0.524" stop-color="#fbf2a8"/><stop offset="0.73" stop-color="#f1dd80"/><stop offset="1" stop-color="#a57d24"/></linearGradient><linearGradient id="b" x1="-3.278" y1="-1.14" x2="-0.442" y2="-1.14" xlink:href="#a"/><linearGradient id="c" x1="0.109" y1="0.429" x2="0.816" y2="0.429" xlink:href="#a"/></defs><g transform="translate(-327.876 -199.862)"><g transform="translate(-171 -2)"><g class="a" transform="translate(512 215)"><circle class="f" cx="35" cy="35" r="35"/><circle class="g" cx="35" cy="35" r="34.5"/></g><g transform="translate(530 235)"><g transform="translate(0 0)"><g transform="translate(0)"><path class="b" d="M53.2,67.651H32.374c-2.768,0-5.537.022-8.312,0a.733.733,0,0,1-.8-.758c-.007-.412,0-.832,0-1.244V53.125c0-1.141-.059-2.3,0-3.438.052-.935,1.237-.722,1.914-.722H52.775a2.076,2.076,0,0,1,.714.052c.486.206.434.692.434,1.134V66.613c-.015.508-.1,1.023-.722,1.038-.942.029-.95,1.5,0,1.472a2.235,2.235,0,0,0,2.179-2.341V50.21a2.841,2.841,0,0,0-.4-1.789c-.788-1.09-2.054-.928-3.217-.928H32.978c-2.96,0-5.912-.015-8.872,0a2.244,2.244,0,0,0-2.268,1.693,6.53,6.53,0,0,0-.044,1.259v5.463c0,3.659-.037,7.318,0,10.977a2.219,2.219,0,0,0,2.194,2.238c.236.007.479,0,.714,0H53.2A.737.737,0,0,0,53.2,67.651Z" transform="translate(-21.778 -47.484)"/></g></g><g transform="translate(0.011 11.732)"><g transform="translate(0)"><path class="b" d="M22.637,208.326h28.2c1.3,0,2.614.044,3.909,0H54.8a.737.737,0,0,0,0-1.473h-28.2c-1.3,0-2.614-.044-3.909,0h-.059a.737.737,0,0,0,0,1.473Z" transform="translate(-21.925 -206.833)"/></g></g><g transform="translate(0.011 15.87)"><g transform="translate(0 0)"><path class="b" d="M22.637,264.525h28.2c1.3,0,2.614.044,3.909,0H54.8a.737.737,0,0,0,0-1.472h-28.2c-1.3,0-2.614-.044-3.909,0h-.059a.737.737,0,0,0,0,1.472Z" transform="translate(-21.925 -263.033)"/></g></g><g transform="translate(9.72 20.191)"><g transform="translate(0)"><path class="b" d="M153.8,322.437v8.18a.739.739,0,0,0,1.1.633l5.721-3.578c.272-.169.545-.339.817-.515H160.7q2.695,1.789,5.382,3.578c.258.169.515.346.773.515a.739.739,0,0,0,1.1-.633v-8.18a.737.737,0,0,0-1.472,0v8.18c.368-.214.736-.427,1.1-.633q-2.695-1.789-5.382-3.578c-.258-.169-.515-.346-.773-.515a.727.727,0,0,0-.744,0l-5.721,3.578c-.272.169-.545.339-.817.515.368.214.736.427,1.1.633v-8.18a.729.729,0,0,0-1.458,0Z" transform="translate(-153.8 -321.725)"/></g></g></g></g><g transform="matrix(0.719, -0.695, 0.695, 0.719, -764.512, 877.921)"><g transform="translate(1227.554 301.386)"><path class="c" d="M0,0,14.042.049,14.059,5,.017,4.951Z" transform="translate(0 11.829) rotate(-44.777)"/><path class="d" d="M0,0,4.951.017,5,14.059.049,14.041Z" transform="translate(47.198 5.608) rotate(-44.777)"/><path class="e" d="M1227.554,313.2l60.645.24v-.008l-10.722-10.968a3.1,3.1,0,0,0-2.2-.937l-34.694-.137a3.1,3.1,0,0,0-2.211.919Z" transform="translate(-1227.554 -301.386)"/></g></g></g></svg>