<svg xmlns="http://www.w3.org/2000/svg" width="72" height="64" viewBox="0 0 72 64"><defs><style>.a{fill:#524456;stroke:#524456;}.b,.c{fill:#fff;}.b{font-size:12px;font-family:Poppins-Medium, Poppins;font-weight:500;}.d{stroke:none;}.e{fill:none;}</style></defs><g transform="translate(-743 -274)"><g class="a" transform="translate(743 274)"><rect class="d" width="72" height="64" rx="4"/><rect class="e" x="0.5" y="0.5" width="71" height="63" rx="3.5"/></g><text class="b" transform="translate(750 329)"><tspan x="0" y="0">Advocate</tspan></text><g transform="translate(695.646 284)"><g transform="translate(72)"><path class="c" d="M92.175,20.505l-5.723-1.788V17.656a5.7,5.7,0,0,0,2.369-3.235,2.576,2.576,0,0,0,2.277-2.55V6.257A3.237,3.237,0,0,0,88.84,3.169,7.24,7.24,0,0,0,75.613,7.24v4.631a2.575,2.575,0,0,0,2.277,2.55,5.691,5.691,0,0,0,2.369,3.235v1.062l-5.723,1.788A3.6,3.6,0,0,0,72,23.954V32H94.71V23.954A3.6,3.6,0,0,0,92.175,20.505Zm-14.5,10.462v-6.71H76.645v6.71H73.032V23.954a2.569,2.569,0,0,1,1.811-2.463l4.4-1.376.472,10.853ZM89.011,13.331c.011-.142.022-.283.022-.428V10.418a1.539,1.539,0,0,1-.022,2.914Zm-12.365-1.46a1.546,1.546,0,0,1,1.032-1.453V12.9c0,.145.011.286.022.428A1.546,1.546,0,0,1,76.645,11.871Zm1.032-4.129v1.6a2.563,2.563,0,0,0-1.032.477V7.24A6.208,6.208,0,0,1,88.018,3.8l.179.269.194.049a2.206,2.206,0,0,1,1.674,2.143V9.82a2.556,2.556,0,0,0-1.032-.477V6.71l-.826.619a9.585,9.585,0,0,1-4.382,1.815l-.256.037a2.835,2.835,0,0,0-.267-1.67l-.277-.553-.495.371A10.93,10.93,0,0,1,78.71,9.16V7.742ZM78.71,12.9v-2.68a11.994,11.994,0,0,0,3.844-1.651,1.8,1.8,0,0,1-.177,1l-.441.881,2.034-.291A10.618,10.618,0,0,0,88,8.715V12.9a4.645,4.645,0,1,1-9.29,0Zm2.581,5.917v-.634a5.6,5.6,0,0,0,4.129,0v.634L83.355,20.2Zm3.1,3.306-.4,1.615H82.726l-.4-1.615,1.033-.689ZM80.267,19.8l.426-.133,1.732,1.154-2.054,1.369Zm.576,11.172h-.09l-.33-7.576.987-.658.388,1.551Zm1.043,0,.885-6.194h1.17l.885,6.194Zm4.072,0h-.09l-.955-6.682.388-1.551.987.658Zm.381-8.781-2.054-1.369,1.732-1.154.426.133Zm2.7-1.58,1.9.593a1.031,1.031,0,0,1-1.9-.554C89.032,20.632,89.035,20.619,89.035,20.607ZM86.99,30.968l.472-10.853.568.178a2.029,2.029,0,0,0,.463,1.677L87.985,29.1l1.866,1.866Zm2.057-2.263.435-6.089a1.853,1.853,0,0,0,1.163,0l.435,6.089-1.017,1.017Zm4.63,2.263h-3.4L92.145,29.1l-.509-7.132a2.063,2.063,0,0,0,.294-.453,2.567,2.567,0,0,1,1.748,2.438Z" transform="translate(-72)"/></g></g></g></svg>