<svg xmlns="http://www.w3.org/2000/svg" width="72" height="64" viewBox="0 0 72 64"><defs><style>.a,.e{fill:#524456;}.b,.c{fill:#fff;}.b{font-size:12px;font-family:Poppins-Medium, Poppins;font-weight:500;}.d,.e{stroke:none;}</style></defs><g transform="translate(-55 -570)"><g class="a" transform="translate(55 570)"><path class="d" d="M 68 63.5 L 4 63.5 C 2.070090055465698 63.5 0.5 61.92990875244141 0.5 60 L 0.5 4 C 0.5 2.070090055465698 2.070090055465698 0.5 4 0.5 L 68 0.5 C 69.92990875244141 0.5 71.5 2.070090055465698 71.5 4 L 71.5 60 C 71.5 61.92990875244141 69.92990875244141 63.5 68 63.5 Z"/><path class="e" d="M 4 1 C 2.345787048339844 1 1 2.345790863037109 1 4 L 1 60 C 1 61.65420913696289 2.345787048339844 63 4 63 L 68 63 C 69.65421295166016 63 71 61.65420913696289 71 60 L 71 4 C 71 2.345790863037109 69.65421295166016 1 68 1 L 4 1 M 4 0 L 68 0 C 70.20913696289063 0 72 1.790859222412109 72 4 L 72 60 C 72 62.20914077758789 70.20913696289063 64 68 64 L 4 64 C 1.790863037109375 64 0 62.20914077758789 0 60 L 0 4 C 0 1.790859222412109 1.790863037109375 0 4 0 Z"/></g><text class="b" transform="translate(65 625)"><tspan x="0" y="0">Business</tspan></text><path class="c" d="M38.382,27.432H35.344V25.913a1.521,1.521,0,0,0-1.519-1.519H28.761a1.512,1.512,0,0,0-1.105.484l-5.477-.912V22.7a5.062,5.062,0,0,0,2.532-4.379h.506a1.519,1.519,0,0,0,0-3.038h-.243l.277-.644a4.089,4.089,0,0,0-2.06-5.342L21.777,8.65a5.192,5.192,0,0,0-5.181.562l-.8.6v0a3.15,3.15,0,0,0-2.032,4.462l.5,1.006h-.193a1.519,1.519,0,1,0,0,3.038h.506A5.062,5.062,0,0,0,17.115,22.7v1.269L10.962,24.99A3.533,3.533,0,0,0,8,28.487V39.079a.506.506,0,0,0,.506.506H38.382A1.014,1.014,0,0,0,39.4,38.572V28.445A1.014,1.014,0,0,0,38.382,27.432Zm-4.051-1.519v1.519H31.125a3.548,3.548,0,0,0-1.64-2.025h4.34A.507.507,0,0,1,34.331,25.913Zm-6.076.1a2.529,2.529,0,0,1,1.787,1.42H28.255ZM25.723,16.8a.507.507,0,0,1-.506.506H24.71V16.292h.506A.507.507,0,0,1,25.723,16.8ZM14.752,11.761a2.153,2.153,0,0,1,1.836-1.04,2.367,2.367,0,0,1,1.972,1.055l.159.238.843-.562-.159-.239a3.372,3.372,0,0,0-1.91-1.379,4.162,4.162,0,0,1,3.865-.265l1.413.644a3.077,3.077,0,0,1,1.551,4.02l-.034.079-.643-1.286a.507.507,0,0,0-.757-.179l-.81.608a4.05,4.05,0,0,1-4.861,0l-.81-.608a.507.507,0,0,0-.757.179L14.963,14.4l-.29-.579a2.131,2.131,0,0,1,.079-2.059ZM14.076,17.3a.506.506,0,1,1,0-1.013h.506V17.3ZM15.6,18.317V15.4l.688-1.376.325.244a5.064,5.064,0,0,0,6.076,0l.325-.244L23.7,15.4v2.919a4.051,4.051,0,0,1-8.1,0Zm4.051,5.064a5.041,5.041,0,0,0,1.519-.233v1.037L19.647,25.7l-1.519-1.519V23.148a5.041,5.041,0,0,0,1.519.233Zm-.164,5.57h.327l.826,2.066-.99,4.29-.99-4.29Zm1.124-2.1-.725,1.087h-.471l-.725-1.087.169-.507.433.433a.507.507,0,0,0,.716,0l.433-.433Zm-6.53,11.721V29.964H13.064v8.608H9.013V28.487a2.525,2.525,0,0,1,2.116-2.5l6.319-1.053.607.607-.408,1.222a.5.5,0,0,0,.059.441l.865,1.3-.914,2.285a.508.508,0,0,0-.023.3l1.519,6.583a.507.507,0,0,0,.987,0l1.519-6.583a.509.509,0,0,0-.023-.3L20.722,28.5l.865-1.3a.508.508,0,0,0,.059-.441l-.408-1.222.607-.607,5.4.9c0,.026-.008.05-.008.076v1.519H24.2a1.014,1.014,0,0,0-1.013,1.013V38.572Zm10.634,0H24.2V37.559H38.383v1.013Zm13.673-2.025H24.2V32.44a3.531,3.531,0,0,0,2.532,1.069h3.038v.506a1.519,1.519,0,0,0,3.038,0v-.506H35.85a3.534,3.534,0,0,0,2.532-1.069Zm-7.6-2.532V31.483H31.8v2.532a.506.506,0,1,1-1.013,0Zm7.6-4.051A2.535,2.535,0,0,1,35.85,32.5H32.812V30.977a.506.506,0,0,0-.506-.506H30.28a.506.506,0,0,0-.506.506V32.5H26.736A2.535,2.535,0,0,1,24.2,29.964V28.445H38.382Z" transform="translate(67 573.005)"/></g></svg>