<svg xmlns="http://www.w3.org/2000/svg" width="88" height="88" viewBox="0 0 88 88"><defs><style>.a{fill:#a7a7fb;opacity:0.55;}.b{fill:rgba(128,85,128,0.37);}.c{fill:#fff;}</style></defs><circle class="a" cx="44" cy="44" r="44"/><path class="b" d="M144.523,147.466H89.479L109.42,168.23l5.754,5.827c-3.131-.716-3.325-1.162-4.712-2.294-.728-.594-2.134-2.209-4.269-4.39L88.217,149.016v34.173l1.421,1.421-.159.166,25.287,25.287q1.137.058,2.289.059a44,44,0,0,0,44-44q0-1.095-.054-2.176Z" transform="translate(-73.055 -122.12)"/><g transform="translate(15.162 25.346)"><path class="c" d="M88.217,156.484v34.173L104.882,173.5Z" transform="translate(-88.217 -154.934)"/><path class="c" d="M343.889,156.484v34.173L327.307,173.57Z" transform="translate(-286.213 -154.934)"/><path class="c" d="M95.558,147.466H150.6l-21.633,22.526a8.165,8.165,0,0,1-11.778,0Z" transform="translate(-94.296 -147.466)"/><path class="c" d="M130.217,267.088a9.895,9.895,0,0,1-14.273,0l-3.669-3.821L95.558,280.672H150.6l-16.716-17.405Z" transform="translate(-94.296 -243.364)"/></g></svg>