<svg xmlns="http://www.w3.org/2000/svg" width="72" height="64" viewBox="0 0 72 64">
  <g id="Admin" transform="translate(-695 -570)">
    <g id="Group_5041" data-name="Group 5041">
      <g id="Group_5045" data-name="Group 5045">
        <g id="Rectangle_3391" data-name="Rectangle 3391" transform="translate(695 570)" fill="#524456" stroke="#524456" stroke-width="1">
          <rect width="72" height="64" rx="4" stroke="none"/>
          <rect x="0.5" y="0.5" width="71" height="63" rx="3.5" fill="none"/>
        </g>
        <g id="Group_5044" data-name="Group 5044">
          <g id="Group_5043" data-name="Group 5043">
            <g id="Authorization_manager" data-name="Authorization manager" transform="translate(798 631.318)">
              <g id="Group_5038" data-name="Group 5038" transform="translate(-81 -52)">
                <path id="Path_3080" data-name="Path 3080" d="M30.5,21V17.5a4.5,4.5,0,1,0-9,0v.971a8.35,8.35,0,0,0-2.22-.815L17,17.109V16.1a5.5,5.5,0,0,0,2.5-4.6V10H20a.5.5,0,0,0,.5-.5v-2A5.506,5.506,0,0,0,15,2H13A5.506,5.506,0,0,0,7.5,7.5v2A.5.5,0,0,0,8,10h.5v1.5A5.5,5.5,0,0,0,11,16.1v1.005l-2.281.546A8.543,8.543,0,0,0,2,25.967V32H30.5A1.5,1.5,0,0,0,32,30.5v-8A1.5,1.5,0,0,0,30.5,21Zm-8-3.5a3.5,3.5,0,1,1,7,0V21H29V17.5a3,3,0,1,0-6,0V21h-.5ZM28,21H24V17.5a2,2,0,1,1,4,0Zm-6.5,0A1.5,1.5,0,0,0,20,22.5v8a1.483,1.483,0,0,0,.092.5H17.6l2.25-12.15a7.4,7.4,0,0,1,1.65.783ZM14,19.64l.56.45.075.673L14,20.973l-.635-.211.075-.673Zm-.75,2.138.591.2a.5.5,0,0,0,.315,0l.591-.2.727,6.538L14,29.793l-1.476-1.476Zm1.623-2.719,1.705-1.023,1.111.277-1.3,1.956ZM8.5,7.5A4.505,4.505,0,0,1,13,3h2a4.505,4.505,0,0,1,4.5,4.5V9h-.538a1.5,1.5,0,0,1-1.171-.562l-1.4-1.75a.5.5,0,0,0-.781,0l-.8,1A3.483,3.483,0,0,1,12.077,9H8.5Zm1,4V10h2.577a4.477,4.477,0,0,0,3.514-1.689L16,7.8l1.009,1.261a2.486,2.486,0,0,0,1.491.892V11.5a4.5,4.5,0,0,1-9,0ZM14,17a5.463,5.463,0,0,0,2-.382v.6l-2,1.2-2-1.2v-.6A5.463,5.463,0,0,0,14,17ZM11.42,18.035l1.705,1.023-1.512,1.21-1.3-1.956ZM3,25.967A7.54,7.54,0,0,1,8.15,18.85L10.4,31H8V25.5a.5.5,0,0,0-1,0V31H3ZM11.416,31l-2.3-12.407.154-.033,1.811,2.717a.5.5,0,0,0,.339.216.488.488,0,0,0,.079.006.5.5,0,0,0,.312-.11l.522-.418L11.5,28.444a.5.5,0,0,0,.143.409l2,2a.5.5,0,0,0,.707,0l2-2a.5.5,0,0,0,.143-.409l-.832-7.472.522.418a.5.5,0,0,0,.312.109.488.488,0,0,0,.076-.006.5.5,0,0,0,.339-.216l1.811-2.717.154.033L16.584,31ZM31,30.5a.5.5,0,0,1-.5.5h-9a.5.5,0,0,1-.5-.5v-8a.5.5,0,0,1,.5-.5h9a.5.5,0,0,1,.5.5Z" transform="translate(-2 -2)" fill="#fff"/>
                <path id="Path_3081" data-name="Path 3081" d="M48.5,46a1.5,1.5,0,0,0-.5,2.908V51.5a.5.5,0,0,0,1,0V48.908A1.5,1.5,0,0,0,48.5,46Zm0,2a.5.5,0,1,1,.5-.5A.5.5,0,0,1,48.5,48Z" transform="translate(-24.501 -24)" fill="#fff"/>
              </g>
            </g>
          </g>
          <g id="Group_5039" data-name="Group 5039" transform="translate(253 -2.188)">
            <text id="Admin-2" data-name="Admin" transform="translate(462 625)" fill="#fff" font-size="10" font-family="Poppins-Medium, Poppins" font-weight="500"><tspan x="0" y="0">Admin</tspan></text>
          </g>
        </g>
      </g>
    </g>
  </g>
</svg>
