<svg xmlns="http://www.w3.org/2000/svg" viewBox="0 0 25 25"><defs><style>.cls-1{fill:#fff;}</style></defs><title>business</title><g id="Layer_2" data-name="Layer 2"><g id="agent_admin" data-name="agent admin"><g id="Layer_3" data-name="Layer 3"><path class="cls-1" d="M12.5,0A12.5,12.5,0,1,0,25,12.5,12.5,12.5,0,0,0,12.5,0Zm0,23.86A11.34,11.34,0,0,1,4.33,20.4a.67.67,0,0,1-.15-.16,11.36,11.36,0,1,1,8.31,3.63Z"/><path class="cls-1" d="M18,17.44V7.56A.56.56,0,0,0,17.44,7H7.56A.56.56,0,0,0,7,7.56v9.88a.56.56,0,0,0,.56.56h9.88A.56.56,0,0,0,18,17.44ZM12.5,15.5a3.12,3.12,0,1,1,3.12-3.12A3.12,3.12,0,0,1,12.5,15.5ZM13,12h1v1H13v1H12V13H11V12h1V11h1Zm.19-.31"/></g></g></g></svg>