<svg xmlns="http://www.w3.org/2000/svg" xmlns:xlink="http://www.w3.org/1999/xlink" width="1068" height="571" viewBox="0 0 1068 571"><defs><style>.a,.d,.g,.i{fill:#fff;}.b{clip-path:url(#c);}.c{fill:#fcfaff;}.e,.h,.m{fill:#ffd1b3;}.f,.l{fill:#f60;}.g{stroke:#ffd1b3;}.g,.i{stroke-width:3px;}.i{stroke:#f60;}.j,.o{fill:#606;}.k,.l,.m,.o{stroke:none;}.n{fill:none;}.p{filter:url(#a);}</style><filter id="a" x="0" y="0" width="1068" height="571" filterUnits="userSpaceOnUse"><feOffset dx="3" dy="3" input="SourceAlpha"/><feGaussianBlur stdDeviation="3" result="b"/><feFlood flood-opacity="0.2"/><feComposite operator="in" in2="b"/><feComposite in="SourceGraphic"/></filter><clipPath id="c"><rect class="a" width="1050" height="553" rx="5" transform="translate(158 135)"/></clipPath></defs><g transform="translate(-152 -129)"><g class="p" transform="matrix(1, 0, 0, 1, 152, 129)"><rect class="a" width="1050" height="553" rx="5" transform="translate(6 6)"/></g><g class="b"><g transform="translate(0 -80)"><g transform="translate(477.993 344.725)"><path class="c" d="M60,44.166l56.611-.58h.464l.116.464,9.953,35.289-.36.629-1.241.276L140.972,2.288h3.016l18.561,99.649-3.944.116,9.629-58.119.348-1.74h25.405L191.9,43.818l6.148-24.825,4.408.116,5.1,24.941,4.988,24.941-4.408-.116,7.192-25.057.464-1.624h1.624l27.725.116h1.74l.348,1.624,8.236,35.15-4.06.116,7.076-39.558L265.679.2h3.364l17.169,97.561h-2.2l10.9-53.363.116-.464h.464l54.523.58-54.523.58.58-.464-9.745,53.595h-2.2L265.679.548h3.364l-6.728,39.558L255.47,79.664l-4.06.116-8.352-35.15,2.088,1.624-27.725.116,2.088-1.624L212.432,69.8l-4.408-.116-5.1-24.941-5.1-24.941,4.408.116-6.264,24.825L195.5,46.37H170.206l2.088-1.856-9.861,58.119-4.06.116c-3.016-15.081-6.032-39.442-17.368-98.5l.9-1.2,1.851-.176c-11.021,45.59-13.689,66.355-16.589,77.724h-1.856L115.8,44.166l.58.464Z"/></g><g class="d" transform="translate(3088 373)"><path class="k" d="M -2849.645751953125 35.49990081787109 L -2857.354248046875 35.49990081787109 C -2857.6298828125 35.49990081787109 -2857.85400390625 35.27569198608398 -2857.85400390625 35.00009918212891 L -2857.85400390625 24.35490036010742 L -2857.85400390625 22.85490036010742 L -2859.35400390625 22.85490036010742 L -2870.000244140625 22.85490036010742 C -2870.27587890625 22.85490036010742 -2870.5 22.63029098510742 -2870.5 22.35420036315918 L -2870.5 14.64570045471191 C -2870.5 14.37011051177979 -2870.27587890625 14.14590072631836 -2870.000244140625 14.14590072631836 L -2859.35400390625 14.14590072631836 L -2857.85400390625 14.14590072631836 L -2857.85400390625 12.64590072631836 L -2857.85400390625 1.999800443649292 C -2857.85400390625 1.724210381507874 -2857.6298828125 1.500000357627869 -2857.354248046875 1.500000357627869 L -2849.645751953125 1.500000357627869 C -2849.36962890625 1.500000357627869 -2849.14501953125 1.724210381507874 -2849.14501953125 1.999800443649292 L -2849.14501953125 12.64590072631836 L -2849.14501953125 14.14590072631836 L -2847.64501953125 14.14590072631836 L -2836.999755859375 14.14590072631836 C -2836.72412109375 14.14590072631836 -2836.5 14.37011051177979 -2836.5 14.64570045471191 L -2836.5 22.35420036315918 C -2836.5 22.63029098510742 -2836.72412109375 22.85490036010742 -2836.999755859375 22.85490036010742 L -2847.64501953125 22.85490036010742 L -2849.14501953125 22.85490036010742 L -2849.14501953125 24.35490036010742 L -2849.14501953125 35.00009918212891 C -2849.14501953125 35.27569198608398 -2849.36962890625 35.49990081787109 -2849.645751953125 35.49990081787109 Z"/><path class="l" d="M -2850.64501953125 33.99990081787109 L -2850.64501953125 24.35490036010742 L -2850.64501953125 21.35490036010742 L -2847.64501953125 21.35490036010742 L -2838 21.35490036010742 L -2838 15.64590072631836 L -2847.64501953125 15.64590072631836 L -2850.64501953125 15.64590072631836 L -2850.64501953125 12.64590072631836 L -2850.64501953125 3.000000476837158 L -2856.35400390625 3.000000476837158 L -2856.35400390625 12.64590072631836 L -2856.35400390625 15.64590072631836 L -2859.35400390625 15.64590072631836 L -2869 15.64590072631836 L -2869 21.35490036010742 L -2859.35400390625 21.35490036010742 L -2856.35400390625 21.35490036010742 L -2856.35400390625 24.35490036010742 L -2856.35400390625 33.99990081787109 L -2850.64501953125 33.99990081787109 M -2849.645751953125 36.99990081787109 L -2857.354248046875 36.99990081787109 C -2858.45849609375 36.99990081787109 -2859.35400390625 36.10440063476563 -2859.35400390625 35.00009918212891 L -2859.35400390625 24.35490036010742 L -2870.000244140625 24.35490036010742 C -2871.1044921875 24.35490036010742 -2872 23.45940017700195 -2872 22.35420036315918 L -2872 14.64570045471191 C -2872 13.54139995574951 -2871.1044921875 12.64590072631836 -2870.000244140625 12.64590072631836 L -2859.35400390625 12.64590072631836 L -2859.35400390625 1.999800443649292 C -2859.35400390625 0.8955004215240479 -2858.45849609375 4.089355343239731e-07 -2857.354248046875 4.089355343239731e-07 L -2849.645751953125 4.089355343239731e-07 C -2848.54052734375 4.089355343239731e-07 -2847.64501953125 0.8955004215240479 -2847.64501953125 1.999800443649292 L -2847.64501953125 12.64590072631836 L -2836.999755859375 12.64590072631836 C -2835.8955078125 12.64590072631836 -2835 13.54139995574951 -2835 14.64570045471191 L -2835 22.35420036315918 C -2835 23.45940017700195 -2835.8955078125 24.35490036010742 -2836.999755859375 24.35490036010742 L -2847.64501953125 24.35490036010742 L -2847.64501953125 35.00009918212891 C -2847.64501953125 36.10440063476563 -2848.54052734375 36.99990081787109 -2849.645751953125 36.99990081787109 Z"/></g><g class="e" transform="translate(3140 323)"><path class="k" d="M -2841.088623046875 48.50040054321289 L -2852.910888671875 48.50040054321289 C -2853.18701171875 48.50040054321289 -2853.41162109375 48.27619171142578 -2853.41162109375 48.0005989074707 L -2853.41162109375 32.91120147705078 L -2853.41162109375 31.41119956970215 L -2854.91162109375 31.41119956970215 L -2870.000244140625 31.41119956970215 C -2870.27587890625 31.41119956970215 -2870.5 31.18699073791504 -2870.5 30.91139984130859 L -2870.5 19.0890007019043 C -2870.5 18.81291007995605 -2870.27587890625 18.58830070495605 -2870.000244140625 18.58830070495605 L -2854.91162109375 18.58830070495605 L -2853.41162109375 18.58830070495605 L -2853.41162109375 17.08830070495605 L -2853.41162109375 1.999800324440002 C -2853.41162109375 1.724210262298584 -2853.18701171875 1.500000238418579 -2852.910888671875 1.500000238418579 L -2841.088623046875 1.500000238418579 C -2840.81298828125 1.500000238418579 -2840.5888671875 1.724210262298584 -2840.5888671875 1.999800324440002 L -2840.5888671875 17.08830070495605 L -2840.5888671875 18.58830070495605 L -2839.0888671875 18.58830070495605 L -2823.999267578125 18.58830070495605 C -2823.7236328125 18.58830070495605 -2823.49951171875 18.81291007995605 -2823.49951171875 19.0890007019043 L -2823.49951171875 30.91139984130859 C -2823.49951171875 31.18699073791504 -2823.7236328125 31.41119956970215 -2823.999267578125 31.41119956970215 L -2839.0888671875 31.41119956970215 L -2840.5888671875 31.41119956970215 L -2840.5888671875 32.91120147705078 L -2840.5888671875 48.0005989074707 C -2840.5888671875 48.27619171142578 -2840.81298828125 48.50040054321289 -2841.088623046875 48.50040054321289 Z"/><path class="m" d="M -2842.0888671875 47.00040054321289 L -2842.0888671875 32.91120147705078 L -2842.0888671875 29.91119956970215 L -2839.0888671875 29.91119956970215 L -2824.99951171875 29.91119956970215 L -2824.99951171875 20.08830070495605 L -2839.0888671875 20.08830070495605 L -2842.0888671875 20.08830070495605 L -2842.0888671875 17.08830070495605 L -2842.0888671875 3.000000238418579 L -2851.91162109375 3.000000238418579 L -2851.91162109375 17.08830070495605 L -2851.91162109375 20.08830070495605 L -2854.91162109375 20.08830070495605 L -2869 20.08830070495605 L -2869 29.91119956970215 L -2854.91162109375 29.91119956970215 L -2851.91162109375 29.91119956970215 L -2851.91162109375 32.91120147705078 L -2851.91162109375 47.00040054321289 L -2842.0888671875 47.00040054321289 M -2841.088623046875 50.00040054321289 L -2852.910888671875 50.00040054321289 C -2854.01611328125 50.00040054321289 -2854.91162109375 49.10490036010742 -2854.91162109375 48.0005989074707 L -2854.91162109375 32.91120147705078 L -2870.000244140625 32.91120147705078 C -2871.1044921875 32.91120147705078 -2872 32.01570129394531 -2872 30.91139984130859 L -2872 19.0890007019043 C -2872 17.98380088806152 -2871.1044921875 17.08830070495605 -2870.000244140625 17.08830070495605 L -2854.91162109375 17.08830070495605 L -2854.91162109375 1.999800324440002 C -2854.91162109375 0.8955002427101135 -2854.01611328125 2.716064386731887e-07 -2852.910888671875 2.716064386731887e-07 L -2841.088623046875 2.716064386731887e-07 C -2839.984375 2.716064386731887e-07 -2839.0888671875 0.8955002427101135 -2839.0888671875 1.999800324440002 L -2839.0888671875 17.08830070495605 L -2823.999267578125 17.08830070495605 C -2822.89501953125 17.08830070495605 -2821.99951171875 17.98380088806152 -2821.99951171875 19.0890007019043 L -2821.99951171875 30.91139984130859 C -2821.99951171875 32.01570129394531 -2822.89501953125 32.91120147705078 -2823.999267578125 32.91120147705078 L -2839.0888671875 32.91120147705078 L -2839.0888671875 48.0005989074707 C -2839.0888671875 49.10490036010742 -2839.984375 50.00040054321289 -2841.088623046875 50.00040054321289 Z"/></g><path class="f" d="M-2854.279,46a2,2,0,0,1-2-2V30.279H-2870a2,2,0,0,1-2-2V17.722a2,2,0,0,1,2-2h13.721V2a2,2,0,0,1,2-2h10.558a2,2,0,0,1,2,2V15.721H-2828a2,2,0,0,1,2,2V28.279a2,2,0,0,1-2,2h-13.721V44a2,2,0,0,1-2,2Z" transform="translate(3126 428)"/><g class="d" transform="translate(3198 396)"><path class="k" d="M -2836.48046875 55.49970245361328 L -2850.518798828125 55.49970245361328 C -2850.794921875 55.49970245361328 -2851.01953125 55.27548980712891 -2851.01953125 54.99990081787109 L -2851.01953125 37.51919937133789 L -2851.01953125 36.01919937133789 L -2852.51953125 36.01919937133789 L -2870.000244140625 36.01919937133789 C -2870.27587890625 36.01919937133789 -2870.5 35.79499053955078 -2870.5 35.51940155029297 L -2870.5 21.481201171875 C -2870.5 21.20561027526855 -2870.27587890625 20.98140144348145 -2870.000244140625 20.98140144348145 L -2852.51953125 20.98140144348145 L -2851.01953125 20.98140144348145 L -2851.01953125 19.48140144348145 L -2851.01953125 1.999801278114319 C -2851.01953125 1.7242112159729 -2850.794921875 1.500001192092896 -2850.518798828125 1.500001192092896 L -2836.48046875 1.500001192092896 C -2836.204833984375 1.500001192092896 -2835.980712890625 1.7242112159729 -2835.980712890625 1.999801278114319 L -2835.980712890625 19.48140144348145 L -2835.980712890625 20.98140144348145 L -2834.480712890625 20.98140144348145 L -2817 20.98140144348145 C -2816.723876953125 20.98140144348145 -2816.499267578125 21.20561027526855 -2816.499267578125 21.481201171875 L -2816.499267578125 35.51940155029297 C -2816.499267578125 35.79499053955078 -2816.723876953125 36.01919937133789 -2817 36.01919937133789 L -2834.480712890625 36.01919937133789 L -2835.980712890625 36.01919937133789 L -2835.980712890625 37.51919937133789 L -2835.980712890625 54.99990081787109 C -2835.980712890625 55.27548980712891 -2836.204833984375 55.49970245361328 -2836.48046875 55.49970245361328 Z"/><path class="l" d="M -2837.480712890625 53.99970245361328 L -2837.480712890625 37.51919937133789 L -2837.480712890625 34.51919937133789 L -2834.480712890625 34.51919937133789 L -2817.999267578125 34.51919937133789 L -2817.999267578125 22.48140144348145 L -2834.480712890625 22.48140144348145 L -2837.480712890625 22.48140144348145 L -2837.480712890625 19.48140144348145 L -2837.480712890625 3.000001192092896 L -2849.51953125 3.000001192092896 L -2849.51953125 19.48140144348145 L -2849.51953125 22.48140144348145 L -2852.51953125 22.48140144348145 L -2869 22.48140144348145 L -2869 34.51919937133789 L -2852.51953125 34.51919937133789 L -2849.51953125 34.51919937133789 L -2849.51953125 37.51919937133789 L -2849.51953125 53.99970245361328 L -2837.480712890625 53.99970245361328 M -2836.48046875 56.99970245361328 L -2850.518798828125 56.99970245361328 C -2851.6240234375 56.99970245361328 -2852.51953125 56.1051025390625 -2852.51953125 54.99990081787109 L -2852.51953125 37.51919937133789 L -2870.000244140625 37.51919937133789 C -2871.1044921875 37.51919937133789 -2872 36.62370300292969 -2872 35.51940155029297 L -2872 21.481201171875 C -2872 20.37690162658691 -2871.1044921875 19.48140144348145 -2870.000244140625 19.48140144348145 L -2852.51953125 19.48140144348145 L -2852.51953125 1.999801278114319 C -2852.51953125 0.8955012559890747 -2851.6240234375 1.226806602971919e-06 -2850.518798828125 1.226806602971919e-06 L -2836.48046875 1.226806602971919e-06 C -2835.376220703125 1.226806602971919e-06 -2834.480712890625 0.8955012559890747 -2834.480712890625 1.999801278114319 L -2834.480712890625 19.48140144348145 L -2817 19.48140144348145 C -2815.894775390625 19.48140144348145 -2814.999267578125 20.37690162658691 -2814.999267578125 21.481201171875 L -2814.999267578125 35.51940155029297 C -2814.999267578125 36.62370300292969 -2815.894775390625 37.51919937133789 -2817 37.51919937133789 L -2834.480712890625 37.51919937133789 L -2834.480712890625 54.99990081787109 C -2834.480712890625 56.1051025390625 -2835.376220703125 56.99970245361328 -2836.48046875 56.99970245361328 Z"/></g><g class="d" transform="translate(3262 348)"><path class="k" d="M -2841.088623046875 48.50040054321289 L -2852.910888671875 48.50040054321289 C -2853.18701171875 48.50040054321289 -2853.41162109375 48.27619171142578 -2853.41162109375 48.0005989074707 L -2853.41162109375 32.91120147705078 L -2853.41162109375 31.41119956970215 L -2854.91162109375 31.41119956970215 L -2870.000244140625 31.41119956970215 C -2870.27587890625 31.41119956970215 -2870.5 31.18699073791504 -2870.5 30.91139984130859 L -2870.5 19.0890007019043 C -2870.5 18.81291007995605 -2870.27587890625 18.58830070495605 -2870.000244140625 18.58830070495605 L -2854.91162109375 18.58830070495605 L -2853.41162109375 18.58830070495605 L -2853.41162109375 17.08830070495605 L -2853.41162109375 1.999800324440002 C -2853.41162109375 1.724210262298584 -2853.18701171875 1.500000238418579 -2852.910888671875 1.500000238418579 L -2841.088623046875 1.500000238418579 C -2840.81298828125 1.500000238418579 -2840.5888671875 1.724210262298584 -2840.5888671875 1.999800324440002 L -2840.5888671875 17.08830070495605 L -2840.5888671875 18.58830070495605 L -2839.0888671875 18.58830070495605 L -2823.999267578125 18.58830070495605 C -2823.7236328125 18.58830070495605 -2823.49951171875 18.81291007995605 -2823.49951171875 19.0890007019043 L -2823.49951171875 30.91139984130859 C -2823.49951171875 31.18699073791504 -2823.7236328125 31.41119956970215 -2823.999267578125 31.41119956970215 L -2839.0888671875 31.41119956970215 L -2840.5888671875 31.41119956970215 L -2840.5888671875 32.91120147705078 L -2840.5888671875 48.0005989074707 C -2840.5888671875 48.27619171142578 -2840.81298828125 48.50040054321289 -2841.088623046875 48.50040054321289 Z"/><path class="m" d="M -2842.0888671875 47.00040054321289 L -2842.0888671875 32.91120147705078 L -2842.0888671875 29.91119956970215 L -2839.0888671875 29.91119956970215 L -2824.99951171875 29.91119956970215 L -2824.99951171875 20.08830070495605 L -2839.0888671875 20.08830070495605 L -2842.0888671875 20.08830070495605 L -2842.0888671875 17.08830070495605 L -2842.0888671875 3.000000238418579 L -2851.91162109375 3.000000238418579 L -2851.91162109375 17.08830070495605 L -2851.91162109375 20.08830070495605 L -2854.91162109375 20.08830070495605 L -2869 20.08830070495605 L -2869 29.91119956970215 L -2854.91162109375 29.91119956970215 L -2851.91162109375 29.91119956970215 L -2851.91162109375 32.91120147705078 L -2851.91162109375 47.00040054321289 L -2842.0888671875 47.00040054321289 M -2841.088623046875 50.00040054321289 L -2852.910888671875 50.00040054321289 C -2854.01611328125 50.00040054321289 -2854.91162109375 49.10490036010742 -2854.91162109375 48.0005989074707 L -2854.91162109375 32.91120147705078 L -2870.000244140625 32.91120147705078 C -2871.1044921875 32.91120147705078 -2872 32.01570129394531 -2872 30.91139984130859 L -2872 19.0890007019043 C -2872 17.98380088806152 -2871.1044921875 17.08830070495605 -2870.000244140625 17.08830070495605 L -2854.91162109375 17.08830070495605 L -2854.91162109375 1.999800324440002 C -2854.91162109375 0.8955002427101135 -2854.01611328125 2.716064386731887e-07 -2852.910888671875 2.716064386731887e-07 L -2841.088623046875 2.716064386731887e-07 C -2839.984375 2.716064386731887e-07 -2839.0888671875 0.8955002427101135 -2839.0888671875 1.999800324440002 L -2839.0888671875 17.08830070495605 L -2823.999267578125 17.08830070495605 C -2822.89501953125 17.08830070495605 -2821.99951171875 17.98380088806152 -2821.99951171875 19.0890007019043 L -2821.99951171875 30.91139984130859 C -2821.99951171875 32.01570129394531 -2822.89501953125 32.91120147705078 -2823.999267578125 32.91120147705078 L -2839.0888671875 32.91120147705078 L -2839.0888671875 48.0005989074707 C -2839.0888671875 49.10490036010742 -2839.984375 50.00040054321289 -2841.088623046875 50.00040054321289 Z"/></g><path class="f" d="M-2857.671,39a1,1,0,0,1-1-1V25.671H-2871a1,1,0,0,1-1-1V14.329a1,1,0,0,1,1-1h12.329V1a1,1,0,0,1,1-1h10.342a1,1,0,0,1,1,1V13.329H-2834a1,1,0,0,1,1,1V24.671a1,1,0,0,1-1,1h-12.329V38a1,1,0,0,1-1,1Z" transform="translate(3273 425)"/><path class="f" d="M-2860.405,31a1,1,0,0,1-1-1V20.4H-2871a1,1,0,0,1-1-1v-7.81a1,1,0,0,1,1-1h9.595V1a1,1,0,0,1,1-1h7.81a1,1,0,0,1,1,1v9.595H-2842a1,1,0,0,1,1,1V19.4a1,1,0,0,1-1,1h-9.595V30a1,1,0,0,1-1,1Z" transform="translate(3217 320)"/><g class="d" transform="translate(3022 431)"><path class="k" d="M -2830.556884765625 64.50060272216797 L -2847.442626953125 64.50060272216797 C -2847.71875 64.50060272216797 -2847.943359375 64.27599334716797 -2847.943359375 63.99990081787109 L -2847.943359375 43.44300079345703 L -2847.943359375 41.94300079345703 L -2849.443359375 41.94300079345703 L -2870.000244140625 41.94300079345703 C -2870.27587890625 41.94300079345703 -2870.5 41.71879196166992 -2870.5 41.44320297241211 L -2870.5 24.55740165710449 C -2870.5 24.28131103515625 -2870.27587890625 24.05670166015625 -2870.000244140625 24.05670166015625 L -2849.443359375 24.05670166015625 L -2847.943359375 24.05670166015625 L -2847.943359375 22.55670166015625 L -2847.943359375 1.999801397323608 C -2847.943359375 1.72421133518219 -2847.71875 1.500001311302185 -2847.442626953125 1.500001311302185 L -2830.556884765625 1.500001311302185 C -2830.28125 1.500001311302185 -2830.056884765625 1.72421133518219 -2830.056884765625 1.999801397323608 L -2830.056884765625 22.55670166015625 L -2830.056884765625 24.05670166015625 L -2828.556884765625 24.05670166015625 L -2808 24.05670166015625 C -2807.724365234375 24.05670166015625 -2807.500244140625 24.28131103515625 -2807.500244140625 24.55740165710449 L -2807.500244140625 41.44320297241211 C -2807.500244140625 41.71879196166992 -2807.724365234375 41.94300079345703 -2808 41.94300079345703 L -2828.556884765625 41.94300079345703 L -2830.056884765625 41.94300079345703 L -2830.056884765625 43.44300079345703 L -2830.056884765625 63.99990081787109 C -2830.056884765625 64.27599334716797 -2830.28125 64.50060272216797 -2830.556884765625 64.50060272216797 Z"/><path class="m" d="M -2831.556884765625 63.00060272216797 L -2831.556884765625 43.44300079345703 L -2831.556884765625 40.44300079345703 L -2828.556884765625 40.44300079345703 L -2809.000244140625 40.44300079345703 L -2809.000244140625 25.55670166015625 L -2828.556884765625 25.55670166015625 L -2831.556884765625 25.55670166015625 L -2831.556884765625 22.55670166015625 L -2831.556884765625 3.000001430511475 L -2846.443359375 3.000001430511475 L -2846.443359375 22.55670166015625 L -2846.443359375 25.55670166015625 L -2849.443359375 25.55670166015625 L -2869 25.55670166015625 L -2869 40.44300079345703 L -2849.443359375 40.44300079345703 L -2846.443359375 40.44300079345703 L -2846.443359375 43.44300079345703 L -2846.443359375 63.00060272216797 L -2831.556884765625 63.00060272216797 M -2830.556884765625 66.00060272216797 L -2847.442626953125 66.00060272216797 C -2848.5478515625 66.00060272216797 -2849.443359375 65.1051025390625 -2849.443359375 63.99990081787109 L -2849.443359375 43.44300079345703 L -2870.000244140625 43.44300079345703 C -2871.1044921875 43.44300079345703 -2872 42.54750061035156 -2872 41.44320297241211 L -2872 24.55740165710449 C -2872 23.45220184326172 -2871.1044921875 22.55670166015625 -2870.000244140625 22.55670166015625 L -2849.443359375 22.55670166015625 L -2849.443359375 1.999801397323608 C -2849.443359375 0.8955013751983643 -2848.5478515625 1.361083945994324e-06 -2847.442626953125 1.361083945994324e-06 L -2830.556884765625 1.361083945994324e-06 C -2829.452392578125 1.361083945994324e-06 -2828.556884765625 0.8955013751983643 -2828.556884765625 1.999801397323608 L -2828.556884765625 22.55670166015625 L -2808 22.55670166015625 C -2806.895751953125 22.55670166015625 -2806.000244140625 23.45220184326172 -2806.000244140625 24.55740165710449 L -2806.000244140625 41.44320297241211 C -2806.000244140625 42.54750061035156 -2806.895751953125 43.44300079345703 -2808 43.44300079345703 L -2828.556884765625 43.44300079345703 L -2828.556884765625 63.99990081787109 C -2828.556884765625 65.1051025390625 -2829.452392578125 66.00060272216797 -2830.556884765625 66.00060272216797 Z"/></g><path class="f" d="M-2844.367,75a2,2,0,0,1-2-2V49.367H-2870a2,2,0,0,1-2-2V27.633a2,2,0,0,1,2-2h23.633V2a2,2,0,0,1,2-2h19.734a2,2,0,0,1,2,2V25.633H-2799a2,2,0,0,1,2,2V47.367a2,2,0,0,1-2,2h-23.633V73a2,2,0,0,1-2,2Z" transform="translate(3000 302)"/><path class="f" d="M-2863.139,23a1,1,0,0,1-1-1V15.139H-2871a1,1,0,0,1-1-1V8.861a1,1,0,0,1,1-1h6.861V1a1,1,0,0,1,1-1h5.278a1,1,0,0,1,1,1V7.861H-2850a1,1,0,0,1,1,1v5.278a1,1,0,0,1-1,1h-6.861V22a1,1,0,0,1-1,1Z" transform="translate(3363 361)"/><g class="e" transform="translate(3332 396)"><path class="k" d="M -2857.861083984375 22.00040054321289 L -2863.139404296875 22.00040054321289 L -2863.139404296875 15.13889980316162 L -2863.139404296875 14.13889980316162 L -2864.139404296875 14.13889980316162 L -2871 14.13889980316162 L -2871 8.860500335693359 L -2864.139404296875 8.860600471496582 L -2863.139404296875 8.860600471496582 L -2863.139404296875 7.860600471496582 L -2863.139404296875 0.9999002814292908 L -2857.861083984375 1.000000238418579 L -2857.861083984375 7.860600471496582 L -2857.861083984375 8.860600471496582 L -2856.861083984375 8.860600471496582 L -2850.00048828125 8.860600471496582 L -2849.99951171875 14.13899993896484 L -2856.861083984375 14.13889980316162 L -2857.861083984375 14.13889980316162 L -2857.861083984375 15.13889980316162 L -2857.861083984375 21.99959945678711 L -2857.861083984375 22.00040054321289 Z"/><path class="m" d="M -2858.861083984375 21.00040054321289 L -2858.861083984375 15.13889980316162 L -2858.861083984375 13.13889980316162 L -2856.861083984375 13.13889980316162 L -2850.99951171875 13.13889980316162 L -2850.99951171875 9.860600471496582 L -2856.861083984375 9.860600471496582 L -2858.861083984375 9.860600471496582 L -2858.861083984375 7.860600471496582 L -2858.861083984375 2.000000238418579 L -2862.139404296875 2.000000238418579 L -2862.139404296875 7.860600471496582 L -2862.139404296875 9.860600471496582 L -2864.139404296875 9.860600471496582 L -2870 9.860600471496582 L -2870 13.13889980316162 L -2864.139404296875 13.13889980316162 L -2862.139404296875 13.13889980316162 L -2862.139404296875 15.13889980316162 L -2862.139404296875 21.00040054321289 L -2858.861083984375 21.00040054321289 M -2857.861083984375 23.00040054321289 L -2863.139404296875 23.00040054321289 C -2863.692138671875 23.00040054321289 -2864.139404296875 22.55220031738281 -2864.139404296875 21.99959945678711 L -2864.139404296875 15.13889980316162 L -2871 15.13889980316162 C -2871.552734375 15.13889980316162 -2872 14.69159984588623 -2872 14.13899993896484 L -2872 8.860500335693359 C -2872 8.30880069732666 -2871.552734375 7.860600471496582 -2871 7.860600471496582 L -2864.139404296875 7.860600471496582 L -2864.139404296875 0.9999002814292908 C -2864.139404296875 0.4473002851009369 -2863.692138671875 2.716064386731887e-07 -2863.139404296875 2.716064386731887e-07 L -2857.861083984375 2.716064386731887e-07 C -2857.308349609375 2.716064386731887e-07 -2856.861083984375 0.4473002851009369 -2856.861083984375 0.9999002814292908 L -2856.861083984375 7.860600471496582 L -2850.00048828125 7.860600471496582 C -2849.44775390625 7.860600471496582 -2848.99951171875 8.30880069732666 -2848.99951171875 8.860500335693359 L -2848.99951171875 14.13899993896484 C -2848.99951171875 14.69159984588623 -2849.44775390625 15.13889980316162 -2850.00048828125 15.13889980316162 L -2856.861083984375 15.13889980316162 L -2856.861083984375 21.99959945678711 C -2856.861083984375 22.55220031738281 -2857.308349609375 23.00040054321289 -2857.861083984375 23.00040054321289 Z"/></g><g class="g" transform="translate(229 309)"><circle class="k" cx="5.5" cy="5.5" r="5.5"/><circle class="n" cx="5.5" cy="5.5" r="4"/></g><g class="g" transform="translate(318 473)"><circle class="k" cx="8" cy="8" r="8"/><circle class="n" cx="8" cy="8" r="6.5"/></g><circle class="h" cx="4" cy="4" r="4" transform="translate(499 415)"/><circle class="h" cx="4" cy="4" r="4" transform="translate(452 357)"/><g class="g" transform="translate(528 390)"><circle class="k" cx="8" cy="8" r="8"/><circle class="n" cx="8" cy="8" r="6.5"/></g><g class="g" transform="translate(192 408)"><circle class="k" cx="5.5" cy="5.5" r="5.5"/><circle class="n" cx="5.5" cy="5.5" r="4"/></g><circle class="f" cx="4" cy="4" r="4" transform="translate(326 376)"/><g transform="translate(815 286)"><path class="h" d="M14.646,37a2,2,0,0,1-2-2V24.355H2a2,2,0,0,1-2-2V14.646a2,2,0,0,1,2-2H12.646V2a2,2,0,0,1,2-2h7.708a2,2,0,0,1,2,2V12.646H35a2,2,0,0,1,2,2v7.708a2,2,0,0,1-2,2H24.355V35a2,2,0,0,1-2,2Z" transform="translate(335 124.001) rotate(180)"/><g class="d" transform="translate(283 174.001) rotate(180)"><path class="k" d="M 30.91139984130859 48.50040054321289 L 19.08810043334961 48.50040054321289 C 18.81250953674316 48.50040054321289 18.58830070495605 48.27619171142578 18.58830070495605 48.0005989074707 L 18.58830070495605 32.91120147705078 L 18.58830070495605 31.41119956970215 L 17.08830070495605 31.41119956970215 L 1.999800324440002 31.41119956970215 C 1.724210262298584 31.41119956970215 1.500000238418579 31.18699073791504 1.500000238418579 30.91139984130859 L 1.500000238418579 19.0890007019043 C 1.500000238418579 18.81291007995605 1.724210262298584 18.58830070495605 1.999800324440002 18.58830070495605 L 17.08830070495605 18.58830070495605 L 18.58830070495605 18.58830070495605 L 18.58830070495605 17.08830070495605 L 18.58830070495605 1.999800324440002 C 18.58830070495605 1.724210262298584 18.81250953674316 1.500000238418579 19.08810043334961 1.500000238418579 L 30.91139984130859 1.500000238418579 C 31.18699073791504 1.500000238418579 31.41119956970215 1.724210262298584 31.41119956970215 1.999800324440002 L 31.41119956970215 17.08830070495605 L 31.41119956970215 18.58830070495605 L 32.91120147705078 18.58830070495605 L 48.0005989074707 18.58830070495605 C 48.27619171142578 18.58830070495605 48.50040054321289 18.81291007995605 48.50040054321289 19.0890007019043 L 48.50040054321289 30.91139984130859 C 48.50040054321289 31.18699073791504 48.27619171142578 31.41119956970215 48.0005989074707 31.41119956970215 L 32.91120147705078 31.41119956970215 L 31.41119956970215 31.41119956970215 L 31.41119956970215 32.91120147705078 L 31.41119956970215 48.0005989074707 C 31.41119956970215 48.27619171142578 31.18699073791504 48.50040054321289 30.91139984130859 48.50040054321289 Z"/><path class="m" d="M 29.91119956970215 47.00040054321289 L 29.91119956970215 32.91120147705078 L 29.91119956970215 29.91119956970215 L 32.91120147705078 29.91119956970215 L 47.00040054321289 29.91119956970215 L 47.00040054321289 20.08830070495605 L 32.91120147705078 20.08830070495605 L 29.91119956970215 20.08830070495605 L 29.91119956970215 17.08830070495605 L 29.91119956970215 3.000000238418579 L 20.08830070495605 3.000000238418579 L 20.08830070495605 17.08830070495605 L 20.08830070495605 20.08830070495605 L 17.08830070495605 20.08830070495605 L 3.000000238418579 20.08830070495605 L 3.000000238418579 29.91119956970215 L 17.08830070495605 29.91119956970215 L 20.08830070495605 29.91119956970215 L 20.08830070495605 32.91120147705078 L 20.08830070495605 47.00040054321289 L 29.91119956970215 47.00040054321289 M 30.91139984130859 50.00040054321289 L 19.08810043334961 50.00040054321289 C 17.98380088806152 50.00040054321289 17.08830070495605 49.10490036010742 17.08830070495605 48.0005989074707 L 17.08830070495605 32.91120147705078 L 1.999800324440002 32.91120147705078 C 0.8955002427101135 32.91120147705078 2.716064386731887e-07 32.01570129394531 2.716064386731887e-07 30.91139984130859 L 2.716064386731887e-07 19.0890007019043 C 2.716064386731887e-07 17.98380088806152 0.8955002427101135 17.08830070495605 1.999800324440002 17.08830070495605 L 17.08830070495605 17.08830070495605 L 17.08830070495605 1.999800324440002 C 17.08830070495605 0.8955002427101135 17.98380088806152 2.716064386731887e-07 19.08810043334961 2.716064386731887e-07 L 30.91139984130859 2.716064386731887e-07 C 32.01570129394531 2.716064386731887e-07 32.91120147705078 0.8955002427101135 32.91120147705078 1.999800324440002 L 32.91120147705078 17.08830070495605 L 48.0005989074707 17.08830070495605 C 49.10490036010742 17.08830070495605 50.00040054321289 17.98380088806152 50.00040054321289 19.0890007019043 L 50.00040054321289 30.91139984130859 C 50.00040054321289 32.01570129394531 49.10490036010742 32.91120147705078 48.0005989074707 32.91120147705078 L 32.91120147705078 32.91120147705078 L 32.91120147705078 48.0005989074707 C 32.91120147705078 49.10490036010742 32.01570129394531 50.00040054321289 30.91139984130859 50.00040054321289 Z"/></g><path class="f" d="M17.722,46a2,2,0,0,1-2-2V30.279H2a2,2,0,0,1-2-2V17.722a2,2,0,0,1,2-2H15.721V2a2,2,0,0,1,2-2H28.279a2,2,0,0,1,2,2V15.721H44a2,2,0,0,1,2,2V28.279a2,2,0,0,1-2,2H30.279V44a2,2,0,0,1-2,2Z" transform="translate(297 69.001) rotate(180)"/><g class="d" transform="translate(225 107.001) rotate(180)"><path class="k" d="M 35.51940155029297 55.49970245361328 L 21.481201171875 55.49970245361328 C 21.20561027526855 55.49970245361328 20.98140144348145 55.27548980712891 20.98140144348145 54.99990081787109 L 20.98140144348145 37.51919937133789 L 20.98140144348145 36.01919937133789 L 19.48140144348145 36.01919937133789 L 1.999801278114319 36.01919937133789 C 1.7242112159729 36.01919937133789 1.500001192092896 35.79499053955078 1.500001192092896 35.51940155029297 L 1.500001192092896 21.481201171875 C 1.500001192092896 21.20561027526855 1.7242112159729 20.98140144348145 1.999801278114319 20.98140144348145 L 19.48140144348145 20.98140144348145 L 20.98140144348145 20.98140144348145 L 20.98140144348145 19.48140144348145 L 20.98140144348145 1.999801278114319 C 20.98140144348145 1.7242112159729 21.20561027526855 1.500001192092896 21.481201171875 1.500001192092896 L 35.51940155029297 1.500001192092896 C 35.79499053955078 1.500001192092896 36.01919937133789 1.7242112159729 36.01919937133789 1.999801278114319 L 36.01919937133789 19.48140144348145 L 36.01919937133789 20.98140144348145 L 37.51919937133789 20.98140144348145 L 54.99990081787109 20.98140144348145 C 55.27548980712891 20.98140144348145 55.49970245361328 21.20561027526855 55.49970245361328 21.481201171875 L 55.49970245361328 35.51940155029297 C 55.49970245361328 35.79499053955078 55.27548980712891 36.01919937133789 54.99990081787109 36.01919937133789 L 37.51919937133789 36.01919937133789 L 36.01919937133789 36.01919937133789 L 36.01919937133789 37.51919937133789 L 36.01919937133789 54.99990081787109 C 36.01919937133789 55.27548980712891 35.79499053955078 55.49970245361328 35.51940155029297 55.49970245361328 Z"/><path class="l" d="M 34.51919937133789 53.99970245361328 L 34.51919937133789 37.51919937133789 L 34.51919937133789 34.51919937133789 L 37.51919937133789 34.51919937133789 L 53.99970245361328 34.51919937133789 L 53.99970245361328 22.48140144348145 L 37.51919937133789 22.48140144348145 L 34.51919937133789 22.48140144348145 L 34.51919937133789 19.48140144348145 L 34.51919937133789 3.000001192092896 L 22.48140144348145 3.000001192092896 L 22.48140144348145 19.48140144348145 L 22.48140144348145 22.48140144348145 L 19.48140144348145 22.48140144348145 L 3.000001192092896 22.48140144348145 L 3.000001192092896 34.51919937133789 L 19.48140144348145 34.51919937133789 L 22.48140144348145 34.51919937133789 L 22.48140144348145 37.51919937133789 L 22.48140144348145 53.99970245361328 L 34.51919937133789 53.99970245361328 M 35.51940155029297 56.99970245361328 L 21.481201171875 56.99970245361328 C 20.37690162658691 56.99970245361328 19.48140144348145 56.1051025390625 19.48140144348145 54.99990081787109 L 19.48140144348145 37.51919937133789 L 1.999801278114319 37.51919937133789 C 0.8955012559890747 37.51919937133789 1.226806602971919e-06 36.62370300292969 1.226806602971919e-06 35.51940155029297 L 1.226806602971919e-06 21.481201171875 C 1.226806602971919e-06 20.37690162658691 0.8955012559890747 19.48140144348145 1.999801278114319 19.48140144348145 L 19.48140144348145 19.48140144348145 L 19.48140144348145 1.999801278114319 C 19.48140144348145 0.8955012559890747 20.37690162658691 1.226806602971919e-06 21.481201171875 1.226806602971919e-06 L 35.51940155029297 1.226806602971919e-06 C 36.62370300292969 1.226806602971919e-06 37.51919937133789 0.8955012559890747 37.51919937133789 1.999801278114319 L 37.51919937133789 19.48140144348145 L 54.99990081787109 19.48140144348145 C 56.1051025390625 19.48140144348145 56.99970245361328 20.37690162658691 56.99970245361328 21.481201171875 L 56.99970245361328 35.51940155029297 C 56.99970245361328 36.62370300292969 56.1051025390625 37.51919937133789 54.99990081787109 37.51919937133789 L 37.51919937133789 37.51919937133789 L 37.51919937133789 54.99990081787109 C 37.51919937133789 56.1051025390625 36.62370300292969 56.99970245361328 35.51940155029297 56.99970245361328 Z"/></g><g class="d" transform="translate(160 162.001) rotate(180)"><path class="k" d="M 30.91139984130859 48.50040054321289 L 19.08810043334961 48.50040054321289 C 18.81250953674316 48.50040054321289 18.58830070495605 48.27619171142578 18.58830070495605 48.0005989074707 L 18.58830070495605 32.91120147705078 L 18.58830070495605 31.41119956970215 L 17.08830070495605 31.41119956970215 L 1.999800324440002 31.41119956970215 C 1.724210262298584 31.41119956970215 1.500000238418579 31.18699073791504 1.500000238418579 30.91139984130859 L 1.500000238418579 19.0890007019043 C 1.500000238418579 18.81291007995605 1.724210262298584 18.58830070495605 1.999800324440002 18.58830070495605 L 17.08830070495605 18.58830070495605 L 18.58830070495605 18.58830070495605 L 18.58830070495605 17.08830070495605 L 18.58830070495605 1.999800324440002 C 18.58830070495605 1.724210262298584 18.81250953674316 1.500000238418579 19.08810043334961 1.500000238418579 L 30.91139984130859 1.500000238418579 C 31.18699073791504 1.500000238418579 31.41119956970215 1.724210262298584 31.41119956970215 1.999800324440002 L 31.41119956970215 17.08830070495605 L 31.41119956970215 18.58830070495605 L 32.91120147705078 18.58830070495605 L 48.0005989074707 18.58830070495605 C 48.27619171142578 18.58830070495605 48.50040054321289 18.81291007995605 48.50040054321289 19.0890007019043 L 48.50040054321289 30.91139984130859 C 48.50040054321289 31.18699073791504 48.27619171142578 31.41119956970215 48.0005989074707 31.41119956970215 L 32.91120147705078 31.41119956970215 L 31.41119956970215 31.41119956970215 L 31.41119956970215 32.91120147705078 L 31.41119956970215 48.0005989074707 C 31.41119956970215 48.27619171142578 31.18699073791504 48.50040054321289 30.91139984130859 48.50040054321289 Z"/><path class="m" d="M 29.91119956970215 47.00040054321289 L 29.91119956970215 32.91120147705078 L 29.91119956970215 29.91119956970215 L 32.91120147705078 29.91119956970215 L 47.00040054321289 29.91119956970215 L 47.00040054321289 20.08830070495605 L 32.91120147705078 20.08830070495605 L 29.91119956970215 20.08830070495605 L 29.91119956970215 17.08830070495605 L 29.91119956970215 3.000000238418579 L 20.08830070495605 3.000000238418579 L 20.08830070495605 17.08830070495605 L 20.08830070495605 20.08830070495605 L 17.08830070495605 20.08830070495605 L 3.000000238418579 20.08830070495605 L 3.000000238418579 29.91119956970215 L 17.08830070495605 29.91119956970215 L 20.08830070495605 29.91119956970215 L 20.08830070495605 32.91120147705078 L 20.08830070495605 47.00040054321289 L 29.91119956970215 47.00040054321289 M 30.91139984130859 50.00040054321289 L 19.08810043334961 50.00040054321289 C 17.98380088806152 50.00040054321289 17.08830070495605 49.10490036010742 17.08830070495605 48.0005989074707 L 17.08830070495605 32.91120147705078 L 1.999800324440002 32.91120147705078 C 0.8955002427101135 32.91120147705078 2.716064386731887e-07 32.01570129394531 2.716064386731887e-07 30.91139984130859 L 2.716064386731887e-07 19.0890007019043 C 2.716064386731887e-07 17.98380088806152 0.8955002427101135 17.08830070495605 1.999800324440002 17.08830070495605 L 17.08830070495605 17.08830070495605 L 17.08830070495605 1.999800324440002 C 17.08830070495605 0.8955002427101135 17.98380088806152 2.716064386731887e-07 19.08810043334961 2.716064386731887e-07 L 30.91139984130859 2.716064386731887e-07 C 32.01570129394531 2.716064386731887e-07 32.91120147705078 0.8955002427101135 32.91120147705078 1.999800324440002 L 32.91120147705078 17.08830070495605 L 48.0005989074707 17.08830070495605 C 49.10490036010742 17.08830070495605 50.00040054321289 17.98380088806152 50.00040054321289 19.0890007019043 L 50.00040054321289 30.91139984130859 C 50.00040054321289 32.01570129394531 49.10490036010742 32.91120147705078 48.0005989074707 32.91120147705078 L 32.91120147705078 32.91120147705078 L 32.91120147705078 48.0005989074707 C 32.91120147705078 49.10490036010742 32.01570129394531 50.00040054321289 30.91139984130859 50.00040054321289 Z"/></g><path class="f" d="M12.62,34a1,1,0,0,1-1-1V22.379H1a1,1,0,0,1-1-1V12.62a1,1,0,0,1,1-1H11.62V1a1,1,0,0,1,1-1h8.76a1,1,0,0,1,1,1V11.62H33a1,1,0,0,1,1,1v8.76a1,1,0,0,1-1,1H22.379V33a1,1,0,0,1-1,1Z" transform="translate(150 79.001) rotate(180)"/><path class="f" d="M11.595,31a1,1,0,0,1-1-1V20.4H1a1,1,0,0,1-1-1v-7.81a1,1,0,0,1,1-1h9.595V1a1,1,0,0,1,1-1H19.4a1,1,0,0,1,1,1v9.595H30a1,1,0,0,1,1,1V19.4a1,1,0,0,1-1,1H20.4V30a1,1,0,0,1-1,1Z" transform="translate(207 183.001) rotate(180)"/><g class="d" transform="translate(401 66.001) rotate(180)"><path class="k" d="M 41.44320297241211 64.50060272216797 L 24.55740165710449 64.50060272216797 C 24.28131103515625 64.50060272216797 24.05670166015625 64.27599334716797 24.05670166015625 63.99990081787109 L 24.05670166015625 43.44300079345703 L 24.05670166015625 41.94300079345703 L 22.55670166015625 41.94300079345703 L 1.999801278114319 41.94300079345703 C 1.7242112159729 41.94300079345703 1.500001192092896 41.71879196166992 1.500001192092896 41.44320297241211 L 1.500001192092896 24.55740165710449 C 1.500001192092896 24.28131103515625 1.7242112159729 24.05670166015625 1.999801278114319 24.05670166015625 L 22.55670166015625 24.05670166015625 L 24.05670166015625 24.05670166015625 L 24.05670166015625 22.55670166015625 L 24.05670166015625 1.999801397323608 C 24.05670166015625 1.72421133518219 24.28131103515625 1.500001311302185 24.55740165710449 1.500001311302185 L 41.44320297241211 1.500001311302185 C 41.71879196166992 1.500001311302185 41.94300079345703 1.72421133518219 41.94300079345703 1.999801397323608 L 41.94300079345703 22.55670166015625 L 41.94300079345703 24.05670166015625 L 43.44300079345703 24.05670166015625 L 63.99990081787109 24.05670166015625 C 64.27548980712891 24.05670166015625 64.49970245361328 24.28131103515625 64.49970245361328 24.55740165710449 L 64.49970245361328 41.44320297241211 C 64.49970245361328 41.71879196166992 64.27548980712891 41.94300079345703 63.99990081787109 41.94300079345703 L 43.44300079345703 41.94300079345703 L 41.94300079345703 41.94300079345703 L 41.94300079345703 43.44300079345703 L 41.94300079345703 63.99990081787109 C 41.94300079345703 64.27599334716797 41.71879196166992 64.50060272216797 41.44320297241211 64.50060272216797 Z"/><path class="m" d="M 40.44299697875977 63.00060272216797 L 40.44299697875977 43.44300079345703 L 40.44299697875977 40.44300079345703 L 43.44299697875977 40.44300079345703 L 62.99970626831055 40.44300079345703 L 62.99970626831055 25.55670166015625 L 43.44299697875977 25.55670166015625 L 40.44299697875977 25.55670166015625 L 40.44299697875977 22.55670166015625 L 40.44299697875977 3.000001430511475 L 25.55669593811035 3.000001430511475 L 25.55669593811035 22.55670166015625 L 25.55669593811035 25.55670166015625 L 22.55669593811035 25.55670166015625 L 3.000006675720215 25.55670166015625 L 3.000006675720215 40.44300079345703 L 22.55669593811035 40.44300079345703 L 25.55669593811035 40.44300079345703 L 25.55669593811035 43.44300079345703 L 25.55669593811035 63.00060272216797 L 40.44299697875977 63.00060272216797 M 41.44319534301758 66.00060272216797 L 24.55739593505859 66.00060272216797 C 23.45219612121582 66.00060272216797 22.55669593811035 65.1051025390625 22.55669593811035 63.99990081787109 L 22.55669593811035 43.44300079345703 L 1.99979567527771 43.44300079345703 C 0.8955067992210388 43.44300079345703 6.782362106605433e-06 42.54750061035156 6.782362106605433e-06 41.44320297241211 L 6.782362106605433e-06 24.55740165710449 C 6.782362106605433e-06 23.45220184326172 0.8955067992210388 22.55670166015625 1.99979567527771 22.55670166015625 L 22.55669593811035 22.55670166015625 L 22.55669593811035 1.999801397323608 C 22.55669593811035 0.8955013751983643 23.45219612121582 1.361083945994324e-06 24.55739593505859 1.361083945994324e-06 L 41.44319534301758 1.361083945994324e-06 C 42.5474967956543 1.361083945994324e-06 43.44299697875977 0.8955013751983643 43.44299697875977 1.999801397323608 L 43.44299697875977 22.55670166015625 L 63.99990844726563 22.55670166015625 C 65.10420989990234 22.55670166015625 65.99971008300781 23.45220184326172 65.99971008300781 24.55740165710449 L 65.99971008300781 41.44320297241211 C 65.99971008300781 42.54750061035156 65.10420989990234 43.44300079345703 63.99990844726563 43.44300079345703 L 43.44299697875977 43.44300079345703 L 43.44299697875977 63.99990081787109 C 43.44299697875977 65.1051025390625 42.5474967956543 66.00060272216797 41.44319534301758 66.00060272216797 Z"/></g><path class="f" d="M27.633,75a2,2,0,0,1-2-2V49.367H2a2,2,0,0,1-2-2V27.633a2,2,0,0,1,2-2H25.633V2a2,2,0,0,1,2-2H47.367a2,2,0,0,1,2,2V25.633H73a2,2,0,0,1,2,2V47.367a2,2,0,0,1-2,2H49.367V73a2,2,0,0,1-2,2Z" transform="translate(423 195.001) rotate(180)"/><path class="f" d="M8.861,23a1,1,0,0,1-1-1V15.139H1a1,1,0,0,1-1-1V8.861a1,1,0,0,1,1-1H7.861V1a1,1,0,0,1,1-1h5.278a1,1,0,0,1,1,1V7.861H22a1,1,0,0,1,1,1v5.278a1,1,0,0,1-1,1H15.139V22a1,1,0,0,1-1,1Z" transform="translate(60 132.001) rotate(180)"/><g class="e" transform="translate(98 99.001) rotate(180)"><path class="k" d="M 14.13899993896484 22.00040054321289 L 8.860500335693359 22.00040054321289 L 8.860600471496582 15.13889980316162 L 8.860600471496582 14.13889980316162 L 7.860600471496582 14.13889980316162 L 0.9999002814292908 14.13889980316162 L 1.000000238418579 8.860500335693359 L 7.860600471496582 8.860600471496582 L 8.860600471496582 8.860600471496582 L 8.860600471496582 7.860600471496582 L 8.860600471496582 0.9999002814292908 L 14.13899993896484 1.000000238418579 L 14.13889980316162 7.860600471496582 L 14.13889980316162 8.860600471496582 L 15.13889980316162 8.860600471496582 L 22.0004997253418 8.860600471496582 L 22.00040054321289 14.13899993896484 L 15.13889980316162 14.13889980316162 L 14.13889980316162 14.13889980316162 L 14.13889980316162 15.13889980316162 L 14.13889980316162 21.99959945678711 L 14.13899993896484 22.00040054321289 Z"/><path class="m" d="M 13.13889980316162 21.00040054321289 L 13.13889980316162 15.13889980316162 L 13.13889980316162 13.13889980316162 L 15.13889980316162 13.13889980316162 L 21.00040054321289 13.13889980316162 L 21.00040054321289 9.860600471496582 L 15.13889980316162 9.860600471496582 L 13.13889980316162 9.860600471496582 L 13.13889980316162 7.860600471496582 L 13.13889980316162 2.000000238418579 L 9.860600471496582 2.000000238418579 L 9.860600471496582 7.860600471496582 L 9.860600471496582 9.860600471496582 L 7.860600471496582 9.860600471496582 L 2.000000238418579 9.860600471496582 L 2.000000238418579 13.13889980316162 L 7.860600471496582 13.13889980316162 L 9.860600471496582 13.13889980316162 L 9.860600471496582 15.13889980316162 L 9.860600471496582 21.00040054321289 L 13.13889980316162 21.00040054321289 M 14.13899993896484 23.00040054321289 L 8.860500335693359 23.00040054321289 C 8.30880069732666 23.00040054321289 7.860600471496582 22.55220031738281 7.860600471496582 21.99959945678711 L 7.860600471496582 15.13889980316162 L 0.9999002814292908 15.13889980316162 C 0.4473002851009369 15.13889980316162 2.716064386731887e-07 14.69159984588623 2.716064386731887e-07 14.13899993896484 L 2.716064386731887e-07 8.860500335693359 C 2.716064386731887e-07 8.30880069732666 0.4473002851009369 7.860600471496582 0.9999002814292908 7.860600471496582 L 7.860600471496582 7.860600471496582 L 7.860600471496582 0.9999002814292908 C 7.860600471496582 0.4473002851009369 8.30880069732666 2.716064386731887e-07 8.860500335693359 2.716064386731887e-07 L 14.13899993896484 2.716064386731887e-07 C 14.69159984588623 2.716064386731887e-07 15.13889980316162 0.4473002851009369 15.13889980316162 0.9999002814292908 L 15.13889980316162 7.860600471496582 L 22.0004997253418 7.860600471496582 C 22.55220031738281 7.860600471496582 23.00040054321289 8.30880069732666 23.00040054321289 8.860500335693359 L 23.00040054321289 14.13899993896484 C 23.00040054321289 14.69159984588623 22.55220031738281 15.13889980316162 22.0004997253418 15.13889980316162 L 15.13889980316162 15.13889980316162 L 15.13889980316162 21.99959945678711 C 15.13889980316162 22.55220031738281 14.69159984588623 23.00040054321289 14.13899993896484 23.00040054321289 Z"/></g><g class="g" transform="translate(311 177.001)"><circle class="k" cx="5.5" cy="5.5" r="5.5"/><circle class="n" cx="5.5" cy="5.5" r="4"/></g><g class="g" transform="translate(217 16.001)"><circle class="k" cx="8" cy="8" r="8"/><circle class="n" cx="8" cy="8" r="6.5"/></g><circle class="h" cx="4" cy="4" r="4" transform="translate(44 74.001)"/><circle class="h" cx="4" cy="4" r="4" transform="translate(91 132.001)"/><g class="i" transform="translate(5 96.001)"><circle class="k" cx="5.5" cy="5.5" r="5.5"/><circle class="n" cx="5.5" cy="5.5" r="4"/></g><g class="i" transform="translate(348 78.001)"><circle class="k" cx="5.5" cy="5.5" r="5.5"/><circle class="n" cx="5.5" cy="5.5" r="4"/></g><circle class="f" cx="4" cy="4" r="4" transform="translate(217 113.001)"/></g><g transform="translate(498 351.8)"><g class="j"><path class="k" d="M 144.6956939697266 88.72802734375 L 144.6769409179688 88.62171936035156 L 130.774658203125 9.777182579040527 L 118.0222778320313 69.52609252929688 L 118.0011596679688 69.625 L 117.900032043457 69.625 L 116.3000335693359 69.625 L 116.2034683227539 69.625 L 116.1790924072266 69.53159332275391 L 108.1068725585938 38.62092971801758 L 59.99897003173828 38.22499847412109 L 59.99871826171875 37.97499847412109 L 108.7987213134766 37.47499847412109 L 109.1999969482422 37.47499847412109 L 109.2975921630859 37.47499847412109 L 109.3212814331055 37.56968688964844 L 109.4212799072266 37.96968460083008 L 117.1384429931641 65.33039093017578 L 129.6773681640625 1.975716471672058 L 129.6973114013672 1.874997735023499 L 129.8000030517578 1.874997735023499 L 132.3999938964844 1.874997735023499 L 132.5038757324219 1.874997735023499 L 132.5228729248047 1.977122664451599 L 146.6020965576172 77.56475830078125 L 153.1766815185547 37.87955856323242 L 153.4774322509766 36.37549591064453 L 153.4975280761719 36.27499771118164 L 153.6000061035156 36.27499771118164 L 155.1999969482422 36.27499771118164 L 173.9489135742188 36.27499771118164 L 178.878662109375 16.36993598937988 L 178.9028167724609 16.27240371704102 L 179.0032806396484 16.27502822875977 L 182.8033142089844 16.37502861022949 L 182.9028167724609 16.37765312194824 L 182.9225616455078 16.47521591186523 L 189.9380798339844 51.14973068237305 L 193.7798461914063 37.76549911499023 L 194.1798095703125 36.36565399169922 L 194.2057189941406 36.27499771118164 L 194.3000030517578 36.27499771118164 L 195.6999969482422 36.27499771118164 L 219.6005249023438 36.37499618530273 L 221.1000061035156 36.37499618530273 L 221.2010650634766 36.37499618530273 L 221.2222137451172 36.47381210327148 L 221.522216796875 37.87380981445313 L 226.5178527832031 59.19304275512695 L 237.177001953125 0.177778959274292 L 237.195556640625 0.07499770820140839 L 237.3000030517578 0.07499770820140839 L 240.1999969482422 0.07499770820140839 L 240.304931640625 0.07499770820140839 L 240.3230895996094 0.1783414632081985 L 254.1300201416016 78.63511657714844 L 262.3775329589844 38.27496719360352 L 262.3780517578125 38.27230834960938 L 262.3787231445313 38.26968383789063 L 262.4787292480469 37.86968612670898 L 262.5024108886719 37.77499771118164 L 262.6000061035156 37.77499771118164 L 263 37.77499771118164 L 310.0013427734375 38.27499771118164 L 310.0013427734375 38.52499771118164 L 263.5326232910156 39.01933670043945 L 255.2229614257813 84.72237396240234 L 255.2043151855469 84.82499694824219 L 255.1000061035156 84.82499694824219 L 253.2000274658203 84.82499694824219 L 253.096435546875 84.82499694824219 L 253.0771942138672 84.72318267822266 L 238.8254241943359 9.251640319824219 L 228.6231842041016 68.72112274169922 L 228.6059112548828 68.82202911376953 L 228.5035552978516 68.82493591308594 L 225.0035552978516 68.92493438720703 L 224.9019012451172 68.92784118652344 L 224.8783721923828 68.82890319824219 L 218.0354614257813 40.03153610229492 L 197.2010040283203 40.11872863769531 L 191.5202789306641 60.23396682739258 L 191.4938812255859 60.32749938964844 L 191.3967132568359 60.32496643066406 L 187.5967254638672 60.22496795654297 L 187.4974365234375 60.22233963012695 L 187.4775238037109 60.12506103515625 L 180.5003356933594 26.03180694580078 L 177.3211822509766 38.63059234619141 L 176.9202117919922 40.03433990478516 L 176.8943176269531 40.12499618530273 L 176.8000335693359 40.12499618530273 L 175.3000335693359 40.12499618530273 L 156.6341552734375 40.12499618530273 L 148.4232788085938 88.52090454101563 L 148.4061279296875 88.62203216552734 L 148.3035888671875 88.62493896484375 L 144.8035888671875 88.72493743896484 L 144.6956939697266 88.72802734375 Z"/><path class="o" d="M 237.3000030517578 0.1999969482421875 L 226.53369140625 59.80857467651367 L 228.5 68.19999694824219 L 225 68.29999542236328 L 226.53369140625 59.80857467651367 L 221.3999938964844 37.89999771118164 L 221.1000061035156 36.49999618530273 L 219.6000061035156 36.49999618530273 L 195.6999969482422 36.39999771118164 L 194.3000030517578 36.39999771118164 L 193.8999938964844 37.79999923706055 L 189.9170379638672 51.67612838745117 L 191.5 59.5 L 187.6999969482422 59.39999771118164 L 189.9170379638672 51.67612838745117 L 182.8000335693359 16.5 L 179 16.40000152587891 L 174.0467224121094 36.39999771118164 L 175.5 36.39999771118164 L 173.6999969482422 37.79999923706055 L 174.0467224121094 36.39999771118164 L 155.1999969482422 36.39999771118164 L 153.6000061035156 36.39999771118164 L 153.3000030517578 37.89999771118164 L 146.6092834472656 78.28610992431641 L 148.3999938964844 87.89999389648438 L 145 88 L 146.6092834472656 78.28610992431641 L 132.3999938964844 2 L 129.8000030517578 2 L 117.1597747802734 65.86642456054688 L 117.880126953125 68.42040252685547 L 117.5695648193359 68.96221923828125 L 116.5 69.19999694824219 L 117.1597747802734 65.86642456054688 L 109.2999572753906 37.99999618530273 L 109.2000122070313 37.59999847412109 L 108.7999572753906 37.59999847412109 L 60 38.09999847412109 L 108.2036437988281 38.49673461914063 L 108.1000366210938 38.09999847412109 L 108.6000366210938 38.49999618530273 L 108.2036437988281 38.49673461914063 L 116.3000335693359 69.5 L 117.9000244140625 69.5 L 130.7863311767578 9.123603820800781 L 129.8280639648438 3.68890380859375 L 130.60400390625 2.651687622070313 L 132.2000274658203 2.5 L 130.7863311767578 9.123603820800781 L 144.8000335693359 88.59999847412109 L 148.3000335693359 88.5 L 156.5285797119141 39.99999618530273 L 155 39.99999618530273 L 156.8000335693359 38.39999771118164 L 156.5285797119141 39.99999618530273 L 175.3000335693359 39.99999618530273 L 176.8000335693359 39.99999618530273 L 177.1999969482422 38.59999847412109 L 180.5130462646484 25.47052383422852 L 178.9607849121094 17.88558959960938 L 182.6000061035156 17.19999694824219 L 180.5130462646484 25.47052383422852 L 187.6000061035156 60.09999847412109 L 191.3999938964844 60.19999694824219 L 197.1062927246094 39.99411392211914 L 195.6999969482422 39.99999618530273 L 197.5 38.59999847412109 L 197.1062927246094 39.99411392211914 L 218.1341247558594 39.90613174438477 L 217.8000030517578 38.49999618530273 L 219.6000061035156 39.89999771118164 L 218.1341247558594 39.90613174438477 L 225 68.79999542236328 L 228.5 68.69999694824219 L 238.8195343017578 8.546829223632813 L 237.3000030517578 0.5 L 240.1999969482422 0.5 L 238.8195343017578 8.546829223632813 L 253.1999969482422 84.69999694824219 L 255.1000061035156 84.69999694824219 L 263.4281005859375 38.89544296264648 L 263 38.89999771118164 L 263.5 38.49999618530273 L 263.4281005859375 38.89544296264648 L 310 38.39999771118164 L 263 37.89999771118164 L 262.6000061035156 37.89999771118164 L 262.5 38.29999923706055 L 254.120849609375 79.3043212890625 L 255 84.29999542236328 L 253.5302429199219 82.19452667236328 L 254.120849609375 79.3043212890625 L 240.1999969482422 0.1999969482421875 L 237.3000030517578 0.1999969482421875 M 237.0910949707031 -0.0500030517578125 L 237.3000030517578 -0.0500030517578125 L 240.1999969482422 -0.0500030517578125 L 240.4098510742188 -0.0500030517578125 L 240.4462127685547 0.1566543579101563 L 254.13916015625 77.96595764160156 L 262.2550659179688 38.24993515014648 L 262.2561645507813 38.24462127685547 L 262.2574768066406 38.23937225341797 L 262.3574829101563 37.83937454223633 L 262.4048156738281 37.64999771118164 L 262.6000061035156 37.64999771118164 L 263 37.64999771118164 L 310.0026550292969 38.14999771118164 L 310.0026550292969 38.64999771118164 L 263.6371459960938 39.14323806762695 L 255.3459777832031 84.74472045898438 L 255.3086547851563 84.94999694824219 L 255.1000061035156 84.94999694824219 L 253.1999969482422 84.94999694824219 L 252.9927825927734 84.94999694824219 L 252.954345703125 84.74637603759766 L 238.8313293457031 9.956626892089844 L 228.7463989257813 68.74227905273438 L 228.7117767333984 68.94406127929688 L 228.5071258544922 68.94990539550781 L 225.0071258544922 69.04990386962891 L 224.8038177490234 69.05571746826172 L 224.7567749023438 68.85778045654297 L 217.9367828369141 40.15695190429688 L 197.2956848144531 40.24333572387695 L 191.6405944824219 60.26793670654297 L 191.5877532958984 60.45502853393555 L 191.3934326171875 60.44990539550781 L 187.5934448242188 60.34990310668945 L 187.3949127197266 60.34468460083008 L 187.3550567626953 60.15012359619141 L 180.4875793457031 26.59317398071289 L 177.4424133300781 38.66115570068359 L 177.4414367675781 38.66493606567383 L 177.4403686523438 38.66868591308594 L 177.0404052734375 40.06868362426758 L 176.9886322021484 40.24999618530273 L 176.8000335693359 40.24999618530273 L 175.3000335693359 40.24999618530273 L 156.7397155761719 40.24999618530273 L 148.5464935302734 88.54180908203125 L 148.5121917724609 88.74402618408203 L 148.3071594238281 88.74990081787109 L 144.8071594238281 88.84990692138672 L 144.59130859375 88.85606384277344 L 144.5538482666016 88.64340209960938 L 130.7629852294922 10.43076324462891 L 118.14453125 69.55218505859375 L 118.1023101806641 69.75 L 117.9000244140625 69.75 L 116.3000335693359 69.75 L 116.10693359375 69.75 L 116.0581512451172 69.56315612792969 L 108.0101318359375 38.74517059326172 L 59.9979248046875 38.34999847412109 L 59.9974365234375 37.84999847412109 L 108.7973937988281 37.34999847412109 L 109.2000122070313 37.34999847412109 L 109.3952331542969 37.34999847412109 L 109.4425354003906 37.53937149047852 L 109.5414123535156 37.93505859375 L 117.1171264648438 64.79423522949219 L 129.5547485351563 1.951469421386719 L 129.5946197509766 1.75 L 129.8000030517578 1.75 L 132.3999938964844 1.75 L 132.6077117919922 1.75 L 132.6457824707031 1.954216003417969 L 146.5948791503906 76.84349822998047 L 153.0533752441406 37.85912322998047 L 153.0540313720703 37.85503005981445 L 153.0548400878906 37.85096740722656 L 153.3548431396484 36.35096740722656 L 153.3950653076172 36.14999771118164 L 153.6000061035156 36.14999771118164 L 155.1999969482422 36.14999771118164 L 173.8510894775391 36.14999771118164 L 178.7573394775391 16.33990478515625 L 178.8056488037109 16.14481353759766 L 179.0065612792969 16.15009307861328 L 182.8065948486328 16.25009155273438 L 183.0055999755859 16.25531005859375 L 183.0450592041016 16.45043182373047 L 189.9591064453125 50.62345123291016 L 193.6597137451172 37.73102951049805 L 194.0596313476563 36.3313102722168 L 194.1114349365234 36.14999771118164 L 194.3000030517578 36.14999771118164 L 195.6999969482422 36.14999771118164 L 219.6010284423828 36.24999618530273 L 221.1000061035156 36.24999618530273 L 221.3020935058594 36.24999618530273 L 221.3444366455078 36.44762420654297 L 221.6444396972656 37.84762191772461 L 226.5019836425781 58.57748031616211 L 237.0539703369141 0.1555633544921875 L 237.0910949707031 -0.0500030517578125 Z M 239.9034576416016 0.75 L 237.6016235351563 0.75 L 238.8077239990234 7.137054443359375 L 239.9034576416016 0.75 Z M 130.8096923828125 7.816429138183594 L 131.8843994140625 2.781120300292969 L 130.7378692626953 2.890083312988281 L 130.0930328369141 3.752052307128906 L 130.8096923828125 7.816429138183594 Z M 180.5384826660156 24.34788513183594 L 182.2618865966797 17.51809692382813 L 179.2566375732422 18.08425903320313 L 180.5384826660156 24.34788513183594 Z M 174.7713470458984 36.64999771118164 L 174.2423400878906 36.64999771118164 L 174.1161346435547 37.15960311889648 L 174.7713470458984 36.64999771118164 Z M 156.3174133300781 39.74999618530273 L 156.4346008300781 39.05929565429688 L 155.6575469970703 39.74999618530273 L 156.3174133300781 39.74999618530273 Z M 218.8752288818359 39.65302276611328 L 218.2075347900391 39.13369750976563 L 218.3314666748047 39.65529251098633 L 218.8752288818359 39.65302276611328 Z M 196.9168853759766 39.74491119384766 L 197.0524749755859 39.26481246948242 L 196.4326019287109 39.74693298339844 L 196.9168853759766 39.74491119384766 Z M 191.1927032470703 59.2418327331543 L 189.8749694824219 52.72885894775391 L 188.0294036865234 59.15858459472656 L 191.1927032470703 59.2418327331543 Z M 228.1867218017578 67.95883941650391 L 226.5653839111328 61.03964996337891 L 225.30078125 68.04129028320313 L 228.1867218017578 67.95883941650391 Z M 117.6109924316406 68.38720703125 L 117.2024230957031 66.93863677978516 L 116.8196105957031 68.87284851074219 L 117.4075469970703 68.74214172363281 L 117.6109924316406 68.38720703125 Z M 148.1007385253906 87.65867614746094 L 146.6236877441406 79.72874450683594 L 145.2962799072266 87.74116516113281 L 148.1007385253906 87.65867614746094 Z M 254.5578155517578 83.22978973388672 L 254.1025238037109 80.64267730712891 L 253.7966766357422 82.13942718505859 L 254.5578155517578 83.22978973388672 Z"/></g></g></g></g></g></svg>