<svg xmlns="http://www.w3.org/2000/svg" viewBox="0 0 25 25"><defs><style>.cls-1{fill:#fff;}</style></defs><title>create appointment</title><g id="Layer_2" data-name="Layer 2"><g id="andrews"><g id="Layer_1-2" data-name="Layer 1"><path class="cls-1" d="M12.5,0A12.5,12.5,0,1,0,25,12.5,12.5,12.5,0,0,0,12.5,0Zm0,23.86A11.34,11.34,0,0,1,4.33,20.4a.67.67,0,0,1-.15-.16,11.36,11.36,0,1,1,8.31,3.63Z"/><path class="cls-1" d="M13.28,6H11.72A2.93,2.93,0,0,0,9,9.11v6.79A2.93,2.93,0,0,0,11.72,19h1.56A2.93,2.93,0,0,0,16,15.89V9.11A2.93,2.93,0,0,0,13.28,6ZM13,10.64a.53.53,0,0,1-.51.36.48.48,0,0,1-.49-.36V7.95s.09-.44.5-.44.5.44.5.44Z"/></g></g></g></svg>