<svg xmlns="http://www.w3.org/2000/svg" viewBox="0 0 25 25"><defs><style>.cls-1{fill:#fff;}</style></defs><title>find doctor</title><g id="Layer_2" data-name="Layer 2"><g id="andrews"><g id="Layer_2-2" data-name="Layer 2"><path class="cls-1" d="M12.5,0A12.5,12.5,0,1,0,25,12.5,12.5,12.5,0,0,0,12.5,0Zm0,23.86A11.34,11.34,0,0,1,4.33,20.4a.67.67,0,0,1-.15-.16,11.36,11.36,0,1,1,8.31,3.63Z"/><path class="cls-1" d="M9.38,12.5a8,8,0,0,1,.24.88c.64,1,1.44.88,1.44,1.44a.6.6,0,0,1-.4.56l1.84,1.44,1.84-1.36c-.24-.16-.4-.32-.4-.56,0-.64.8-.4,1.44-1.44a3.11,3.11,0,0,0,.24-.88A12.67,12.67,0,0,0,16,9h-1.2a2.7,2.7,0,0,0,.08-1h.88A2.33,2.33,0,0,0,14,6.66,2.53,2.53,0,0,0,12.5,6.1,2.52,2.52,0,0,0,11,6.66,2.48,2.48,0,0,0,9.22,8h.88c0,.82.08,1.06.16,1H9a11.75,11.75,0,0,0,.4,3.5Zm5.68.4-.24.24-.4.48a1.71,1.71,0,0,1-1.12.72l-.32.08a2.69,2.69,0,0,1-1.12,0l-.32-.08a2.16,2.16,0,0,1-1.2-.88l-.16-.32-.24-.24-.56-.4,2.48-.72a2.06,2.06,0,0,1,1.2,0l2.56.72ZM10.9,8.5a1.6,1.6,0,1,1,1.6,1.6,1.6,1.6,0,0,1-1.6-1.6Zm0,0"/><path class="cls-1" d="M18.12,17.65c-1-1.8-1.95-1.5-2.92-1.65h-.08L12.5,17.95,9.88,16H9.8c-1.05.07-1.95-.15-2.93,1.65A4.85,4.85,0,0,0,6.5,19h12a4.93,4.93,0,0,0-.38-1.35Zm.37-.19"/></g></g></g></svg>