<svg xmlns="http://www.w3.org/2000/svg" width="72" height="64" viewBox="0 0 72 64"><defs><style>.a,.e{fill:none;}.a{stroke:#524456;}.b,.c{fill:#524456;}.b{font-size:12px;font-family:Poppins-Medium, Poppins;font-weight:500;}.d{stroke:none;}</style></defs><g transform="translate(-455 -570)"><g class="a" transform="translate(455 570)"><rect class="d" width="72" height="64" rx="4"/><rect class="e" x="0.5" y="0.5" width="71" height="63" rx="3.5"/></g><g transform="translate(0 -2.507)"><text class="b" transform="translate(468 625)"><tspan x="0" y="0">Affiliate</tspan></text><g transform="translate(475 579.507)"><g transform="translate(13.867 21.281)"><path class="c" d="M218.128,324.256a1.064,1.064,0,1,1,1.064-1.064h1.064a2.126,2.126,0,0,0-1.6-2.053V320H217.6v1.14a2.124,2.124,0,0,0,.532,4.181,1.064,1.064,0,1,1-1.064,1.064H216a2.126,2.126,0,0,0,1.6,2.053v1.14h1.064v-1.14a2.124,2.124,0,0,0-.532-4.181Z" transform="translate(-216 -320)"/></g><path class="c" d="M29.926,12.972V5.32a5.162,5.162,0,1,0-10.319,0v7.652a2.649,2.649,0,0,0-2.064,2.605v1.448h7.224v7.98a.525.525,0,0,1-.516.532H22.676A6.8,6.8,0,0,0,16,19.153a6.8,6.8,0,0,0-6.681,6.384H7.74a.525.525,0,0,1-.516-.532v-7.98h7.224V15.577a2.648,2.648,0,0,0-2.074-2.609l-3.086-.636v-.768a3.714,3.714,0,0,0,1.2-1.474,2.1,2.1,0,0,0,1.893-2.11V5.32A5.248,5.248,0,0,0,7.224,0a5.248,5.248,0,0,0-5.16,5.32V7.98a2.1,2.1,0,0,0,1.893,2.11,3.718,3.718,0,0,0,1.2,1.474v.768l-3.086.636A2.648,2.648,0,0,0,0,15.577v1.448H6.192v7.98A1.574,1.574,0,0,0,7.74,26.6H9.314A6.8,6.8,0,0,0,16,32.986a6.588,6.588,0,0,0,4.382-1.68L19.7,30.5A5.573,5.573,0,0,1,16,31.922a5.855,5.855,0,0,1,0-11.7,5.773,5.773,0,0,1,5.676,5.852,5.9,5.9,0,0,1-1.251,3.666l.8.667a7.057,7.057,0,0,0,1.457-3.8h1.57a1.574,1.574,0,0,0,1.548-1.6v-7.98H31.99V15.577A2.649,2.649,0,0,0,29.926,12.972ZM10.814,8.908a3.863,3.863,0,0,0,.021-.4V7.064a1.071,1.071,0,0,1-.021,1.844ZM3.1,7.98a1.067,1.067,0,0,1,.516-.916V8.512a3.863,3.863,0,0,0,.021.4A1.066,1.066,0,0,1,3.1,7.98Zm.6-2.078a2.016,2.016,0,0,0-.6.246V5.32A4.2,4.2,0,0,1,7.224,1.064,4.2,4.2,0,0,1,11.351,5.32v.828a2,2,0,0,0-.6-.246A1.551,1.551,0,0,0,9.287,4.788H5.16A1.551,1.551,0,0,0,3.692,5.9Zm.952,2.61V6.384a.525.525,0,0,1,.516-.532H9.287a.525.525,0,0,1,.516.532V8.512a2.624,2.624,0,0,1-2.58,2.66A2.624,2.624,0,0,1,4.644,8.512ZM8.255,12.08v.469L7.224,13.612,6.192,12.548V12.08a3.471,3.471,0,0,0,2.064,0ZM1.032,15.961v-.384a1.589,1.589,0,0,1,1.245-1.565l3.23-.666,1.717,1.771,1.718-1.771,3.23.666a1.589,1.589,0,0,1,1.244,1.565v.384ZM20.639,5.32a4.13,4.13,0,1,1,8.255,0v.828a1.994,1.994,0,0,0-.516-.22V5.32h-.516a3.152,3.152,0,0,1-2.277-.973L24.766,3.5l-.818.844a3.152,3.152,0,0,1-2.277.973h-.516v.608a2.013,2.013,0,0,0-.516.22Zm4.128,5.852a2.624,2.624,0,0,1-2.58-2.66V6.352A4.172,4.172,0,0,0,24.678,5.1l.089-.092.089.092a4.172,4.172,0,0,0,2.491,1.252v2.16A2.624,2.624,0,0,1,24.766,11.173Zm1.032.907v.469l-1.032,1.064-1.032-1.064V12.08a3.471,3.471,0,0,0,2.064,0Zm1.032-.516a3.714,3.714,0,0,0,1.2-1.474,2,2,0,0,0,.861-.278v2.946l-2.064-.426Zm1.527-2.656a3.863,3.863,0,0,0,.021-.4V7.064a1.071,1.071,0,0,1-.021,1.844Zm-7.2-1.844V8.512a3.863,3.863,0,0,0,.021.4,1.071,1.071,0,0,1-.021-1.844Zm-.516,2.748a2,2,0,0,0,.861.278,3.718,3.718,0,0,0,1.2,1.474v.768l-2.064.426Zm10.319,6.149H18.575v-.384a1.589,1.589,0,0,1,1.245-1.565l3.23-.666,1.717,1.771,1.718-1.771,3.23.666a1.589,1.589,0,0,1,1.244,1.565v.384Z"/><g transform="translate(18.886 25.493)"><g transform="translate(0 0)"><rect class="c" width="1" height="1"/></g></g><g transform="translate(12.104 25.493)"><g transform="translate(0 0)"><rect class="c" width="1" height="1"/></g></g><g transform="translate(23.73 27.493)"><g transform="translate(0 0)"><rect class="c" width="1" height="1"/></g></g><g transform="translate(25.497 27.493)"><g transform="translate(0 0)"><rect class="c" width="1" height="1"/></g></g><g transform="translate(27.497 27.493)"><g transform="translate(0 0)"><rect class="c" width="1" height="1"/></g></g><g transform="translate(3.493 27.493)"><g transform="translate(0 0)"><rect class="c" width="1" height="1"/></g></g><g transform="translate(5.493 27.493)"><g transform="translate(0 0)"><rect class="c" width="1" height="1"/></g></g><g transform="translate(7.26 27.493)"><g transform="translate(0 0)"><rect class="c" width="1" height="1"/></g></g></g></g></g></svg>