<svg xmlns="http://www.w3.org/2000/svg" width="72" height="64" viewBox="0 0 72 64"><defs><style>.a{fill:#524456;stroke:#524456;}.b,.c{fill:#fff;}.b{font-size:12px;font-family:Poppins-Medium, Poppins;font-weight:500;}.d{stroke:none;}.e{fill:none;}</style></defs><g transform="translate(-639 -274)"><g class="a" transform="translate(639 274)"><rect class="d" width="72" height="64" rx="4"/><rect class="e" x="0.5" y="0.5" width="71" height="63" rx="3.5"/></g><text class="b" transform="translate(655 329)"><tspan x="0" y="0">Doctor</tspan></text><g transform="translate(632.851 283.796)"><g transform="translate(28.952)"><path class="c" d="M55.424,30.431,54.1,22.124a2.316,2.316,0,0,0-1.543-1.876L49,19.093a4.414,4.414,0,0,0-1.025-2.517,3.951,3.951,0,0,0-1.733-1.19c.113-.134.217-.268.313-.4a7.7,7.7,0,0,0,1.417-3.3h.275a1.349,1.349,0,0,0,1.3-1.393V9.578a1.421,1.421,0,0,0-.672-1.218V6.643a.439.439,0,1,0-.875,0V8.57a2.556,2.556,0,0,0-.582.181.425.425,0,0,0-.062.03c-.047.023-.094.047-.141.075V5.07a1.837,1.837,0,0,0-1.766-1.9H44.235a1.74,1.74,0,0,0-1.146.439l-.118.1a1.158,1.158,0,0,1-1.547,0l-.118-.1a1.74,1.74,0,0,0-1.146-.439H38.953a1.837,1.837,0,0,0-1.766,1.9V8.855c-.047-.027-.094-.052-.141-.075a.424.424,0,0,0-.062-.03A2.557,2.557,0,0,0,36.4,8.57V3.7A2.672,2.672,0,0,1,38.972.939h6.452A2.671,2.671,0,0,1,47.992,3.7v.738a.439.439,0,1,0,.875,0V3.7A3.581,3.581,0,0,0,45.424,0H38.972a3.581,3.581,0,0,0-3.443,3.7V8.36a1.421,1.421,0,0,0-.672,1.218v.714a1.349,1.349,0,0,0,1.3,1.393h.275a7.7,7.7,0,0,0,1.417,3.3c.1.131.2.265.313.4A4.233,4.233,0,0,0,35.4,19.093l-3.564,1.155a2.316,2.316,0,0,0-1.543,1.876L29.756,25.5a.467.467,0,0,0,.358.542.442.442,0,0,0,.5-.384l.537-3.373a1.4,1.4,0,0,1,.934-1.135l3.3-1.068v.929a2.234,2.234,0,0,0-1.663,1.479,2.533,2.533,0,0,0-.13.638l-.319,4.391a1.252,1.252,0,0,0,.292.9,1.081,1.081,0,0,0,.816.383h.545a.471.471,0,0,0,0-.939h-.545a.23.23,0,0,1-.174-.082.267.267,0,0,1-.062-.192l.319-4.391a1.533,1.533,0,0,1,.079-.386,1.328,1.328,0,0,1,1.238-.905h.082a1.309,1.309,0,0,1,1.221.841,1.529,1.529,0,0,1,.1.451l.319,4.391a.267.267,0,0,1-.062.192.23.23,0,0,1-.174.082h-.545a.471.471,0,0,0,0,.939h.545a1.081,1.081,0,0,0,.816-.383,1.252,1.252,0,0,0,.292-.9l-.319-4.391a2.524,2.524,0,0,0-.169-.744,2.2,2.2,0,0,0-1.63-1.375V19.8l1.5-.487c.137.309.408.978.945,2.419s1.214,3.318,1.859,5.13q.007.023.016.045c.431,1.21.848,2.395,1.205,3.417a.428.428,0,0,0,.819,0c.357-1.022.775-2.207,1.205-3.417.006-.015.011-.029.016-.045.645-1.811,1.317-3.674,1.858-5.127s.809-2.112.946-2.422l1.5.487V22.57a2.4,2.4,0,0,0-1.831,2.385,2.269,2.269,0,1,0,4.526,0,2.4,2.4,0,0,0-1.821-2.383V20.079l3.3,1.068a1.4,1.4,0,0,1,.934,1.135l1.321,8.307a.483.483,0,0,1-.1.379.417.417,0,0,1-.332.166H30.261a.417.417,0,0,1-.332-.166.484.484,0,0,1-.1-.379l.436-2.741a.467.467,0,0,0-.357-.542.442.442,0,0,0-.5.384l-.436,2.741a1.478,1.478,0,0,0,.29,1.143,1.272,1.272,0,0,0,1,.5H54.134a1.272,1.272,0,0,0,1-.5A1.478,1.478,0,0,0,55.424,30.431ZM48,9.527a1.755,1.755,0,0,1,.422-.061.422.422,0,0,0,.214-.054.473.473,0,0,1,.031.166v.714a.439.439,0,0,1-.422.453H48V9.527ZM36.4,10.745h-.245a.439.439,0,0,1-.422-.453V9.578a.474.474,0,0,1,.031-.166.421.421,0,0,0,.214.054,1.823,1.823,0,0,1,.422.061v1.217Zm.875.527V10.038a.572.572,0,0,0,.411-.023.66.66,0,0,0,.378-.609V5.07a.927.927,0,0,1,.891-.957H40.16a.9.9,0,0,1,.592.227l.118.1a1.987,1.987,0,0,0,2.654,0l.118-.1a.9.9,0,0,1,.592-.227h1.207a.927.927,0,0,1,.891.957V9.406a.66.66,0,0,0,.378.609.572.572,0,0,0,.411.023v1.233a6.321,6.321,0,0,1-1.26,3.135,6,6,0,0,1-1.048,1.115.443.443,0,0,0-.039.032,4.033,4.033,0,0,1-5.156,0,.447.447,0,0,0-.039-.032,6,6,0,0,1-1.048-1.115A6.321,6.321,0,0,1,37.272,11.272Zm7.791,7.588L42.2,21.16l-2.866-2.3a2.332,2.332,0,0,0,.443-1.33v-.757a4.827,4.827,0,0,0,4.844,0v.757A2.332,2.332,0,0,0,45.063,18.86ZM38.6,18.336a1.119,1.119,0,0,0-.738-.04l-.031.009-1.511.49A3.215,3.215,0,0,1,38.9,16.163V17.53A1.293,1.293,0,0,1,38.6,18.336Zm1.187,3.77,0-.007-.066-.178-.012-.032-.063-.171,0-.012-.187-.5-.013-.035-.051-.136-.018-.049-.049-.129-.014-.038-.085-.225-.023-.059-.032-.084-.034-.089-.013-.033-.01-.026q-.076-.2-.144-.373v0l-.071-.181-.035-.088,2.465,1.978-1.03.47-.005,0-.43.2Zm1.044,2.876-.261-.725q-.2-.567-.391-1.081l.163-.074.667.832ZM42.206,28.8a.475.475,0,0,0-.045-.079c-.2-.561-.449-1.271-.726-2.052l.408-2.4h.708l.408,2.4C42.669,27.487,42.408,28.226,42.206,28.8Zm.51-5.471H41.68l-.49-.612,1.008-.46,1.008.46Zm1.107.929-.261.725-.178-1.047.667-.832.163.074Q44.027,23.69,43.823,24.257ZM45.5,19.744l-.067.171-.009.023-.07.18,0,.013-.063.165-.012.031-.015.039-.029.076-.036.1-.012.031-.094.247-.015.04-.048.128L45,21.033l-.051.135-.014.039-.185.5-.006.017-.063.169-.012.032-.066.179v0l-.073.2-.43-.2,0,0-1.03-.47,2.465-1.978ZM46.562,18.3h0a1.118,1.118,0,0,0-.768.031,1.293,1.293,0,0,1-.3-.806V16.162a3.19,3.19,0,0,1,2.58,2.633Zm3.395,6.65a1.392,1.392,0,1,1-1.388-1.491A1.444,1.444,0,0,1,49.957,24.955Z" transform="translate(-28.952)"/></g></g></g></svg>