<svg xmlns="http://www.w3.org/2000/svg" width="72" height="64" viewBox="0 0 72 64"><defs><style>.a,.e{fill:none;}.a{stroke:#524456;}.b,.c{fill:#524456;}.b{font-size:12px;font-family:Poppins-Medium, Poppins;font-weight:500;}.d{stroke:none;}</style></defs><g transform="translate(-536 -274)"><g class="a" transform="translate(536 274)"><rect class="d" width="72" height="64" rx="4"/><rect class="e" x="0.5" y="0.5" width="71" height="63" rx="3.5"/></g><text class="b" transform="translate(544 329)"><tspan x="0" y="0">Employer</tspan></text><g transform="translate(477.554 284)"><g transform="translate(83.447)"><path class="c" d="M104.461,25.822a.467.467,0,0,0-.467.467v4.389a.258.258,0,0,1-.258.258h-2.509V21.742a.467.467,0,1,0-.934,0v9.193H95.24l1.465-1.612a.837.837,0,0,0,.2-.671l0-.014-1.4-8.245.376-.566a1.059,1.059,0,0,0,.668.29.817.817,0,0,0,.732-.452h0l1.472-2.95,3.353,1.3a3.235,3.235,0,0,1,1.883,2.94V24.11a.467.467,0,1,0,.934,0V20.952a4.166,4.166,0,0,0-2.464-3.8l-.009,0-5.581-2.161V13.673A4.374,4.374,0,0,0,98.529,10.8a2.021,2.021,0,0,0,1.187-.484,1.982,1.982,0,0,0,.207-2.8V5.786a5.786,5.786,0,1,0-11.571,0V7.56A1.874,1.874,0,0,0,87.87,8.81a1.978,1.978,0,0,0,.688,1.5,2.02,2.02,0,0,0,1.186.484,4.328,4.328,0,0,0,1.75,2.947v1.24L85.92,17.144l-.009,0a4.166,4.166,0,0,0-2.464,3.8v9.725a1.193,1.193,0,0,0,1.191,1.191h4.448a.467.467,0,1,0,0-.934h-1V21.742a.467.467,0,0,0-.934,0v9.193h-2.51a.258.258,0,0,1-.258-.258V20.952a3.235,3.235,0,0,1,1.882-2.94l3.351-1.3,1.472,2.95a.817.817,0,0,0,.732.453,1.058,1.058,0,0,0,.668-.29l.376.566-1.4,8.245,0,.014a.837.837,0,0,0,.2.672l1.465,1.612H91.265a.467.467,0,0,0,0,.934h12.472a1.193,1.193,0,0,0,1.191-1.191V26.288A.467.467,0,0,0,104.461,25.822Zm-6.578-9.447-1.372,2.751L94.86,17.953l1.7-2.092Zm-2.759,2.911-.356.536H93.6l-.356-.536.938-.666Zm-2.7-4.152v-.874a4.737,4.737,0,0,0,1.765.335,4.383,4.383,0,0,0,1.746-.364v.907L94.186,17.3ZM99.471,8.81a1.046,1.046,0,0,1-.363.794,1.087,1.087,0,0,1-.539.248V7.768A1.056,1.056,0,0,1,99.471,8.81ZM89.706,9.852a1.055,1.055,0,0,1-.9-1.042,1.109,1.109,0,0,1,.9-1.018Zm.025-3.012a2.308,2.308,0,0,0-.446.1V5.786a4.852,4.852,0,1,1,9.7,0V6.909a2.075,2.075,0,0,0-.421-.081c0-.45,0-.364-1.47-1.948a.831.831,0,0,0-1.06-.129A9,9,0,0,1,90.6,6.215.83.83,0,0,0,89.731,6.84Zm.909,3.379V7.154A9.976,9.976,0,0,0,96.475,5.58c.676.726,1.042,1.106,1.16,1.251v3.389a3.5,3.5,0,0,1-6.995,0Zm1.221,8.906-1.372-2.751,1.325-.513,1.7,2.093Zm.536,9.613,1.351-7.984h.876l1.351,7.984-1.789,1.968Z" transform="translate(-83.447)"/></g></g></g></svg>