<svg xmlns="http://www.w3.org/2000/svg" width="72" height="64" viewBox="0 0 72 64"><defs><style>.a{fill:#524456;stroke:#524456;}.b,.d{fill:#fff;}.b{font-size:12px;font-family:Poppins-Medium, Poppins;font-weight:500;}.c,.f{fill:none;}.c{stroke:#fff;}.e{stroke:none;}</style></defs><g transform="translate(-55 -645)"><g class="a" transform="translate(55 645)"><rect class="e" width="72" height="64" rx="4"/><rect class="f" x="0.5" y="0.5" width="71" height="63" rx="3.5"/></g><text class="b" transform="translate(77 700)"><tspan x="0" y="0">Staff</tspan></text><g transform="translate(67 647.208)"><g transform="translate(10.547 8)"><path class="c" d="M54.113,8A6.12,6.12,0,0,0,48,14.113v4.8l.149.149a3.96,3.96,0,0,0,2.82,1.168h1.314a3.56,3.56,0,0,1-1.736-3.057v-2.5a2.547,2.547,0,0,1,1.408-2.278l.63-.315A1.528,1.528,0,0,0,54.113,13.6h1.528a2.038,2.038,0,0,1,2.038,2.038V17.17a3.56,3.56,0,0,1-1.736,3.057h1.314a3.962,3.962,0,0,0,2.82-1.168l.149-.149v-4.8A6.12,6.12,0,0,0,54.113,8Z" transform="translate(-48 -8)"/></g><g transform="translate(24.811 16.724)"><path class="c" d="M279.364,145.013l-.037,0-3.048.1-.081.009a4.707,4.707,0,0,0-4.2,4.924,4.346,4.346,0,0,0,.389,1.794l.136.3h.062a1.522,1.522,0,0,1,1.452-1.075h.509v.036a2.547,2.547,0,0,1,1.408-2.268l.1-.048,0,0a2.381,2.381,0,0,0,1.7.932l2.527.21a1.521,1.521,0,0,1,1.349,1.157v-.022h.558a1.524,1.524,0,0,1,1.452,1.075h.062l.135-.3a4.344,4.344,0,0,0,.389-1.794c0-2.837-1.772-4.669-4.862-5.025Z" transform="translate(-272 -145.008)"/></g><g transform="translate(8 10.038)"><path class="d" d="M37.175,60.536a5.374,5.374,0,0,0-2.111-.835l-1.717-.286-.234-.7A4.084,4.084,0,0,0,34.865,56.3H35a2.038,2.038,0,1,0,0-4.075h-.213a2.014,2.014,0,0,0-1.653-1.133l-2.526-.211a1.883,1.883,0,0,1-1.337-.733l-.255-.34-.477.239A3.032,3.032,0,0,0,26.9,52.226h-.056a2.013,2.013,0,0,0-1.966,2.544,5.386,5.386,0,0,0-4.081-3.22l-1.717-.286-.234-.7a4.072,4.072,0,0,0,1.885-3.431V45.6a2.55,2.55,0,0,0-2.547-2.547H16.66a1.019,1.019,0,0,1,0-2.038V40a2.041,2.041,0,0,0-2.011,1.71l-.374.187a3.038,3.038,0,0,0-1.69,2.734v2.5a4.072,4.072,0,0,0,1.885,3.431l-.234.7-1.717.286A5.409,5.409,0,0,0,8,56.886V61.4H23.673a5.4,5.4,0,0,0-1.41,3.641v4.51h17.32v-4.51A5.4,5.4,0,0,0,37.175,60.536Zm-3.47-.029-.513,1.247-1.237-.5,1.138-.854Zm-4.951-.1,1.138.854-1.237.5-.513-1.247Zm3.607-.725-1.438,1.078L29.486,59.68l.175-.525a4.031,4.031,0,0,0,2.526,0Zm3.656-5.417A1.02,1.02,0,0,1,35,55.283V53.245A1.02,1.02,0,0,1,36.018,54.264Zm-8.151-1.482a2.025,2.025,0,0,1,.888-1.683,2.9,2.9,0,0,0,1.767.8l2.526.211a1.011,1.011,0,0,1,.932,1.015v2.16a3.057,3.057,0,1,1-6.113,0Zm-1.019.464v2.038a1.019,1.019,0,0,1,0-2.038Zm0,3.057h.134a4.083,4.083,0,0,0,1.751,2.412l-.234.7-1.717.286a5.383,5.383,0,0,0-1.463.471V56.885a5.411,5.411,0,0,0-.289-1.72A2.033,2.033,0,0,0,26.849,56.3Zm-7.406-3.944L18.929,53.6l-1.237-.5,1.138-.854ZM13.6,47.132v-2.5a2.027,2.027,0,0,1,1.126-1.823l.036-.018a2.042,2.042,0,0,0,1.894,1.286h1.528A1.53,1.53,0,0,1,19.717,45.6v1.528a3.057,3.057,0,0,1-6.113,0Zm3.057,4.075a4.066,4.066,0,0,0,1.263-.2l.175.525L16.66,52.608l-1.438-1.079L15.4,51A4.046,4.046,0,0,0,16.66,51.207Zm-2.169,1.048,1.138.854-1.237.5-.513-1.247ZM9.019,56.886a4.39,4.39,0,0,1,3.668-4.33l.16-.026.987,2.395L16.151,54v1.285H17.17V54l2.316.927.987-2.395.16.026a4.39,4.39,0,0,1,3.668,4.33v3.491H22.264V56.3H21.245v4.075h-9.17V56.3H11.057v4.075H9.019ZM38.565,68.527H36.527V64.452H35.509v4.075h-9.17V64.452H25.32v4.075H23.283V65.036a4.39,4.39,0,0,1,3.668-4.33l.16-.026.987,2.395,2.317-.927v1.285h1.019V62.148l2.316.927.987-2.395.16.026a4.39,4.39,0,0,1,3.668,4.33Z" transform="translate(-8 -40)"/><path class="d" d="M337.759,284.417l-.911.456.054.107a2.158,2.158,0,0,0,3.86,0l.053-.107-.911-.456-.053.108a1.139,1.139,0,0,1-2.038,0Z" transform="translate(-315.908 -268.852)"/><ellipse class="d" cx="0.5" cy="1" rx="0.5" ry="1" transform="translate(20.792 12.754)"/><ellipse class="d" cx="0.5" cy="1" rx="0.5" ry="1" transform="translate(23.792 12.754)"/><path class="d" d="M360,427.057h4.075V424H360Zm1.019-2.038h2.038v1.019h-2.038Z" transform="translate(-337.586 -399.548)"/><path class="d" d="M113.759,156.417l-.911.456.053.107a2.158,2.158,0,0,0,3.86,0l.053-.107-.911-.456-.053.108a1.139,1.139,0,0,1-2.038,0Z" transform="translate(-106.172 -149.003)"/><circle class="d" cx="0.5" cy="0.5" r="0.5" transform="translate(6.792 4.754)"/><circle class="d" cx="0.5" cy="0.5" r="0.5" transform="translate(9.792 4.754)"/><path class="d" d="M140.075,296H136v3.057h4.075Zm-1.019,2.038h-2.038v-1.019h2.038Z" transform="translate(-127.849 -279.699)"/></g></g></g></svg>