<svg xmlns="http://www.w3.org/2000/svg" width="88" height="88" viewBox="0 0 88 88"><defs><style>.a{fill:#32ba7c;}.b{fill:#0aa06e;}.c{fill:#fff;}</style></defs><circle class="a" cx="44" cy="44" r="44"/><path class="b" d="M188.8,189.476,211.425,212.1a43.971,43.971,0,0,0,32.618-42.473v-1.249L226.276,152Z" transform="translate(-156.043 -125.628)"/><g transform="translate(14.782 21.722)"><path class="c" d="M115.528,218.824a5.2,5.2,0,0,1,0,7.218l-4.025,4.025a5.2,5.2,0,0,1-7.218,0L86.657,212.3a5.2,5.2,0,0,1,0-7.218l4.025-4.025a5.2,5.2,0,0,1,7.218,0Z" transform="translate(-85.2 -186.691)"/><path class="c" d="M196.394,126.657a5.2,5.2,0,0,1,7.218,0l4.025,4.025a5.2,5.2,0,0,1,0,7.218L177.1,168.3a5.2,5.2,0,0,1-7.218,0l-4.025-4.025a5.2,5.2,0,0,1,0-7.218Z" transform="translate(-150.659 -125.2)"/></g></svg>