<svg xmlns="http://www.w3.org/2000/svg" width="30" height="30" viewBox="0 0 30 30"><defs><style>.a{fill:#fff;stroke:#524456;}.b{fill:#524456;}.c{stroke:none;}.d{fill:none;}</style></defs><g transform="translate(-582 -427)"><g class="a" transform="translate(582 427)"><circle class="c" cx="15" cy="15" r="15"/><circle class="d" cx="15" cy="15" r="14.5"/></g><g transform="translate(590.763 436)"><path class="b" d="M17.961,9.937,14.827,5.113A.25.25,0,0,0,14.617,5H8.392a.25.25,0,0,0-.209.113L5.048,9.937a.249.249,0,0,0,.072.34.238.238,0,0,0,.137.039H17.752A.243.243,0,0,0,18,10.077.249.249,0,0,0,17.961,9.937Z" transform="translate(-5.01 -5)"/><path class="b" d="M25.838,44.715H16.715a.247.247,0,0,0-.247.246V51.87a.247.247,0,0,0,.247.246h3.248V48.778a1.313,1.313,0,0,1,2.626,0v3.338h3.248a.247.247,0,0,0,.247-.246V44.961A.247.247,0,0,0,25.838,44.715Z" transform="translate(-14.782 -39.123)"/></g></g></svg>