<svg xmlns="http://www.w3.org/2000/svg" width="82" height="82" viewBox="0 0 82 82"><defs><style>.a{fill:#fff;stroke:#524456;}.b{fill:#524456;}.c{fill:#575757;}.d{stroke:none;}.e{fill:none;}</style></defs><g transform="translate(-512 -221)"><g transform="translate(512 221)"><g class="a"><circle class="d" cx="41" cy="41" r="41"/><circle class="e" cx="41" cy="41" r="40.5"/></g></g><g transform="translate(579.046 231.204)"><circle class="b" cx="1.786" cy="1.786" r="1.786" transform="translate(3.796 3.796)"/><path class="b" d="M5.908,2,4.886,3.117H3.117A1.12,1.12,0,0,0,2,4.233v6.7a1.12,1.12,0,0,0,1.117,1.117h8.932a1.12,1.12,0,0,0,1.117-1.117v-6.7a1.12,1.12,0,0,0-1.117-1.117h-1.77L9.257,2Zm1.675,8.374a2.791,2.791,0,1,1,2.791-2.791A2.792,2.792,0,0,1,7.583,10.374Z" transform="translate(-2 -2)"/></g><g transform="translate(527.229 246.771)"><path class="c" d="M19,0,38,30H0Z" transform="translate(-0.229 0.229)"/><path class="c" d="M16,0,32,22H0Z" transform="translate(20.771 8.229)"/></g></g></svg>