<svg xmlns="http://www.w3.org/2000/svg" width="8.285" height="8.285" viewBox="0 0 8.285 8.285"><defs><style>.a{fill:#524456;}</style></defs><path class="a" d="M4.142,0A4.142,4.142,0,1,0,8.285,4.142,4.142,4.142,0,0,0,4.142,0Zm-.1,6.448a.421.421,0,1,1,.421-.421A.421.421,0,0,1,4.038,6.448ZM4.76,4.427a.527.527,0,0,0-.371.506.351.351,0,1,1-.7,0,1.226,1.226,0,0,1,.865-1.177.528.528,0,0,0,.372-.506.782.782,0,0,0-1.563,0,.351.351,0,0,1-.7,0,1.484,1.484,0,0,1,2.967,0A1.227,1.227,0,0,1,4.76,4.427Z"/></svg>