<svg xmlns="http://www.w3.org/2000/svg" width="47.032" height="47.032" viewBox="0 0 47.032 47.032"><defs><style>.a{fill:none;}.b,.d{fill:#524456;}.c,.d{stroke:none;}</style></defs><g transform="translate(-343 -1526)"><g class="a" transform="translate(343 1526)"><path class="c" d="M23.516,0A23.516,23.516,0,1,1,0,23.516,23.516,23.516,0,0,1,23.516,0Z"/><path class="d" d="M 23.51611328125 1.000003814697266 C 20.47601318359375 1.000003814697266 17.52738380432129 1.595184326171875 14.75213241577148 2.769023895263672 C 12.07105255126953 3.903022766113281 9.662982940673828 5.526653289794922 7.594821929931641 7.594821929931641 C 5.526653289794922 9.662982940673828 3.903022766113281 12.07105255126953 2.769023895263672 14.75213241577148 C 1.595184326171875 17.52738380432129 1.000003814697266 20.47601318359375 1.000003814697266 23.51611328125 C 1.000003814697266 26.55621337890625 1.595184326171875 29.50484275817871 2.769023895263672 32.28009414672852 C 3.903022766113281 34.96117401123047 5.526653289794922 37.36924362182617 7.594821929931641 39.43740463256836 C 9.662982940673828 41.50557327270508 12.07105255126953 43.12920379638672 14.75213241577148 44.26320266723633 C 17.52738380432129 45.43704223632813 20.47601318359375 46.03222274780273 23.51611328125 46.03222274780273 C 26.55621337890625 46.03222274780273 29.50484275817871 45.43704223632813 32.28009414672852 44.26320266723633 C 34.96117401123047 43.12920379638672 37.36924362182617 41.50557327270508 39.43740463256836 39.43740463256836 C 41.50557327270508 37.36924362182617 43.12920379638672 34.96117401123047 44.26320266723633 32.28009414672852 C 45.43704223632813 29.50484275817871 46.03222274780273 26.55621337890625 46.03222274780273 23.51611328125 C 46.03222274780273 20.47601318359375 45.43704223632813 17.52738380432129 44.26320266723633 14.75213241577148 C 43.12920379638672 12.07105255126953 41.50557327270508 9.662982940673828 39.43740463256836 7.594821929931641 C 37.36924362182617 5.526653289794922 34.96117401123047 3.903022766113281 32.28009414672852 2.769023895263672 C 29.50484275817871 1.595184326171875 26.55621337890625 1.000003814697266 23.51611328125 1.000003814697266 M 23.51611328125 3.814697265625e-06 C 36.50370407104492 3.814697265625e-06 47.03222274780273 10.52852249145508 47.03222274780273 23.51611328125 C 47.03222274780273 36.50370407104492 36.50370407104492 47.03222274780273 23.51611328125 47.03222274780273 C 10.52852249145508 47.03222274780273 3.814697265625e-06 36.50370407104492 3.814697265625e-06 23.51611328125 C 3.814697265625e-06 10.52852249145508 10.52852249145508 3.814697265625e-06 23.51611328125 3.814697265625e-06 Z"/></g><g transform="translate(357.342 1537.066)"><path class="b" d="M58.638,36.6A5.7,5.7,0,0,0,54.6,38.264l.628.628a4.834,4.834,0,0,1,3.41-1.419,4.722,4.722,0,0,1,3.41,1.419l.628-.628A5.7,5.7,0,0,0,58.638,36.6Z" transform="translate(-44.26 -27.788)"/><path class="b" d="M58.7,43.828l.628.628a3.238,3.238,0,0,1,2.319-.955,3.131,3.131,0,0,1,2.292.955l.628-.628A4.127,4.127,0,0,0,61.619,42.6,4.065,4.065,0,0,0,58.7,43.828Z" transform="translate(-47.241 -32.151)"/><path class="b" d="M62.9,49.237l.628.628a1.63,1.63,0,0,1,2.292,0l.628-.628a2.5,2.5,0,0,0-1.773-.737A2.725,2.725,0,0,0,62.9,49.237Z" transform="translate(-50.295 -36.441)"/><path class="b" d="M31.078,17.778a1.065,1.065,0,0,0-1.064,1.064,1.082,1.082,0,0,0,.628.982v3.82a4.693,4.693,0,0,1-9.385,0V14.859a4.081,4.081,0,0,0,3.629-4.065V4.3h-.873a1.064,1.064,0,1,0,0,2.128v4.365a3.206,3.206,0,0,1-6.412,0V6.428a1.064,1.064,0,1,0,0-2.128h-.9v6.493a4.081,4.081,0,0,0,3.629,4.065v8.785a5.593,5.593,0,1,0,11.186,0v-3.82a1.071,1.071,0,0,0-.437-2.046Z" transform="translate(-16.7 -4.3)"/></g></g></svg>