<svg xmlns="http://www.w3.org/2000/svg" viewBox="0 0 25 25"><defs><style>.cls-1{fill:#fff;}</style></defs><title>appointment</title><g id="Layer_2" data-name="Layer 2"><g id="business_admin" data-name="business admin"><g id="Layer_6" data-name="Layer 6"><path class="cls-1" d="M12.5,0A12.5,12.5,0,1,0,25,12.5,12.5,12.5,0,0,0,12.5,0Zm0,23.86A11.36,11.36,0,1,1,23.86,12.5,11.38,11.38,0,0,1,12.5,23.86Z"/><rect class="cls-1" x="12" y="14" width="1" height="1"/><rect class="cls-1" x="12" y="16" width="1" height="1"/><rect class="cls-1" x="14" y="16" width="1" height="1"/><rect class="cls-1" x="10" y="14" width="1" height="1"/><path class="cls-1" d="M17.91,9H16V7.43a.5.5,0,1,0-1,0V9.57a1,1,0,0,1-1-1V8H10V6.43a.5.5,0,1,0-1,0v4.14a1,1,0,0,1-1-1V9H7a1,1,0,0,0-1,1V18a1,1,0,0,0,1,1H18a1,1,0,0,0,1-1V10a1,1,0,0,0-1.09-1ZM18,18H7V12H18Zm-.8-.27"/></g></g></g></svg>