<svg xmlns="http://www.w3.org/2000/svg" viewBox="0 0 25 25"><defs><style>.cls-1{fill:#fff;}.cls-2{fill:none;stroke:#fff;stroke-linecap:round;stroke-linejoin:round;}</style></defs><title>Asset 5@1x</title><g id="Layer_2" data-name="Layer 2"><g id="laptop"><g id="panel"><path class="cls-1" d="M12.5,0A12.5,12.5,0,1,0,25,12.5,12.5,12.5,0,0,0,12.5,0Zm0,23.86364A11.36364,11.36364,0,1,1,23.86369,12.50006,11.37644,11.37644,0,0,1,12.5,23.86364Z"/><path class="cls-2" d="M7.6875,8.56514h9.625a0,0,0,0,1,0,0v9.47394a1,1,0,0,1-1,1H8.6875a1,1,0,0,1-1-1V8.56514A0,0,0,0,1,7.6875,8.56514Z"/><line class="cls-2" x1="7.6875" y1="16.69014" x2="17.3125" y2="16.69014"/><path class="cls-2" d="M14.43548,10.25259V7.89741a1.93648,1.93648,0,1,0-3.873,0v2.35518"/><line class="cls-2" x1="9.81871" y1="10.25259" x2="11.31032" y2="10.25259"/><line class="cls-2" x1="13.68968" y1="10.25259" x2="15.18129" y2="10.25259"/></g></g></g></svg>