<svg xmlns="http://www.w3.org/2000/svg" viewBox="0 0 25 25"><defs><style>.cls-1{fill:#fff;}</style></defs><title>service</title><g id="Layer_2" data-name="Layer 2"><g id="business_admin" data-name="business admin"><g id="Layer_7" data-name="Layer 7"><path class="cls-1" d="M12.5,0A12.5,12.5,0,1,0,25,12.5,12.5,12.5,0,0,0,12.5,0Zm0,23.86A11.36,11.36,0,1,1,23.86,12.5,11.38,11.38,0,0,1,12.5,23.86Z"/><path class="cls-1" d="M10.43,14.58,13,13.27a1.19,1.19,0,0,0,.75-.34l2.41-2.41-1.7-1.7-2.41,2.41a1.19,1.19,0,0,0-.34.76Zm7.07-5.38a1.2,1.2,0,0,0-1.7-1.7l-.34.34,1.7,1.7Zm-.49,4V17H8V8h3.13s.66,0,.66-.5-.66-.5-.66-.5H7.69A.69.69,0,0,0,7,7.69v9.62a.69.69,0,0,0,.69.69h9.62a.68.68,0,0,0,.69-.69V13.19s0-.69-.5-.69S17,13.19,17,13.19Zm.31-.69"/></g></g></g></svg>