<svg xmlns="http://www.w3.org/2000/svg" width="25" height="25" viewBox="0 0 25 25"><defs><style>.a{fill:#333;}</style></defs><g transform="translate(-34 -335)"><g transform="translate(34 335)"><path class="a" d="M21,1.5A1.538,1.538,0,0,1,22.5,3V8.5H21A1.538,1.538,0,0,0,19.5,10v5a2.1,2.1,0,0,0,.4,1.1,1.5,1.5,0,0,0,1.1.4h1.5V22A1.538,1.538,0,0,1,21,23.5H3A1.538,1.538,0,0,1,1.5,22V3A1.538,1.538,0,0,1,3,1.5H21M21,0H3A2.946,2.946,0,0,0,0,3V22a2.946,2.946,0,0,0,3,3H21a2.946,2.946,0,0,0,3-3V15H21V10h3V3a2.946,2.946,0,0,0-3-3Z"/></g><g transform="translate(34 335)"><path class="a" d="M23.5,10v5H21V10.1h2.5M24,8.5H19.5v7.9H24a.945.945,0,0,0,1-1V9.5a1,1,0,0,0-1-1Z"/></g><g transform="translate(34 335)"><path class="a" d="M15,10v4.9h-.8a2.528,2.528,0,0,1-2.6-2.2,2.564,2.564,0,0,1,.6-1.9A2.5,2.5,0,0,1,14,10h1m1.5-1.5H14a3.944,3.944,0,0,0-3.9,4.3,4.107,4.107,0,0,0,4.1,3.6h2.3V8.5Z"/></g><g transform="translate(34 335)"><path class="a" d="M19.5,9v7h-3V9h3M20,7.5H16a.945.945,0,0,0-1,1v8a.945.945,0,0,0,1,1h4a.945.945,0,0,0,1-1v-8a.945.945,0,0,0-1-1Z"/></g></g></svg>